<svg preserveAspectRatio="none" width="100%" height="100%" overflow="visible" style="display: block;" viewBox="0 0 140.941 32.29" fill="none" xmlns="http://www.w3.org/2000/svg">
<g id="Group">
<path id="Vector" d="M46.22 24.26H46.21C46.1 25.1 45.74 25.79 45.13 26.33C44.52 26.86 43.78 27.13 42.91 27.13C42.13 27.13 41.53 26.87 41.11 26.36C40.69 25.85 40.53 25.17 40.64 24.32L42.01 14.87H36.64L35.1 25.95C34.9 27.22 34.99 28.33 35.37 29.29C35.75 30.25 36.37 30.99 37.24 31.51C38.11 32.03 39.15 32.29 40.38 32.29C42.16 32.29 43.75 31.66 45.14 30.4C45.23 30.32 45.31 30.23 45.4 30.14L45.15 31.88H50.49L52.89 14.85H47.55L46.23 24.23L46.22 24.26Z" fill="var(--fill-0, #FFFFFF)"/>
<path id="Vector_2" d="M69.87 15.26C68.98 14.74 67.9 14.48 66.63 14.48C65.36 14.48 64.26 14.75 63.19 15.3C62.54 15.63 61.94 16.08 61.38 16.6L61.62 14.88H56.28L53.88 31.91H59.22L60.52 22.73C60.63 21.82 61.02 21.08 61.67 20.51C62.33 19.94 63.12 19.66 64.06 19.66C64.64 19.66 65.13 19.78 65.53 20.03C65.93 20.28 66.21 20.63 66.38 21.08C66.55 21.54 66.6 22.06 66.53 22.67L65.19 31.92H70.56L72.1 20.87C72.28 19.6 72.17 18.48 71.78 17.52C71.39 16.55 70.75 15.81 69.86 15.28L69.87 15.26Z" fill="var(--fill-0, #FFFFFF)"/>
<path id="Vector_3" d="M96.84 14.48C94.97 14.48 93.32 15.08 91.9 16.27C91.54 16.57 91.21 16.9 90.89 17.26C90.72 16.88 90.5 16.52 90.23 16.2C89.27 15.05 87.87 14.48 86.02 14.48C84.17 14.48 82.69 15.1 81.31 16.35C81.23 16.42 81.15 16.51 81.07 16.59L81.31 14.89H75.97L73.57 31.92H78.91L80.24 22.47C80.35 21.65 80.71 20.97 81.31 20.45C81.91 19.93 82.63 19.67 83.48 19.67C84.26 19.67 84.85 19.92 85.25 20.42C85.65 20.92 85.81 21.58 85.72 22.41L84.35 31.92H89.69L91.02 22.44C91.13 21.62 91.49 20.95 92.09 20.44C92.69 19.93 93.41 19.67 94.26 19.67C95.04 19.67 95.63 19.92 96.05 20.42C96.47 20.92 96.61 21.58 96.5 22.41L95.13 31.92H100.5L102.04 20.77C102.33 18.88 101.99 17.36 101.02 16.21C100.05 15.06 98.65 14.49 96.83 14.49L96.84 14.48Z" fill="var(--fill-0, #FFFFFF)"/>
<path id="Vector_4" d="M112.04 7.42999C111.49 6.80999 110.75 6.5 109.82 6.5C108.89 6.5 108.03 6.80999 107.33 7.42999C106.63 8.04999 106.21 8.81998 106.08 9.72998C105.95 10.66 106.15 11.44 106.68 12.07C107.21 12.69 107.96 13 108.92 13C109.88 13 110.67 12.69 111.37 12.07C112.07 11.45 112.49 10.67 112.62 9.72998C112.78 8.81998 112.58 8.04999 112.04 7.42999Z" fill="var(--fill-0, #FFFFFF)"/>
<path id="Vector_5" d="M103.57 31.9H108.92L111.32 14.88H105.98L103.57 31.9Z" fill="var(--fill-0, #FFFFFF)"/>
<path id="Vector_6" d="M115.68 7.87L112.31 31.9H120.29L120.99 27.03H118.35L121.02 7.87H115.68Z" fill="var(--fill-0, #FFFFFF)"/>
<path id="Vector_7" d="M140.31 18.88C139.72 17.5 138.77 16.42 137.47 15.64C136.17 14.86 134.66 14.47 132.95 14.47C131.24 14.47 129.62 14.86 128.09 15.64C126.57 16.42 125.3 17.49 124.3 18.84C123.3 20.2 122.69 21.71 122.46 23.38C122.24 25.05 122.43 26.56 123.04 27.92C123.65 29.28 124.6 30.35 125.89 31.12C127.18 31.89 128.68 32.29 130.4 32.29C132.51 32.29 134.45 31.74 136.21 30.64C137.97 29.54 139.28 28.1 140.15 26.32H134.47C134.18 26.7 133.73 27.03 133.12 27.3C132.51 27.58 131.87 27.72 131.2 27.72C130.44 27.72 129.8 27.54 129.28 27.17C128.76 26.8 128.38 26.3 128.15 25.65C128.08 25.45 128.03 25.24 127.99 25.02H140.52C140.63 24.73 140.74 24.22 140.85 23.48C141.07 21.79 140.89 20.25 140.3 18.87L140.31 18.88ZM130.31 19.6C130.93 19.23 131.59 19.05 132.28 19.05C132.97 19.05 133.57 19.22 134.08 19.57C134.59 19.92 134.96 20.39 135.2 21.01C135.28 21.22 135.34 21.46 135.38 21.69H128.46C128.55 21.5 128.65 21.32 128.76 21.14C129.17 20.48 129.69 19.97 130.31 19.6Z" fill="var(--fill-0, #FFFFFF)"/>
<path id="Vector_8" d="M29.18 26.68C28.75 26.35 28.25 25.87 27.67 25.31C27.04 24.7 26.27 23.96 25.37 23.2L25.47 23.17C29.16 22.01 31.58 19.45 32.09 16.15C32.4 14.15 31.93 12.36 30.73 10.98C29.04 9.02998 25.97 7.97999 22.09 8.01999C14.84 8.08999 9.86998 12 9.09998 18.22C8.96998 19.31 9.00999 20.29 9.23999 21.12L9.31 21.36L14.12 19.99L14.07 19.76C13.99 19.36 13.98 18.83 14.05 18.24C14.36 15.69 15.7 13.85 17.92 12.9L15.17 22.56C15.17 22.56 14.78 24.47 13.18 25.32C10.99 26.48 7.2 25.84 3.53 23.69L3.34998 23.59L0 27.32L0.279999 27.47C4.44 29.69 8.29998 30.66 11.76 30.37C16.64 29.96 18.66 26.44 19.36 24.73C19.94 24.98 21.76 26.69 24.24 29.12C25.97 30.81 27.58 31.55 29.04 31.71C29.34 31.75 29.66 31.78 30.01 31.78H33.25L33.92 27.17H30.28C29.79 27.17 29.31 26.78 29.16 26.67L29.18 26.68ZM21.73 19.94L20.78 19.91L22.95 12.25C24.76 12.43 26.07 12.97 26.76 13.84C27.21 14.41 27.37 15.11 27.25 15.92C26.88 18.36 24.71 19.94 21.74 19.94H21.73Z" fill="var(--fill-0, #FFFFFF)"/>
<path id="Vector_9" d="M23.23 6.5C24.16 6.5 24.98 6.18998 25.68 5.56998C26.38 4.94998 26.8 4.16998 26.93 3.22998C27.09 2.31998 26.89 1.54999 26.35 0.929993C25.8 0.309993 25.06 0 24.13 0C23.2 0 22.34 0.309993 21.64 0.929993C20.94 1.54999 20.52 2.31998 20.39 3.22998C20.26 4.15998 20.46 4.93998 20.99 5.56998C21.52 6.18998 22.27 6.5 23.23 6.5Z" fill="var(--fill-0, #FFFFFF)"/>
</g>
</svg>
