<?xml version="1.0" encoding="utf-8" ?><svg xmlns="http://www.w3.org/2000/svg" xmlns:xlink="http://www.w3.org/1999/xlink" viewBox="40 30 940 940"><path fill="currentColor" d="M404.652 131.199C405.185 131.192 405.718 131.185 406.252 131.177C422.705 131.169 438.435 137.939 449.741 149.893C469.149 170.318 468.935 190.059 468.951 215.939C469.007 228.604 468.862 241.27 468.517 253.931C475.129 248.14 484.508 238.369 490.95 232.018L537.294 186.166C552.7 171.058 562.822 157.341 585.852 154.432C602.998 152.267 619.662 155.95 633.458 166.516C647.027 176.875 655.893 192.226 658.086 209.155C660.561 229.561 654.748 247.89 639.88 262.41C623.436 278.47 607.117 295.053 590.782 311.222L526.481 375.217C519.918 381.858 513.293 388.436 506.607 394.951C501.313 400.051 493.824 406.609 489.426 412.417C508.801 416.083 530.073 419.195 549.731 422.616L641.777 439.017L684.518 446.54C694.099 448.206 702.506 448.847 711.845 451.981C723.512 456.022 734.125 462.625 742.904 471.307C767.531 495.988 766.603 518.979 766.664 550.921L766.591 603.437L766.663 774.632C766.669 800.084 762.165 819.618 743.377 838.314C716.703 864.858 687.691 861.021 653.75 860.926L483.177 860.891L440.513 860.916C429.349 860.922 417.708 861.511 406.791 859.4C370.862 852.452 344.807 822.648 344.751 785.691C344.735 774.831 344.621 763.646 344.416 752.79C343.287 751.733 342.167 750.666 341.057 749.59C325.01 734.031 308.64 716.919 292.82 700.989L212.86 621.114L170.911 579.219C165.04 573.354 151.593 561.072 147.552 554.596C131.093 528.213 135.528 490.766 157.594 468.637C169.421 456.767 185.495 450.104 202.251 450.127C216.627 450.173 231.942 455.634 241.98 466.002C245.708 469.852 249.47 473.681 253.271 477.458L287.69 512.342C305.303 530.354 324.069 548.166 341.883 566.146C342.948 543.205 342.318 517.617 342.556 494.451L343.378 275.069L343.598 219.392C343.623 211.636 343.739 203.892 343.816 196.143C344.16 161.456 369.738 133.81 404.652 131.199Z"/><path fill="currentColor" d="M792.086 152.946C845.037 148.097 891.835 187.232 896.432 240.206C901.03 293.179 861.674 339.791 808.679 344.138C756.038 348.455 709.805 309.419 705.238 256.799C700.672 204.179 739.488 157.762 792.086 152.946Z"/></svg>
