<svg width="24" height="24" viewBox="0 0 24 24" fill="none" xmlns="http://www.w3.org/2000/svg">
<path d="M20.8732 6.00343C20.4532 5.77714 19.5722 5.54057 18.3737 6.384L16.8678 7.45371C16.7551 4.25486 15.3722 3 12.0122 3H5.86585C2.36244 3 1 4.368 1 7.88571V16.1143C1 18.48 2.28049 21 5.86585 21H12.0122C15.3722 21 16.7551 19.7451 16.8678 16.5463L18.3737 17.616C19.0088 18.0686 19.562 18.2126 20.0024 18.2126C20.3815 18.2126 20.6785 18.0994 20.8732 17.9966C21.2932 17.7806 22 17.1943 22 15.7234V8.27657C22 6.80571 21.2932 6.21943 20.8732 6.00343ZM10.4756 11.3623C9.42049 11.3623 8.54976 10.4983 8.54976 9.42857C8.54976 8.35886 9.42049 7.49486 10.4756 7.49486C11.5307 7.49486 12.4015 8.35886 12.4015 9.42857C12.4015 10.4983 11.5307 11.3623 10.4756 11.3623Z" fill="currentColor"/>
</svg>
