<svg width="24" height="24" viewBox="0 0 24 24" fill="none" xmlns="http://www.w3.org/2000/svg">
  <g transform="translate(2, 4)">
    <path d="M17 4.66045e-09C17.7652 -4.26217e-05 18.5015 0.292325 19.0583 0.817284C19.615 1.34224 19.9501 2.06011 19.995 2.824L20 3V4.817C19.9977 5.08708 19.925 5.35189 19.7888 5.58518C19.6527 5.81847 19.458 6.01214 19.224 6.147L19.117 6.205C18.7935 6.3638 18.5189 6.60707 18.3222 6.9091C18.1256 7.21112 18.0142 7.56067 17.9998 7.92079C17.9855 8.28091 18.0687 8.63821 18.2407 8.95492C18.4127 9.27163 18.6671 9.53597 18.977 9.72L19.117 9.795C19.55 10.009 19.937 10.451 19.993 11.035L20 11.183V13C20 13.7652 19.7077 14.5015 19.1827 15.0583C18.6578 15.615 17.9399 15.9501 17.176 15.995L17 16H3C2.23479 16 1.49849 15.7077 0.941739 15.1827C0.384993 14.6578 0.0498925 13.9399 0.00500012 13.176L4.66045e-09 13V11.183C4.66045e-09 10.577 0.352 10.105 0.776 9.853L0.883 9.795C1.20653 9.6362 1.48114 9.39293 1.67779 9.0909C1.87445 8.78888 1.98583 8.43933 2.00017 8.07921C2.01452 7.71909 1.93129 7.36179 1.75928 7.04508C1.58727 6.72837 1.33288 6.46403 1.023 6.28L0.883 6.205C0.45 5.991 0.063 5.549 0.00699997 4.965L4.66045e-09 4.818V3C-4.26217e-05 2.23479 0.292325 1.49849 0.817284 0.941739C1.34224 0.384993 2.06011 0.0498925 2.824 0.00500012L3 4.66045e-09H17ZM8 5C7.73478 5 7.48043 5.10536 7.29289 5.29289C7.10536 5.48043 7 5.73478 7 6V10C7 10.2652 7.10536 10.5196 7.29289 10.7071C7.48043 10.8946 7.73478 11 8 11C8.26522 11 8.51957 10.8946 8.70711 10.7071C8.89464 10.5196 9 10.2652 9 10V6C9 5.73478 8.89464 5.48043 8.70711 5.29289C8.51957 5.10536 8.26522 5 8 5Z" fill="currentColor"/>
  </g>
</svg>
