<svg width="24" height="24" viewBox="0 0 24 24" fill="none" xmlns="http://www.w3.org/2000/svg">
<g id="icon/bottomnavi/comunity/off">
<path id="Combined-Shape" fill-rule="evenodd" clip-rule="evenodd" d="M16.736 3.2C19.426 3.2 21.607 5.38 21.607 8.07V13.664C21.607 16.354 19.426 18.535 16.736 18.535H13.685L13.4716 18.9052L12.5256 20.5432C12.3246 20.8912 11.8216 20.8912 11.6206 20.5432L10.6746 18.9052L10.46 18.535H7.27C4.58 18.535 2.4 16.354 2.4 13.664V8.07C2.4 5.38 4.58 3.2 7.27 3.2H16.736ZM14.6596 11.8494H9.4376C9.02339 11.8494 8.6876 12.1852 8.6876 12.5994C8.6876 13.0136 9.02339 13.3494 9.4376 13.3494H14.6596C15.0738 13.3494 15.4096 13.0136 15.4096 12.5994C15.4096 12.1852 15.0738 11.8494 14.6596 11.8494ZM15.7488 8.6709H8.3478C7.93359 8.6709 7.5978 9.00669 7.5978 9.4209C7.5978 9.83511 7.93359 10.1709 8.3478 10.1709H15.7488C16.163 10.1709 16.4988 9.83511 16.4988 9.4209C16.4988 9.00669 16.163 8.6709 15.7488 8.6709Z" fill="currentColor"/>
</g>
</svg>
