<svg width="24" height="24" viewBox="0 0 24 24" fill="none" xmlns="http://www.w3.org/2000/svg">
<g transform="scale(1.2 1.2)">
<path fill-rule="evenodd" clip-rule="evenodd" d="M12.4995 16.9229C12.4995 18.0931 11.3802 19.042 9.99954 19.042C8.61906 19.0418 7.4996 18.0929 7.49954 16.9229H12.4995ZM9.99954 1.66699C13.739 1.66699 16.771 4.69807 16.771 8.4375V10.9502C16.771 11.5413 16.8758 12.1281 17.0806 12.6826L17.8365 14.7285C18.0776 15.3815 17.5941 16.0752 16.898 16.0752H3.10208C2.406 16.0752 1.92247 15.3815 2.1636 14.7285L2.91946 12.6826C3.12425 12.1281 3.22903 11.5413 3.22903 10.9502V8.4375C3.22903 4.69821 6.2603 1.66721 9.99954 1.66699Z" fill="currentColor"/>
</g>
</svg>
