<svg width="24" height="24" viewBox="0 0 24 24" fill="none" xmlns="http://www.w3.org/2000/svg">
<g transform="scale(0.857143 0.857143)">
<path fill-rule="evenodd" clip-rule="evenodd" d="M14.0847 2.04199C16.5008 2.0421 18.4597 4.00083 18.4597 6.41699H19.0827L19.4108 6.43164C21.0342 6.58328 22.3588 7.84841 22.5583 9.49609L24.111 22.3301C24.355 24.3493 22.8348 26.1346 20.8307 26.2441L20.6354 26.25H7.41668C5.35912 26.2497 3.74552 24.4828 3.93133 22.4336L5.09539 9.59961C5.24909 7.90964 6.58763 6.59091 8.24578 6.43262L8.58172 6.41699H9.70965C9.70965 4.00085 11.6685 2.04215 14.0847 2.04199ZM8.58172 8.16699C7.6766 8.16701 6.92046 8.8574 6.83856 9.75879L5.67449 22.5918C5.58159 23.6163 6.38801 24.4997 7.41668 24.5H20.6354C21.6852 24.4999 22.4998 23.5812 22.3737 22.5391L20.82 9.70605C20.7135 8.82762 19.9676 8.16713 19.0827 8.16699H18.4597V9.91699C18.4595 10.4 18.0677 10.7919 17.5847 10.792C17.1016 10.7918 16.7098 10.4 16.7097 9.91699V8.16699H11.4597V9.91699C11.4595 10.4 11.0677 10.7919 10.5847 10.792C10.1016 10.7918 9.70983 10.4 9.70965 9.91699V8.16699H8.58172ZM14.0847 3.79199C12.635 3.79215 11.4597 4.96735 11.4597 6.41699H16.7097C16.7097 4.96732 15.5343 3.7921 14.0847 3.79199Z" fill="currentColor"/>
</g>
</svg>
