<svg width="24" height="24" viewBox="0 0 24 24" fill="none" xmlns="http://www.w3.org/2000/svg">
<g transform="scale(0.857143 0.857143)">
<path d="M15.75 2.625C17.5218 2.625 18.9578 4.06124 18.958 5.83301V6.41699C18.9578 6.90009 18.5661 7.29199 18.083 7.29199C17.6 7.29182 17.2082 6.89998 17.208 6.41699V5.83301C17.2078 5.02774 16.5553 4.375 15.75 4.375H7.58301C6.77785 4.37518 6.12518 5.02785 6.125 5.83301V22.167C6.12518 22.9721 6.77785 23.6248 7.58301 23.625H15.75C16.5553 23.625 17.2078 22.9723 17.208 22.167V21.583C17.2082 21.1 17.6 20.7082 18.083 20.708C18.5661 20.708 18.9578 21.0999 18.958 21.583V22.167C18.9578 23.9388 17.5218 25.375 15.75 25.375H7.58301C5.81135 25.3748 4.37518 23.9386 4.375 22.167V5.83301C4.37518 4.06135 5.81135 2.62518 7.58301 2.625H15.75ZM13.9639 9.88281C14.3047 9.54068 14.8587 9.5392 15.2012 9.87988C15.5433 10.2207 15.5436 10.7747 15.2031 11.1172L13.2061 13.125H22.75C23.2332 13.125 23.625 13.5168 23.625 14C23.625 14.4832 23.2332 14.875 22.75 14.875H13.1875L15.2012 16.8799C15.5433 17.2207 15.5436 17.7747 15.2031 18.1172C14.8623 18.4593 14.3083 18.4606 13.9658 18.1201L10.4658 14.6377C10.3017 14.4741 10.2087 14.2522 10.208 14.0205V14C10.208 13.7061 10.353 13.4458 10.5752 13.2871L13.9639 9.88281Z" fill="currentColor"/>
</g>
</svg>
