<svg width="24" height="24" viewBox="0 0 24 24" fill="none" xmlns="http://www.w3.org/2000/svg">
<path d="M9.24512 3.10056C10.7889 1.63421 13.2111 1.63421 14.7549 3.10056L21.0664 9.09665C21.6625 9.66299 22 10.4492 22 11.2715V18.9834C22 20.6402 20.6569 21.9834 19 21.9834H16V16.9834C15.9998 14.7744 14.209 12.9834 12 12.9834C9.79097 12.9834 8.00018 14.7744 8 16.9834V21.9834H5C3.34315 21.9834 2 20.6402 2 18.9834V11.2715C2.00005 10.4492 2.3375 9.66299 2.93359 9.09665L9.24512 3.10056ZM12.1494 14.9892C13.1841 15.0657 13.9998 15.9292 14 16.9834V21.9834H10V16.9834C10.0002 14.879 10.8955 13.9834 12 13.9834L12.1494 14.9892Z" fill="currentColor"/>
</svg>
