<svg width="24" height="24" viewBox="0 0 24 24" fill="none" xmlns="http://www.w3.org/2000/svg">
  <g transform="translate(2,2)">
    <path opacity="0.4" d="M10 0C15.5228 0 20 4.47715 20 10C20 15.5228 15.5228 20 10 20C4.47715 20 0 15.5228 0 10C0 4.47715 4.47715 0 10 0Z" fill="currentColor"/>
    <path d="M13.0578 5.558C13.3019 5.31393 13.6985 5.31393 13.9426 5.558C14.1863 5.80211 14.1865 6.19882 13.9426 6.44277L10.635 9.75039L13.9426 13.058C14.1863 13.3021 14.1865 13.6988 13.9426 13.9428C13.6986 14.1867 13.3019 14.1865 13.0578 13.9428L9.7502 10.6352L6.44259 13.9428C6.19864 14.1867 5.80193 14.1865 5.55782 13.9428C5.31374 13.6987 5.31374 13.3021 5.55782 13.058L8.86544 9.75039L5.55782 6.44277C5.31374 6.19869 5.31374 5.80208 5.55782 5.558C5.8019 5.31393 6.19851 5.31393 6.44259 5.558L9.7502 8.86562L13.0578 5.558Z" fill="white"/>
  </g>
</svg>
