<svg width="24" height="24" viewBox="0 0 24 24" fill="none" xmlns="http://www.w3.org/2000/svg">
<path d="M14.9756 3.16848C16.2565 2.85677 17.602 2.9418 18.833 3.4136C20.0639 3.88542 21.1218 4.72117 21.8662 5.80911C22.6098 6.89602 23.0054 8.18366 23 9.50051L22.9961 9.74759C22.9076 12.3004 21.4665 14.6483 19.9072 16.2075C19.1172 16.9976 17.7059 18.1891 16.501 19.1792C15.8918 19.6798 15.3238 20.1379 14.8965 20.481C14.6829 20.6525 14.5039 20.7962 14.373 20.9009C14.3074 20.9535 14.2543 20.9961 14.2148 21.0279C14.1954 21.0435 14.1796 21.0555 14.168 21.065C14.1562 21.0745 14.1514 21.0786 14.1514 21.0786C14.056 21.1589 13.6709 21.5333 13.251 21.7261C12.8642 21.9036 12.4441 21.9968 12.0186 21.9995C11.593 22.0022 11.1712 21.9144 10.7822 21.7417C10.5428 21.6354 10.3583 21.5015 10.2188 21.3902C10.1516 21.3366 10.0858 21.2807 10.0352 21.2378C9.98059 21.1917 9.93558 21.1539 9.88965 21.1177C9.66491 20.9407 5.64477 17.7595 4.09277 16.2075C2.53405 14.6488 1.09245 12.3104 1.00391 9.74856L1 9.50051C1.00002 8.18541 1.39937 6.90054 2.14453 5.81692C2.88969 4.73346 3.94596 3.90181 5.17383 3.43118C6.40185 2.96051 7.74391 2.8732 9.02246 3.18118C10.1436 3.4513 11.1697 4.01403 11.998 4.80813C12.8248 4.00861 13.8525 3.44187 14.9756 3.16848ZM10.3242 8.22415C9.80554 8.23507 9.45139 8.5353 9.25293 8.74466C9.05171 8.95702 8.84758 9.25327 8.66016 9.52102L8.65918 9.522L8.37598 9.92727C8.14652 10.2542 8.01174 10.4454 7.89746 10.5806C7.79607 10.7005 7.75635 10.7188 7.74805 10.7232C7.73756 10.7286 7.69678 10.7487 7.54883 10.7622C7.37274 10.7784 7.13848 10.7798 6.73828 10.7798H6C5.44772 10.7798 5 11.2275 5 11.7798C5.00018 12.3319 5.44783 12.7798 6 12.7798H6.73828C7.10264 12.7798 7.4425 12.7808 7.73047 12.7544C8.03878 12.7262 8.35679 12.6624 8.6748 12.4966L8.67578 12.4956C8.99227 12.33 9.22561 12.1072 9.4248 11.8716C9.61094 11.6514 9.80516 11.3723 10.0146 11.0738L10.0156 11.0728L10.2979 10.6695L11.9844 13.7368C12.1547 14.0465 12.3362 14.3802 12.5215 14.6236C12.7115 14.8732 13.0826 15.2662 13.6924 15.2769C14.3004 15.2874 14.6854 14.9101 14.8848 14.6675C15.0787 14.4316 15.2715 14.1049 15.4531 13.8023L15.458 13.7945L15.4619 13.7876L15.4834 13.7505C15.7069 13.3783 15.839 13.1606 15.9531 13.0064C16.0539 12.8703 16.0945 12.8492 16.1016 12.8452L16.1035 12.8443C16.1123 12.8392 16.153 12.8155 16.3193 12.7993C16.5103 12.7808 16.7652 12.7798 17.1992 12.7798H18C18.5522 12.7798 18.9998 12.3319 19 11.7798C19 11.2275 18.5523 10.7798 18 10.7798H17.1992C16.8034 10.7798 16.435 10.7789 16.125 10.8091C15.7942 10.8413 15.4545 10.9144 15.1191 11.104C14.7822 11.2941 14.5436 11.5486 14.3457 11.8159C14.1607 12.0659 13.9719 12.3826 13.7686 12.7212L13.7646 12.7281L13.7598 12.7359L13.7373 12.773L12.0498 9.70559C11.8929 9.41974 11.7225 9.10341 11.5459 8.87063C11.3709 8.64013 11.0506 8.30266 10.5352 8.23587L10.4297 8.2261L10.3242 8.22415Z" fill="currentColor"/>
</svg>
