<svg width="24" height="24" viewBox="0 0 24 24" fill="none" xmlns="http://www.w3.org/2000/svg">
  <g transform="translate(2.85, 1.42)">
    <path d="M9.15331 0.833313C9.63719 0.833313 10.1131 0.88578 10.576 0.985288C10.3106 1.58484 10.1607 2.24578 10.1526 2.9408C9.82662 2.87033 9.49205 2.83331 9.15331 2.83331C6.28224 2.83331 3.70958 5.49272 3.7072 8.4972V13.1417C3.7072 13.4261 3.58608 13.6971 3.37416 13.8868L2.09071 15.0357C1.99278 15.1236 1.97219 15.2615 2.03546 15.3651C2.11165 15.4881 2.25486 15.5667 2.41637 15.5667H15.8874C16.0476 15.5667 16.1934 15.4866 16.2663 15.3684C16.3321 15.2613 16.3117 15.1237 16.2143 15.0368L14.9296 13.8868C14.7177 13.6971 14.5966 13.4261 14.5966 13.1417V8.4972C14.5966 8.31854 14.5875 8.1411 14.5698 7.96536C14.7608 7.98859 14.9552 8 15.1523 8C15.6421 8 16.1154 7.92957 16.5627 7.7983C16.5852 8.02877 16.5966 8.26212 16.5966 8.4972L16.596 12.6943L17.5472 13.5457C18.3196 14.2351 18.5216 15.3496 18.0583 16.2586L17.9696 16.4167C17.5286 17.1315 16.7362 17.5667 15.8874 17.5667H2.41637C1.56726 17.5667 0.778604 17.1342 0.331944 16.413C-0.238306 15.4795 -0.058937 14.2781 0.755529 13.5466L1.70696 12.6943L1.7072 8.49641C1.71038 4.48237 5.02875 0.973467 8.91922 0.837406L9.15331 0.833313Z" fill="currentColor"/>
    <path fill-rule="evenodd" clip-rule="evenodd" d="M12.7194 16.6389C12.7194 18.5889 11.1241 20.1667 9.15606 20.1667C7.18806 20.1667 5.59277 18.5861 5.59277 16.6389H12.7222H12.7194Z" stroke="currentColor" stroke-width="2" stroke-linecap="round" stroke-linejoin="round"/>
    <circle cx="15.1523" cy="3" r="3" fill="#F13F00"/>
  </g>
</svg>
