<svg width="24" height="24" viewBox="0 0 24 24" fill="none" xmlns="http://www.w3.org/2000/svg">
  <g clip-path="url(#subway-clip)">
    <path fill-rule="evenodd" clip-rule="evenodd" d="M3.27295 3.7848C3.27295 2.95839 3.74206 2.20734 4.52489 1.94252C5.94904 1.46076 8.53412 0.8 12.0002 0.8C15.4663 0.8 18.0514 1.46076 19.4756 1.94252C20.2584 2.20734 20.7275 2.95839 20.7275 3.7848V13.3455H20.7273V18.2494C20.7273 19.156 20.0736 19.8909 19.2673 19.8909H4.73266C3.92636 19.8909 3.27273 19.156 3.27273 18.2494V12.8052L3.27295 12.7763V3.7848ZM8.37707 15.3988C8.37707 16.2657 7.67431 16.9685 6.80741 16.9685C5.94051 16.9685 5.23775 16.2657 5.23775 15.3988C5.23775 14.5319 5.94051 13.8291 6.80741 13.8291C7.67431 13.8291 8.37707 14.5319 8.37707 15.3988ZM17.1924 16.9685C18.0593 16.9685 18.762 16.2657 18.762 15.3988C18.762 14.5319 18.0593 13.8291 17.1924 13.8291C16.3255 13.8291 15.6227 14.5319 15.6227 15.3988C15.6227 16.2657 16.3255 16.9685 17.1924 16.9685ZM6.54545 4.6182C5.94296 4.6182 5.45455 5.10661 5.45455 5.7091V10.0727C5.45455 10.6752 5.94296 11.1637 6.54545 11.1637H17.4545C18.057 11.1637 18.5455 10.6752 18.5455 10.0727V5.7091C18.5455 5.10661 18.057 4.6182 17.4545 4.6182H6.54545Z" fill="currentColor"/>
    <path d="M3.65886 22.5375C3.45202 22.8925 3.64454 23.3467 4.08887 23.552C4.53321 23.7573 5.06109 23.6359 5.26794 23.281L4.4634 22.9092L3.65886 22.5375ZM7.00614 18.5455L6.2016 18.1738L3.65886 22.5375L4.4634 22.9092L5.26794 23.281L7.81068 18.9172L7.00614 18.5455Z" fill="currentColor"/>
    <path d="M19.5516 22.9093L17.0089 18.5456" stroke="currentColor" stroke-width="1.63636" stroke-linecap="round"/>
    <path d="M18.5545 22.0909C19.0064 22.0909 19.3727 21.7246 19.3727 21.2727C19.3727 20.8209 19.0064 20.4545 18.5545 20.4545V21.2727V22.0909ZM5.42631 21.2727V22.0909H18.5545V21.2727V20.4545H5.42631V21.2727Z" fill="currentColor"/>
  </g>
  <defs>
    <clipPath id="subway-clip">
      <rect width="24" height="24" fill="white"/>
    </clipPath>
  </defs>
</svg>
