<svg width="24" height="24" viewBox="0 0 24 24" fill="none" xmlns="http://www.w3.org/2000/svg">
  <g transform="translate(3,3)">
    <path d="M17.1334 12.1013L12.8935 10.2014L12.8818 10.196C12.4346 10.0048 11.9211 10.0522 11.5165 10.322C11.493 10.3375 11.4705 10.3543 11.449 10.3724L9.25835 12.2399C7.87054 11.5658 6.43774 10.1438 5.76364 8.77403L7.63384 6.55011C7.65184 6.52761 7.66894 6.50511 7.68514 6.48081C7.94915 6.07739 7.99374 5.56861 7.80394 5.12541V5.11461L5.89864 0.86748C5.64492 0.282024 5.03619 -0.0666606 4.40283 0.010675C1.88002 0.342649 -0.0045449 2.49535 8.23261e-06 5.03991C8.23261e-06 12.1859 5.81404 18 12.9601 18C15.5046 18.0045 17.6573 16.12 17.9893 13.5972C18.0668 12.964 17.7185 12.3554 17.1334 12.1013Z" fill="currentColor"/>
  </g>
</svg>
