<svg width="24" height="24" viewBox="0 0 24 24" fill="none" xmlns="http://www.w3.org/2000/svg">
  <g transform="translate(3.768, 3)">
    <path d="M7.78847 0.088844C8.33011 0.26713 8.73527 0.703803 8.85696 1.24042L9.26223 2.99002C9.27152 3.03313 9.30144 3.06953 9.34298 3.08826C9.38429 3.10856 9.43327 3.10856 9.47458 3.08826L10.1236 2.78064C10.8449 2.43725 11.7194 2.64691 12.1873 3.27541L12.9253 4.26063C13.2934 4.75054 13.566 5.3003 13.7299 5.88331L13.846 6.299L10.495 6.3C10.1561 6.3 9.87556 6.54976 9.82735 6.87525L9.82003 6.975C9.82003 7.34779 10.1222 7.65 10.495 7.65H14.145C14.1721 7.65 14.1987 7.64841 14.225 7.64532L14.606 9H11.992C11.6531 9 11.3725 9.24976 11.3243 9.57525L11.317 9.675C11.317 10.0478 11.6192 10.35 11.992 10.35H14.985L15.1176 10.8188C15.1265 10.8507 15.1464 10.8783 15.1733 10.8973L15.2186 10.9191C17 11.426 18.2245 12.9927 18.2319 14.7747V16.4225C18.2319 17.2923 17.4939 18 16.5869 18H10.1984C9.96733 18 9.75049 17.8982 9.60842 17.7239L0.157996 6.10201C-0.0891961 5.79787 -0.0412981 5.36071 0.266415 5.11249C0.305297 5.08094 4.22933 1.9123 6.21078 0.35702C6.65128 0.00855518 7.24992 -0.0932014 7.78847 0.088844ZM3.03672 4.75468L1.78055 5.765L10.5633 16.5652H16.5869C16.6695 16.5652 16.7364 16.501 16.7364 16.4218V15.1892H11.6445C11.4127 15.1892 11.1884 15.0816 11.0463 14.9024L3.03672 4.75468Z" fill="currentColor"/>
  </g>
  <g transform="translate(2, 16.66)">
    <path d="M0.622996 4.33804H6.8542C7.19827 4.33804 7.47719 4.01701 7.47719 3.62099C7.47719 3.22498 7.19827 2.90394 6.8542 2.90394H0.622996C0.278925 2.90394 0 3.22498 0 3.62099C0 4.01701 0.278925 4.33804 0.622996 4.33804ZM0.622996 1.4341H5.23441C5.57848 1.4341 5.85741 1.11306 5.85741 0.717049C5.85741 0.321034 5.57848 0 5.23441 0H0.622996C0.278925 0 0 0.321034 0 0.717049C0 1.11306 0.278925 1.4341 0.622996 1.4341Z" fill="currentColor"/>
  </g>
</svg>
