<svg xmlns="http://www.w3.org/2000/svg" width="106" height="122" fill="none" viewBox="0 0 106 122">
  <g clip-path="url(#a)">
    <path fill="#48C2C5" d="M46.27 34.37c.45.34.92.68 1.39 1.03 4.84 3.6 7.09 7.67 6.68 12.09-.54 5.86-5.74 11.09-11.45 14.71 1.99.65 4.06 1.1 6.19 1.35 6.96-3.79 13.82-10.87 14.66-17.75.51-4.22-1.26-7.87-5.26-10.84-1.46-1.08-2.93-2.08-4.36-3.04-5.94-4.02-11.07-7.48-11.07-14.39 0-7.26 4.7-12.91 8.98-17.52-1.65.04-3.26.2-4.84.48-5.02 4.79-11.97 11.71-11.97 18.58 0 6.87 4.4 10.39 11.05 15.31v-.01Z"/>
    <path fill="#48C2C5" d="M40.87 61.46c5.77-3.39 11.27-8.49 11.79-14.13.35-3.8-1.67-7.36-6.01-10.59-.47-.35-.93-.69-1.38-1.03-6.81-5.03-11.74-8.67-11.74-16.66 0-6.64 5.58-13.02 10.49-17.86-13.36 3.8-23.15 16.09-23.15 30.67 0 13.41 8.28 24.88 20 29.59v.01Zm26.64-30.77 1.52.82c4.8 2.62 7.34 6.24 7.56 10.78.29 6.13-3.75 12.68-8.83 17.73 10.05-5.37 16.9-15.96 16.9-28.15C84.66 16.81 74.22 4.2 60.19.86c-3.75 5.28-6.52 10.78-5.76 16.22 1 7.07 5.8 9.68 13.08 13.62v-.01Zm33.78 45.85v-1.9h-17.5v7.87c0 1.28.1 2.24.5 3.29.39 1.05.97 1.97 1.74 2.74.24.24.49.47.76.67.59.46 1.26.84 2.01 1.13 1.09.43 2.33.64 3.72.64h8.55v-1.97h-8.55c-.64 0-1.25-.08-1.81-.24a5.475 5.475 0 0 1-2.37-1.24 6.81 6.81 0 0 1-.38-.38c-.54-.6-.96-1.3-1.25-2.13-.18-.51-.21-.85-.27-1.43h14.23v-1.91H86.36v-5.14h14.93ZM41.2 86.06c-.29.82-.71 1.53-1.25 2.13-.54.6-1.2 1.06-1.98 1.38-.77.32-1.63.48-2.59.48s-1.81-.16-2.59-.48c-.77-.32-1.43-.78-1.97-1.38-.55-.6-.96-1.31-1.25-2.13-.29-.82-.43-1.73-.43-2.72v-8.68h-2.57v8.68c0 1.28.2 2.44.59 3.5.39 1.05.97 1.97 1.73 2.74.76.77 1.69 1.38 2.78 1.81 1.09.43 2.33.64 3.72.64 1.39 0 2.63-.21 3.72-.64a7.973 7.973 0 0 0 2.78-1.81c.76-.77 1.34-1.69 1.73-2.74.12-.32.22-.66.3-1h-2.66l-.06.22Zm7.92-12.42h-2.55v27.9h2.55v-27.9Zm12.76 18.38c1.39 0 2.63-.21 3.72-.64a7.994 7.994 0 0 0 2.78-1.8 7.86 7.86 0 0 0 1.74-2.75c.29-.8.48-1.68.55-2.62h4.25v17.32h2.56v-27.9h-2.56v8.84h-4.24c-.07-.95-.25-1.83-.56-2.65a7.82 7.82 0 0 0-1.74-2.74c-.76-.77-1.69-1.37-2.78-1.8-1.09-.43-2.33-.64-3.72-.64-1.39 0-2.63.21-3.72.64-1.09.43-2.02 1.03-2.78 1.8-.76.77-1.34 1.69-1.73 2.74-.39 1.06-.59 2.22-.59 3.5 0 1.28.2 2.45.59 3.5.38 1.06.97 1.97 1.73 2.75.77.77 1.69 1.38 2.78 1.8 1.08.43 2.32.64 3.72.64v.01Zm-5.82-5.96c-.29-.82-.43-1.73-.43-2.73s.14-1.9.43-2.72c.29-.82.7-1.53 1.25-2.12a5.49 5.49 0 0 1 1.97-1.38c.78-.32 1.64-.49 2.6-.49.96 0 1.82.17 2.59.49.78.32 1.44.78 1.98 1.38.54.6.96 1.3 1.25 2.12.29.82.44 1.73.44 2.72 0 .99-.15 1.91-.44 2.73-.29.82-.71 1.53-1.25 2.13-.54.6-1.2 1.06-1.98 1.38-.77.32-1.64.48-2.59.48s-1.81-.17-2.6-.48c-.77-.32-1.43-.78-1.97-1.38-.54-.6-.96-1.3-1.25-2.13Zm49.47 10.12H81.21v1.74h24.32v-1.74ZM22.62 73.65h-2.56v27.9h2.56v-27.9Zm-9.03 15.92a5.36 5.36 0 0 1-1.98-1.38c-.54-.6-.96-1.3-1.25-2.13-.29-.82-.44-1.73-.44-2.72v-6.95h6.9v-1.74h-16v1.74h6.53v7.05c0 .95-.15 1.84-.43 2.62-.29.82-.71 1.53-1.25 2.13-.54.6-1.2 1.06-1.98 1.38-.77.32-1.64.48-2.59.48-.39 0-.76-.03-1.11-.08v2c.36.03.72.06 1.11.06 1.39 0 2.63-.21 3.72-.64 1.08-.43 2.01-1.03 2.77-1.8.39-.4.74-.84 1.04-1.31.29.48.64.91 1.04 1.31.76.77 1.68 1.38 2.77 1.8 1.09.43 2.33.64 3.73.64.51 0 1-.03 1.47-.09V89.9c-.46.1-.95.15-1.47.15-.95 0-1.82-.17-2.59-.48h.01Zm26.58 18.38a5.212 5.212 0 0 0-3.67-1.52 5.256 5.256 0 0 0-3.69 1.52c-.47.47-.84 1.02-1.11 1.66a5.1 5.1 0 0 0-.41 2.02c0 .71.13 1.39.41 2.02.27.63.64 1.18 1.11 1.65.47.47 1.02.84 1.66 1.12.64.27 1.31.41 2.03.41.54 0 1.05-.1 1.52-.31s.88-.48 1.22-.82l-.73-.73c-.27.26-.57.47-.92.62-.34.15-.71.22-1.09.22-.53 0-1.03-.09-1.51-.28-.48-.19-.9-.44-1.26-.77s-.67-.72-.9-1.15c-.24-.44-.39-.91-.46-1.43h9.3c.01-.09.02-.18.02-.26v-.26c0-.71-.13-1.39-.41-2.02-.27-.64-.64-1.19-1.11-1.66v-.03Zm-7.8 3.17c.07-.52.22-.99.46-1.43.24-.44.54-.83.9-1.15.37-.33.79-.59 1.26-.78.48-.19.98-.28 1.51-.28s1.03.09 1.5.28c.47.19.89.44 1.25.78.36.33.67.71.9 1.15.24.44.39.91.45 1.43h-8.24.01Zm20.84-3.21a5.212 5.212 0 0 0-3.67-1.52 5.212 5.212 0 0 0-3.67 1.52c-.47.47-.84 1.02-1.11 1.66-.27.63-.41 1.31-.41 2.03v4.96h1.03v-4.96c0-.57.11-1.11.33-1.62.22-.51.52-.95.89-1.32.38-.37.82-.67 1.32-.88.5-.22 1.04-.33 1.61-.33.57 0 1.11.11 1.62.33.51.21.95.51 1.32.88.37.37.66.81.88 1.32.22.51.33 1.05.33 1.62v4.96h1.04v-4.96c0-.71-.14-1.39-.41-2.03-.27-.64-.64-1.19-1.11-1.66h.01Zm5.17-1.28h-1.03v9.93h1.03v-9.93Zm11.91 1.32a5.212 5.212 0 0 0-3.67-1.52c-.72 0-1.39.14-2.03.41-.64.27-1.19.64-1.66 1.11-.47.47-.84 1.02-1.11 1.66a5.1 5.1 0 0 0-.41 2.02c0 .71.13 1.39.41 2.02a5.146 5.146 0 0 0 2.77 2.76c.63.27 1.31.41 2.03.41.54 0 1.05-.1 1.52-.31s.88-.48 1.22-.82l-.73-.73c-.27.26-.57.47-.91.62-.35.15-.71.22-1.09.22-.53 0-1.03-.09-1.51-.28-.48-.19-.9-.44-1.26-.77s-.66-.72-.9-1.15c-.24-.44-.39-.91-.46-1.43h9.3c.01-.09.02-.18.02-.26v-.26a5.1 5.1 0 0 0-.41-2.02c-.27-.64-.64-1.19-1.11-1.66l-.01-.02Zm-7.8 3.17c.07-.52.22-.99.46-1.43.24-.44.54-.83.9-1.15.37-.33.78-.59 1.26-.78.48-.19.98-.28 1.51-.28s1.03.09 1.5.28c.47.19.89.44 1.25.78.37.33.67.71.9 1.15.24.44.39.91.46 1.43h-8.24Zm15.69 4.09c-.3.31-.67.46-1.09.46-.42 0-.81-.15-1.11-.46-.31-.3-.46-.67-.46-1.09v-6.42h3.75v-1.04h-3.75v-2.6h-1.03v10.05c0 .36.07.69.21 1.01.14.32.32.59.55.82.23.23.51.42.82.56.32.14.65.21 1.01.21s.69-.07 1-.21c.31-.14.59-.32.83-.56.24-.23.42-.51.55-.82.13-.32.2-.66.2-1.01h-1.03c0 .42-.15.79-.46 1.09l.01.01Zm-54.39-8.78c-2.88 0-5.21 2.33-5.21 5.21s2.33 5.21 5.21 5.21c1.69 0 3.19-.8 4.14-2.05v2.38c-.07.52-.22 1-.46 1.44-.24.44-.54.83-.91 1.16-.37.34-.79.6-1.27.78-.48.19-.98.28-1.52.28-.39 0-.75-.07-1.1-.22-.35-.15-.65-.36-.92-.62l-.74.74c.35.35.76.62 1.23.83.47.21.98.31 1.53.31.72 0 1.4-.14 2.04-.41.64-.27 1.19-.64 1.67-1.12.47-.47.84-1.02 1.12-1.66.26-.61.4-1.26.41-1.95v-5.14a5.211 5.211 0 0 0-5.21-5.17h-.01Zm0 9.35c-2.28 0-4.14-1.86-4.14-4.14 0-2.28 1.86-4.14 4.14-4.14 2.28 0 4.14 1.86 4.14 4.14 0 2.28-1.86 4.14-4.14 4.14Z"/>
  </g>
  <defs>
    <clipPath id="a">
      <path fill="#fff" d="M0 0h105.53v121.87H0z"/>
    </clipPath>
  </defs>
</svg>
