<svg width="22" height="22" viewBox="0 0 22 22" fill="none" xmlns="http://www.w3.org/2000/svg">
<path fill-rule="evenodd" clip-rule="evenodd" d="M13.9622 3.02396C13.7552 2.29951 13.093 1.80005 12.3396 1.80005H9.26037C8.50694 1.80005 7.84478 2.29951 7.6378 3.02396L7.15397 4.71626C5.69312 5.08735 4.61249 6.41125 4.61249 7.98755V13.6125C4.61249 15.1888 5.69312 16.5127 7.15397 16.8838L7.6378 18.5761C7.84478 19.3006 8.50694 19.8 9.26037 19.8H12.3396C13.093 19.8 13.7552 19.3006 13.9622 18.5761L14.446 16.8838C15.9069 16.5127 16.9875 15.1888 16.9875 13.6125V7.98755C16.9875 6.41125 15.9069 5.08735 14.446 4.71626L13.9622 3.02396ZM18.675 9.11255C18.675 8.80189 18.4231 8.55005 18.1125 8.55005C17.8018 8.55005 17.55 8.80189 17.55 9.11255V12.4875C17.55 12.7982 17.8018 13.05 18.1125 13.05C18.4231 13.05 18.675 12.7982 18.675 12.4875V9.11255Z" fill="#777777"/>
<rect x="6.07498" y="6.07507" width="9.45" height="9.45" rx="2" fill="#E1E1E1"/>
</svg>
