<svg width="24" height="24" viewBox="0 0 24 24" fill="none" xmlns="http://www.w3.org/2000/svg">
<g clip-path="url(#clip0_30_841)">
<mask id="mask0_30_841" style="mask-type:luminance" maskUnits="userSpaceOnUse" x="1" y="12" width="21" height="9">
<path d="M1.98962 12.1622H21.974V20.5374H1.98962V12.1622Z" fill="white"/>
</mask>
<g mask="url(#mask0_30_841)">
<path fill-rule="evenodd" clip-rule="evenodd" d="M2.56616 20.085L1.98961 12.5755C1.97339 12.3512 2.19293 12.1622 2.46975 12.1622H21.4938C21.7707 12.1622 21.9902 12.3512 21.973 12.5755L21.3974 20.085C21.3783 20.3389 21.1178 20.5374 20.8037 20.5374H3.15989C2.84489 20.5374 2.58525 20.3389 2.56616 20.085Z" fill="#D98B28"/>
</g>
<path fill-rule="evenodd" clip-rule="evenodd" d="M20.1136 14.5743C20.1289 14.4111 19.9285 14.2727 19.6755 14.2727H4.32545C4.07345 14.2727 3.873 14.4111 3.88827 14.5743L4.00377 15.7818L4.17177 17.5363L4.3035 18.9108C4.31113 18.9872 4.40754 19.0454 4.52304 19.0454H19.4789C19.5944 19.0454 19.6908 18.9872 19.6984 18.9118L19.8301 17.5373L19.9981 15.7809L20.1136 14.5743Z" fill="#E8D898"/>
<mask id="mask1_30_841" style="mask-type:luminance" maskUnits="userSpaceOnUse" x="1" y="3" width="7" height="10">
<path d="M1.5 3.19995H7.96227V12.86H1.5V3.19995Z" fill="white"/>
</mask>
<g mask="url(#mask1_30_841)">
<path fill-rule="evenodd" clip-rule="evenodd" d="M1.74532 12.86C1.60977 12.86 1.5 12.6213 1.5 12.3254C1.5 10.989 1.63364 9.68704 1.89805 8.45759C2.15577 7.25677 2.52041 6.21632 2.9805 5.36486C3.73364 3.96931 4.69486 3.19995 5.68091 3.19995H7.716C7.85155 3.19995 7.96037 3.43859 7.96037 3.7345C7.96037 4.03041 7.85155 4.26904 7.716 4.26904C6.62591 4.26904 5.64941 4.93627 4.89246 6.19722C4.45241 6.93222 4.0935 7.85432 3.82718 8.93677C3.57518 9.961 3.41005 11.1236 3.33655 12.3932C3.32032 12.6605 3.21627 12.8609 3.09314 12.8609H1.74532V12.86Z" fill="#FFC200"/>
</g>
<path fill-rule="evenodd" clip-rule="evenodd" d="M22.2547 12.86C22.3903 12.86 22.5 12.6213 22.5 12.3254C22.5 10.9881 22.3664 9.68704 22.102 8.45759C21.8443 7.25677 21.4796 6.21632 21.0195 5.36486C20.2664 3.96932 19.3052 3.19995 18.3191 3.19995H16.284C16.1485 3.19995 16.0397 3.43859 16.0397 3.7345C16.0397 4.03041 16.1485 4.26904 16.284 4.26904C17.3741 4.26904 18.3506 4.93627 19.1076 6.19722C19.5476 6.93222 19.9065 7.85432 20.1729 8.93677C20.4239 9.961 20.59 11.1236 20.6635 12.3932C20.6797 12.6605 20.7838 12.8609 20.9069 12.8609H22.2557L22.2547 12.86Z" fill="#FFC200"/>
<path fill-rule="evenodd" clip-rule="evenodd" d="M20.1069 8.26094C19.8234 7.21858 19.4406 6.33276 18.9739 5.62926H4.98977C4.52299 6.33276 4.14022 7.21858 3.85672 8.26094C3.59326 9.23172 3.41763 10.3371 3.33936 11.5513H20.6577C20.5794 10.3371 20.3933 9.21931 20.1069 8.26094ZM11.9809 5.62926H18.9739C18.193 4.45326 17.1784 3.78699 16.0014 3.78699H7.96127C6.78336 3.78699 5.77058 4.45326 4.98977 5.62926H11.9818H11.9809Z" fill="#F5E891"/>
<path fill-rule="evenodd" clip-rule="evenodd" d="M13.954 11.2315C13.8553 11.1469 13.751 11.0691 13.6419 10.9986C13.1579 10.6933 12.5971 10.5321 12.0249 10.5337C11.4264 10.5337 10.8699 10.7055 10.4069 10.9986C10.2978 11.0692 10.1935 11.147 10.0948 11.2315H1.77686V12.8599H22.0256V11.2315H13.953H13.954Z" fill="#FFC200"/>
<path fill-rule="evenodd" clip-rule="evenodd" d="M12.6453 11.115H11.4025C11.3109 11.1168 11.2224 11.0823 11.1562 11.019C11.09 10.9556 11.0516 10.8687 11.0493 10.7771V4.0094C11.0493 3.82231 11.2068 3.67053 11.4025 3.67053H12.6453C12.841 3.67053 13.0004 3.8223 13.0004 4.00844V10.7771C12.9993 10.8226 12.9892 10.8675 12.9708 10.9091C12.9523 10.9507 12.9259 10.9883 12.8929 11.0197C12.8599 11.051 12.8211 11.0756 12.7786 11.092C12.7361 11.1083 12.6908 11.1162 12.6453 11.115Z" fill="#FFC200"/>
<path fill-rule="evenodd" clip-rule="evenodd" d="M14.2203 7.0439C14.2203 8.71435 13.2371 10.0689 12.0248 10.0689C10.8116 10.0689 9.82935 8.71435 9.82935 7.0439C9.82935 5.37344 10.8116 4.0199 12.0248 4.0199C13.2371 4.0199 14.2203 5.37344 14.2203 7.0439Z" fill="#FFC200"/>
<path fill-rule="evenodd" clip-rule="evenodd" d="M13.7315 6.81099C13.7315 8.22467 12.9679 9.37013 12.0238 9.37013C11.0808 9.37013 10.3162 8.22467 10.3162 6.81194C10.3162 5.39826 11.0808 4.25281 12.0248 4.25281C12.9669 4.25281 13.7315 5.39826 13.7315 6.81099Z" fill="#E75425"/>
<path fill-rule="evenodd" clip-rule="evenodd" d="M13.6418 13.11C13.6418 12.2442 12.8992 11.5436 11.9818 11.5436C11.0655 11.5436 10.3209 12.2442 10.3209 13.109C10.3209 13.7171 10.6932 14.2383 11.2277 14.4979V15.6386C11.2277 16.0309 11.5657 16.1168 11.9818 16.1168C12.398 16.1168 12.7359 16.0309 12.7359 15.6386V14.4979C13.2714 14.2383 13.6418 13.7171 13.6418 13.11Z" fill="#5E1815"/>
<path d="M11.7805 4.52483C11.4082 4.78161 11.4235 5.43547 11.8148 5.98529C12.2052 6.53511 12.8238 6.77279 13.1951 6.51602C13.5674 6.25924 13.5521 5.60538 13.1617 5.05556C12.8772 4.65656 12.4744 4.42174 12.1308 4.42174C12.0062 4.41934 11.8839 4.45533 11.7805 4.52483Z" fill="#EE8766"/>
<path d="M11.5179 7.41334C11.4021 7.54418 11.3226 7.70314 11.2874 7.87434C11.2522 8.04553 11.2626 8.22296 11.3175 8.38889C11.3695 8.55217 11.4654 8.69801 11.5947 8.81047C11.7239 8.92293 11.8817 8.99767 12.0506 9.02652C12.2141 9.07201 12.3872 9.07052 12.5499 9.02224C12.7126 8.97396 12.8585 8.88084 12.9708 8.75352C13.2056 8.49198 13.2829 8.11684 13.1712 7.77893C13.1195 7.61542 13.0237 7.46932 12.8944 7.35667C12.765 7.24402 12.6072 7.16917 12.4381 7.14034C12.2745 7.09577 12.1018 7.0977 11.9392 7.14593C11.7766 7.19415 11.6308 7.28676 11.5179 7.41334Z" fill="#EA6D45"/>
</g>
<defs>
<clipPath id="clip0_30_841">
<rect width="24" height="24" fill="white"/>
</clipPath>
</defs>
</svg>
