<svg width="24" height="24" viewBox="1.40 -0.95 20.15 20.15" fill="none" xmlns="http://www.w3.org/2000/svg">
<path fill-rule="evenodd" clip-rule="evenodd" d="M3.16835 2.71958C3.01426 2.38815 3.25625 2.00879 3.62175 2.00879L9.16097 2.00879C9.34349 2.00879 9.5115 2.10824 9.59931 2.26824L13.2434 8.90847L16.8355 15.5066C17.0169 15.8398 16.7757 16.2457 16.3964 16.2457H9.77586C9.58134 16.2457 9.40447 16.1328 9.32246 15.9565L3.16835 2.71958Z" fill="#B7B7B7"/>
<path fill-rule="evenodd" clip-rule="evenodd" d="M19.803 2.70482C19.9435 2.375 19.7015 2.00879 19.343 2.00879L14.3403 2.00879C14.1514 2.00879 13.9786 2.1153 13.8937 2.28409L10.5612 8.90847L7.26056 15.5224C7.09466 15.8548 7.33642 16.2457 7.70794 16.2457H13.7017C13.9021 16.2457 14.0831 16.126 14.1617 15.9417L19.803 2.70482Z" fill="#878787"/>
<ellipse cx="11.9996" cy="15.6559" rx="8.4" ry="8.2526" fill="#DADADA"/>
<ellipse cx="12" cy="15.6564" rx="6" ry="5.89471" fill="#B7B7B7"/>
</svg>
