<svg width="24" height="24" viewBox="0.10 0.10 23.81 23.81" fill="none" xmlns="http://www.w3.org/2000/svg">
<g clip-path="url(#clip0_3062_8859)">
<path d="M15.7707 17.5469H8.21289V19.3879H15.7707V17.5469Z" fill="#2161BF"/>
<path d="M9.95703 17.1846H13.7988V21.5591C13.7988 21.803 13.6024 21.9997 13.3588 21.9997H10.4048C10.1613 21.9997 9.96489 21.803 9.96489 21.5591V17.1846H9.95703Z" fill="#BDD8FF"/>
<path d="M16.8395 2H7.16049C5.96633 2 5 2.96774 5 4.16365V17.2242C5 18.4201 5.96633 19.3879 7.16049 19.3879H8.68462L8.77104 18.491H15.1268L15.2132 19.3879H16.8474C18.0415 19.3879 19.0079 18.4201 19.0079 17.2242V4.16365C19.0079 2.96774 18.0415 2 16.8474 2H16.8395Z" fill="#649CFF"/>
<path d="M7.99385 3.99805H15.9288C16.4787 3.99805 16.9265 4.44651 16.9265 4.99726V12.1334C16.9265 12.4796 16.6437 12.7628 16.298 12.7628H7.6246C7.27892 12.7628 6.99609 12.4796 6.99609 12.1334V4.99726C6.99609 4.44651 7.44391 3.99805 7.99385 3.99805Z" fill="#E1ECFF"/>
<path d="M14.0591 9.24601C14.0591 10.5757 13.0692 11.4805 11.8829 11.4805C10.6966 11.4805 9.76172 10.5757 9.76172 9.24601C9.76172 7.91634 11.9144 5.0918 11.9144 5.0918C11.9144 5.0918 14.067 7.91634 14.067 9.24601H14.0591Z" fill="#FF2B2B"/>
<path d="M9.21947 16.6738C9.87031 16.6738 10.3979 16.1454 10.3979 15.4936C10.3979 14.8419 9.87031 14.3135 9.21947 14.3135C8.56863 14.3135 8.04102 14.8419 8.04102 15.4936C8.04102 16.1454 8.56863 16.6738 9.21947 16.6738Z" fill="#F5F9FF"/>
<path d="M14.5769 16.6738C15.2277 16.6738 15.7553 16.1454 15.7553 15.4936C15.7553 14.8419 15.2277 14.3135 14.5769 14.3135C13.926 14.3135 13.3984 14.8419 13.3984 15.4936C13.3984 16.1454 13.926 16.6738 14.5769 16.6738Z" fill="#F5F9FF"/>
</g>
<defs>
<clipPath id="clip0_3062_8859">
<rect width="14" height="20" fill="white" transform="translate(5 2)"/>
</clipPath>
</defs>
</svg>
