<svg width="44" height="44" viewBox="-1.20 -2.11 47.20 47.20" fill="none" xmlns="http://www.w3.org/2000/svg">
<g clip-path="url(#clip0_3062_8879)">
<path d="M33.3623 6.84766H9.40455C5.62999 6.84766 2.57227 9.90538 2.57227 13.6911L2.66187 26.8853C2.66187 30.6598 5.71959 33.7176 9.49415 33.7176H18.0065L18.8465 35.1624L20.3922 37.8057C20.8738 38.6346 22.0723 38.6346 22.5539 37.8057L24.0995 35.1624L24.9396 33.7176H33.4519C37.2265 33.7176 40.2842 30.6598 40.2842 26.8853L40.1946 13.6911C40.1946 9.91658 37.1369 6.85886 33.3623 6.85886V6.84766Z" fill="url(#paint0_linear_3062_8879)"/>
<path d="M15.0504 24.7358C15.4312 25.3182 15.476 25.9902 14.9832 26.4831C14.468 26.9983 13.6503 27.1103 13.0791 26.6063C12.6759 26.2478 12.2167 25.5534 11.9031 24.8366C11.7911 24.8366 11.679 24.8366 11.5558 24.8366C9.36055 24.8366 7.61328 23.2797 7.61328 20.6812C7.61328 18.0827 9.36055 16.5146 11.5558 16.5146C13.7511 16.5146 15.4984 18.0715 15.4984 20.6812C15.4984 22.0477 15.0056 23.1453 14.2328 23.8509C14.6024 24.1534 14.86 24.4334 15.0616 24.7358H15.0504ZM11.5558 22.4397C12.3847 22.4397 12.9335 21.7341 12.9335 20.6812C12.9335 19.6284 12.4071 18.9115 11.5558 18.9115C10.7046 18.9115 10.1782 19.606 10.1782 20.6812C10.1782 21.7565 10.7046 22.4397 11.5558 22.4397Z" fill="white"/>
<path d="M16.45 17.6011C16.5396 16.8171 17.2452 16.5146 17.8052 16.5146C18.3653 16.5146 19.1045 16.8171 19.1269 17.6011C19.1493 18.3179 19.0709 20.7596 19.1045 21.3084C19.1493 21.8797 19.3845 22.2941 20.0005 22.2941C20.695 22.2941 20.8742 21.8797 20.919 21.3084C20.9638 20.7484 20.8742 18.3291 20.8966 17.6011C20.919 16.8171 21.6694 16.5146 22.2294 16.5146C22.7894 16.5146 23.4615 16.8171 23.5623 17.6011C23.6519 18.3179 23.7863 20.1548 23.6407 21.9021C23.4951 23.6605 22.207 24.8366 20.0005 24.8366C17.794 24.8366 16.5284 23.6157 16.3828 21.9021C16.2372 20.1548 16.3828 18.3403 16.45 17.6011Z" fill="white"/>
<path d="M25.9825 16.5146C26.5425 16.5146 27.1025 16.7947 27.2033 17.5787C27.3937 19.0572 27.3937 22.0253 27.2033 23.6381C27.1137 24.3662 26.7329 24.8254 25.9937 24.8254C25.2544 24.8254 24.8736 24.3662 24.784 23.6381C24.5824 22.0253 24.5824 19.0572 24.784 17.5787C24.8848 16.7947 25.4448 16.5146 26.0049 16.5146H25.9825Z" fill="white"/>
<path d="M29.4541 16.5928C30.3949 16.4696 33.0159 16.4808 34.0799 16.6936C35.1663 16.9064 35.368 18.0377 34.7855 18.8889C33.9119 20.1658 32.2654 21.7226 31.3918 22.3611C32.187 22.3163 33.4639 22.3387 34.2479 22.4619C34.8751 22.5627 35.3792 22.8651 35.3792 23.6043C35.3792 24.3435 34.8863 24.6795 34.2367 24.7579C33.1055 24.8812 30.4286 24.8588 29.2301 24.6683C28.1325 24.4891 27.7628 23.6267 28.3005 22.7531C29.1965 21.3082 31.011 19.6617 31.907 18.9785C31.1566 19.0009 30.0253 18.9785 29.4653 18.9001C28.8381 18.8105 28.3117 18.5417 28.3117 17.7129C28.3117 17.0296 28.8045 16.6824 29.4541 16.604V16.5928Z" fill="white"/>
<path d="M41.2537 11.7908C42.2231 9.2144 40.8735 6.32233 38.2393 5.33114C35.605 4.33994 32.6837 5.62496 31.7143 8.20131C30.7448 10.7777 32.0945 13.6697 34.7287 14.6609C37.363 15.6521 40.2843 14.3671 41.2537 11.7908Z" fill="url(#paint1_linear_3062_8879)"/>
<path d="M40.4265 11.4793C41.226 9.35458 40.1094 6.9681 37.9325 6.149C35.7556 5.3299 33.3428 6.38835 32.5433 8.51312C31.7438 10.6379 32.8604 13.0244 35.0373 13.8435C37.2142 14.6626 39.627 13.6041 40.4265 11.4793Z" fill="url(#paint2_linear_3062_8879)"/>
<path d="M36.364 12.2471C36.364 12.2471 36.308 12.2471 36.2856 12.2359C35.9944 12.1911 35.6584 12.1351 35.2664 11.8327C34.3816 11.1383 34.404 10.1638 34.4488 9.7718C34.5496 9.02137 34.964 8.41655 35.5912 8.11414C36.3304 7.75572 37.5289 7.87893 38.2569 8.71896C38.4249 8.90937 38.4025 9.20058 38.2121 9.35739C38.0217 9.51419 37.7305 9.49179 37.5625 9.30138C37.1481 8.83097 36.4312 8.71896 36.0168 8.92057C35.6584 9.08858 35.4344 9.43579 35.3784 9.88381C35.3448 10.175 35.356 10.7238 35.8488 11.1047C36.0392 11.2615 36.2072 11.2839 36.4088 11.3175C36.7673 11.3847 37.1705 11.2727 37.2825 11.1047C37.3385 11.0263 37.3609 10.9479 37.3721 10.8582V10.8134L36.6776 10.7238C36.42 10.6902 36.2408 10.4662 36.2632 10.2198C36.2856 9.97341 36.5208 9.7942 36.7785 9.82781L37.9433 9.97341C38.2009 10.007 38.3801 10.231 38.3577 10.4774L38.3017 10.9591C38.2793 11.1831 38.2009 11.4071 38.0665 11.6087C37.7193 12.1127 36.9801 12.2919 36.3976 12.2247L36.364 12.2471Z" fill="#FFF2BF"/>
</g>
<defs>
<linearGradient id="paint0_linear_3062_8879" x1="-3.58799" y1="2.19944" x2="41.2251" y2="34.7704" gradientUnits="userSpaceOnUse">
<stop stop-color="#CEE321"/>
<stop offset="1" stop-color="#56D620"/>
</linearGradient>
<linearGradient id="paint1_linear_3062_8879" x1="33.3095" y1="6.0576" x2="39.6918" y2="13.9404" gradientUnits="userSpaceOnUse">
<stop offset="0.09" stop-color="#FFE16A"/>
<stop offset="0.53" stop-color="#FFDF52"/>
<stop offset="0.99" stop-color="#FFDE3F"/>
</linearGradient>
<linearGradient id="paint2_linear_3062_8879" x1="34.301" y1="7.27421" x2="39.5914" y2="13.8147" gradientUnits="userSpaceOnUse">
<stop stop-color="#FFD355"/>
<stop offset="0.89" stop-color="#FFC800"/>
</linearGradient>
<clipPath id="clip0_3062_8879">
<rect width="39" height="33.4222" fill="white" transform="translate(2.57227 5)"/>
</clipPath>
</defs>
</svg>
