<svg width="24" height="24" viewBox="-1.22 -1.15 26.33 26.33" fill="none" xmlns="http://www.w3.org/2000/svg">
<path d="M11.1006 1.96582C11.5389 1.34494 12.4611 1.34494 12.8994 1.96582L17.4355 8.39258H21.8682C22.493 8.3926 22.9997 8.9261 23 9.58398C23 9.68124 22.9892 9.77869 22.9668 9.87305L20.1377 21.791C20.0117 22.321 19.5589 22.6929 19.04 22.6934H4.96191C4.44281 22.6934 3.99045 22.3211 3.86426 21.791L1.03418 9.87305C0.88288 9.23478 1.25131 8.58841 1.85742 8.42871C1.94704 8.40513 2.03946 8.39261 2.13184 8.39258H6.56543L11.1006 1.96582ZM5.38184 21.043H18.6182L21.2305 10.043H2.77051L5.38184 21.043ZM9.94727 12.1621C11.2574 11.3316 13.5553 11.3039 15.1123 12.6787C15.4715 12.9938 15.4943 13.5234 15.165 13.8672C14.8356 14.2108 14.2737 14.2321 13.9219 13.917C13.0385 13.1368 11.6609 13.1078 10.9199 13.5732C10.2838 13.9744 9.93198 14.6553 9.91699 15.4932C9.90951 16.0374 10.0445 17.0331 11.0547 17.6348C11.4512 17.871 11.7586 17.8851 12.1475 17.8994C12.8361 17.9352 13.5701 17.6419 13.75 17.3125C13.8323 17.1621 13.8698 17.0114 13.8623 16.8467V16.7607H12.5225C12.0361 16.7605 11.6388 16.3813 11.6387 15.916C11.6387 15.4506 12.0361 15.0706 12.5225 15.0703H14.7461C15.2325 15.0705 15.6289 15.4506 15.6289 15.916V16.8252C15.6364 17.2477 15.5393 17.6849 15.3223 18.0859C14.7832 19.0957 13.4276 19.5977 12.3047 19.5977L12.29 19.5762H12.1328C11.579 19.5547 10.92 19.5257 10.127 19.0605C8.30832 17.9934 8.13547 16.1884 8.15039 15.4648C8.17285 14.0683 8.82451 12.8641 9.94727 12.1621ZM8.58398 8.39258H15.416L12 3.55371L8.58398 8.39258Z" fill="black"/>
</svg>
