<svg xmlns="http://www.w3.org/2000/svg" width="20" height="20" fill="none" viewBox="0 0 20 20">
  <g clip-path="url(#a)">
    <path fill="#FFA43F" d="M15.727 0H4.273A4.273 4.273 0 0 0 0 4.273v11.454A4.273 4.273 0 0 0 4.273 20h11.454A4.273 4.273 0 0 0 20 15.727V4.273A4.273 4.273 0 0 0 15.727 0Z"/>
    <path fill="#fff" d="M9.99 7.959a6.13 6.13 0 0 1 3.106.847 1.197 1.197 0 0 0 1.583-.302l1.61-2.007c.579-.718.406-1.86-.33-2.362-1.756-1.185-3.788-1.868-5.968-1.868-2.31 0-4.464.76-6.28 2.076-.71.51-.831 1.643-.26 2.344l1.635 1.972c.415.502 1.072.597 1.6.26.986-.614 2.102-.969 3.305-.969v.009Z"/>
    <mask id="b" width="14" height="8" x="3" y="2" maskUnits="userSpaceOnUse" style="mask-type:luminance">
      <path fill="#fff" d="M9.99 7.959a6.13 6.13 0 0 1 3.106.847 1.197 1.197 0 0 0 1.583-.302l1.61-2.007c.579-.718.406-1.86-.33-2.362-1.756-1.185-3.788-1.868-5.968-1.868-2.31 0-4.464.76-6.28 2.076-.71.51-.831 1.643-.26 2.344l1.635 1.972c.415.502 1.072.597 1.6.26.986-.614 2.102-.969 3.305-.969v.009Z"/>
    </mask>
    <g mask="url(#b)">
      <path fill="#E84800" d="M9.645 4.749c.113-.51.398-.51.51 0l.251 1.142.502 2.292H8.893l.501-2.292.251-1.142Z"/>
    </g>
  </g>
  <defs>
    <clipPath id="a">
      <path fill="#fff" d="M0 0h20v20H0z"/>
    </clipPath>
  </defs>
</svg>
