<svg xmlns="http://www.w3.org/2000/svg" width="39" height="34" fill="none" viewBox="0 0 39 34">
  <g clip-path="url(#a)">
    <path fill="url(#b)" d="M30.79 1.848H6.832A6.833 6.833 0 0 0 0 8.69l.09 13.194a6.83 6.83 0 0 0 6.832 6.833h8.512l.84 1.444 1.546 2.644a1.25 1.25 0 0 0 2.162 0l1.545-2.644.84-1.444h8.513a6.83 6.83 0 0 0 6.832-6.833l-.09-13.194a6.83 6.83 0 0 0-6.832-6.83v-.011Z"/>
    <path fill="#fff" d="M12.478 19.736c.38.582.426 1.254-.067 1.747-.515.515-1.333.627-1.904.123-.403-.358-.863-1.053-1.176-1.77h-.347c-2.196 0-3.943-1.556-3.943-4.155 0-2.598 1.747-4.166 3.943-4.166 2.195 0 3.942 1.556 3.942 4.166 0 1.367-.493 2.464-1.265 3.17.37.302.627.582.828.885h-.01ZM8.984 17.44c.828 0 1.377-.706 1.377-1.759s-.526-1.77-1.377-1.77c-.852 0-1.378.695-1.378 1.77 0 1.075.526 1.759 1.378 1.759Zm4.894-4.839c.09-.784.795-1.086 1.355-1.086.56 0 1.3.302 1.322 1.086.022.717-.056 3.159-.023 3.707.045.572.28.986.896.986.695 0 .874-.414.919-.986.044-.56-.045-2.979-.023-3.707.023-.784.773-1.086 1.333-1.086.56 0 1.232.302 1.333 1.086a23.5 23.5 0 0 1 .078 4.301c-.145 1.758-1.433 2.935-3.64 2.935-2.206 0-3.472-1.221-3.618-2.935-.145-1.747 0-3.562.068-4.3Zm9.532-1.086c.56 0 1.12.28 1.221 1.064.19 1.478.19 4.446 0 6.06-.09.727-.47 1.186-1.21 1.186-.739 0-1.12-.459-1.21-1.187-.2-1.613-.2-4.58 0-6.06.102-.783.662-1.063 1.222-1.063h-.023Zm3.472.078c.94-.123 3.562-.112 4.626.1 1.086.213 1.288 1.345.705 2.196-.873 1.277-2.52 2.834-3.393 3.472.795-.045 2.072-.022 2.856.1.627.102 1.13.404 1.13 1.143 0 .74-.492 1.076-1.142 1.154-1.13.123-3.808.1-5.006-.09-1.098-.179-1.467-1.041-.93-1.915.896-1.445 2.71-3.091 3.607-3.774-.75.022-1.882 0-2.442-.079-.627-.09-1.154-.358-1.154-1.187 0-.683.493-1.03 1.143-1.109v-.011Z"/>
    <path fill="url(#c)" d="M38.681 6.79c.97-2.576-.38-5.468-3.014-6.459-2.634-.991-5.556.294-6.525 2.87-.97 2.577.38 5.469 3.014 6.46 2.635.991 5.556-.294 6.526-2.87Z"/>
    <path fill="url(#d)" d="M37.854 6.48c.8-2.125-.317-4.512-2.494-5.331-2.177-.82-4.59.24-5.389 2.364-.8 2.125.317 4.511 2.494 5.33 2.177.82 4.59-.239 5.39-2.364Z"/>
    <path fill="#FFF2BF" d="M33.792 7.247s-.056 0-.079-.011c-.29-.045-.627-.1-1.019-.403-.885-.695-.862-1.67-.818-2.061.101-.75.516-1.355 1.143-1.658.74-.358 1.938-.235 2.666.605a.447.447 0 0 1-.045.638.473.473 0 0 1-.65-.056c-.414-.47-1.131-.582-1.545-.38-.359.168-.583.515-.639.963-.033.291-.022.84.47 1.22.191.157.359.18.56.213.359.068.762-.044.874-.212a.507.507 0 0 0 .09-.247v-.045l-.695-.09a.47.47 0 0 1-.414-.503.45.45 0 0 1 .515-.392l1.165.145a.47.47 0 0 1 .414.504l-.056.482a1.43 1.43 0 0 1-.235.65c-.347.504-1.086.683-1.669.616l-.033.022Z"/>
  </g>
  <defs>
    <linearGradient id="b" x1="-6.16" x2="38.653" y1="-2.801" y2="29.77" gradientUnits="userSpaceOnUse">
      <stop stop-color="#CEE321"/>
      <stop offset="1" stop-color="#56D620"/>
    </linearGradient>
    <linearGradient id="c" x1="30.737" x2="37.12" y1="1.058" y2="8.94" gradientUnits="userSpaceOnUse">
      <stop offset=".09" stop-color="#FFE16A"/>
      <stop offset=".53" stop-color="#FFDF52"/>
      <stop offset=".99" stop-color="#FFDE3F"/>
    </linearGradient>
    <linearGradient id="d" x1="31.729" x2="37.019" y1="2.274" y2="8.815" gradientUnits="userSpaceOnUse">
      <stop stop-color="#FFD355"/>
      <stop offset=".89" stop-color="#FFC800"/>
    </linearGradient>
    <clipPath id="a">
      <path fill="#fff" d="M0 0h39v33.422H0z"/>
    </clipPath>
  </defs>
</svg>
