<svg width="44" height="44" viewBox="1.51 1.73 40.75 40.75" fill="none" xmlns="http://www.w3.org/2000/svg">
<path fill-rule="evenodd" clip-rule="evenodd" d="M22 5C13.9372 5 7.19028 10.6153 5.44387 18.1471C5.44047 18.1621 5.43707 18.1774 5.43367 18.1925C5.38131 18.4203 5.33337 18.6495 5.29053 18.8805C5.28747 18.8987 5.28424 18.9165 5.28118 18.9347C5.09979 19.9294 5 20.9528 5 22C5 22.0112 5.00102 22.0219 5.00102 22.0331C5.00068 22.0442 5 22.0551 5 22.0663C5 22.1258 5.00408 22.1848 5.00476 22.2441C5.00527 22.2893 5.0034 22.3334 5.00442 22.3786C5.00595 22.4468 5.01071 22.5141 5.01309 22.5821C5.01377 22.6049 5.01564 22.6271 5.01666 22.6499C5.02193 22.7946 5.02907 22.9389 5.03791 23.0829C5.04845 23.2585 5.06222 23.4333 5.07803 23.6077C5.0833 23.6662 5.08772 23.725 5.09367 23.7836C5.4114 26.9417 6.59188 29.8447 8.40374 32.2483L5.68782 34.9642C4.77084 35.8812 4.77084 37.3673 5.68782 38.2843C6.60446 39.2009 8.09094 39.2009 9.00758 38.2843L11.7204 35.5716C14.5599 37.7223 18.097 39 21.9339 39C21.9437 39 21.9536 38.999 21.9634 38.999C21.9759 38.999 21.9878 39 22 39C31.3889 39 39 31.3889 39 22C39 12.6111 31.3889 5 22 5Z" fill="#1B73ED"/>
<path fill-rule="evenodd" clip-rule="evenodd" d="M22.2119 19.2851H14.809C13.989 19.2851 13.3242 18.6203 13.3242 17.8C13.3242 16.9799 13.989 16.3154 14.809 16.3154H22.2119C23.032 16.3154 23.697 16.9799 23.697 17.8C23.697 18.6203 23.032 19.2851 22.2119 19.2851Z" fill="white"/>
<path fill-rule="evenodd" clip-rule="evenodd" d="M30.58 24.8369H14.9304C14.0434 24.8369 13.3242 24.172 13.3242 23.3518C13.3242 22.532 14.0434 21.8672 14.9304 21.8672H30.58C31.467 21.8672 32.1862 22.532 32.1862 23.3518C32.1862 24.172 31.467 24.8369 30.58 24.8369Z" fill="white"/>
<path fill-rule="evenodd" clip-rule="evenodd" d="M25.5766 30.3886H14.8088C13.9887 30.3886 13.3242 29.7238 13.3242 28.9035C13.3242 28.0834 13.9887 27.4189 14.8088 27.4189H25.5766C26.3967 27.4189 27.0618 28.0834 27.0618 28.9035C27.0618 29.7238 26.3967 30.3886 25.5766 30.3886Z" fill="white"/>
<path fill-rule="evenodd" clip-rule="evenodd" d="M34.8584 13.1462L32.7763 12.8439C32.5963 12.8173 32.4408 12.7045 32.3604 12.5413L31.4292 10.6548C31.2264 10.244 30.6408 10.244 30.4381 10.6548L29.5068 12.5413C29.4263 12.7045 29.2709 12.8173 29.0909 12.8439L27.0088 13.1462C26.5556 13.212 26.3747 13.7691 26.7026 14.0887L28.2092 15.5575C28.3396 15.6842 28.399 15.8671 28.3681 16.0464L28.0124 18.1201C27.935 18.5714 28.4089 18.9157 28.8142 18.7026L30.6762 17.7235C30.8376 17.6389 31.0296 17.6389 31.1907 17.7235L33.0528 18.7026C33.4583 18.9157 33.9322 18.5714 33.8548 18.1201L33.4991 16.0464C33.4682 15.8671 33.528 15.6842 33.658 15.5575L35.1645 14.0887C35.4925 13.7691 35.3114 13.212 34.8584 13.1462Z" fill="#FFC700"/>
</svg>
