<svg width="44" height="44" viewBox="-0.46 -2.68 46.60 46.60" fill="none" xmlns="http://www.w3.org/2000/svg">
<path d="M33.6606 8.8553H25.6746L27.6106 6.5013C28.1056 5.9073 28.0176 5.0163 27.4236 4.5323C26.8296 4.0373 25.9386 4.1253 25.4546 4.7193L22.0446 8.8553H21.7696L18.5136 4.8953C18.0186 4.3013 17.1386 4.2133 16.5446 4.7083C15.9506 5.2033 15.8626 6.0833 16.3576 6.6773L18.1506 8.8553H10.3406C6.43558 8.8553 3.26758 12.0233 3.26758 15.9283V30.1403C3.26758 34.0453 6.43558 37.2133 10.3406 37.2133H33.6716C37.5766 37.2133 40.7446 34.0453 40.7446 30.1403V15.9283C40.7446 12.0233 37.5766 8.8553 33.6716 8.8553H33.6606Z" fill="url(#paint0_linear_3062_8875)"/>
<path d="M32.3069 11.9355H11.3849C8.59094 11.9355 6.33594 14.2675 6.33594 17.1385V28.8095C6.33594 31.6805 8.60194 34.0125 11.3849 34.0125H32.3069C35.1009 34.0125 37.3559 31.6805 37.3559 28.8095V17.1385C37.3559 14.2675 35.0899 11.9355 32.3069 11.9355Z" fill="url(#paint1_linear_3062_8875)"/>
<path d="M11.6499 19.3057C12.1669 19.3057 12.6619 19.5697 12.7719 20.2957C12.9369 21.3847 12.9809 23.7277 12.8709 24.6297C13.4869 24.5527 14.4659 24.5747 15.2359 24.6957C15.9179 24.7947 16.3139 25.1247 16.3139 25.8067C16.3139 26.4887 15.9179 26.8517 15.2249 26.9397C14.1799 27.0717 12.6729 27.0607 11.7489 26.9397C11.0559 26.8517 10.6489 26.4887 10.5279 25.8177C10.3079 24.5197 10.3409 21.6707 10.5279 20.3067C10.6269 19.5807 11.1329 19.3167 11.6499 19.3167V19.3057Z" fill="white"/>
<path d="M18.2278 19.3057C18.7448 19.3057 19.2618 19.5697 19.3608 20.2957C19.5368 21.6707 19.5368 24.4207 19.3608 25.9167C19.2728 26.5877 18.9318 27.0167 18.2388 27.0167C17.5458 27.0167 17.2048 26.5877 17.1168 25.9167C16.9298 24.4207 16.9298 21.6707 17.1168 20.2957C17.2158 19.5697 17.7328 19.3057 18.2498 19.3057H18.2278Z" fill="white"/>
<path d="M20.779 19.4378C21.241 19.2508 21.901 19.2178 22.253 19.8558C22.605 20.4938 23.144 22.0228 23.441 23.0018C23.507 23.2218 23.606 23.6508 23.661 23.8598H23.683C23.727 23.6508 23.837 23.2108 23.903 22.9798C24.178 22.0118 24.761 20.4718 25.091 19.8448C25.443 19.1848 26.103 19.2398 26.565 19.4268C27.093 19.6468 27.335 20.0868 27.203 20.8018C26.972 22.0668 25.685 25.3008 24.871 26.4338C24.519 26.9288 24.167 27.0058 23.683 27.0058C23.199 27.0058 22.836 26.9288 22.484 26.4338C21.67 25.2898 20.394 22.0558 20.141 20.8018C19.998 20.0868 20.251 19.6468 20.779 19.4268V19.4378Z" fill="white"/>
<path d="M33.814 25.8725C33.814 26.6205 33.341 26.8295 32.967 26.9065C32.12 27.0605 29.986 27.0605 29.161 26.9835C28.468 26.9175 28.116 26.5215 28.006 25.8505C27.797 24.6405 27.841 21.7475 28.006 20.4715C28.105 19.6575 28.589 19.4155 29.172 19.3495C29.667 19.2945 32.263 19.2945 32.967 19.4375C33.341 19.5145 33.836 19.6795 33.836 20.4165C33.836 21.1535 33.341 21.3625 32.967 21.4395C32.318 21.5715 30.91 21.5715 30.283 21.4945L30.305 22.1545C31.064 22.0995 31.768 22.0885 32.461 22.1545C32.835 22.1875 33.363 22.3965 33.363 23.1335C33.363 23.8705 32.835 24.1235 32.461 24.1675C31.713 24.2445 31.009 24.2445 30.294 24.1895L30.261 24.8605C30.745 24.7835 32.285 24.7835 32.989 24.8935C33.363 24.9485 33.825 25.1355 33.825 25.8725H33.814Z" fill="white"/>
<path d="M41.3988 15.0554C42.4129 12.3603 40.9995 9.33425 38.2418 8.2966C35.4841 7.25896 32.4265 8.60263 31.4124 11.2978C30.3983 13.9929 31.8117 17.0189 34.5694 18.0566C37.3271 19.0942 40.3847 17.7505 41.3988 15.0554Z" fill="url(#paint2_linear_3062_8875)"/>
<path d="M40.5332 14.7303C41.3719 12.5014 40.2034 9.99901 37.9233 9.14108C35.6433 8.28315 33.115 9.39453 32.2764 11.6234C31.4377 13.8523 32.6062 16.3547 34.8862 17.2126C37.1663 18.0705 39.6945 16.9591 40.5332 14.7303Z" fill="#FFC100"/>
<path d="M36.2677 15.5324C36.2677 15.5324 36.2127 15.5324 36.1797 15.5214C35.8827 15.4664 35.5197 15.4114 35.1127 15.0924C34.1887 14.3664 34.2107 13.3434 34.2547 12.9364C34.3537 12.1554 34.7937 11.5284 35.4427 11.1984C36.2127 10.8244 37.4667 10.9564 38.2367 11.8364C38.4127 12.0344 38.3907 12.3424 38.1927 12.5074C37.9947 12.6724 37.6867 12.6504 37.5107 12.4524C37.0707 11.9574 36.3227 11.8474 35.8937 12.0564C35.5197 12.2324 35.2887 12.5954 35.2227 13.0684C35.1787 13.3764 35.2007 13.9484 35.7067 14.3444C35.9157 14.4984 36.0807 14.5314 36.2897 14.5644C36.6637 14.6304 37.0817 14.5204 37.2027 14.3444C37.2577 14.2674 37.2907 14.1794 37.2907 14.0914V14.0474L36.5647 13.9594C36.3007 13.9264 36.1027 13.6844 36.1357 13.4314C36.1687 13.1784 36.3997 12.9804 36.6747 13.0134L37.8957 13.1674C38.1597 13.2004 38.3577 13.4424 38.3247 13.6954L38.2697 14.2014C38.2477 14.4434 38.1707 14.6744 38.0277 14.8834C37.6647 15.4114 36.8947 15.5984 36.2787 15.5324H36.2677Z" fill="#FFFBED"/>
<defs>
<linearGradient id="paint0_linear_3062_8875" x1="5.31358" y1="10.8243" x2="38.6876" y2="35.2553" gradientUnits="userSpaceOnUse">
<stop stop-color="#636466"/>
<stop offset="0.56" stop-color="#484648"/>
<stop offset="1" stop-color="#312D2E"/>
</linearGradient>
<linearGradient id="paint1_linear_3062_8875" x1="2.62894" y1="8.19555" x2="38.8079" y2="36.0255" gradientUnits="userSpaceOnUse">
<stop stop-color="#FF812A"/>
<stop offset="0.47" stop-color="#FF6333"/>
<stop offset="1" stop-color="#FF3D3F"/>
</linearGradient>
<linearGradient id="paint2_linear_3062_8875" x1="33.0779" y1="9.04827" x2="39.7614" y2="17.3015" gradientUnits="userSpaceOnUse">
<stop offset="0.09" stop-color="#FFE16A"/>
<stop offset="0.53" stop-color="#FFDF52"/>
<stop offset="0.99" stop-color="#FFDE3F"/>
</linearGradient>
</defs>
</svg>
