<svg width="24" height="24" viewBox="-1.75 -1.24 27.64 27.64" fill="none" xmlns="http://www.w3.org/2000/svg">
<g clip-path="url(#clip0_3062_8858)">
<path fill-rule="evenodd" clip-rule="evenodd" d="M15.5687 13.4964L13.8548 10.0731L12.2919 13.8239C12.2241 13.986 12.0588 14.0848 11.9034 14.0825C11.736 14.0768 11.5882 13.9653 11.5302 13.7998L10.0013 9.43066L8.03016 16.4958C7.982 16.6716 7.83425 16.7946 7.66023 16.8049C7.65257 16.806 7.64491 16.806 7.63616 16.806C7.47308 16.806 7.32314 16.7038 7.25857 16.5429L5.66724 12.615L4.85626 14.0136C4.78293 14.1423 4.64941 14.2204 4.50603 14.2204H4.50275C4.35828 14.2193 4.22586 14.1388 4.15253 14.0078L3.13907 12.1967L1.29492 12.2795C3.39736 16.8773 9.03267 20.9833 10.2957 20.9833C11.342 20.9833 16.0711 17.7208 18.6616 13.7584L15.9277 13.7263C15.7767 13.724 15.6388 13.6366 15.5687 13.4964Z" fill="#FF5320"/>
<path fill-rule="evenodd" clip-rule="evenodd" d="M3.72157 11.5369L4.51286 12.9493L5.38185 11.4508C5.46065 11.3128 5.60402 11.2255 5.76162 11.245C5.91484 11.2565 6.04946 11.3577 6.10966 11.5071L7.56527 15.0982L9.56264 7.93314C9.61189 7.75502 9.76511 7.6309 9.94242 7.62401C10.1515 7.63435 10.2806 7.73088 10.3419 7.90671L11.9485 12.4965L13.4436 8.90534C13.507 8.75365 13.6471 8.65367 13.8047 8.64677C13.9678 8.63988 14.1101 8.73181 14.1834 8.87776L16.1819 12.8677L19.1785 12.9033C19.8767 11.6484 20.3441 10.3452 20.3758 9.06622C20.4634 5.51528 18.2307 2.63086 15.1991 2.63086H15.1881C13.1962 2.63086 11.467 3.75705 10.5039 5.42335C9.54075 3.75705 7.81152 2.63086 5.81963 2.63086C2.788 2.63086 0.456829 5.10158 0.500607 9.06622C0.509362 9.8511 0.683379 10.6452 0.961369 11.4312L3.35055 11.3243C3.50925 11.322 3.64496 11.4002 3.72157 11.5369Z" fill="#FF5320"/>
<path fill-rule="evenodd" clip-rule="evenodd" d="M16.1814 12.8677L14.183 8.87662C14.1096 8.73067 13.9674 8.63989 13.8054 8.64679C13.6478 8.65368 13.5077 8.75366 13.4442 8.90535L11.9481 12.4965L10.3415 7.90672C10.2802 7.7309 10.151 7.63437 9.94198 7.62402C9.76578 7.62977 9.61255 7.75503 9.56221 7.93315L7.56484 15.0971L6.10922 11.5059C6.04903 11.3577 5.91551 11.2566 5.76119 11.2451C5.60359 11.2244 5.46131 11.3117 5.38142 11.4508L4.51242 12.9493L3.72114 11.537C3.64453 11.4002 3.50881 11.3221 3.35012 11.3244L0.960938 11.4312C1.06163 11.7151 1.1656 11.9989 1.29474 12.2793L3.13889 12.1966L4.15235 14.0077C4.22568 14.1375 4.35811 14.2191 4.50257 14.2203H4.50586C4.64923 14.2203 4.78166 14.141 4.85608 14.0134L5.66707 12.6149L7.2584 16.5427C7.32297 16.7036 7.47181 16.8059 7.63598 16.8059C7.64474 16.8059 7.6524 16.8059 7.66006 16.8047C7.83407 16.7944 7.98183 16.6714 8.02998 16.4956L10.0011 9.43052L11.53 13.7997C11.588 13.9651 11.7358 14.0766 11.9032 14.0824C12.0586 14.0847 12.2239 13.9858 12.2918 13.8238L13.8546 10.0718L15.5685 13.4963C15.6386 13.6365 15.7765 13.7238 15.9275 13.7261L18.6615 13.7583C18.8464 13.4768 19.0172 13.1918 19.178 12.9033L16.1814 12.8677Z" fill="white"/>
<path fill-rule="evenodd" clip-rule="evenodd" d="M20.0777 19.5704V19.0912V19.082H17.6305C17.2299 19.082 16.8961 19.2245 16.8961 19.3958V19.5704H15.748V20.6277C15.748 20.9494 16.0819 21.2023 16.5065 21.2023H16.8961V22.2158C16.8961 22.387 17.2299 22.5295 17.6305 22.5295H19.3433C19.7439 22.5295 20.0777 22.387 20.0777 22.2158V21.2023H20.4783C20.9029 21.2023 21.2367 20.9494 21.2367 20.6277V19.5704H20.0777Z" fill="#006FDD"/>
<path fill-rule="evenodd" clip-rule="evenodd" d="M18.4487 9.77344C15.5648 9.77344 13.2227 12.2315 13.2227 15.2607C13.2227 18.2888 15.5648 20.7469 18.4487 20.7469C21.3325 20.7469 23.6746 18.2888 23.6746 15.2607C23.6746 12.2315 21.3325 9.77344 18.4487 9.77344Z" fill="#0088F7"/>
<path fill-rule="evenodd" clip-rule="evenodd" d="M18.5084 11.2109C20.6601 11.2109 22.4036 13.0416 22.4036 15.3008C22.4036 17.5601 20.6601 19.3907 18.5084 19.3907C16.3567 19.3907 14.6133 17.5601 14.6133 15.3008C14.6133 13.0416 16.3567 11.2109 18.5084 11.2109Z" fill="white"/>
<path fill-rule="evenodd" clip-rule="evenodd" d="M18.8914 15.4025V13.6776C18.8914 13.4558 18.7196 13.2754 18.5072 13.2754C18.296 13.2754 18.1242 13.4558 18.1242 13.6776V15.4025C17.809 15.5565 17.5879 15.8863 17.5879 16.2747C17.5879 16.8079 17.9994 17.24 18.5072 17.24C19.0161 17.24 19.4277 16.8079 19.4277 16.2747C19.4277 15.8863 19.2066 15.5553 18.8914 15.4025Z" fill="#F52020"/>
</g>
<defs>
<clipPath id="clip0_3062_8858">
<rect width="24" height="21" fill="white" transform="translate(0 2)"/>
</clipPath>
</defs>
</svg>
