<svg width="24" height="24" viewBox="-1.89 -1.86 27.77 27.77" fill="none" xmlns="http://www.w3.org/2000/svg">
<mask id="mask0_3062_8851" style="mask-type:luminance" maskUnits="userSpaceOnUse" x="3" y="0" width="18" height="6">
<path d="M3.66992 0.5H20.3274V5.62742H3.66992V0.5Z" fill="white"/>
</mask>
<g mask="url(#mask0_3062_8851)">
<path fill-rule="evenodd" clip-rule="evenodd" d="M15.9393 0.916464C15.2138 0.361179 14.0376 0.361179 13.3122 0.916464C12.5867 1.47183 11.4106 1.47183 10.6851 0.916464C9.95963 0.361179 8.78343 0.361179 8.05803 0.916464C7.33255 1.47183 6.15635 1.47183 5.43095 0.916464C4.95306 0.550723 4.2812 0.430994 3.66992 0.547011L7.59752 5.62743H16.3997L20.3274 0.547011C19.7161 0.430994 19.0442 0.550723 18.5664 0.916464C17.8409 1.47183 16.6647 1.47183 15.9393 0.916464Z" fill="#FFCE55"/>
</g>
<mask id="mask1_3062_8851" style="mask-type:luminance" maskUnits="userSpaceOnUse" x="1" y="5" width="22" height="19">
<path d="M1 5.62891H23V23.6912H1V5.62891Z" fill="white"/>
</mask>
<g mask="url(#mask1_3062_8851)">
<path fill-rule="evenodd" clip-rule="evenodd" d="M19.7856 22.4338C17.7954 23.4454 15.0443 23.6912 12 23.6912C7.49505 23.6912 3.62353 23.1476 1.92648 20.3916C1.33083 19.4321 1 18.1983 1 16.6289C1 16.4729 1.00466 16.3217 1.0094 16.1656C1.04723 15.2675 1.18907 14.3977 1.43485 13.5704C2.2243 10.8193 4.06319 8.51243 6.49291 7.10846C8.10957 6.16776 9.99095 5.62891 12 5.62891C17.7671 5.62891 22.4942 10.0676 22.9574 15.7118C22.9858 16.0144 23 16.3217 23 16.6289C23 19.659 21.7756 21.4269 19.7856 22.4338Z" fill="#FFCE55"/>
</g>
<path fill-rule="evenodd" clip-rule="evenodd" d="M18.0428 7.25327H5.9524C5.58927 7.25327 5.29492 6.95892 5.29492 6.59579V4.65936C5.29492 4.2963 5.58927 4.00195 5.9524 4.00195H18.0428C18.4059 4.00195 18.7003 4.2963 18.7003 4.65936V6.59579C18.7003 6.95892 18.4059 7.25327 18.0428 7.25327Z" fill="#E09105"/>
<path fill-rule="evenodd" clip-rule="evenodd" d="M12.6465 14.8929C12.6428 14.8929 12.6393 14.8929 12.6357 14.8928L11.5094 14.8935L11.5123 14.8924C10.9896 14.9068 10.9954 14.5096 10.9954 14.5096L10.9949 14.5365V12.5836L10.9987 12.6001C10.9648 12.1432 11.4059 12.185 11.4059 12.185L11.3996 12.1829L12.6619 12.1903C13.4427 12.1959 14.0737 12.8066 14.0683 13.5516C14.063 14.2933 13.4293 14.8929 12.6465 14.8929ZM12.6737 10.3778L10.0208 10.3625C10.013 10.3623 10.0053 10.3613 9.9974 10.3613C9.99116 10.3613 9.98508 10.3621 9.97892 10.3622L9.92972 10.362L9.92427 10.3618C9.47986 10.3618 9.11017 10.6826 9.03357 11.1059C9.0124 11.1868 9 11.2712 9 11.3587V19.3137C9 19.8646 9.44654 20.3111 9.9974 20.3111C10.5483 20.3111 10.9949 19.8646 10.9949 19.3137V16.7063L12.6299 16.7052C12.6377 16.7053 12.6456 16.7053 12.6535 16.7053C14.4229 16.7053 15.8684 15.3012 15.8807 13.5646C15.8932 11.8202 14.4551 10.3906 12.6737 10.3778Z" fill="white"/>
</svg>
