<svg width="44" height="44" viewBox="1.92 0.53 43.53 43.53" fill="none" xmlns="http://www.w3.org/2000/svg">
<g clip-path="url(#clip0_3062_8874)">
<path d="M13.9959 13.1296C13.5529 13.1296 13.1855 12.7622 13.1855 12.3193V9.38049C13.1855 6.42011 15.5949 4.01074 18.5553 4.01074C21.5157 4.01074 23.925 6.42011 23.925 9.38049V12.0276C23.925 12.4705 23.5577 12.8379 23.1147 12.8379C22.6717 12.8379 22.3044 12.4705 22.3044 12.0276V9.38049C22.3044 7.30606 20.6189 5.63139 18.5553 5.63139C16.4917 5.63139 14.8062 7.31687 14.8062 9.38049V12.3193C14.8062 12.7622 14.4388 13.1296 13.9959 13.1296Z" fill="#5E4740"/>
<path d="M27.9231 39.687H10.2148C7.62175 39.687 5.55812 37.5262 5.66617 34.944L6.58453 14.8911C6.69258 12.4602 8.69138 10.5586 11.1223 10.5586H27.0047C29.4357 10.5586 31.4345 12.471 31.5425 14.8911L32.4609 34.944C32.5797 37.537 30.5161 39.6979 27.9231 39.6979V39.687Z" fill="url(#paint0_linear_3062_8874)"/>
<path d="M38.8036 40.5729H24.369C22.6836 40.5729 21.3546 39.0279 21.5059 37.2344L22.4351 26.43C22.5755 24.8526 23.8072 23.6533 25.2982 23.6533H37.8744C39.3546 23.6533 40.5971 24.8634 40.7376 26.43L41.6668 37.2344C41.818 39.0279 40.4999 40.5729 38.8036 40.5729Z" fill="url(#paint1_linear_3062_8874)"/>
<path d="M32.0713 31.1295C30.2993 31.1295 28.8516 29.6817 28.8516 27.9098V26.4188C28.8516 26.0622 29.1433 25.7705 29.4998 25.7705C29.8564 25.7705 30.1481 26.0622 30.1481 26.4188V27.9098C30.1481 28.9686 31.0124 29.833 32.0713 29.833C33.1301 29.833 33.9944 28.9686 33.9944 27.9098V26.2459C33.9944 25.8894 34.2861 25.5977 34.6427 25.5977C34.9992 25.5977 35.2909 25.8894 35.2909 26.2459V27.9098C35.2909 29.6817 33.8432 31.1295 32.0713 31.1295Z" fill="#5E504C"/>
</g>
<defs>
<linearGradient id="paint0_linear_3062_8874" x1="5.28802" y1="15.3773" x2="33.12" y2="35.7435" gradientUnits="userSpaceOnUse">
<stop stop-color="#FF91D3"/>
<stop offset="0.36" stop-color="#FF76B4"/>
<stop offset="1" stop-color="#FF3F76"/>
</linearGradient>
<linearGradient id="paint1_linear_3062_8874" x1="22.381" y1="25.7169" x2="41.0725" y2="39.3952" gradientUnits="userSpaceOnUse">
<stop stop-color="#FAFF62"/>
<stop offset="0.34" stop-color="#F6E443"/>
<stop offset="1" stop-color="#EFAA00"/>
</linearGradient>
<clipPath id="clip0_3062_8874">
<rect width="36" height="36.5726" fill="white" transform="translate(5.66602 4)"/>
</clipPath>
</defs>
</svg>
