<svg width="24" height="24" viewBox="0.10 0.10 23.81 23.81" fill="none" xmlns="http://www.w3.org/2000/svg">
<g clip-path="url(#clip0_3062_8864)">
<g filter="url(#filter0_d_3062_8864)">
<path d="M16 17.1C16 20.6 14.6 22 11.1 22H6.9C3.4 22 2 20.6 2 17.1V12.9C2 9.4 3.4 8 6.9 8H11.1C14.6 8 16 9.4 16 12.9V17.1Z" fill="black"/>
</g>
<path d="M16 17.1C16 20.6 14.6 22 11.1 22H6.9C3.4 22 2 20.6 2 17.1V12.9C2 9.4 3.4 8 6.9 8H11.1C14.6 8 16 9.4 16 12.9V17.1Z" fill="white"/>
<g filter="url(#filter1_d_3062_8864)">
<path d="M12.8998 2C9.44976 2 8.04977 3.37 8.00977 6.75H11.0998C15.2998 6.75 17.2498 8.7 17.2498 12.9V14.78C17.2505 15.2533 17.6348 15.6365 18.1082 15.6358C18.2194 15.6356 18.3294 15.6139 18.4317 15.5704C20.8104 14.5835 21.9998 13.0934 21.9998 11.1V6.9C21.9998 3.4 20.5998 2 17.0998 2H12.8998Z" fill="black"/>
</g>
<path d="M12.8998 2C9.44976 2 8.04977 3.37 8.00977 6.75H11.0998C15.2998 6.75 17.2498 8.7 17.2498 12.9V14.78C17.2505 15.2533 17.6348 15.6365 18.1082 15.6358C18.2194 15.6356 18.3294 15.6139 18.4317 15.5704C20.8104 14.5835 21.9998 13.0934 21.9998 11.1V6.9C21.9998 3.4 20.5998 2 17.0998 2H12.8998Z" fill="white"/>
</g>
<defs>
<filter id="filter0_d_3062_8864" x="0.5" y="6.5" width="17" height="17" filterUnits="userSpaceOnUse" color-interpolation-filters="sRGB">
<feFlood flood-opacity="0" result="BackgroundImageFix"/>
<feColorMatrix in="SourceAlpha" type="matrix" values="0 0 0 0 0 0 0 0 0 0 0 0 0 0 0 0 0 0 127 0" result="hardAlpha"/>
<feOffset/>
<feGaussianBlur stdDeviation="0.75"/>
<feColorMatrix type="matrix" values="0 0 0 0 0 0 0 0 0 0 0 0 0 0 0 0 0 0 0.1 0"/>
<feBlend mode="normal" in2="BackgroundImageFix" result="effect1_dropShadow_3062_8864"/>
<feBlend mode="normal" in="SourceGraphic" in2="effect1_dropShadow_3062_8864" result="shape"/>
</filter>
<filter id="filter1_d_3062_8864" x="6.50977" y="0.5" width="16.9902" height="16.6357" filterUnits="userSpaceOnUse" color-interpolation-filters="sRGB">
<feFlood flood-opacity="0" result="BackgroundImageFix"/>
<feColorMatrix in="SourceAlpha" type="matrix" values="0 0 0 0 0 0 0 0 0 0 0 0 0 0 0 0 0 0 127 0" result="hardAlpha"/>
<feOffset/>
<feGaussianBlur stdDeviation="0.75"/>
<feColorMatrix type="matrix" values="0 0 0 0 0 0 0 0 0 0 0 0 0 0 0 0 0 0 0.1 0"/>
<feBlend mode="normal" in2="BackgroundImageFix" result="effect1_dropShadow_3062_8864"/>
<feBlend mode="normal" in="SourceGraphic" in2="effect1_dropShadow_3062_8864" result="shape"/>
</filter>
<clipPath id="clip0_3062_8864">
<rect width="24" height="24" fill="white"/>
</clipPath>
</defs>
</svg>
