<svg width="24" height="24" viewBox="-1.85 -1.56 27.79 27.79" fill="none" xmlns="http://www.w3.org/2000/svg">
<g clip-path="url(#clip0_3062_8860)">
<path d="M11.5618 1.11719C10.9342 1.11719 10.425 1.63194 10.425 2.27538V5.78504H8.98026V2.27538C8.98026 1.63194 8.47105 1.11719 7.84342 1.11719C7.21579 1.11719 6.70658 1.63194 6.70658 2.27538V5.78504H5.27368V2.29877C5.27368 1.66703 4.76447 1.14059 4.13684 1.14059C3.50921 1.14059 3 1.65534 3 2.29877V6.05412C3 6.13601 3.03553 6.2062 3.04737 6.28809C3.23684 8.51088 4.575 10.3359 6.39868 11.0027L6.00789 21.9997C5.98421 22.7718 6.54079 23.4153 7.25131 23.4153H8.26974C8.98026 23.4153 9.53684 22.7718 9.51316 21.9997L9.12237 11.0612C11.1711 10.4295 12.6868 8.3237 12.6987 5.79674C12.6987 5.79674 12.6987 5.78504 12.6987 5.77334V2.27538C12.6987 1.63194 12.1895 1.11719 11.5618 1.11719Z" fill="#E0E0E0"/>
<path d="M20.1938 12.1374V2.00613C20.1938 1.02342 18.7017 0.660758 17.8609 1.38609C16.9254 2.20501 16.0373 3.60888 15.3741 5.10633C14.1188 7.89067 13.4912 11.3769 13.278 12.6521C13.1715 13.2839 13.7636 13.7869 14.557 13.7869H17.3044L17.0202 21.5667C16.9965 22.3154 17.553 22.9471 18.2636 22.9471H19.282C19.9925 22.9471 20.5491 22.3271 20.5254 21.5667L20.182 12.1374H20.1938Z" fill="#E0E0E0"/>
<path d="M8.22323 24.0003H7.39429C6.34034 24.0003 5.49955 22.9474 5.5706 21.6956L5.97323 14.4306C5.99692 14.0796 6.2456 13.7988 6.54165 13.7988H9.01665C9.31271 13.7988 9.56139 14.0796 9.58508 14.4306L9.98771 21.7775C10.0588 22.9825 9.24165 24.0003 8.22323 24.0003Z" fill="#FF648D"/>
<path d="M19.069 23.9997H18.3467C17.3401 23.9997 16.5467 23.1457 16.6177 22.1513L17.0914 15.6584C17.1151 15.401 17.3282 15.1904 17.6006 15.1904H20.0401C20.3006 15.1904 20.5256 15.3893 20.5493 15.6584L21.0111 21.9407C21.094 23.0521 20.2059 23.9997 19.0809 23.9997H19.069Z" fill="#FF648D"/>
</g>
<defs>
<clipPath id="clip0_3062_8860">
<rect width="18" height="23" fill="white" transform="translate(3 1)"/>
</clipPath>
</defs>
</svg>
