<svg width="24" height="24" viewBox="-5.52 -1.55 31.81 31.81" fill="none" xmlns="http://www.w3.org/2000/svg">
<path d="M10.3565 5.13226C10.1824 4.95905 9.96757 4.83241 9.73172 4.764C9.49586 4.69559 9.24659 4.68762 9.00684 4.7408C8.76709 4.79398 8.54457 4.90662 8.35977 5.06835C8.17497 5.23007 8.03382 5.43569 7.94931 5.66626L3.08811 19.0343C3.00794 19.2549 2.98195 19.4915 3.01231 19.7242C3.04268 19.957 3.12851 20.179 3.26259 20.3717C3.39667 20.5643 3.57507 20.7219 3.78277 20.8313C3.99047 20.9406 4.2214 20.9984 4.45611 20.9999C4.62771 20.9987 4.79931 20.9675 4.96011 20.9075L18.3317 16.0463C18.5626 15.962 18.7686 15.8209 18.9306 15.6361C19.0926 15.4512 19.2055 15.2286 19.2588 14.9886C19.3121 14.7487 19.3042 14.4992 19.2357 14.2631C19.1672 14.027 19.0404 13.812 18.8669 13.6379L10.3577 5.13226H10.3565Z" fill="#FFD200"/>
<mask id="mask0_3062_8872" style="mask-type:luminance" maskUnits="userSpaceOnUse" x="3" y="4" width="17" height="17">
<path d="M10.3565 5.13226C10.1824 4.95905 9.96757 4.83241 9.73172 4.764C9.49586 4.69559 9.24659 4.68762 9.00684 4.7408C8.76709 4.79398 8.54458 4.90662 8.35977 5.06835C8.17497 5.23007 8.03382 5.43569 7.94931 5.66626L3.08811 19.0343C3.00794 19.2549 2.98195 19.4915 3.01231 19.7242C3.04268 19.957 3.12851 20.179 3.26259 20.3717C3.39667 20.5643 3.57507 20.7219 3.78277 20.8313C3.99047 20.9406 4.2214 20.9984 4.45611 20.9999C4.62771 20.9987 4.79931 20.9675 4.96011 20.9075L18.3317 16.0463C18.5626 15.962 18.7686 15.8209 18.9306 15.6361C19.0926 15.4512 19.2055 15.2286 19.2588 14.9886C19.3121 14.7487 19.3042 14.4992 19.2357 14.2631C19.1672 14.027 19.0404 13.812 18.8669 13.6379L10.3577 5.13226H10.3565Z" fill="white"/>
</mask>
<g mask="url(#mask0_3062_8872)">
<path d="M-2.2168 16.4036L-0.0951965 14.282L11.2184 25.5956L9.0968 27.7172L-2.2168 16.4036ZM1.784 13.4036L3.9044 11.282L15.218 22.5956L13.0964 24.7172L1.784 13.4036ZM4.7828 9.40285L6.9044 7.28125L18.218 18.5948L16.0964 20.7164L4.7828 9.40285Z" fill="#FF8800"/>
</g>
<path d="M14.8516 6.92589C14.8648 6.42549 14.986 5.93349 15.2068 5.48349C15.6988 4.50309 16.6228 3.96309 17.8144 3.96309C18.436 3.96309 18.8344 3.75069 19.0792 3.29589C19.2088 3.04029 19.2832 2.76189 19.2964 2.47629C19.2972 2.27976 19.376 2.0916 19.5155 1.9532C19.6551 1.8148 19.8438 1.73749 20.0404 1.73829C20.2369 1.73908 20.4251 1.81792 20.5635 1.95744C20.7019 2.09697 20.7792 2.28576 20.7784 2.48229C20.7784 3.67269 19.99 5.44509 17.8144 5.44509C17.194 5.44509 16.7956 5.65629 16.5508 6.11229C16.4212 6.36669 16.3468 6.64629 16.3336 6.93189C16.3328 7.12841 16.2539 7.31657 16.1144 7.45498C15.9749 7.59338 15.7861 7.67068 15.5896 7.66989C15.393 7.66909 15.2049 7.59026 15.0665 7.45073C14.9281 7.31121 14.8508 7.12241 14.8516 6.92589Z" fill="#8174FF"/>
<path d="M12.627 3.96385V1.73905C12.627 1.54252 12.705 1.35405 12.844 1.21508C12.983 1.07612 13.1714 0.998047 13.368 0.998047C13.5645 0.998047 13.753 1.07612 13.8919 1.21508C14.0309 1.35405 14.109 1.54252 14.109 1.73905V3.96385C14.109 4.16037 14.0309 4.34885 13.8919 4.48781C13.753 4.62678 13.5645 4.70485 13.368 4.70485C13.1714 4.70485 12.983 4.62678 12.844 4.48781C12.705 4.34885 12.627 4.16037 12.627 3.96385Z" fill="#FF7474"/>
<path d="M22.0417 11.5871C22.1119 11.6556 22.1677 11.7373 22.206 11.8275C22.2444 11.9178 22.2644 12.0147 22.2649 12.1127C22.2655 12.2107 22.2466 12.3079 22.2093 12.3985C22.172 12.4892 22.1171 12.5715 22.0478 12.6408C21.9784 12.7101 21.896 12.7649 21.8053 12.802C21.7146 12.8392 21.6175 12.858 21.5194 12.8573C21.4214 12.8567 21.3245 12.8365 21.2343 12.7981C21.1442 12.7597 21.0625 12.7037 20.9941 12.6335L19.5121 11.1527C19.4433 11.0839 19.3886 11.0021 19.3514 10.9121C19.3141 10.8222 19.2949 10.7257 19.2949 10.6283C19.2949 10.5309 19.3141 10.4345 19.3514 10.3445C19.3886 10.2546 19.4433 10.1728 19.5121 10.1039C19.581 10.0351 19.6628 9.98044 19.7527 9.94317C19.8427 9.9059 19.9391 9.88672 20.0365 9.88672C20.1339 9.88672 20.2304 9.9059 20.3203 9.94317C20.4103 9.98044 20.4921 10.0351 20.5609 10.1039L22.0417 11.5871Z" fill="#5DA8FF"/>
<path d="M22.4944 7.62849L20.272 8.36889C20.089 8.41917 19.8936 8.39735 19.7262 8.30791C19.5587 8.21846 19.432 8.06822 19.372 7.88812C19.312 7.70801 19.3234 7.51176 19.4037 7.33979C19.4841 7.16781 19.6274 7.03321 19.804 6.96369L22.0264 6.22329C22.2085 6.17573 22.4018 6.19917 22.5673 6.28886C22.7327 6.37855 22.8579 6.52778 22.9174 6.70631C22.9769 6.88483 22.9663 7.07931 22.8878 7.25032C22.8092 7.42134 22.6686 7.5561 22.4944 7.62729" fill="#FF7474"/>
</svg>
