<svg width="24" height="24" viewBox="0 0 24 24" fill="none" xmlns="http://www.w3.org/2000/svg">
  <g transform="translate(0 0)">
    <g id="Vector">
    </g>
  </g>
  <g transform="translate(3 4.7064)">
    <path id="Vector" d="M7.35651 0.42621C7.18243 0.252997 6.96757 0.126357 6.73171 0.0579487C6.49586 -0.0104599 6.24659 -0.0184393 6.00684 0.0347449C5.76709 0.0879291 5.54457 0.200568 5.35977 0.362293C5.17497 0.524018 5.03382 0.729633 4.94931 0.96021L0.0881082 14.3282C0.00794297 14.5488 -0.0180517 14.7854 0.0123125 15.0182C0.0426766 15.2509 0.128511 15.473 0.26259 15.6656C0.396668 15.8583 0.575068 16.0159 0.78277 16.1252C0.990472 16.2345 1.2214 16.2924 1.45611 16.2938C1.62771 16.2926 1.79931 16.2614 1.96011 16.2014L15.3317 11.3402C15.5626 11.2559 15.7686 11.1149 15.9306 10.93C16.0926 10.7452 16.2055 10.5225 16.2588 10.2826C16.3121 10.0426 16.3042 9.79311 16.2357 9.55704C16.1672 9.32098 16.0404 9.10596 15.8669 8.93181L7.35771 0.42621H7.35651Z" fill="#FFD200"/>
  </g>
  <g transform="translate(14.8488 1.7376)">
    <path id="Vector" d="M6.08138e-06 5.18761C0.0132061 4.68721 0.134406 4.19521 0.355206 3.74521C0.847206 2.76481 1.77121 2.22481 2.96281 2.22481C3.58441 2.22481 3.98281 2.01241 4.22761 1.55761C4.35721 1.30201 4.43161 1.02361 4.44481 0.738006C4.4456 0.541481 4.52443 0.353321 4.66396 0.214919C4.80349 0.0765168 4.99228 -0.000789568 5.18881 6.0814e-06C5.38533 0.000801731 5.57349 0.0796342 5.71189 0.219161C5.8503 0.358688 5.9276 0.547481 5.92681 0.744006C5.92681 1.93441 5.13841 3.70681 2.96281 3.70681C2.34241 3.70681 1.94401 3.91801 1.69921 4.37401C1.56961 4.62841 1.49521 4.90801 1.48201 5.19361C1.48121 5.39013 1.40238 5.57829 1.26285 5.71669C1.12332 5.8551 0.934531 5.9324 0.738006 5.93161C0.541481 5.93081 0.35332 5.85198 0.214918 5.71245C0.0765163 5.57292 -0.000789564 5.38413 6.08138e-06 5.18761Z" fill="#8174FF"/>
  </g>
  <g transform="translate(12.6264 0.9984)">
    <path id="Vector" d="M0 2.9658V0.741C0 0.544474 0.0780693 0.355998 0.217034 0.217034C0.355998 0.0780694 0.544474 0 0.740999 0C0.937525 0 1.126 0.0780694 1.26497 0.217034C1.40393 0.355998 1.482 0.544474 1.482 0.741V2.9658C1.482 3.16232 1.40393 3.3508 1.26497 3.48977C1.126 3.62873 0.937525 3.7068 0.740999 3.7068C0.544474 3.7068 0.355998 3.62873 0.217034 3.48977C0.0780693 3.3508 0 3.16232 0 2.9658Z" fill="#FF7474"/>
  </g>
  <g transform="translate(19.296 9.888)">
    <path id="Vector" d="M2.74681 1.70041C2.81695 1.76888 2.8728 1.8506 2.91111 1.94081C2.94943 2.03103 2.96945 2.12796 2.97001 2.22598C2.97058 2.32399 2.95167 2.42115 2.91439 2.5118C2.87712 2.60245 2.82221 2.6848 2.75287 2.75407C2.68352 2.82334 2.6011 2.87815 2.51041 2.91532C2.41971 2.95249 2.32254 2.97129 2.22452 2.97061C2.12651 2.96994 2.0296 2.94981 1.93943 2.91139C1.84925 2.87297 1.7676 2.81703 1.69921 2.74681L0.217213 1.26601C0.148348 1.19715 0.093721 1.11539 0.0564514 1.02542C0.0191818 0.93544 7.25611e-10 0.839004 0 0.741614C-7.25613e-10 0.644224 0.0191818 0.547787 0.0564514 0.45781C0.093721 0.367834 0.148348 0.286079 0.217213 0.217213C0.286079 0.148348 0.367833 0.0937215 0.45781 0.056452C0.547786 0.0191824 0.644223 -7.25612e-10 0.741613 0C0.839003 7.25612e-10 0.93544 0.0191824 1.02542 0.056452C1.11539 0.0937215 1.19715 0.148348 1.26601 0.217213L2.74681 1.70041Z" fill="#5DA8FF"/>
  </g>
  <g transform="translate(19.332 6.1992)">
    <path id="Vector" d="M3.16043 1.42928L0.938033 2.16967C0.754984 2.21996 0.559622 2.19813 0.392183 2.10869C0.224745 2.01925 0.0979802 1.869 0.0379969 1.6889C-0.0219865 1.50879 -0.0106209 1.31254 0.0697531 1.14057C0.150127 0.968595 0.293389 0.833989 0.470033 0.764475L2.69243 0.0240754C2.87451 -0.0234841 3.06786 -4.51056e-05 3.2333 0.0896426C3.39874 0.17933 3.52389 0.328558 3.5834 0.507086C3.64291 0.685615 3.63232 0.88009 3.55378 1.0511C3.47524 1.22212 3.33463 1.35688 3.16043 1.42807" fill="#FF7474"/>
  </g>
</svg>
