<svg width="24" height="24" viewBox="0 0 24 24" fill="none" xmlns="http://www.w3.org/2000/svg">
<path d="M3.00238 21.7111C1.51506 21.7111 0.907996 20.6589 1.65165 19.3714L10.6489 3.78495C11.3925 2.49746 12.6092 2.49746 13.3503 3.78495L22.3501 19.3739C23.0938 20.6614 22.4842 21.7137 20.9994 21.7137H3.00238V21.7111Z" fill="#FFC303"/>
<path d="M12.7742 14.8261C12.754 15.3421 12.3442 15.6077 11.9345 15.6077C11.5247 15.6077 11.1352 15.3447 11.1149 14.8261L10.9303 10.0859C10.91 9.59775 11.4083 9.31445 11.9345 9.31445C12.4606 9.31445 12.969 9.59775 12.9488 10.0859L12.7742 14.8261ZM11.937 16.2983C12.4935 16.2983 12.9412 16.746 12.9412 17.2822C12.9412 17.8184 12.4935 18.2864 11.937 18.2864C11.3805 18.2864 10.9429 17.8387 10.9429 17.2822C10.9429 16.7257 11.3906 16.2983 11.937 16.2983Z" fill="#333333"/>
</svg>
