<svg width="163" height="69" viewBox="0 0 163 69" fill="none" xmlns="http://www.w3.org/2000/svg">
<path d="M75.2216 11.2518C75.2216 10.2518 74.5916 9.83181 73.6816 9.83181C70.1816 9.83181 67.9316 16.6318 67.9316 21.1318C67.9316 23.5918 68.4316 25.5918 70.9716 25.5918C73.8916 25.5918 76.2516 23.8818 78.1516 21.7518C78.2016 21.7018 78.2616 21.6718 78.3416 21.6718H79.1116C79.3216 21.6718 79.4416 21.9118 79.3116 22.0818C77.3816 24.5018 74.9816 29.1418 68.0216 29.1418C64.5616 29.1418 62.3116 27.2218 62.3116 22.3018C62.3116 16.2118 64.9416 8.17181 73.0216 8.17181C75.2716 8.17181 77.6116 8.75181 77.6116 11.0518C77.6116 11.4218 77.5816 11.7418 77.4816 12.1318C77.4416 12.2718 77.2916 12.3618 77.1516 12.3018C76.9516 12.2318 76.6916 12.1718 76.3616 12.1718C76.0916 12.1718 75.7916 12.2118 75.4416 12.3018C75.2616 12.3518 75.0916 12.1818 75.1316 12.0018C75.1916 11.7218 75.2316 11.4818 75.2316 11.2518H75.2216Z" fill="#605151"/>
<path d="M96.7217 8.29181C96.8817 8.29181 97.0017 8.44181 96.9717 8.59181L94.0717 22.4618C93.9417 23.0918 93.8617 23.5918 93.8617 24.0018C93.8617 24.8818 94.1917 25.3318 95.1517 25.3318C95.6017 25.3318 96.2117 24.7718 96.8617 23.8518C96.8917 23.8118 96.9117 23.7618 96.9117 23.7118C96.9317 20.3918 98.3517 18.5118 99.9517 18.3018C100.032 18.2918 100.102 18.2418 100.142 18.1718C101.582 15.5218 102.512 11.9418 103.212 8.85181C103.232 8.75181 103.312 8.68181 103.402 8.66181L108.982 7.50181C109.142 7.47181 109.282 7.59181 109.282 7.75181V8.02181C109.282 14.9018 112.072 16.9818 112.112 21.8518C112.112 21.8518 112.112 21.8618 112.112 21.8718V22.1318C112.092 22.3618 112.362 22.4818 112.522 22.3318C113.372 21.5518 114.112 20.7818 114.582 20.2618C114.692 20.1418 114.872 20.1518 114.972 20.2818L115.722 21.2618C115.802 21.3718 115.782 21.5218 115.682 21.6118C114.542 22.5218 112.972 23.8918 111.412 25.2218C111.382 25.2418 111.362 25.2718 111.352 25.3018C110.262 27.5718 107.892 29.1318 104.032 29.1318C100.422 29.1318 98.2217 28.3618 97.3417 26.2518C97.2717 26.0718 97.0317 26.0318 96.9117 26.1818C95.5017 27.9118 94.1117 29.1218 92.9817 29.1218C90.2917 29.1218 88.7417 28.0618 88.1217 26.3318C88.0517 26.1418 87.8117 26.1118 87.6917 26.2618C86.4517 27.8718 84.6617 29.3718 82.2717 29.3718C78.2717 29.3718 77.1017 26.5418 77.1017 24.0818C77.1017 16.9118 79.6817 8.32181 88.0217 8.32181C88.8917 8.32181 89.7917 8.64181 90.5117 9.13181C90.6617 9.23181 90.8617 9.16181 90.9017 8.98181L91.0217 8.47181C91.0517 8.36181 91.1517 8.27181 91.2717 8.27181H96.7217V8.29181ZM90.3717 11.5718C90.3917 11.4818 90.3617 11.3818 90.2817 11.3218C89.6417 10.8218 88.9017 10.6718 88.3617 10.6718C85.2317 10.6718 82.7317 17.3018 82.7317 22.9718C82.7317 25.4718 84.1117 25.9318 85.1517 25.9318C86.0917 25.9318 86.9917 25.0118 87.8117 23.8718C87.8417 23.8318 87.8617 23.7818 87.8617 23.7318C87.8617 23.3318 87.9517 22.9018 88.0717 22.4718L90.3717 11.5718ZM100.532 23.5118C100.132 23.5118 99.7517 23.4318 99.3517 23.2918C99.2017 23.2418 99.0417 23.3318 99.0117 23.4918C98.9917 23.6118 98.9817 23.7318 98.9817 23.8518C98.9817 25.6418 100.942 26.6818 102.572 26.6818C103.992 26.6818 106.032 24.9318 106.032 21.7218C106.032 19.3918 104.502 17.3618 104.142 13.1518C104.122 12.8718 103.722 12.8318 103.652 13.1018C103.162 14.7918 102.672 16.6818 102.012 18.2718C101.962 18.4018 102.012 18.5418 102.142 18.6018C102.972 18.9718 103.282 19.7018 103.282 20.8518C103.282 22.4318 101.992 23.5218 100.532 23.5218V23.5118Z" fill="#605151"/>
<path d="M128.002 29.1418C125.042 29.1418 123.752 27.1818 123.752 24.5518C123.752 23.8818 123.832 23.1718 124.002 22.4718L125.582 14.9718C125.582 14.9718 125.582 14.9618 125.582 14.9518C125.622 14.6618 125.662 14.3318 125.662 14.0018C125.662 12.6718 125.082 11.4218 123.782 11.4218C122.812 11.4218 122.042 11.6918 121.232 12.2818C121.182 12.3218 121.142 12.3718 121.132 12.4318L117.612 28.9418C117.592 29.0618 117.482 29.1418 117.362 29.1418H111.872C111.712 29.1418 111.592 28.9918 111.622 28.8418L117.582 0.961796C117.602 0.861796 117.692 0.781796 117.792 0.761796L123.442 0.00179649C123.612 -0.0182035 123.762 0.131796 123.722 0.301796L121.682 9.9118C121.632 10.1318 121.882 10.3018 122.072 10.1718C123.642 9.1018 125.362 8.2918 127.012 8.2918C129.342 8.2918 131.802 10.8318 131.802 13.5818C131.802 13.8718 131.802 14.2118 131.722 14.5018L130.012 22.4618C129.882 23.0018 129.682 23.6318 129.682 24.1718C129.682 24.8818 130.012 25.4218 131.262 25.4218C131.442 25.4218 131.682 25.4218 131.922 25.3918C132.112 25.3718 132.262 25.5518 132.192 25.7318C131.032 28.9018 129.362 29.1318 128.002 29.1318V29.1418Z" fill="#605151"/>
<path d="M109.512 37.4518C109.512 43.9518 106.222 55.3818 97.7916 55.3818C95.1316 55.3818 93.3516 54.4218 92.7916 52.3418C92.7416 52.1618 92.5216 52.0918 92.3816 52.2118C90.5016 53.8918 88.3916 55.3818 86.7416 55.3818C83.5316 55.3818 81.5316 53.9618 81.5316 50.8418C81.5316 50.2118 81.6116 49.5118 81.7816 48.7118L84.7416 34.7318C84.7616 34.6118 84.8716 34.5318 84.9916 34.5318H90.4816C90.6416 34.5318 90.7616 34.6818 90.7316 34.8318L87.7916 48.7018C87.7116 49.1618 87.6216 49.6218 87.6216 49.9918C87.6216 50.9118 88.0416 51.5718 89.7016 51.5718C90.5516 51.5718 91.5616 50.9818 92.5316 50.1818C92.5916 50.1318 92.6216 50.0718 92.6216 49.9918C92.6316 49.6018 92.7116 49.1418 92.8316 48.6918L95.7916 34.7118C95.8116 34.5918 95.9216 34.5118 96.0416 34.5118H101.532C101.692 34.5118 101.812 34.6618 101.782 34.8118L98.8416 48.6818C98.7116 49.2618 98.6316 49.7618 98.6316 50.2218C98.6316 51.0118 99.0116 51.5518 100.212 51.5518C104.202 51.5518 106.952 42.8618 107.082 38.2218C107.082 38.0518 106.932 37.9318 106.772 37.9718C106.582 38.0218 106.372 38.0518 106.212 38.0518C105.002 38.0518 104.462 36.8818 104.462 35.7218C104.462 34.8418 105.462 33.6818 106.842 33.6818C108.632 33.6818 109.512 35.2618 109.512 37.4318V37.4518Z" fill="#605151"/>
<path d="M129.042 34.5318C129.202 34.5318 129.322 34.6818 129.292 34.8318L126.352 48.7018C126.272 49.1618 126.182 49.6218 126.182 49.9918C126.182 50.9118 126.602 51.5718 128.262 51.5718C129.922 51.5718 132.042 49.3018 133.692 47.9618C133.742 47.9218 133.792 47.9018 133.852 47.9018H134.582C134.802 47.9018 134.922 48.1718 134.762 48.3318C132.642 50.5318 128.332 55.3718 125.302 55.3718C122.792 55.3718 121.022 54.5118 120.352 52.6518C120.282 52.4718 120.042 52.4318 119.922 52.5918C118.682 54.1618 116.902 55.6218 114.542 55.6218C110.542 55.6218 109.372 52.7918 109.372 50.3318C109.372 43.1618 111.952 34.5718 120.292 34.5718C121.162 34.5718 122.062 34.8918 122.782 35.3818C122.932 35.4818 123.132 35.4118 123.172 35.2318L123.292 34.7218C123.322 34.6118 123.422 34.5218 123.542 34.5218H129.032L129.042 34.5318ZM115.012 49.2018C115.012 51.7018 116.392 52.1618 117.432 52.1618C118.372 52.1618 119.282 51.2718 120.062 50.1318C120.082 50.1018 120.102 50.0618 120.102 50.0218C120.142 49.6218 120.222 49.1818 120.342 48.7118L122.642 37.8118C122.662 37.7218 122.632 37.6218 122.552 37.5618C121.912 37.0618 121.182 36.9118 120.632 36.9118C117.502 36.9118 115.002 43.5418 115.002 49.2118L115.012 49.2018Z" fill="#605151"/>
<path d="M141.552 26.2418C141.722 26.2218 141.872 26.3718 141.832 26.5418L137.112 48.7018C136.992 49.3318 136.902 49.7018 136.902 50.0318C136.902 50.9518 137.362 51.5718 138.982 51.5718C140.602 51.5718 142.762 49.3018 144.412 47.9618C144.452 47.9218 144.512 47.9018 144.572 47.9018H145.302C145.522 47.9018 145.642 48.1718 145.482 48.3318C143.362 50.5318 139.052 55.3718 136.022 55.3718C132.812 55.3718 130.852 53.9518 130.852 50.8318C130.852 50.2018 130.932 49.5018 131.102 48.7018L135.692 27.1918C135.712 27.0918 135.802 27.0118 135.902 26.9918L141.542 26.2318L141.552 26.2418Z" fill="#605151"/>
<path d="M162.192 34.9918L155.372 39.6118C155.162 39.7518 155.272 40.0718 155.522 40.0718C157.812 40.0718 160.362 42.5718 160.362 45.3218C160.362 45.6118 160.322 45.9518 160.242 46.2818L159.702 48.7018C159.582 49.2818 159.372 49.9118 159.372 50.4518C159.372 51.1618 159.702 51.6618 160.952 51.6618C161.132 51.6618 161.372 51.6618 161.612 51.6318C161.802 51.6118 161.952 51.7918 161.882 51.9718C160.722 55.1418 159.052 55.3718 157.692 55.3718C154.732 55.3718 153.442 53.4118 153.442 50.7818C153.442 50.1118 153.522 49.4018 153.692 48.7018L154.102 46.7518C154.102 46.7518 154.102 46.7418 154.102 46.7318C154.142 46.4418 154.182 46.1118 154.182 45.7818C154.182 44.4518 153.602 43.2018 152.302 43.2018C151.332 43.2018 150.602 43.4718 149.802 44.0218C149.752 44.0618 149.712 44.1118 149.692 44.1818L147.342 55.1818C147.322 55.3018 147.212 55.3818 147.092 55.3818H141.602C141.442 55.3818 141.322 55.2318 141.352 55.0818L147.292 27.2118C147.312 27.1118 147.402 27.0318 147.502 27.0118L153.142 26.2518C153.312 26.2318 153.462 26.3818 153.422 26.5518L150.552 40.0618C150.502 40.2918 150.772 40.4618 150.952 40.3118C153.792 38.0518 157.682 35.0018 158.252 34.5818C158.292 34.5518 158.342 34.5318 158.402 34.5318H162.012C162.262 34.5318 162.362 34.8518 162.152 34.9918H162.192Z" fill="#605151"/>
<path d="M55.7717 26.5818C55.0417 24.6618 53.4617 21.2518 51.3317 20.7518C46.7417 19.6618 38.2617 21.5218 33.3017 27.4318C27.6517 34.1618 24.1717 41.6418 21.7717 46.3518C19.9717 49.8918 17.2117 53.7718 15.0417 57.3218C14.3617 58.4318 13.6717 59.4818 12.9717 60.4218C9.87171 64.5818 7.94171 65.7318 6.34171 65.8818C4.97171 66.0018 2.22171 63.7518 1.29171 61.9418L1.02171 61.4318C1.02171 61.4318 1.00171 62.2818 1.01171 62.2218C1.01171 62.2218 1.04171 62.6018 1.16171 63.1818C1.32171 65.9718 2.51171 67.4318 3.78171 68.1718C4.37171 68.5218 4.98171 68.7218 5.51171 68.8218C5.83171 68.8818 6.15171 68.9218 6.48171 68.9218C6.66171 68.9218 6.84171 68.9218 7.02171 68.8918L9.45171 68.6418L37.3117 65.7518C37.7717 65.2018 38.0517 64.4618 38.2117 63.6418C38.7717 60.7618 37.8117 56.9218 37.8117 56.9218C37.8117 56.9218 36.2117 52.2418 38.8517 49.5218C40.0417 48.3018 42.1317 46.7818 44.2117 45.0318L44.7117 44.6018C47.6017 42.2218 50.1217 40.2618 53.1117 37.3118C56.4717 33.9918 58.3217 28.8418 55.7717 26.6018V26.5818ZM55.7317 32.2318C55.7317 32.2318 55.7317 32.2518 55.7217 32.2618L38.6817 33.7018C38.7717 33.6118 38.8617 33.5118 38.9517 33.4218C40.5617 31.6218 42.2217 30.1218 43.8717 28.9718C45.9417 27.5318 48.0017 26.6418 50.0017 26.3218C50.7517 26.2018 51.4517 26.1418 52.0817 26.1418C53.8517 26.1418 55.0817 26.6118 55.7417 27.5218C55.8617 27.6918 55.9717 27.8818 56.0517 28.0818C56.4817 29.1318 56.3717 30.6018 55.7317 32.2318ZM31.2017 44.1118C31.5417 43.4518 32.5117 42.3118 33.0117 41.4618L49.3517 40.0618C47.9717 41.2718 46.3017 42.5418 45.4417 42.9118L31.2017 44.1118ZM36.7017 54.4118C36.7617 55.4318 36.9617 56.2818 37.0917 56.7518L21.7117 57.9718C22.2017 57.2318 22.7217 56.4118 23.2717 55.5518C23.2817 55.5318 23.3017 55.5018 23.3117 55.4818L36.7017 54.4218V54.4118ZM36.9717 65.1118L11.6517 67.7418L10.4817 67.8618C11.4417 67.4618 12.4617 66.9518 13.4817 66.3418V66.3718L37.4417 64.0418C37.3217 64.4418 37.1717 64.8018 36.9717 65.1118ZM37.7317 61.7618L17.0217 63.7318C18.1217 62.7518 19.1417 61.6418 20.0317 60.4018L37.5317 59.0118C37.6517 59.8518 37.7317 60.8218 37.7217 61.7618H37.7317ZM38.3917 49.0518C37.5217 49.9518 37.0617 51.0218 36.8417 52.0918L24.6817 53.0518C25.9017 50.9018 28.0817 48.1518 29.7017 46.0118L43.2017 44.8718C41.5417 46.4818 39.4617 47.9518 38.3917 49.0518ZM51.7317 37.7318L34.1117 39.2118C34.5817 38.5418 35.4117 37.3918 36.5317 36.0618L54.5117 34.5518C53.9817 35.3618 53.3517 36.1318 52.6517 36.8218C52.3417 37.1218 52.0417 37.4218 51.7317 37.7318Z" fill="#605151"/>
<path d="M25.0617 29.2618C25.4717 25.2918 26.5017 20.8318 27.8317 17.2218C29.4817 12.7418 31.8517 9.65179 34.6717 8.28179C38.2017 6.56179 41.4217 6.46179 43.5717 6.70179C41.5517 4.23179 39.9117 2.27179 39.9117 2.27179C39.9117 2.27179 38.7617 1.04179 37.5217 1.75179C36.2817 2.46179 36.9317 3.35179 35.7917 3.72179C34.4117 4.17179 33.2217 2.22179 31.8217 2.63179C30.4217 3.04179 29.1517 4.07179 28.2117 5.66179C27.2517 7.29179 26.9617 8.89179 26.6517 11.6418C26.1517 16.0118 20.7717 24.1718 18.5117 25.9518C16.9017 27.2118 13.3517 30.6618 11.9317 28.4118C11.5617 27.8218 11.4817 27.4618 11.4217 27.1318C11.1917 27.6918 10.9317 28.5418 10.7517 29.8618C10.0817 29.9118 9.41169 30.0518 8.76169 30.2918C7.00169 30.9318 5.74169 32.3118 5.00169 34.4118C4.50169 35.8318 4.24169 37.4718 4.19169 39.4418C4.15169 41.1018 4.16169 41.2418 4.44169 42.8918C4.48169 43.1418 4.73169 43.2918 4.97169 43.2918C5.02169 43.2918 5.07169 43.2918 5.11169 43.2718C5.40169 43.1918 5.55169 42.9018 5.49169 42.6018C5.22169 41.0818 5.24169 41.0418 5.28169 39.4618C5.32169 37.6118 5.57169 36.0718 6.03169 34.7718C6.65169 33.0018 7.70169 31.8318 9.13169 31.3118C9.62169 31.1318 10.1317 31.0218 10.6417 30.9618C10.6217 31.2318 10.6017 31.5118 10.5917 31.8118C10.2817 31.8918 6.45169 32.9718 6.31169 37.0018C6.17169 40.8018 7.00169 43.4218 8.38169 43.5018C8.40169 43.5018 8.41169 43.5018 8.43169 43.5018C8.61169 43.5018 8.78169 43.4318 8.91169 43.3018C9.26169 42.9518 9.23169 42.3018 9.13169 40.7518C9.00169 38.8118 8.80169 35.8818 9.99169 35.0618C10.0017 35.0618 10.0117 35.0418 10.0217 35.0418C10.1417 34.9418 10.3417 34.8018 10.5917 34.6518C10.6217 35.4818 10.6717 36.3818 10.7517 37.3818C10.7517 37.3818 10.7517 37.3818 10.7517 37.3918C10.1217 37.4918 9.68169 38.0718 9.77169 38.7118C9.85169 39.3018 10.3617 39.7218 10.9317 39.7118C10.9717 40.3018 11.0117 40.8618 11.0417 41.3818C11.0117 41.3818 10.9717 41.3818 10.9417 41.3818C10.3017 41.4718 9.86169 42.0618 9.95169 42.7018C10.0317 43.3018 10.5617 43.7218 11.1517 43.7018C11.1717 44.3318 11.1617 44.8918 11.1517 45.3818C11.0417 45.3618 10.9217 45.3618 10.8017 45.3818C10.1617 45.4718 9.72169 46.0618 9.81169 46.7018C9.88169 47.2018 10.2617 47.5818 10.7417 47.6818C10.3217 48.6518 9.55169 48.9518 8.32169 49.0818C5.26169 49.4118 2.79169 46.6918 0.761694 50.7818C-0.458306 53.2518 0.0116944 56.6718 0.621694 58.8618C0.861694 59.7118 1.12169 60.3718 1.31169 60.7218C2.22169 62.5718 4.45169 64.7918 5.83169 64.8618C8.09169 64.9818 9.50169 63.6618 12.6017 59.5018C13.0817 58.8518 13.5617 58.1418 14.0317 57.3918C16.4017 53.6318 19.3317 49.6018 21.3117 45.7318C22.0617 44.2618 23.0317 42.5918 24.0017 40.6218C24.1117 39.3418 24.4917 35.0818 25.1017 29.2318L25.0617 29.2618ZM10.5517 33.4218C9.93169 33.7218 9.46169 34.0818 9.34169 34.1818C7.66169 35.3618 7.88169 38.5218 8.03169 40.8418C8.06169 41.2318 8.09169 41.6718 8.10169 42.0318C7.74169 41.3718 7.30169 39.8418 7.40169 37.0618C7.50169 34.2918 9.73169 33.2718 10.5617 32.9818C10.5617 33.1318 10.5617 33.2818 10.5617 33.4318L10.5517 33.4218Z" fill="#605151"/>
<path d="M50.1717 15.2418C48.8617 13.2718 46.0717 9.76179 43.7317 6.88179C41.5117 6.69179 38.1217 6.88179 34.7517 8.74179C28.8217 12.0118 26.8417 22.8118 26.7117 29.3118C26.6517 32.4718 26.5217 34.5718 26.4117 35.9318C28.1417 32.7918 30.2117 29.4918 32.7617 26.4418C37.7217 20.5418 46.3417 18.6918 50.9317 19.7918C51.1417 19.8418 51.3517 19.9218 51.5617 20.0218C51.8417 19.4118 51.9617 17.9118 50.1817 15.2318L50.1717 15.2418ZM46.0117 16.2118C45.6917 17.1418 45.1017 17.9218 44.2717 18.3918C43.2717 18.9518 42.0717 18.9818 40.9117 18.4718C39.7817 17.9818 38.8117 17.0318 38.1717 15.8118C36.8517 13.2518 37.4317 10.2418 39.4617 9.11178C41.5017 7.97178 44.2317 9.13178 45.5617 11.6918C46.3417 13.2018 46.4617 14.8718 46.0117 16.2118Z" fill="#605151"/>
<path d="M39.7717 9.71179C37.9917 10.7018 37.4917 13.3318 38.6417 15.5618C39.1917 16.6318 40.0417 17.4518 41.0317 17.8818C42.0417 18.3218 43.0917 18.2918 43.9617 17.8118C44.6917 17.4018 45.2017 16.7218 45.4817 15.9118C45.8817 14.7418 45.7717 13.2818 45.0917 11.9618C43.9317 9.73179 41.5517 8.72179 39.7717 9.71179ZM44.4117 13.6118C44.1817 14.4218 44.0617 15.8518 42.3017 16.5818C41.4317 16.9418 40.6617 16.7018 40.1417 15.4518C39.5017 13.9118 39.3217 11.6018 41.3617 10.7518C41.9317 10.5118 42.5817 10.4218 42.8217 10.9918C42.8617 11.0818 42.8917 11.1718 42.9017 11.2818C42.9017 11.3218 42.8817 11.3618 42.8417 11.3618C42.7817 11.3618 42.7117 11.3818 42.6317 11.4118C42.5617 11.4418 42.4917 11.4818 42.4117 11.5418C42.3717 11.5718 42.3117 11.5418 42.3017 11.5018C42.2917 11.4218 42.2717 11.3618 42.2517 11.3018C42.1517 11.0518 41.9417 11.0118 41.7117 11.1018C40.8317 11.4718 40.9717 13.4218 41.4417 14.5618C41.7017 15.1818 42.0317 15.6318 42.6817 15.3718C43.4217 15.0618 43.8317 14.3818 44.0917 13.6518C44.0917 13.6318 44.1117 13.6218 44.1317 13.6118L44.3217 13.5318C44.3717 13.5118 44.4317 13.5618 44.4117 13.6118Z" fill="#605151"/>
</svg>
