<svg width="151" height="108" viewBox="0 0 151 108" fill="none" xmlns="http://www.w3.org/2000/svg">
<path d="M101.08 25.0607C100.35 23.1407 98.77 19.7307 96.63 19.2307C92.03 18.1407 83.54 20.0007 78.57 25.9107C72.9 32.6407 69.42 40.1207 67.02 44.8307C65.21 48.3707 62.45 52.2507 60.28 55.8007C59.6 56.9107 58.91 57.9607 58.21 58.9007C55.11 63.0607 53.17 64.2107 51.57 64.3607C50.2 64.4807 47.44 62.2307 46.51 60.4207L46.24 59.9107C46.24 59.9107 46.22 60.7607 46.23 60.7007C46.23 60.7007 46.26 61.0807 46.38 61.6607C46.54 64.4507 47.74 65.9107 49.01 66.6507C49.6 67.0007 50.22 67.2007 50.75 67.3007C51.07 67.3607 51.39 67.4007 51.72 67.4007C51.9 67.4007 52.08 67.4007 52.27 67.3707L54.71 67.1207L82.63 64.2307C83.09 63.6807 83.37 62.9407 83.53 62.1207C84.09 59.2407 83.13 55.4007 83.13 55.4007C83.13 55.4007 81.52 50.7207 84.17 48.0007C85.36 46.7807 87.46 45.2607 89.54 43.5107L90.04 43.0807C92.93 40.7007 95.46 38.7407 98.46 35.7907C101.82 32.4707 103.68 27.3207 101.12 25.0807L101.08 25.0607ZM101.04 30.7107C101.04 30.7107 101.04 30.7307 101.03 30.7407L83.96 32.1807C84.05 32.0907 84.14 31.9907 84.23 31.9007C85.84 30.1007 87.5 28.6007 89.16 27.4507C91.23 26.0107 93.3 25.1207 95.3 24.8007C96.05 24.6807 96.75 24.6207 97.38 24.6207C99.16 24.6207 100.39 25.0907 101.05 26.0007C101.17 26.1707 101.28 26.3607 101.36 26.5607C101.79 27.6107 101.68 29.0807 101.04 30.7107ZM76.47 42.5907C76.81 41.9307 77.78 40.7907 78.28 39.9407L94.65 38.5407C93.27 39.7507 91.6 41.0207 90.73 41.3907L76.46 42.5907H76.47ZM81.98 52.8807C82.04 53.9007 82.24 54.7507 82.37 55.2207L66.96 56.4407C67.45 55.7007 67.98 54.8807 68.53 54.0207C68.54 54.0007 68.56 53.9707 68.57 53.9507L81.98 52.8907V52.8807ZM82.25 63.5907L56.89 66.2207L55.72 66.3407C56.68 65.9407 57.7 65.4307 58.72 64.8207V64.8507L82.72 62.5207C82.6 62.9207 82.45 63.2807 82.25 63.5907ZM83.02 60.2307L62.28 62.2007C63.38 61.2207 64.41 60.1107 65.3 58.8707L82.84 57.4807C82.96 58.3207 83.04 59.2907 83.03 60.2307H83.02ZM83.67 47.5207C82.79 48.4207 82.33 49.4907 82.12 50.5607L69.94 51.5207C71.16 49.3707 73.34 46.6207 74.97 44.4807L88.49 43.3407C86.83 44.9507 84.74 46.4207 83.67 47.5207ZM97.04 36.2007L79.39 37.6807C79.86 37.0107 80.69 35.8607 81.82 34.5307L99.83 33.0207C99.3 33.8307 98.66 34.6007 97.97 35.2907C97.66 35.5907 97.36 35.8907 97.05 36.2007H97.04Z" fill="white"/>
<path d="M70.3199 27.7307C70.7299 23.7607 71.7699 19.3007 73.0999 15.6907C74.7599 11.2107 77.1299 8.12072 79.9599 6.75072C83.5 5.03072 86.7199 4.93072 88.8699 5.17072C86.8499 2.70072 85.1999 0.740725 85.1999 0.740725C85.1999 0.740725 84.0499 -0.489275 82.8099 0.220725C81.5699 0.930725 82.2199 1.82072 81.0799 2.19072C79.6999 2.64072 78.4999 0.690725 77.0999 1.10072C75.6999 1.50072 74.4199 2.54072 73.4899 4.13072C72.5299 5.76072 72.2399 7.36073 71.9199 10.1107C71.4199 14.4807 66.0299 22.6407 63.7599 24.4207C62.1499 25.6807 58.5899 29.1307 57.1699 26.8807C56.7999 26.2907 56.7199 25.9307 56.6599 25.6007C56.4299 26.1607 56.1699 27.0107 55.9899 28.3307C55.3199 28.3807 54.6499 28.5207 53.9899 28.7607C52.2299 29.4007 50.9599 30.7807 50.2199 32.8807C49.7199 34.3007 49.4599 35.9407 49.4099 37.9107C49.3699 39.5707 49.3799 39.7107 49.6599 41.3607C49.6999 41.6107 49.9499 41.7607 50.1899 41.7607C50.2399 41.7607 50.2899 41.7607 50.3299 41.7407C50.6199 41.6607 50.7699 41.3707 50.7199 41.0707C50.4499 39.5507 50.4699 39.5107 50.5099 37.9307C50.5499 36.0807 50.7999 34.5407 51.2599 33.2407C51.8799 31.4707 52.9299 30.3007 54.3699 29.7807C54.8599 29.6007 55.3699 29.4907 55.8799 29.4307C55.8599 29.7007 55.8399 29.9807 55.8299 30.2807C55.5199 30.3607 51.6899 31.4407 51.5399 35.4707C51.3999 39.2707 52.2399 41.8907 53.6099 41.9807C53.6299 41.9807 53.6399 41.9807 53.6599 41.9807C53.8399 41.9807 54.0099 41.9107 54.1399 41.7807C54.4899 41.4307 54.4599 40.7807 54.3599 39.2307C54.2299 37.2907 54.0299 34.3607 55.2199 33.5407C55.2299 33.5407 55.2399 33.5207 55.2499 33.5207C55.3699 33.4207 55.5699 33.2807 55.8199 33.1307C55.8499 33.9607 55.8999 34.8607 55.9799 35.8607C55.9799 35.8607 55.9799 35.8607 55.9799 35.8707C55.3499 35.9707 54.9099 36.5507 54.9999 37.1907C55.0799 37.7807 55.5899 38.2007 56.1599 38.1907C56.1999 38.7807 56.2399 39.3407 56.2699 39.8607C56.2399 39.8607 56.1999 39.8607 56.1699 39.8607C55.5299 39.9507 55.0899 40.5407 55.1799 41.1807C55.2599 41.7807 55.7899 42.2007 56.3799 42.1807C56.3899 42.8107 56.3899 43.3707 56.3799 43.8607C56.2699 43.8407 56.1499 43.8407 56.0299 43.8607C55.3899 43.9507 54.9499 44.5407 55.0399 45.1807C55.1099 45.6807 55.4999 46.0707 55.9699 46.1607C55.5399 47.1307 54.7799 47.4307 53.5399 47.5607C50.4699 47.8907 47.9999 45.1707 45.9699 49.2607C44.7499 51.7307 45.2199 55.1507 45.8299 57.3407C46.0699 58.1907 46.3299 58.8507 46.5199 59.2007C47.4299 61.0507 49.6699 63.2707 51.0399 63.3407C53.2999 63.4607 54.7199 62.1407 57.8199 57.9807C58.3099 57.3307 58.7799 56.6207 59.2599 55.8707C61.6299 52.1107 64.5699 48.0807 66.5499 44.2107C67.2999 42.7407 68.2699 41.0707 69.2499 39.1007C69.3599 37.8207 69.7399 33.5607 70.3499 27.7107L70.3199 27.7307ZM55.7799 31.9007C55.1599 32.2007 54.6899 32.5607 54.5599 32.6607C52.8799 33.8407 53.0899 37.0007 53.2499 39.3207C53.2799 39.7107 53.3099 40.1507 53.3199 40.5107C52.9599 39.8507 52.5199 38.3207 52.6199 35.5407C52.7199 32.7707 54.9499 31.7507 55.7799 31.4607C55.7799 31.6107 55.7799 31.7607 55.7799 31.9107V31.9007Z" fill="white"/>
<path d="M95.4699 13.7207C94.1599 11.7507 91.3599 8.24073 89.0099 5.36073C86.7899 5.17073 83.3899 5.36073 80.0099 7.22073C74.0699 10.4907 72.0899 21.2907 71.9499 27.7907C71.8799 30.9507 71.7599 33.0507 71.6499 34.4107C73.3799 31.2707 75.4599 27.9707 78.0199 24.9207C82.9899 19.0207 91.6199 17.1707 96.2199 18.2707C96.4299 18.3207 96.6399 18.4007 96.8499 18.5007C97.1299 17.8907 97.2499 16.3907 95.4599 13.7107L95.4699 13.7207ZM91.2999 14.6807C90.9799 15.6107 90.3899 16.3907 89.5599 16.8607C88.5599 17.4207 87.3599 17.4507 86.1999 16.9407C85.0699 16.4507 84.0899 15.5007 83.4599 14.2807C82.1299 11.7207 82.7199 8.71073 84.7599 7.58073C86.7999 6.44073 89.5399 7.60073 90.8699 10.1607C91.6499 11.6707 91.7699 13.3407 91.3199 14.6807H91.2999Z" fill="white"/>
<path d="M85.0599 8.18073C83.2799 9.17073 82.77 11.8007 83.93 14.0307C84.48 15.1007 85.3299 15.9207 86.3199 16.3507C87.3399 16.7907 88.3799 16.7607 89.2599 16.2807C89.9899 15.8707 90.5099 15.1907 90.7799 14.3807C91.1799 13.2107 91.0699 11.7507 90.3899 10.4307C89.2299 8.20073 86.8399 7.19073 85.0599 8.18073ZM89.7099 12.0907C89.4799 12.9007 89.3599 14.3307 87.5999 15.0607C86.7299 15.4207 85.9599 15.1807 85.4399 13.9307C84.7999 12.3907 84.6199 10.0807 86.6599 9.23073C87.2299 8.99073 87.8799 8.90073 88.1199 9.48073C88.1599 9.57073 88.1899 9.66073 88.1999 9.77073C88.1999 9.81073 88.1799 9.85073 88.1299 9.85073C88.0699 9.85073 87.9999 9.86073 87.9199 9.90073C87.8499 9.93073 87.7799 9.97073 87.6999 10.0307C87.6599 10.0607 87.5999 10.0307 87.5899 9.99073C87.5799 9.91073 87.56 9.85073 87.54 9.79073C87.43 9.54073 87.2299 9.50073 86.9999 9.59073C86.1199 9.96073 86.2599 11.9107 86.7299 13.0507C86.9899 13.6707 87.32 14.1207 87.97 13.8607C88.71 13.5507 89.1199 12.8707 89.3799 12.1407C89.3799 12.1207 89.3999 12.1107 89.4199 12.1007L89.61 12.0207C89.66 12.0007 89.7199 12.0507 89.6999 12.1007L89.7099 12.0907Z" fill="white"/>
<path d="M12.91 89.8307C12.91 88.8307 12.28 88.4107 11.37 88.4107C7.87 88.4107 5.62 95.2107 5.62 99.7107C5.62 102.171 6.12 104.171 8.66 104.171C11.58 104.171 13.94 102.461 15.84 100.331C15.89 100.281 15.96 100.251 16.03 100.251H16.8C17.01 100.251 17.13 100.491 17 100.661C15.07 103.081 12.67 107.721 5.71 107.721C2.25 107.721 0 105.801 0 100.881C0 94.7907 2.63 86.7507 10.71 86.7507C12.96 86.7507 15.3 87.3307 15.3 89.6307C15.3 90.0007 15.27 90.3207 15.17 90.7107C15.13 90.8507 14.98 90.9407 14.84 90.8807C14.64 90.8107 14.38 90.7507 14.05 90.7507C13.78 90.7507 13.48 90.7907 13.13 90.8807C12.95 90.9307 12.78 90.7607 12.82 90.5807C12.88 90.3007 12.92 90.0607 12.92 89.8307H12.91Z" fill="white"/>
<path d="M34.41 86.8707C34.57 86.8707 34.69 87.0207 34.66 87.1707L31.76 101.041C31.63 101.671 31.55 102.171 31.55 102.581C31.55 103.461 31.88 103.911 32.84 103.911C33.29 103.911 33.9 103.351 34.55 102.431C34.58 102.391 34.6 102.341 34.6 102.291C34.62 98.9707 36.04 97.0907 37.64 96.8807C37.72 96.8707 37.79 96.8207 37.83 96.7507C39.27 94.1007 40.2 90.5207 40.9 87.4307C40.92 87.3307 41 87.2607 41.09 87.2407L46.67 86.0907C46.83 86.0607 46.97 86.1807 46.97 86.3407V86.6107C46.97 93.4907 49.76 95.5707 49.8 100.441C49.8 100.441 49.8 100.451 49.8 100.461V100.721C49.78 100.951 50.05 101.071 50.21 100.921C51.06 100.141 51.8 99.3707 52.27 98.8507C52.38 98.7307 52.56 98.7407 52.66 98.8707L53.41 99.8507C53.49 99.9607 53.47 100.111 53.37 100.201C52.23 101.111 50.66 102.481 49.1 103.811C49.07 103.831 49.05 103.861 49.04 103.891C47.95 106.161 45.58 107.721 41.72 107.721C38.11 107.721 35.91 106.951 35.03 104.841C34.96 104.661 34.72 104.621 34.6 104.771C33.19 106.501 31.8 107.711 30.67 107.711C27.98 107.711 26.43 106.651 25.81 104.921C25.74 104.731 25.5 104.701 25.38 104.851C24.14 106.461 22.35 107.961 19.96 107.961C15.96 107.961 14.79 105.131 14.79 102.671C14.79 95.5007 17.37 86.9107 25.71 86.9107C26.58 86.9107 27.48 87.2307 28.2 87.7207C28.35 87.8207 28.55 87.7507 28.59 87.5707L28.71 87.0607C28.74 86.9507 28.84 86.8607 28.96 86.8607H34.41V86.8707ZM28.06 90.1407C28.08 90.0507 28.05 89.9507 27.97 89.8907C27.33 89.3907 26.59 89.2407 26.05 89.2407C22.92 89.2407 20.42 95.8707 20.42 101.541C20.42 104.041 21.8 104.501 22.84 104.501C23.78 104.501 24.68 103.581 25.5 102.441C25.53 102.401 25.55 102.351 25.55 102.301C25.55 101.901 25.64 101.471 25.76 101.041L28.06 90.1407ZM38.22 102.081C37.82 102.081 37.44 102.001 37.04 101.861C36.89 101.811 36.73 101.901 36.7 102.061C36.68 102.181 36.67 102.301 36.67 102.421C36.67 104.211 38.63 105.251 40.26 105.251C41.68 105.251 43.72 103.501 43.72 100.291C43.72 97.9607 42.19 95.9307 41.83 91.7207C41.81 91.4407 41.41 91.4007 41.34 91.6707C40.85 93.3607 40.36 95.2507 39.7 96.8407C39.65 96.9707 39.7 97.1107 39.83 97.1707C40.66 97.5407 40.97 98.2707 40.97 99.4207C40.97 101.001 39.68 102.091 38.22 102.091V102.081Z" fill="white"/>
<path d="M65.69 107.711C62.73 107.711 61.44 105.751 61.44 103.121C61.44 102.451 61.52 101.741 61.69 101.041L63.27 93.5407C63.27 93.5407 63.27 93.5307 63.27 93.5207C63.31 93.2307 63.35 92.9007 63.35 92.5707C63.35 91.2407 62.77 89.9907 61.47 89.9907C60.5 89.9907 59.73 90.2607 58.92 90.8507C58.87 90.8907 58.83 90.9407 58.82 91.0007L55.3 107.511C55.28 107.631 55.17 107.711 55.05 107.711H49.56C49.4 107.711 49.28 107.561 49.31 107.411L55.25 79.5407C55.27 79.4407 55.36 79.3607 55.46 79.3407L61.1 78.5807C61.27 78.5607 61.42 78.7107 61.38 78.8807L59.34 88.4907C59.29 88.7107 59.54 88.8807 59.73 88.7507C61.3 87.6807 63.02 86.8707 64.67 86.8707C67 86.8707 69.46 89.4107 69.46 92.1607C69.46 92.4507 69.46 92.7907 69.38 93.0807L67.67 101.041C67.54 101.581 67.34 102.211 67.34 102.751C67.34 103.461 67.67 104.001 68.92 104.001C69.1 104.001 69.34 104.001 69.58 103.971C69.77 103.951 69.92 104.131 69.85 104.311C68.69 107.481 67.02 107.711 65.66 107.711H65.69Z" fill="white"/>
<path d="M97.87 89.6608C97.87 96.1608 94.58 107.591 86.15 107.591C83.49 107.591 81.71 106.631 81.15 104.551C81.1 104.371 80.88 104.301 80.74 104.421C78.86 106.101 76.75 107.591 75.1 107.591C71.89 107.591 69.89 106.171 69.89 103.051C69.89 102.421 69.97 101.721 70.14 100.921L73.1 86.9408C73.12 86.8208 73.23 86.7408 73.35 86.7408H78.84C79 86.7408 79.12 86.8907 79.09 87.0407L76.15 100.911C76.07 101.371 75.98 101.831 75.98 102.201C75.98 103.121 76.4 103.781 78.06 103.781C78.91 103.781 79.92 103.191 80.89 102.391C80.95 102.341 80.98 102.281 80.98 102.201C80.99 101.811 81.07 101.351 81.19 100.901L84.15 86.9208C84.17 86.8008 84.28 86.7207 84.4 86.7207H89.89C90.05 86.7207 90.17 86.8708 90.14 87.0208L87.2 100.891C87.07 101.471 86.99 101.971 86.99 102.431C86.99 103.221 87.37 103.761 88.57 103.761C92.56 103.761 95.31 95.0707 95.44 90.4307C95.44 90.2607 95.29 90.1407 95.13 90.1807C94.94 90.2307 94.73 90.2607 94.57 90.2607C93.36 90.2607 92.82 89.0907 92.82 87.9307C92.82 87.0507 93.82 85.8907 95.2 85.8907C96.99 85.8907 97.87 87.4707 97.87 89.6407V89.6608Z" fill="white"/>
<path d="M117.4 86.7407C117.56 86.7407 117.68 86.8907 117.65 87.0407L114.71 100.911C114.63 101.371 114.54 101.831 114.54 102.201C114.54 103.121 114.96 103.781 116.62 103.781C118.28 103.781 120.4 101.511 122.05 100.171C122.09 100.131 122.15 100.111 122.21 100.111H122.94C123.16 100.111 123.28 100.381 123.12 100.541C121 102.741 116.69 107.581 113.66 107.581C111.15 107.581 109.38 106.721 108.71 104.861C108.64 104.681 108.4 104.641 108.28 104.801C107.04 106.371 105.26 107.831 102.9 107.831C98.9 107.831 97.73 105.001 97.73 102.541C97.73 95.3707 100.31 86.7807 108.65 86.7807C109.52 86.7807 110.42 87.1007 111.14 87.5907C111.29 87.6907 111.49 87.6207 111.53 87.4407L111.65 86.9307C111.68 86.8207 111.78 86.7307 111.9 86.7307H117.39L117.4 86.7407ZM103.37 101.421C103.37 103.921 104.75 104.381 105.79 104.381C106.73 104.381 107.64 103.491 108.42 102.351C108.44 102.321 108.46 102.281 108.46 102.241C108.5 101.841 108.58 101.401 108.7 100.931L111 90.0307C111.02 89.9407 110.99 89.8407 110.91 89.7807C110.27 89.2807 109.54 89.1307 108.99 89.1307C105.86 89.1307 103.36 95.7607 103.36 101.431L103.37 101.421Z" fill="white"/>
<path d="M129.91 78.4507C130.08 78.4307 130.23 78.5807 130.19 78.7507L125.47 100.911C125.35 101.541 125.26 101.911 125.26 102.241C125.26 103.161 125.72 103.781 127.34 103.781C128.96 103.781 131.12 101.511 132.77 100.171C132.81 100.131 132.87 100.111 132.93 100.111H133.66C133.88 100.111 134 100.381 133.84 100.541C131.72 102.741 127.41 107.581 124.38 107.581C121.17 107.581 119.21 106.161 119.21 103.041C119.21 102.411 119.29 101.711 119.46 100.911L124.05 79.4007C124.07 79.3007 124.16 79.2207 124.26 79.2007L129.9 78.4407L129.91 78.4507Z" fill="white"/>
<path d="M150.55 87.2007L143.73 91.8207C143.52 91.9607 143.63 92.2807 143.88 92.2807C146.17 92.2807 148.72 94.7807 148.72 97.5307C148.72 97.8207 148.68 98.1607 148.6 98.4907L148.06 100.911C147.94 101.491 147.73 102.121 147.73 102.661C147.73 103.371 148.06 103.871 149.31 103.871C149.49 103.871 149.73 103.871 149.97 103.841C150.16 103.821 150.31 104.001 150.24 104.181C149.08 107.351 147.41 107.581 146.05 107.581C143.09 107.581 141.8 105.621 141.8 102.991C141.8 102.321 141.88 101.611 142.05 100.911L142.46 98.9607C142.46 98.9607 142.46 98.9507 142.46 98.9407C142.5 98.6507 142.54 98.3207 142.54 97.9907C142.54 96.6607 141.96 95.4107 140.66 95.4107C139.69 95.4107 138.96 95.6807 138.16 96.2307C138.11 96.2707 138.07 96.3207 138.05 96.3907L135.7 107.391C135.68 107.511 135.57 107.591 135.45 107.591H129.96C129.8 107.591 129.68 107.441 129.71 107.291L135.65 79.4207C135.67 79.3207 135.76 79.2407 135.86 79.2207L141.5 78.4607C141.67 78.4407 141.82 78.5907 141.78 78.7607L138.91 92.2707C138.86 92.5007 139.13 92.6707 139.31 92.5207C142.15 90.2607 146.04 87.2107 146.61 86.7907C146.65 86.7607 146.7 86.7407 146.76 86.7407H150.37C150.62 86.7407 150.72 87.0607 150.51 87.2007H150.55Z" fill="white"/>
</svg>
