<svg width="216" height="68" viewBox="0 0 216 68" fill="none" xmlns="http://www.w3.org/2000/svg">
<path d="M55.8717 25.0607C55.1417 23.1407 53.5617 19.7307 51.4217 19.2307C46.8217 18.1407 38.3217 20.0007 33.3617 25.9107C27.6917 32.6407 24.2117 40.1207 21.8117 44.8307C20.0017 48.3607 17.2417 52.2507 15.0717 55.8007C14.3917 56.9107 13.7017 57.9607 13.0017 58.9007C9.90172 63.0607 7.96172 64.2107 6.36172 64.3607C4.99172 64.4807 2.23172 62.2307 1.30172 60.4207L1.03172 59.9107C1.03172 59.9107 1.01172 60.7607 1.02172 60.7007C1.02172 60.7007 1.05172 61.0807 1.17172 61.6607C1.33172 64.4507 2.53172 65.9107 3.80172 66.6507C4.39172 67.0007 5.01172 67.2007 5.54172 67.3007C5.86172 67.3607 6.18172 67.4007 6.51172 67.4007C6.69172 67.4007 6.87172 67.4007 7.06172 67.3707L9.50172 67.1207L37.4217 64.2307C37.8817 63.6807 38.1617 62.9407 38.3217 62.1207C38.8817 59.2407 37.9217 55.4007 37.9217 55.4007C37.9217 55.4007 36.3117 50.7207 38.9617 48.0007C40.1517 46.7807 42.2517 45.2607 44.3317 43.5107L44.8317 43.0807C47.7217 40.7007 50.2517 38.7407 53.2517 35.7907C56.6117 32.4707 58.4717 27.3207 55.9117 25.0807L55.8717 25.0607ZM55.8317 30.7107C55.8317 30.7107 55.8317 30.7307 55.8217 30.7407L38.7517 32.1807C38.8417 32.0907 38.9317 31.9907 39.0217 31.9007C40.6317 30.1007 42.2917 28.6007 43.9517 27.4507C46.0217 26.0107 48.0917 25.1207 50.0917 24.8007C50.8417 24.6807 51.5417 24.6207 52.1717 24.6207C53.9517 24.6207 55.1817 25.0907 55.8417 26.0007C55.9617 26.1707 56.0717 26.3607 56.1517 26.5607C56.5817 27.6107 56.4717 29.0807 55.8317 30.7107ZM31.2617 42.5907C31.6017 41.9307 32.5717 40.7907 33.0717 39.9407L49.4417 38.5407C48.0617 39.7507 46.3917 41.0207 45.5217 41.3907L31.2517 42.5907H31.2617ZM36.7617 52.8807C36.8217 53.9007 37.0217 54.7507 37.1517 55.2207L21.7417 56.4407C22.2317 55.7007 22.7617 54.8807 23.3117 54.0207C23.3217 54.0007 23.3417 53.9707 23.3517 53.9507L36.7617 52.8907V52.8807ZM37.0417 63.5907L11.6817 66.2207L10.5117 66.3407C11.4717 65.9407 12.4917 65.4307 13.5117 64.8207V64.8507L37.5117 62.5207C37.3917 62.9207 37.2417 63.2807 37.0417 63.5907ZM37.8017 60.2307L17.0617 62.2007C18.1617 61.2207 19.1917 60.1107 20.0817 58.8707L37.6217 57.4807C37.7417 58.3207 37.8217 59.2907 37.8117 60.2307H37.8017ZM38.4617 47.5207C37.5817 48.4207 37.1217 49.4907 36.9117 50.5607L24.7317 51.5207C25.9517 49.3707 28.1317 46.6207 29.7617 44.4807L43.2817 43.3407C41.6217 44.9507 39.5317 46.4207 38.4617 47.5207ZM51.8317 36.2007L34.1817 37.6807C34.6517 37.0107 35.4817 35.8607 36.6117 34.5307L54.6217 33.0207C54.0917 33.8307 53.4517 34.6007 52.7617 35.2907C52.4517 35.5907 52.1517 35.8907 51.8417 36.2007H51.8317Z" fill="#111111"/>
<path d="M25.1117 27.7307C25.5217 23.7607 26.5617 19.3007 27.8917 15.6907C29.5517 11.2107 31.9217 8.12072 34.7517 6.75072C38.2917 5.03072 41.5117 4.93072 43.6617 5.17072C41.6417 2.70072 39.9917 0.740725 39.9917 0.740725C39.9917 0.740725 38.8417 -0.489275 37.6017 0.220725C36.3617 0.930725 37.0117 1.82072 35.8717 2.19072C34.4917 2.64072 33.2917 0.690725 31.8917 1.10072C30.4917 1.50072 29.2117 2.54072 28.2817 4.13072C27.3217 5.76072 27.0317 7.36073 26.7117 10.1107C26.2117 14.4807 20.8217 22.6407 18.5517 24.4207C16.9417 25.6807 13.3817 29.1307 11.9617 26.8807C11.5917 26.2907 11.5117 25.9307 11.4517 25.6007C11.2217 26.1607 10.9617 27.0107 10.7817 28.3307C10.1117 28.3807 9.44169 28.5207 8.78169 28.7607C7.02169 29.4007 5.75169 30.7807 5.01169 32.8807C4.51169 34.3007 4.25169 35.9407 4.20169 37.9107C4.16169 39.5707 4.17169 39.7107 4.45169 41.3607C4.49169 41.6107 4.74169 41.7607 4.98169 41.7607C5.03169 41.7607 5.08169 41.7607 5.12169 41.7407C5.41169 41.6607 5.56169 41.3707 5.51169 41.0707C5.24169 39.5507 5.26169 39.5107 5.30169 37.9307C5.34169 36.0807 5.59169 34.5407 6.05169 33.2407C6.67169 31.4707 7.72169 30.3007 9.16169 29.7807C9.65169 29.6007 10.1617 29.4907 10.6717 29.4307C10.6517 29.7007 10.6317 29.9807 10.6217 30.2807C10.3117 30.3607 6.48169 31.4407 6.33169 35.4707C6.19169 39.2707 7.03169 41.8907 8.40169 41.9807C8.42169 41.9807 8.43169 41.9807 8.45169 41.9807C8.63169 41.9807 8.80169 41.9107 8.93169 41.7807C9.28169 41.4307 9.25169 40.7807 9.15169 39.2307C9.02169 37.2907 8.82169 34.3607 10.0117 33.5407C10.0217 33.5407 10.0317 33.5207 10.0417 33.5207C10.1617 33.4207 10.3617 33.2807 10.6117 33.1307C10.6417 33.9607 10.6917 34.8607 10.7717 35.8607C10.7717 35.8607 10.7717 35.8607 10.7717 35.8707C10.1417 35.9707 9.70169 36.5507 9.79169 37.1907C9.87169 37.7807 10.3817 38.2007 10.9517 38.1907C10.9917 38.7807 11.0317 39.3407 11.0617 39.8607C11.0317 39.8607 10.9917 39.8607 10.9617 39.8607C10.3217 39.9507 9.88169 40.5407 9.97169 41.1807C10.0517 41.7807 10.5817 42.2007 11.1717 42.1807C11.1917 42.8107 11.1817 43.3707 11.1717 43.8607C11.0617 43.8407 10.9417 43.8407 10.8217 43.8607C10.1817 43.9507 9.74169 44.5407 9.83169 45.1807C9.90169 45.6807 10.2917 46.0707 10.7617 46.1607C10.3317 47.1307 9.57169 47.4307 8.33169 47.5607C5.26169 47.8907 2.79169 45.1707 0.761694 49.2607C-0.458306 51.7307 0.0116944 55.1507 0.621694 57.3407C0.861694 58.1907 1.12169 58.8507 1.31169 59.2007C2.22169 61.0507 4.46169 63.2707 5.83169 63.3407C8.09169 63.4607 9.51169 62.1407 12.6117 57.9807C13.1017 57.3307 13.5717 56.6207 14.0517 55.8707C16.4217 52.1107 19.3617 48.0807 21.3417 44.2107C22.0917 42.7407 23.0617 41.0707 24.0417 39.1007C24.1517 37.8207 24.5317 33.5607 25.1417 27.7107L25.1117 27.7307ZM10.5717 31.9007C9.95169 32.2007 9.48169 32.5607 9.35169 32.6607C7.67169 33.8407 7.88169 37.0007 8.04169 39.3207C8.07169 39.7107 8.10169 40.1507 8.11169 40.5107C7.75169 39.8507 7.31169 38.3207 7.41169 35.5407C7.51169 32.7707 9.74169 31.7507 10.5717 31.4607C10.5717 31.6107 10.5717 31.7607 10.5717 31.9107V31.9007Z" fill="#111111"/>
<path d="M50.2617 13.7207C48.9517 11.7507 46.1517 8.24073 43.8017 5.36073C41.5817 5.17073 38.1817 5.36073 34.8017 7.22073C28.8617 10.4907 26.8817 21.2907 26.7417 27.7907C26.6717 30.9507 26.5517 33.0507 26.4417 34.4107C28.1717 31.2707 30.2517 27.9707 32.8117 24.9207C37.7817 19.0207 46.4117 17.1707 51.0117 18.2707C51.2217 18.3207 51.4317 18.4007 51.6416 18.5007C51.9216 17.8907 52.0416 16.3907 50.2516 13.7107L50.2617 13.7207ZM46.0917 14.6807C45.7717 15.6107 45.1817 16.3907 44.3517 16.8607C43.3517 17.4207 42.1517 17.4507 40.9917 16.9407C39.8617 16.4507 38.8816 15.5007 38.2516 14.2807C36.9216 11.7207 37.5117 8.71073 39.5517 7.58073C41.5917 6.44073 44.3316 7.60073 45.6616 10.1607C46.4417 11.6707 46.5617 13.3407 46.1117 14.6807H46.0917Z" fill="#111111"/>
<path d="M39.8417 8.18073C38.0617 9.17073 37.5517 11.8007 38.7117 14.0307C39.2617 15.1007 40.1117 15.9207 41.1017 16.3507C42.1217 16.7907 43.1617 16.7607 44.0417 16.2807C44.7717 15.8707 45.2917 15.1907 45.5617 14.3807C45.9617 13.2107 45.8517 11.7507 45.1717 10.4307C44.0117 8.20073 41.6217 7.19073 39.8417 8.18073ZM44.4917 12.0907C44.2617 12.9007 44.1417 14.3307 42.3817 15.0607C41.5117 15.4207 40.7417 15.1807 40.2217 13.9307C39.5817 12.3907 39.4017 10.0807 41.4417 9.23073C42.0117 8.99073 42.6617 8.90073 42.9017 9.48073C42.9417 9.57073 42.9717 9.66073 42.9817 9.77073C42.9817 9.81073 42.9617 9.85073 42.9117 9.85073C42.8517 9.85073 42.7817 9.87073 42.7017 9.90073C42.6317 9.93073 42.5617 9.97073 42.4817 10.0307C42.4417 10.0607 42.3817 10.0307 42.3717 9.99073C42.3617 9.91073 42.3417 9.85073 42.3217 9.79073C42.2117 9.54073 42.0117 9.50073 41.7817 9.59073C40.9017 9.96073 41.0417 11.9107 41.5117 13.0507C41.7717 13.6707 42.1017 14.1207 42.7517 13.8607C43.4917 13.5507 43.9017 12.8707 44.1617 12.1407C44.1617 12.1207 44.1817 12.1107 44.2017 12.1007L44.3917 12.0207C44.4417 12.0007 44.5017 12.0507 44.4817 12.1007L44.4917 12.0907Z" fill="#111111"/>
<path d="M78.1917 35.3707C78.1917 34.3707 77.5617 33.9507 76.6517 33.9507C73.1517 33.9507 70.9017 40.7507 70.9017 45.2507C70.9017 47.7107 71.4017 49.7107 73.9417 49.7107C76.8617 49.7107 79.2217 48.0007 81.1217 45.8707C81.1717 45.8207 81.2317 45.7907 81.3117 45.7907H82.0817C82.2917 45.7907 82.4117 46.0307 82.2817 46.2007C80.3517 48.6207 77.9517 53.2607 70.9917 53.2607C67.5317 53.2607 65.2817 51.3407 65.2817 46.4207C65.2817 40.3307 67.9117 32.2907 75.9917 32.2907C78.2417 32.2907 80.5817 32.8707 80.5817 35.1707C80.5817 35.5407 80.5517 35.8607 80.4517 36.2507C80.4117 36.3907 80.2617 36.4807 80.1217 36.4207C79.9217 36.3507 79.6617 36.2907 79.3317 36.2907C79.0617 36.2907 78.7617 36.3307 78.4117 36.4207C78.2317 36.4707 78.0617 36.3007 78.1017 36.1207C78.1617 35.8407 78.2017 35.6007 78.2017 35.3707H78.1917Z" fill="#111111"/>
<path d="M99.6818 32.4107C99.8418 32.4107 99.9618 32.5607 99.9318 32.7107L97.0318 46.5807C96.9018 47.2107 96.8218 47.7107 96.8218 48.1207C96.8218 49.0007 97.1518 49.4507 98.1118 49.4507C98.5618 49.4507 99.1718 48.8907 99.8218 47.9707C99.8518 47.9307 99.8718 47.8807 99.8718 47.8307C99.8918 44.5107 101.312 42.6307 102.912 42.4207C102.992 42.4107 103.062 42.3607 103.102 42.2907C104.542 39.6407 105.472 36.0607 106.172 32.9707C106.192 32.8707 106.272 32.8007 106.362 32.7807L111.942 31.6207C112.102 31.5907 112.242 31.7107 112.242 31.8707V32.1407C112.242 39.0207 115.032 41.1007 115.072 45.9707C115.072 45.9707 115.072 45.9807 115.072 45.9907V46.2507C115.052 46.4807 115.322 46.6007 115.482 46.4507C116.332 45.6707 117.072 44.9007 117.542 44.3807C117.652 44.2607 117.832 44.2707 117.932 44.4007L118.682 45.3807C118.762 45.4907 118.742 45.6407 118.642 45.7307C117.502 46.6407 115.932 48.0107 114.372 49.3407C114.342 49.3607 114.322 49.3907 114.312 49.4207C113.222 51.6907 110.852 53.2507 106.992 53.2507C103.382 53.2507 101.182 52.4807 100.302 50.3707C100.232 50.1907 99.9918 50.1507 99.8718 50.3007C98.4618 52.0307 97.0718 53.2407 95.9418 53.2407C93.2518 53.2407 91.7018 52.1807 91.0818 50.4507C91.0118 50.2607 90.7718 50.2307 90.6518 50.3807C89.4118 51.9907 87.6218 53.4907 85.2318 53.4907C81.2318 53.4907 80.0618 50.6607 80.0618 48.2007C80.0618 41.0307 82.6418 32.4407 90.9818 32.4407C91.8518 32.4407 92.7518 32.7607 93.4718 33.2507C93.6218 33.3507 93.8218 33.2807 93.8618 33.1007L93.9818 32.5907C94.0118 32.4807 94.1118 32.3907 94.2318 32.3907H99.6818V32.4107ZM93.3318 35.6807C93.3518 35.5907 93.3218 35.4907 93.2418 35.4307C92.6018 34.9307 91.8618 34.7807 91.3218 34.7807C88.1918 34.7807 85.6918 41.4107 85.6918 47.0807C85.6918 49.5807 87.0718 50.0407 88.1118 50.0407C89.0518 50.0407 89.9518 49.1207 90.7718 47.9807C90.8018 47.9407 90.8218 47.8907 90.8218 47.8407C90.8218 47.4407 90.9118 47.0107 91.0318 46.5807L93.3318 35.6807ZM103.492 47.6307C103.092 47.6307 102.712 47.5507 102.312 47.4107C102.162 47.3607 102.002 47.4507 101.972 47.6107C101.952 47.7307 101.942 47.8507 101.942 47.9707C101.942 49.7607 103.902 50.8007 105.532 50.8007C106.952 50.8007 108.992 49.0507 108.992 45.8407C108.992 43.5107 107.462 41.4807 107.102 37.2707C107.082 36.9907 106.682 36.9507 106.612 37.2207C106.122 38.9107 105.632 40.8007 104.972 42.3907C104.922 42.5207 104.972 42.6607 105.102 42.7207C105.932 43.0907 106.242 43.8207 106.242 44.9707C106.242 46.5507 104.952 47.6407 103.492 47.6407V47.6307Z" fill="#111111"/>
<path d="M130.972 53.2507C128.012 53.2507 126.722 51.2907 126.722 48.6607C126.722 47.9907 126.802 47.2807 126.972 46.5807L128.552 39.0807C128.552 39.0807 128.552 39.0707 128.552 39.0607C128.592 38.7707 128.632 38.4407 128.632 38.1107C128.632 36.7807 128.052 35.5307 126.752 35.5307C125.782 35.5307 125.012 35.8007 124.202 36.3907C124.152 36.4307 124.112 36.4807 124.102 36.5407L120.582 53.0507C120.562 53.1707 120.452 53.2507 120.332 53.2507H114.842C114.682 53.2507 114.562 53.1007 114.592 52.9507L120.532 25.0807C120.552 24.9807 120.642 24.9007 120.742 24.8807L126.382 24.1207C126.552 24.1007 126.702 24.2507 126.662 24.4207L124.622 34.0307C124.572 34.2507 124.822 34.4207 125.012 34.2907C126.582 33.2207 128.302 32.4107 129.952 32.4107C132.282 32.4107 134.742 34.9507 134.742 37.7007C134.742 37.9907 134.742 38.3307 134.662 38.6207L132.952 46.5807C132.822 47.1207 132.622 47.7507 132.622 48.2907C132.622 49.0007 132.952 49.5407 134.202 49.5407C134.382 49.5407 134.622 49.5407 134.862 49.5107C135.052 49.4907 135.202 49.6707 135.132 49.8507C133.972 53.0207 132.302 53.2507 130.942 53.2507H130.972Z" fill="#111111"/>
<path d="M163.142 35.2007C163.142 41.7007 159.852 53.1307 151.422 53.1307C148.762 53.1307 146.982 52.1707 146.422 50.0907C146.372 49.9107 146.152 49.8407 146.012 49.9607C144.132 51.6407 142.022 53.1307 140.372 53.1307C137.162 53.1307 135.162 51.7107 135.162 48.5907C135.162 47.9607 135.242 47.2607 135.412 46.4607L138.372 32.4807C138.392 32.3607 138.502 32.2807 138.622 32.2807H144.112C144.272 32.2807 144.392 32.4307 144.362 32.5807L141.422 46.4507C141.342 46.9107 141.252 47.3707 141.252 47.7407C141.252 48.6607 141.672 49.3207 143.332 49.3207C144.182 49.3207 145.192 48.7307 146.162 47.9307C146.222 47.8807 146.252 47.8207 146.252 47.7407C146.262 47.3507 146.342 46.8907 146.462 46.4407L149.422 32.4607C149.442 32.3407 149.552 32.2607 149.672 32.2607H155.162C155.322 32.2607 155.442 32.4107 155.412 32.5607L152.472 46.4307C152.342 47.0107 152.262 47.5107 152.262 47.9707C152.262 48.7607 152.642 49.3007 153.842 49.3007C157.832 49.3007 160.582 40.6107 160.712 35.9707C160.712 35.8007 160.562 35.6807 160.402 35.7207C160.212 35.7707 160.002 35.8007 159.842 35.8007C158.632 35.8007 158.092 34.6307 158.092 33.4707C158.092 32.5907 159.092 31.4307 160.472 31.4307C162.262 31.4307 163.142 33.0107 163.142 35.1807V35.2007Z" fill="#111111"/>
<path d="M182.682 32.2807C182.842 32.2807 182.962 32.4307 182.932 32.5807L179.992 46.4507C179.912 46.9107 179.822 47.3707 179.822 47.7407C179.822 48.6607 180.242 49.3207 181.902 49.3207C183.562 49.3207 185.682 47.0507 187.332 45.7107C187.372 45.6707 187.432 45.6507 187.492 45.6507H188.222C188.442 45.6507 188.562 45.9207 188.402 46.0807C186.282 48.2807 181.972 53.1207 178.942 53.1207C176.432 53.1207 174.662 52.2607 173.992 50.4007C173.922 50.2207 173.682 50.1807 173.562 50.3407C172.322 51.9107 170.542 53.3707 168.182 53.3707C164.182 53.3707 163.012 50.5407 163.012 48.0807C163.012 40.9107 165.592 32.3207 173.932 32.3207C174.802 32.3207 175.702 32.6407 176.422 33.1307C176.572 33.2307 176.772 33.1607 176.812 32.9807L176.932 32.4707C176.962 32.3607 177.062 32.2707 177.182 32.2707H182.672L182.682 32.2807ZM168.652 46.9607C168.652 49.4607 170.032 49.9207 171.072 49.9207C172.012 49.9207 172.922 49.0307 173.702 47.8907C173.722 47.8607 173.742 47.8207 173.742 47.7807C173.782 47.3807 173.862 46.9407 173.982 46.4707L176.282 35.5707C176.302 35.4807 176.272 35.3807 176.192 35.3207C175.552 34.8207 174.822 34.6707 174.272 34.6707C171.142 34.6707 168.642 41.3007 168.642 46.9707L168.652 46.9607Z" fill="#111111"/>
<path d="M195.182 23.9907C195.352 23.9707 195.502 24.1207 195.462 24.2907L190.742 46.4507C190.622 47.0807 190.532 47.4507 190.532 47.7807C190.532 48.7007 190.992 49.3207 192.612 49.3207C194.232 49.3207 196.392 47.0507 198.042 45.7107C198.082 45.6707 198.142 45.6507 198.202 45.6507H198.932C199.152 45.6507 199.272 45.9207 199.112 46.0807C196.992 48.2807 192.682 53.1207 189.652 53.1207C186.442 53.1207 184.482 51.7007 184.482 48.5807C184.482 47.9507 184.562 47.2507 184.732 46.4507L189.322 24.9407C189.342 24.8407 189.432 24.7607 189.532 24.7407L195.172 23.9807L195.182 23.9907Z" fill="#111111"/>
<path d="M215.832 32.7407L209.012 37.3607C208.802 37.5007 208.912 37.8207 209.162 37.8207C211.452 37.8207 214.002 40.3207 214.002 43.0707C214.002 43.3607 213.962 43.7007 213.882 44.0307L213.342 46.4507C213.222 47.0307 213.012 47.6607 213.012 48.2007C213.012 48.9107 213.342 49.4107 214.592 49.4107C214.772 49.4107 215.012 49.4107 215.252 49.3807C215.442 49.3607 215.592 49.5407 215.522 49.7207C214.362 52.8907 212.692 53.1207 211.332 53.1207C208.372 53.1207 207.082 51.1607 207.082 48.5307C207.082 47.8607 207.162 47.1507 207.332 46.4507L207.742 44.5007C207.742 44.5007 207.742 44.4907 207.742 44.4807C207.782 44.1907 207.822 43.8607 207.822 43.5307C207.822 42.2007 207.242 40.9507 205.942 40.9507C204.972 40.9507 204.242 41.2207 203.442 41.7707C203.392 41.8107 203.352 41.8607 203.332 41.9307L200.982 52.9307C200.962 53.0507 200.852 53.1307 200.732 53.1307H195.242C195.082 53.1307 194.962 52.9807 194.992 52.8307L200.932 24.9607C200.952 24.8607 201.042 24.7807 201.142 24.7607L206.782 24.0007C206.952 23.9807 207.102 24.1307 207.062 24.3007L204.192 37.8107C204.142 38.0407 204.412 38.2107 204.592 38.0607C207.432 35.8007 211.322 32.7507 211.892 32.3307C211.932 32.3007 211.982 32.2807 212.042 32.2807H215.652C215.902 32.2807 216.002 32.6007 215.792 32.7407H215.832Z" fill="#111111"/>
</svg>
