<svg width="64" height="64" viewBox="0 0 64 64" fill="none" xmlns="http://www.w3.org/2000/svg">
<rect width="64" height="64" rx="18.2857" fill="#FFD200"/>
<path fill-rule="evenodd" clip-rule="evenodd" d="M47.3886 33.4693L36.0822 34.4199C36.3838 33.9881 36.9174 33.2567 37.6367 32.4029L49.1725 31.4331C48.8298 31.9519 48.4263 32.4464 47.9779 32.889C47.7813 33.0824 47.5853 33.2765 47.3886 33.4693ZM38.8242 40.7194C38.2631 41.2953 37.9678 41.9832 37.8295 42.6666L30.0266 43.2841C30.8093 41.9076 32.2063 40.1481 33.2485 38.7742L41.9109 38.0433C40.8457 39.0771 39.5115 40.0149 38.8242 40.7194ZM38.4055 48.8605L25.1179 50.1217C25.8212 49.4946 26.4815 48.7824 27.0522 47.9901L38.2851 47.1023C38.3594 47.6423 38.4132 48.2591 38.4055 48.8605ZM37.9155 51.0095L21.6693 52.6941L20.9212 52.7716C21.5367 52.5179 22.1888 52.1912 22.8453 51.7954L22.8478 51.8178L38.2184 50.326C38.1441 50.5829 38.0461 50.8154 37.9155 51.0095ZM37.7392 44.1521C37.7789 44.8035 37.9058 45.3492 37.9884 45.6477L28.1173 46.4285C28.4305 45.9526 28.7681 45.4306 29.1204 44.8785C29.1293 44.8631 29.1383 44.8471 29.1473 44.8317L37.7392 44.1521ZM34.2113 37.5591C34.4272 37.1351 35.0511 36.4081 35.3713 35.8636L45.8586 34.9644C44.9734 35.7381 43.9031 36.5522 43.3503 36.7905L34.2113 37.5591ZM49.9515 29.9478C49.9496 29.9536 49.947 29.9594 49.9451 29.9645L39.0107 30.8836C39.0684 30.8247 39.1267 30.7651 39.1862 30.7062C40.22 29.552 41.2814 28.5938 42.3408 27.8585C43.666 26.9387 44.9894 26.368 46.2755 26.1617C46.7572 26.0848 47.2062 26.0458 47.6097 26.0458C48.7492 26.0458 49.5351 26.3443 49.9579 26.9316C50.0367 27.0411 50.1046 27.1596 50.1577 27.2897C50.4338 27.9616 50.3608 28.9057 49.9515 29.9478ZM49.9784 26.3308C49.5089 25.1003 48.4981 22.9193 47.1313 22.5939C44.1862 21.8926 38.743 23.0891 35.5609 26.8714C31.9317 31.184 29.7014 35.9744 28.1629 38.9875C27.0067 41.2517 25.2357 43.7401 23.8432 46.0146C23.4064 46.7288 22.9625 47.3994 22.5154 47.9996C20.5285 50.6642 19.2897 51.4001 18.261 51.4936C17.3816 51.5737 15.617 50.128 15.0213 48.9706L14.849 48.642C14.849 48.642 14.8368 49.1865 14.84 49.1487C14.84 49.1487 14.8612 49.3921 14.9361 49.7655C15.0405 51.5532 15.8053 52.4852 16.6194 52.9643C17.0005 53.1885 17.3912 53.314 17.7307 53.3819C17.9357 53.4235 18.1432 53.4434 18.352 53.4434C18.4686 53.4434 18.5851 53.437 18.7011 53.4248L20.2614 53.2628L38.1422 51.4091C38.4356 51.0536 38.6149 50.5803 38.7167 50.0582C39.0767 48.211 38.4599 45.7526 38.4599 45.7526C38.4599 45.7526 37.4299 42.7537 39.126 41.0134C39.887 40.2326 41.2301 39.2578 42.565 38.1368L42.8827 37.8608C44.7344 36.3395 46.3562 35.0822 48.2733 33.1882C50.4268 31.0623 51.6162 27.7649 49.9784 26.3308Z" fill="#5E5050"/>
<path fill-rule="evenodd" clip-rule="evenodd" d="M20.9631 30.7118C20.5647 30.9059 20.263 31.1365 20.1842 31.1986C19.1068 31.9557 19.2445 33.981 19.3451 35.4613C19.3618 35.7111 19.381 35.9942 19.3874 36.2203C19.1581 35.7975 18.8743 34.8201 18.939 33.035C19.0024 31.2639 20.4321 30.6074 20.9637 30.4242C20.9631 30.5184 20.9631 30.6138 20.9631 30.7118ZM30.2722 28.0439C30.5361 25.5017 31.1984 22.6418 32.0522 20.3346C33.1129 17.4683 34.6316 15.4884 36.4436 14.6096C38.7098 13.5111 40.7755 13.4445 42.1532 13.597C40.8588 12.013 39.8032 10.7607 39.8032 10.7607C39.8032 10.7607 39.0666 9.97161 38.2717 10.4277C37.4768 10.8831 37.8963 11.4506 37.1642 11.6895C36.279 11.979 35.5136 10.7313 34.6137 10.9888C33.7137 11.2456 32.8971 11.9124 32.2995 12.9289C31.6852 13.973 31.4988 14.9959 31.2958 16.7605C30.9742 19.557 27.5263 24.7869 26.0704 25.9232C25.0398 26.7277 22.7608 28.9375 21.8487 27.5001C21.6111 27.1241 21.5598 26.8903 21.522 26.6815C21.3747 27.0396 21.2069 27.5885 21.0935 28.4334C20.6657 28.4654 20.232 28.557 19.8138 28.7088C18.6865 29.1168 17.8749 30.0052 17.4016 31.3484C17.082 32.256 16.9122 33.3097 16.8827 34.5696C16.8584 35.6328 16.8648 35.7206 17.0429 36.78C17.0698 36.9395 17.2267 37.0388 17.3811 37.0388C17.4112 37.0388 17.4419 37.0349 17.4727 37.0266C17.6597 36.976 17.7539 36.787 17.7199 36.5968C17.545 35.6251 17.5604 35.5976 17.5841 34.5862C17.6117 33.4013 17.7686 32.418 18.0632 31.5815C18.4636 30.4459 19.1329 29.7016 20.0527 29.3679C20.3646 29.2552 20.6945 29.1802 21.0186 29.145C21.0051 29.316 20.9936 29.496 20.9846 29.6862C20.7874 29.7375 18.331 30.4305 18.2381 33.0093C18.1503 35.4452 18.6833 37.1195 19.5646 37.1758C19.5749 37.1771 19.5845 37.1771 19.5941 37.1771C19.7113 37.1771 19.8202 37.1316 19.9041 37.0477C20.1302 36.821 20.1116 36.4085 20.0444 35.4138C19.9598 34.1712 19.8324 32.2931 20.5933 31.7679C20.6003 31.7634 20.6067 31.7583 20.6131 31.7532C20.6906 31.6911 20.8194 31.5995 20.9763 31.5047C20.993 32.0331 21.0256 32.6134 21.0775 33.2501C21.0782 33.2526 21.0782 33.2552 21.0782 33.2584C20.6721 33.3193 20.3909 33.6959 20.4485 34.1033C20.5023 34.4786 20.8258 34.7483 21.1947 34.7451C21.2229 35.1249 21.2473 35.4804 21.2684 35.8128C21.2473 35.8141 21.2261 35.8154 21.205 35.8186C20.7963 35.8769 20.5119 36.2554 20.5702 36.6647C20.6247 37.0471 20.959 37.32 21.3369 37.3065C21.3465 37.7107 21.3453 38.0674 21.3318 38.3819C21.2601 38.3704 21.1851 38.3698 21.1095 38.38C20.7009 38.4383 20.4165 38.8169 20.4748 39.2262C20.5209 39.549 20.7662 39.793 21.0686 39.8532C20.7963 40.472 20.3038 40.6641 19.5127 40.7487C17.5495 40.9594 15.963 39.2153 14.6614 41.8401C13.8774 43.4203 14.1785 45.6154 14.5717 47.0181C14.7242 47.5606 14.8901 47.9846 15.0118 48.2082C15.5953 49.3957 17.0281 50.8164 17.9101 50.8625C19.3596 50.9387 20.2653 50.0971 22.2522 47.4319C22.5629 47.0155 22.8697 46.5627 23.1714 46.0836C24.6907 43.6771 26.5758 41.0946 27.8427 38.6138C28.3237 37.6722 28.9476 36.6045 29.5696 35.3395C29.64 34.5202 29.8834 31.7884 30.2722 28.0439Z" fill="#5E5050"/>
<path fill-rule="evenodd" clip-rule="evenodd" d="M43.7136 19.6839C43.5112 20.2821 43.1326 20.7817 42.5972 21.0802C41.9534 21.4389 41.1886 21.4581 40.4418 21.1347C39.7148 20.8195 39.0909 20.2142 38.6842 19.4302C37.8349 17.7911 38.2077 15.8651 39.515 15.1362C40.8229 14.4073 42.5786 15.1471 43.4279 16.7862C43.9294 17.7534 44.005 18.8217 43.7136 19.6839ZM46.3828 19.0644C45.5418 17.8032 43.7496 15.553 42.2476 13.7128C40.823 13.5924 38.6446 13.7109 36.4848 14.9023C32.6801 17 31.4099 23.9151 31.3241 28.0791C31.2825 30.1044 31.205 31.4495 31.132 32.3174C32.2401 30.3055 33.5698 28.1899 35.2102 26.2401C38.3923 22.4585 43.9245 21.278 46.8689 21.9788C47.0066 22.0121 47.1405 22.0633 47.2712 22.1293C47.4524 21.736 47.5261 20.7791 46.3828 19.0644Z" fill="#5E5050"/>
<path fill-rule="evenodd" clip-rule="evenodd" d="M42.6911 18.0227C42.5412 18.5428 42.4656 19.4556 41.339 19.9244C40.7785 20.1569 40.2853 19.9981 39.9542 19.2019C39.5442 18.2168 39.4283 16.7378 40.7375 16.1934C41.102 16.0422 41.5189 15.9794 41.6733 16.3503C41.6983 16.4105 41.7149 16.4637 41.7252 16.5341C41.7297 16.5598 41.7098 16.5835 41.6836 16.5841C41.6464 16.5854 41.6003 16.5944 41.5465 16.6168C41.5023 16.6353 41.4568 16.6622 41.4062 16.7007C41.38 16.7199 41.3422 16.7045 41.3364 16.6725C41.3281 16.6232 41.3178 16.5809 41.3024 16.5437C41.2352 16.3817 41.1058 16.3567 40.9572 16.4182C40.3903 16.6539 40.4832 17.9055 40.7862 18.6344C40.9521 19.0322 41.1679 19.3223 41.5792 19.1513C42.0519 18.9547 42.3183 18.5204 42.4829 18.0477C42.4874 18.0362 42.4964 18.0259 42.5079 18.0214L42.6315 17.9696C42.6655 17.9561 42.7013 17.9868 42.6911 18.0227ZM39.7124 15.5222C38.5716 16.1582 38.2462 17.8383 38.9873 19.2679C39.3422 19.952 39.8866 20.4798 40.5201 20.7546C41.1715 21.0371 41.8396 21.0204 42.4007 20.7072C42.8676 20.4471 43.1981 20.0109 43.3742 19.4896C43.6285 18.7369 43.5632 17.8056 43.1257 16.9614C42.384 15.5318 40.8532 14.8861 39.7124 15.5222Z" fill="#5E5050"/>
</svg>
