<svg width="58" height="68" viewBox="0 0 58 68" fill="none" xmlns="http://www.w3.org/2000/svg">
<path d="M55.8717 25.0608C55.1417 23.1408 53.5617 19.7308 51.4217 19.2308C46.8217 18.1408 38.3217 20.0008 33.3617 25.9108C27.6917 32.6408 24.2117 40.1208 21.8117 44.8308C20.0017 48.3608 17.2417 52.2508 15.0717 55.8008C14.3917 56.9108 13.7017 57.9608 13.0017 58.9008C9.90172 63.0608 7.96172 64.2108 6.36172 64.3608C4.99172 64.4808 2.23172 62.2308 1.30172 60.4208L1.03172 59.9108C1.03172 59.9108 1.01172 60.7608 1.02172 60.7008C1.02172 60.7008 1.05172 61.0808 1.17172 61.6608C1.33172 64.4508 2.53172 65.9108 3.80172 66.6508C4.39172 67.0008 5.01172 67.2008 5.54172 67.3008C5.86172 67.3608 6.18172 67.4008 6.51172 67.4008C6.69172 67.4008 6.87172 67.4008 7.06172 67.3708L9.50172 67.1208L37.4217 64.2308C37.8817 63.6808 38.1617 62.9408 38.3217 62.1208C38.8817 59.2408 37.9217 55.4008 37.9217 55.4008C37.9217 55.4008 36.3117 50.7208 38.9617 48.0008C40.1517 46.7808 42.2517 45.2608 44.3317 43.5108L44.8317 43.0808C47.7217 40.7008 50.2517 38.7408 53.2517 35.7908C56.6117 32.4708 58.4717 27.3208 55.9117 25.0808L55.8717 25.0608ZM55.8317 30.7108C55.8317 30.7108 55.8317 30.7308 55.8217 30.7408L38.7517 32.1808C38.8417 32.0908 38.9317 31.9908 39.0217 31.9008C40.6317 30.1008 42.2917 28.6008 43.9517 27.4508C46.0217 26.0108 48.0917 25.1208 50.0917 24.8008C50.8417 24.6808 51.5417 24.6208 52.1717 24.6208C53.9517 24.6208 55.1817 25.0908 55.8417 26.0008C55.9617 26.1708 56.0717 26.3608 56.1517 26.5608C56.5817 27.6108 56.4717 29.0808 55.8317 30.7108ZM31.2617 42.5908C31.6017 41.9308 32.5717 40.7908 33.0717 39.9408L49.4417 38.5408C48.0617 39.7508 46.3917 41.0208 45.5217 41.3908L31.2517 42.5908H31.2617ZM36.7617 52.8808C36.8217 53.9008 37.0217 54.7508 37.1517 55.2208L21.7417 56.4408C22.2317 55.7008 22.7617 54.8808 23.3117 54.0208C23.3217 54.0008 23.3417 53.9708 23.3517 53.9508L36.7617 52.8908V52.8808ZM37.0417 63.5908L11.6817 66.2208L10.5117 66.3408C11.4717 65.9408 12.4917 65.4308 13.5117 64.8208V64.8508L37.5117 62.5208C37.3917 62.9208 37.2417 63.2808 37.0417 63.5908ZM37.8017 60.2308L17.0617 62.2008C18.1617 61.2208 19.1917 60.1108 20.0817 58.8708L37.6217 57.4808C37.7417 58.3208 37.8217 59.2908 37.8117 60.2308H37.8017ZM38.4617 47.5208C37.5817 48.4208 37.1217 49.4908 36.9117 50.5608L24.7317 51.5208C25.9517 49.3708 28.1317 46.6208 29.7617 44.4808L43.2817 43.3408C41.6217 44.9508 39.5317 46.4208 38.4617 47.5208ZM51.8317 36.2008L34.1817 37.6808C34.6517 37.0108 35.4817 35.8608 36.6117 34.5308L54.6217 33.0208C54.0917 33.8308 53.4517 34.6008 52.7617 35.2908C52.4517 35.5908 52.1517 35.8908 51.8417 36.2008H51.8317Z" fill="white"/>
<path d="M25.1117 27.7307C25.5217 23.7607 26.5617 19.3007 27.8917 15.6907C29.5517 11.2107 31.9217 8.12072 34.7517 6.75072C38.2917 5.03072 41.5117 4.93072 43.6617 5.17072C41.6417 2.70072 39.9917 0.740725 39.9917 0.740725C39.9917 0.740725 38.8417 -0.489275 37.6017 0.220725C36.3617 0.930725 37.0117 1.82072 35.8717 2.19072C34.4917 2.64072 33.2917 0.690725 31.8917 1.10072C30.4917 1.50072 29.2117 2.54072 28.2817 4.13072C27.3217 5.76072 27.0317 7.36073 26.7117 10.1107C26.2117 14.4807 20.8217 22.6407 18.5517 24.4207C16.9417 25.6807 13.3817 29.1307 11.9617 26.8807C11.5917 26.2907 11.5117 25.9307 11.4517 25.6007C11.2217 26.1607 10.9617 27.0107 10.7817 28.3307C10.1117 28.3807 9.44169 28.5207 8.78169 28.7607C7.02169 29.4007 5.75169 30.7807 5.01169 32.8807C4.51169 34.3007 4.25169 35.9407 4.20169 37.9107C4.16169 39.5707 4.17169 39.7107 4.45169 41.3607C4.49169 41.6107 4.74169 41.7607 4.98169 41.7607C5.03169 41.7607 5.08169 41.7607 5.12169 41.7407C5.41169 41.6607 5.56169 41.3707 5.51169 41.0707C5.24169 39.5507 5.26169 39.5107 5.30169 37.9307C5.34169 36.0807 5.59169 34.5407 6.05169 33.2407C6.67169 31.4707 7.72169 30.3007 9.16169 29.7807C9.65169 29.6007 10.1617 29.4907 10.6717 29.4307C10.6517 29.7007 10.6317 29.9807 10.6217 30.2807C10.3117 30.3607 6.48169 31.4407 6.33169 35.4707C6.19169 39.2707 7.03169 41.8907 8.40169 41.9807C8.42169 41.9807 8.43169 41.9807 8.45169 41.9807C8.63169 41.9807 8.80169 41.9107 8.93169 41.7807C9.28169 41.4307 9.25169 40.7807 9.15169 39.2307C9.02169 37.2907 8.82169 34.3607 10.0117 33.5407C10.0217 33.5407 10.0317 33.5207 10.0417 33.5207C10.1617 33.4207 10.3617 33.2807 10.6117 33.1307C10.6417 33.9607 10.6917 34.8607 10.7717 35.8607C10.7717 35.8607 10.7717 35.8607 10.7717 35.8707C10.1417 35.9707 9.70169 36.5507 9.79169 37.1907C9.87169 37.7807 10.3817 38.2007 10.9517 38.1907C10.9917 38.7807 11.0317 39.3407 11.0617 39.8607C11.0317 39.8607 10.9917 39.8607 10.9617 39.8607C10.3217 39.9507 9.88169 40.5407 9.97169 41.1807C10.0517 41.7807 10.5817 42.2007 11.1717 42.1807C11.1917 42.8107 11.1817 43.3707 11.1717 43.8607C11.0617 43.8407 10.9417 43.8407 10.8217 43.8607C10.1817 43.9507 9.74169 44.5407 9.83169 45.1807C9.90169 45.6807 10.2917 46.0707 10.7617 46.1607C10.3317 47.1307 9.57169 47.4307 8.33169 47.5607C5.26169 47.8907 2.79169 45.1707 0.761694 49.2607C-0.458306 51.7307 0.0116944 55.1507 0.621694 57.3407C0.861694 58.1907 1.12169 58.8507 1.31169 59.2007C2.22169 61.0507 4.46169 63.2707 5.83169 63.3407C8.09169 63.4607 9.51169 62.1407 12.6117 57.9807C13.1017 57.3307 13.5717 56.6207 14.0517 55.8707C16.4217 52.1107 19.3617 48.0807 21.3417 44.2107C22.0917 42.7407 23.0617 41.0707 24.0417 39.1007C24.1517 37.8207 24.5317 33.5607 25.1417 27.7107L25.1117 27.7307ZM10.5717 31.9007C9.95169 32.2007 9.48169 32.5607 9.35169 32.6607C7.67169 33.8407 7.88169 37.0007 8.04169 39.3207C8.07169 39.7107 8.10169 40.1507 8.11169 40.5107C7.75169 39.8507 7.31169 38.3207 7.41169 35.5407C7.51169 32.7707 9.74169 31.7507 10.5717 31.4607C10.5717 31.6107 10.5717 31.7607 10.5717 31.9107V31.9007Z" fill="white"/>
<path d="M50.2617 13.7207C48.9517 11.7507 46.1517 8.24067 43.8017 5.36067C41.5817 5.17067 38.1817 5.36067 34.8017 7.22067C28.8617 10.4907 26.8817 21.2907 26.7417 27.7907C26.6717 30.9507 26.5517 33.0507 26.4417 34.4107C28.1717 31.2707 30.2517 27.9707 32.8117 24.9207C37.7817 19.0207 46.4117 17.1707 51.0117 18.2707C51.2217 18.3207 51.4317 18.4007 51.6416 18.5007C51.9216 17.8907 52.0416 16.3907 50.2516 13.7107L50.2617 13.7207ZM46.0917 14.6807C45.7717 15.6107 45.1817 16.3907 44.3517 16.8607C43.3517 17.4207 42.1517 17.4507 40.9917 16.9407C39.8617 16.4507 38.8816 15.5007 38.2516 14.2807C36.9216 11.7207 37.5117 8.71067 39.5517 7.58067C41.5917 6.44067 44.3316 7.60067 45.6616 10.1607C46.4417 11.6707 46.5617 13.3407 46.1117 14.6807H46.0917Z" fill="white"/>
<path d="M39.8417 8.18073C38.0617 9.17073 37.5517 11.8007 38.7117 14.0307C39.2617 15.1007 40.1117 15.9207 41.1017 16.3507C42.1217 16.7907 43.1617 16.7607 44.0417 16.2807C44.7717 15.8707 45.2917 15.1907 45.5617 14.3807C45.9617 13.2107 45.8517 11.7507 45.1717 10.4307C44.0117 8.20073 41.6217 7.19073 39.8417 8.18073ZM44.4917 12.0907C44.2617 12.9007 44.1417 14.3307 42.3817 15.0607C41.5117 15.4207 40.7417 15.1807 40.2217 13.9307C39.5817 12.3907 39.4017 10.0807 41.4417 9.23073C42.0117 8.99073 42.6617 8.90073 42.9017 9.48073C42.9417 9.57073 42.9717 9.66073 42.9817 9.77073C42.9817 9.81073 42.9617 9.85073 42.9117 9.85073C42.8517 9.85073 42.7817 9.87073 42.7017 9.90073C42.6317 9.93073 42.5617 9.97073 42.4817 10.0307C42.4417 10.0607 42.3817 10.0307 42.3717 9.99073C42.3617 9.91073 42.3417 9.85073 42.3217 9.79073C42.2117 9.54073 42.0117 9.50073 41.7817 9.59073C40.9017 9.96073 41.0417 11.9107 41.5117 13.0507C41.7717 13.6707 42.1017 14.1207 42.7517 13.8607C43.4917 13.5507 43.9017 12.8707 44.1617 12.1407C44.1617 12.1207 44.1817 12.1107 44.2017 12.1007L44.3917 12.0207C44.4417 12.0007 44.5017 12.0507 44.4817 12.1007L44.4917 12.0907Z" fill="white"/>
</svg>
