<svg xmlns="http://www.w3.org/2000/svg" viewBox="0 0 106.667 32" fill="none" preserveAspectRatio="xMidYMid meet" role="img" aria-label="Cashwalk for Business">
  <!--
    Figma 출처: 9lJ9XCwVYFSoZGcmRuJtI4 / 98:1082 (캐포비 admin GNB) — logo_cfb_horizontal (106.667 × 32).
    Brown #5E5050 가이드(7dCJU5lNPfgcAjFPwbbLIu / 3154:550) 기준 — Figma export 의 #605151 / #524445 두 톤 그대로 유지.
    Layers: mascot · cashwalk wordmark · "for business" 워드마크.
  -->
  <g transform="translate(0.363 1.034)" fill="#605151">
    <path d="M23.5931 10.5725C23.2834 9.76391 22.6182 8.32448 21.7179 8.11229C19.7795 7.64778 16.1895 8.43918 14.0906 10.9338C11.6992 13.7782 10.2311 16.9324 9.21606 18.9166C8.45333 20.4076 7.28918 22.0478 6.37161 23.5503C6.08488 24.0205 5.7924 24.4621 5.4942 24.8578C4.18667 26.6127 3.3666 27.1001 2.6899 27.1632C2.11068 27.2148 0.946526 26.2628 0.556562 25.5001L0.441866 25.2822C0.441866 25.2822 0.436131 25.6435 0.441866 25.6148C0.441866 25.6148 0.453336 25.7754 0.504949 26.022C0.573766 27.1976 1.07842 27.817 1.61176 28.1324C1.86409 28.2815 2.12215 28.3618 2.34581 28.4076C2.48344 28.4363 2.61534 28.4478 2.75298 28.4478C2.82753 28.4478 2.90781 28.4478 2.98237 28.4363L4.00889 28.3273L15.7938 27.1058C15.9888 26.8707 16.1035 26.561 16.1723 26.217C16.4075 25.0012 16.0003 23.3782 16.0003 23.3782C16.0003 23.3782 15.3236 21.3998 16.4419 20.2528C16.9408 19.7367 17.8297 19.0944 18.7071 18.3546L18.9193 18.1711C20.1408 17.1675 21.2075 16.3417 22.4691 15.0915C23.8856 13.6922 24.6713 11.5187 23.5931 10.5725ZM23.5759 12.9524C23.5759 12.9524 23.5759 12.9582 23.5759 12.9639L16.3673 13.5718C16.4075 13.5317 16.4419 13.4915 16.482 13.4571C17.1644 12.6944 17.8641 12.0636 18.5637 11.5818C19.4354 10.9739 20.3071 10.6012 21.1558 10.4636C21.4713 10.4119 21.7695 10.389 22.0333 10.389C22.7845 10.389 23.3006 10.584 23.5817 10.9739C23.6333 11.0485 23.6791 11.123 23.7135 11.2091C23.8971 11.6506 23.8454 12.2757 23.5759 12.9582V12.9524ZM13.2017 17.9704C13.3451 17.6894 13.758 17.2134 13.9644 16.8521L20.8748 16.2614C20.2899 16.7718 19.5845 17.3051 19.2232 17.4657L13.2017 17.9704ZM15.5243 22.3173C15.553 22.7474 15.6333 23.1087 15.6906 23.3037L9.18739 23.8198C9.39384 23.5044 9.61749 23.1603 9.84688 22.799C9.84688 22.7876 9.85835 22.7761 9.86409 22.7704L15.5243 22.3231V22.3173ZM15.6447 26.8363L4.93792 27.9489L4.44473 28.0005C4.8519 27.8342 5.28201 27.6162 5.71212 27.3582V27.3754L15.8454 26.3947C15.7938 26.5668 15.7308 26.7159 15.6447 26.8478V26.8363ZM15.9659 25.4198L7.20889 26.2514C7.67341 25.8385 8.10925 25.3682 8.48201 24.8463L15.8856 24.2614C15.9372 24.617 15.9716 25.0241 15.9659 25.4198ZM16.2411 20.0521C15.8741 20.4306 15.6791 20.8836 15.5874 21.3367L10.4433 21.7438C10.9594 20.8377 11.8827 19.6793 12.5652 18.7732L18.277 18.2915C17.5774 18.9739 16.6942 19.5933 16.2411 20.0578V20.0521ZM21.8842 15.275L14.4347 15.9001C14.6354 15.6134 14.9852 15.1317 15.4612 14.5696L23.0655 13.9331C22.8419 14.2772 22.5723 14.5983 22.2799 14.8908C22.148 15.017 22.0218 15.1489 21.8899 15.275H21.8842Z"/>
    <path d="M10.6039 11.7023C10.7759 10.0277 11.2117 8.14097 11.7795 6.62126C12.4791 4.73452 13.477 3.42699 14.6755 2.84778C16.1666 2.1252 17.5315 2.07932 18.4376 2.18255C17.5831 1.13882 16.8892 0.313013 16.8892 0.313013C16.8892 0.313013 16.4017 -0.208849 15.8798 0.0950934C15.358 0.393301 15.6333 0.771794 15.1515 0.926633C14.5666 1.11588 14.0619 0.29581 13.4712 0.462118C12.8806 0.634161 12.3415 1.07 11.9458 1.74097C11.5386 2.42914 11.4182 3.10584 11.2863 4.26427C11.0741 6.10513 8.80314 9.55172 7.8397 10.303C7.163 10.8306 5.66049 12.2872 5.05834 11.341C4.9035 11.0944 4.8691 10.9395 4.84042 10.8019C4.74293 11.037 4.63397 11.3983 4.55941 11.9546C4.27841 11.9775 3.99168 12.0349 3.71641 12.1381C2.97089 12.4076 2.43755 12.9926 2.12787 13.8757C1.91569 14.4722 1.80673 15.1661 1.78379 15.9976C1.76659 16.6972 1.77232 16.7546 1.88702 17.4542C1.90422 17.5575 2.00745 17.6263 2.11067 17.6263C2.12788 17.6263 2.15081 17.6263 2.17375 17.6205C2.29418 17.5861 2.35727 17.46 2.33433 17.3395C2.21963 16.6972 2.2311 16.68 2.24257 16.0148C2.25978 15.2349 2.363 14.5868 2.55798 14.0363C2.82178 13.2908 3.26336 12.7976 3.87124 12.5797C4.0777 12.5051 4.29562 12.4535 4.5078 12.4306C4.49633 12.5453 4.4906 12.66 4.48486 12.7861C4.35296 12.8205 2.73576 13.2736 2.67268 14.9768C2.61533 16.5825 2.96515 17.6836 3.5501 17.7238C3.55583 17.7238 3.56157 17.7238 3.5673 17.7238C3.64185 17.7238 3.71641 17.6951 3.77375 17.6377C3.92286 17.4886 3.91139 17.2191 3.86551 16.5596C3.80816 15.7395 3.72788 14.5008 4.2268 14.1567C4.2268 14.1567 4.23827 14.151 4.23827 14.1453C4.28988 14.1051 4.3759 14.042 4.47913 13.979C4.4906 14.3288 4.51354 14.7073 4.54795 15.1317C4.27841 15.1718 4.0949 15.4184 4.13504 15.6879C4.16945 15.9345 4.38164 16.1123 4.62823 16.1123C4.64544 16.3646 4.66264 16.594 4.67411 16.8177C4.66264 16.8177 4.64544 16.8177 4.63397 16.8177C4.36444 16.8578 4.17519 17.1044 4.21533 17.3739C4.24974 17.6263 4.4734 17.8041 4.71999 17.7983C4.72573 18.0621 4.71999 18.2972 4.71999 18.5094C4.67411 18.5037 4.6225 18.5037 4.57662 18.5094C4.30709 18.5496 4.11784 18.7962 4.15798 19.0657C4.18666 19.2779 4.35297 19.4385 4.54795 19.4786C4.37017 19.8858 4.04329 20.0119 3.52142 20.0693C2.22537 20.2069 1.18164 19.06 0.321424 20.7861C-0.194705 21.8299 0.00601068 23.275 0.264075 24.1983C0.361566 24.5539 0.476263 24.8349 0.55655 24.984C0.940779 25.7639 1.88702 26.7044 2.46623 26.7331C3.42393 26.7847 4.02035 26.2284 5.32788 24.4736C5.53433 24.1983 5.73504 23.9001 5.93576 23.5847C6.93934 21.9962 8.17806 20.2987 9.01533 18.6643C9.33074 18.0449 9.74364 17.3395 10.1508 16.508C10.1967 15.9689 10.3573 14.1682 10.6153 11.7023H10.6039ZM4.46766 13.4571C4.20386 13.5833 4.00888 13.7381 3.95727 13.7782C3.24616 14.2772 3.33791 15.6134 3.40673 16.5883C3.4182 16.7546 3.42967 16.9381 3.4354 17.0872C3.2863 16.8062 3.09705 16.1639 3.13719 14.9883C3.17734 13.8184 4.12358 13.3883 4.4734 13.2679C4.4734 13.3309 4.4734 13.394 4.4734 13.4571H4.46766Z"/>
    <path d="M21.2247 5.78397C20.6684 4.95243 19.487 3.46713 18.5006 2.25709C17.5601 2.17681 16.1265 2.25709 14.7042 3.04276C12.1981 4.42484 11.3609 8.98398 11.3035 11.7252C11.2748 13.0614 11.2232 13.9446 11.1773 14.518C11.9057 13.1933 12.7831 11.7997 13.867 10.5152C15.9659 8.02053 19.6075 7.24634 21.5515 7.70512C21.6433 7.72806 21.7293 7.76247 21.8153 7.80262C21.9358 7.54455 21.9817 6.91372 21.2304 5.78397H21.2247ZM19.4641 6.19114C19.3322 6.58684 19.0799 6.91372 18.73 7.1087C18.3057 7.34383 17.801 7.3553 17.3078 7.14312C16.8261 6.93666 16.4189 6.53523 16.1494 6.0191C15.5874 4.94097 15.834 3.66785 16.6942 3.19186C17.5544 2.71014 18.7128 3.19759 19.2748 4.28146C19.6075 4.91802 19.6533 5.6234 19.4641 6.19114Z"/>
    <path d="M16.8261 3.44418C16.0748 3.86282 15.8626 4.96964 16.3501 5.91587C16.5852 6.36892 16.9408 6.713 17.3594 6.89652C17.7895 7.08003 18.2311 7.07429 18.5981 6.86784C18.9078 6.6958 19.1257 6.40906 19.2404 6.06497C19.4067 5.57178 19.3666 4.95243 19.0741 4.39616C18.5867 3.45566 17.5773 3.03128 16.8261 3.44992V3.44418ZM18.7874 5.0958C18.6899 5.43989 18.6383 6.04203 17.8985 6.35171C17.5315 6.50655 17.2046 6.40333 16.9867 5.87573C16.7171 5.2277 16.6426 4.25279 17.5028 3.8915C17.7437 3.794 18.0189 3.74813 18.1221 3.99472C18.1393 4.03487 18.1508 4.06928 18.1566 4.11516C18.1566 4.13236 18.1451 4.14956 18.1279 4.14956C18.1049 4.14956 18.0705 4.1553 18.0361 4.1725C18.0074 4.18397 17.9788 4.20118 17.9444 4.22985C17.9272 4.24132 17.9042 4.22985 17.8985 4.21265C17.8985 4.17824 17.887 4.14956 17.8755 4.12662C17.8297 4.01766 17.7437 4.00046 17.6462 4.04634C17.2734 4.20118 17.3365 5.02698 17.5315 5.5087C17.6404 5.7725 17.7838 5.96175 18.0533 5.84705C18.363 5.71515 18.5408 5.42842 18.6497 5.11874C18.6497 5.11301 18.6555 5.10727 18.6669 5.10153L18.7472 5.06712C18.7472 5.06712 18.7931 5.07859 18.7874 5.10153V5.0958Z"/>
  </g>
  <g transform="translate(31.595 1.786)" fill="#605151">
    <path d="M6.40002 5.64874C6.40002 5.15555 6.09034 4.9491 5.6373 4.9491C3.89966 4.9491 2.78712 8.31541 2.78712 10.5462C2.78712 11.762 3.03371 12.7541 4.29536 12.7541C5.74052 12.7541 6.91041 11.9111 7.85091 10.8559C7.87385 10.8272 7.90826 10.8158 7.94267 10.8158H8.32117C8.42439 10.8158 8.48174 10.9362 8.41866 11.0165C7.46095 12.2151 6.27385 14.509 2.82726 14.509C1.11256 14.509 1.78858e-05 13.557 1.78858e-05 11.1197C1.78858e-05 8.10322 1.30181 4.11756 5.31041 4.11756C6.42296 4.11756 7.58139 4.4043 7.58139 5.53978C7.58139 5.72329 7.56992 5.88387 7.5183 6.07885C7.5011 6.14767 7.42654 6.18781 7.35772 6.16487C7.26023 6.13046 7.12834 6.10179 6.96203 6.10179C6.8244 6.10179 6.68102 6.12473 6.50325 6.17061C6.41149 6.19355 6.3312 6.11326 6.35414 6.0215C6.38855 5.88387 6.40576 5.76344 6.40576 5.64874H6.40002Z"/>
    <path d="M17.0437 4.18064C17.124 4.18064 17.1814 4.25519 17.1642 4.32975L15.7305 11.2C15.6674 11.5097 15.6273 11.7563 15.6273 11.9627C15.6273 12.3986 15.7936 12.6222 16.2695 12.6222C16.4932 12.6222 16.7914 12.3469 17.1126 11.8882C17.1298 11.8652 17.1355 11.8423 17.1355 11.8194C17.147 10.1735 17.8466 9.24444 18.638 9.14122C18.6782 9.14122 18.7126 9.11254 18.7355 9.07814C19.4466 7.76487 19.9111 5.99283 20.2552 4.46165C20.2667 4.41577 20.3011 4.37563 20.3527 4.36989L23.1169 3.79642C23.1971 3.77921 23.266 3.84229 23.266 3.91685V4.05448C23.266 7.46093 24.648 8.49319 24.671 10.9075C24.671 10.9075 24.671 10.9075 24.671 10.9133V11.0394C24.6595 11.1484 24.7914 11.2115 24.8717 11.1369C25.2903 10.747 25.6574 10.3685 25.8925 10.1104C25.9441 10.053 26.0359 10.0588 26.0817 10.1161L26.4545 10.5978C26.4946 10.6495 26.4889 10.7297 26.4316 10.7699C25.8638 11.2229 25.0896 11.8996 24.3154 12.5591C24.304 12.5706 24.2925 12.5821 24.2867 12.5993C23.7419 13.7233 22.5721 14.4975 20.6624 14.4975C18.8731 14.4975 17.7835 14.1133 17.3477 13.0753C17.3133 12.9892 17.1928 12.9663 17.1355 13.0409C16.4359 13.9011 15.7477 14.4975 15.1857 14.4975C13.8552 14.4975 13.0868 13.9699 12.7771 13.1154C12.7427 13.0237 12.6222 13.0064 12.5649 13.081C11.9513 13.8781 11.0624 14.6179 9.88102 14.6179C7.89679 14.6179 7.31758 13.2129 7.31758 11.9971C7.31758 8.44731 8.59643 4.19211 12.7312 4.19211C13.1613 4.19211 13.6086 4.34695 13.9642 4.59355C14.0387 4.64516 14.1362 4.60502 14.1591 4.51899L14.2165 4.26667C14.228 4.20932 14.2796 4.16917 14.3369 4.16917H17.038L17.0437 4.18064ZM13.9011 5.80358C13.9126 5.75771 13.8954 5.71182 13.8609 5.68315C13.5455 5.43082 13.1785 5.36201 12.909 5.36201C11.3606 5.36201 10.1219 8.64803 10.1219 11.4523C10.1219 12.691 10.8043 12.9204 11.3204 12.9204C11.785 12.9204 12.2323 12.4616 12.6394 11.8996C12.6566 11.8767 12.6624 11.8538 12.6624 11.8308C12.6624 11.6358 12.7083 11.4237 12.7656 11.2057L13.9068 5.80932L13.9011 5.80358ZM18.9305 11.7161C18.7298 11.7161 18.5405 11.676 18.3455 11.6072C18.271 11.5785 18.1907 11.6301 18.1792 11.7047C18.1735 11.7677 18.162 11.8251 18.162 11.8824C18.162 12.7713 19.1312 13.2875 19.9398 13.2875C20.6394 13.2875 21.6545 12.4215 21.6545 10.8272C21.6545 9.66881 20.8975 8.66523 20.7197 6.58351C20.7083 6.44587 20.5133 6.42294 20.4731 6.56057C20.2323 7.39785 19.9914 8.33261 19.6588 9.12401C19.6301 9.18709 19.6588 9.25591 19.7219 9.28459C20.129 9.4681 20.2896 9.82939 20.2896 10.3971C20.2896 11.1828 19.6473 11.7161 18.9247 11.7161H18.9305Z"/>
    <path d="M32.5448 14.5032C31.0767 14.5032 30.4402 13.534 30.4402 12.2323C30.4402 11.8996 30.4803 11.5498 30.5663 11.2L31.352 7.4896C31.352 7.4896 31.352 7.48386 31.352 7.47813C31.3749 7.33476 31.3921 7.16845 31.3921 7.00788C31.3921 6.34838 31.1054 5.72902 30.4631 5.72902C29.9814 5.72902 29.6029 5.86666 29.2015 6.15339C29.1785 6.1706 29.1613 6.19927 29.1498 6.22795L27.4065 14.4057C27.395 14.4631 27.3434 14.5032 27.286 14.5032H24.5678C24.4875 14.5032 24.4301 14.4287 24.4473 14.3541L27.3893 0.544792C27.4007 0.493179 27.4409 0.453037 27.4925 0.447302L30.2853 0.0688096C30.3714 0.05734 30.4402 0.131889 30.423 0.21791L29.4137 4.97777C29.3907 5.08673 29.5111 5.17275 29.6086 5.10393C30.3886 4.5706 31.2373 4.1749 32.0574 4.1749C33.2158 4.1749 34.4316 5.43655 34.4316 6.79569C34.4316 6.93906 34.4316 7.10537 34.3914 7.24874L33.5427 11.1943C33.4796 11.4638 33.3764 11.7735 33.3764 12.043C33.3764 12.3928 33.5427 12.6624 34.162 12.6624C34.2538 12.6624 34.3742 12.6624 34.4889 12.6452C34.5807 12.6337 34.6552 12.7254 34.6208 12.8115C34.0416 14.3828 33.2215 14.4975 32.5448 14.4975V14.5032Z"/>
    <path d="M48.4817 5.56271C48.4817 8.78565 46.8473 14.4459 42.6781 14.4459C41.3591 14.4459 40.476 13.9699 40.2007 12.9376C40.1778 12.8459 40.0688 12.8115 40 12.8745C39.0652 13.7061 38.0272 14.4459 37.2072 14.4459C35.6186 14.4459 34.6265 13.7462 34.6265 12.1921C34.6265 11.8824 34.6667 11.5326 34.7527 11.1369L36.2208 4.21505C36.2323 4.1577 36.2839 4.11756 36.3412 4.11756H39.0595C39.1398 4.11756 39.1971 4.19211 39.1799 4.26666L37.7233 11.1369C37.6832 11.3663 37.643 11.59 37.643 11.7792C37.643 12.2323 37.8495 12.5649 38.6753 12.5649C39.0939 12.5649 39.5928 12.2724 40.0746 11.8767C40.1032 11.8538 40.1204 11.8193 40.1204 11.7849C40.1262 11.59 40.1663 11.3663 40.2237 11.1369L41.6918 4.21505C41.7032 4.1577 41.7548 4.11756 41.8122 4.11756H44.5305C44.6108 4.11756 44.6681 4.19211 44.6509 4.26666L43.1943 11.1369C43.1312 11.4236 43.091 11.676 43.091 11.8996C43.091 12.2896 43.2746 12.5591 43.8767 12.5591C45.8495 12.5591 47.2143 8.25232 47.2832 5.95268C47.2832 5.87239 47.2086 5.80931 47.1283 5.82651C47.0308 5.84945 46.9276 5.86666 46.8531 5.86666C46.2566 5.86666 45.9871 5.28745 45.9871 4.70824C45.9871 4.27239 46.4803 3.69892 47.1627 3.69892C48.0516 3.69892 48.4817 4.48458 48.4817 5.55698V5.56271Z"/>
    <path d="M58.1563 4.11756C58.2366 4.11756 58.2939 4.19211 58.2767 4.26667L56.8201 11.1369C56.7799 11.3663 56.7398 11.59 56.7398 11.7792C56.7398 12.2323 56.9463 12.5649 57.7721 12.5649C58.5979 12.5649 59.6416 11.4409 60.4617 10.7756C60.4846 10.7584 60.5133 10.7469 60.542 10.7469H60.9033C61.0122 10.7469 61.0696 10.8789 60.995 10.9591C59.9455 12.0487 57.8122 14.4459 56.304 14.4459C55.0595 14.4459 54.1878 14.0215 53.8495 13.0982C53.8151 13.0064 53.6947 12.9892 53.6373 13.0638C53.0237 13.8437 52.1405 14.5663 50.9764 14.5663C48.9921 14.5663 48.4129 13.1613 48.4129 11.9455C48.4129 8.3957 49.6918 4.1405 53.8266 4.1405C54.2567 4.1405 54.704 4.29534 55.0595 4.54193C55.1341 4.59354 55.2316 4.5534 55.2545 4.46738L55.3119 4.21505C55.3233 4.1577 55.3749 4.11756 55.4323 4.11756H58.1506H58.1563ZM51.2058 11.3892C51.2058 12.628 51.8882 12.8573 52.4043 12.8573C52.8746 12.8573 53.3219 12.4158 53.7061 11.848C53.7176 11.8308 53.7233 11.8136 53.7291 11.7907C53.752 11.59 53.7921 11.3778 53.8495 11.1369L54.9907 5.7405C55.0022 5.69462 54.985 5.64874 54.9506 5.62007C54.6351 5.36774 54.2681 5.29892 53.9986 5.29892C52.4502 5.29892 51.2115 8.58494 51.2115 11.3892H51.2058Z"/>
    <path d="M64.3556 0.0114676C64.4416 -1.92487e-06 64.5104 0.0745513 64.4932 0.160573L62.1534 11.1369C62.0903 11.4466 62.0502 11.6301 62.0502 11.7964C62.0502 12.2495 62.2796 12.5591 63.0824 12.5591C63.8853 12.5591 64.952 11.4351 65.772 10.7699C65.795 10.7527 65.8237 10.7412 65.8523 10.7412H66.2136C66.3226 10.7412 66.3799 10.8731 66.3054 10.9534C65.2559 12.043 63.1226 14.4401 61.6143 14.4401C60.0258 14.4401 59.0509 13.7405 59.0509 12.1864C59.0509 11.8767 59.091 11.5269 59.1771 11.1312L61.4538 0.475987C61.4652 0.424374 61.5054 0.384227 61.557 0.378492L64.3498 0L64.3556 0.0114676Z"/>
    <path d="M74.5807 4.34696L71.2029 6.63513C71.0997 6.70395 71.1513 6.86453 71.2774 6.86453C72.4129 6.86453 73.6746 8.10324 73.6746 9.46811C73.6746 9.61148 73.6516 9.77779 73.6115 9.94409L73.342 11.1427C73.2789 11.4294 73.1756 11.7391 73.1756 12.0086C73.1756 12.3584 73.342 12.605 73.9613 12.605C74.0531 12.605 74.1735 12.605 74.2882 12.5878C74.38 12.5764 74.4545 12.6681 74.4201 12.7541C73.8409 14.3255 73.0208 14.4402 72.3441 14.4402C70.876 14.4402 70.2395 13.471 70.2395 12.1692C70.2395 11.8366 70.2796 11.4867 70.3656 11.1369L70.5721 10.1735C70.5721 10.1735 70.5721 10.1678 70.5721 10.162C70.595 10.0186 70.6122 9.85234 70.6122 9.69177C70.6122 9.03227 70.3255 8.41291 69.6832 8.41291C69.2015 8.41291 68.8402 8.55054 68.4445 8.82008C68.4158 8.83728 68.3986 8.86596 68.3929 8.90037L67.2287 14.3484C67.2172 14.4057 67.1656 14.4459 67.1083 14.4459H64.39C64.3097 14.4459 64.2524 14.3713 64.2696 14.2968L67.2115 0.487464C67.223 0.435851 67.2631 0.395709 67.3147 0.389974L70.1076 0.0114772C70.1936 7.62604e-06 70.2624 0.0745608 70.2452 0.160582L68.823 6.85305C68.8 6.96775 68.9319 7.04804 69.0237 6.97922C70.4344 5.86094 72.3556 4.34696 72.6423 4.14051C72.6653 4.12331 72.6882 4.11757 72.7169 4.11757H74.5004C74.6208 4.11757 74.6724 4.27815 74.5692 4.34696H74.5807Z"/>
  </g>
  <g transform="translate(32.0 21.334)" fill="#524445">
    <path d="M0 2.41312H3.33895V3.06418H0V2.41312ZM1.0214 1.27226C1.0214 0.889989 1.1528 0.579388 1.40964 0.346439C1.66648 0.113489 1.97708 0 2.34144 0C2.65204 0 2.93277 0.0597312 3.17169 0.173219C3.41062 0.286707 3.60773 0.436034 3.75108 0.621199L3.327 1.07515C3.20754 0.943746 3.08807 0.848177 2.95069 0.7765C2.81331 0.704823 2.67593 0.674959 2.52063 0.674959C2.26976 0.674959 2.07862 0.746636 1.95916 0.889989C1.8397 1.03334 1.77998 1.27226 1.77998 1.60675V7.95612H1.01543V1.27226H1.0214Z"/>
    <path d="M6.51664 8.03974C6.00893 8.03974 5.56095 7.92625 5.16673 7.70525C4.77251 7.48425 4.46788 7.1617 4.24687 6.73761C4.02587 6.31352 3.91238 5.79387 3.91238 5.18462C3.91238 4.57537 4.02587 4.05571 4.24687 3.63162C4.46788 3.20753 4.77251 2.88498 5.16673 2.66398C5.56095 2.44298 6.00893 2.32949 6.51664 2.32949C7.02435 2.32949 7.47233 2.44298 7.86655 2.66398C8.26077 2.88498 8.5654 3.20753 8.7864 3.63162C9.00741 4.05571 9.12089 4.57537 9.12089 5.18462C9.12089 5.79387 9.00741 6.31352 8.7864 6.73761C8.5654 7.1617 8.26077 7.48425 7.86655 7.70525C7.47233 7.92625 7.02435 8.03974 6.51664 8.03974ZM6.51664 7.35283C7.07811 7.35283 7.52011 7.16767 7.84863 6.79136C8.17715 6.41506 8.34439 5.88347 8.34439 5.18462C8.34439 4.48577 8.17715 3.95417 7.84863 3.57786C7.52011 3.20753 7.07213 3.01639 6.51664 3.01639C5.96114 3.01639 5.51317 3.20156 5.18465 3.57786C4.85613 3.95417 4.68888 4.48577 4.68888 5.18462C4.68888 5.88347 4.85613 6.41506 5.18465 6.79136C5.51317 7.16767 5.96114 7.35283 6.51664 7.35283Z"/>
    <path d="M10.4409 2.41312H11.2114V7.95612H10.4409V2.41312ZM13.5827 3.35089C13.4931 3.24935 13.3916 3.1717 13.2721 3.11794C13.1527 3.06418 13.0033 3.03432 12.8182 3.03432C12.5554 3.03432 12.2985 3.11196 12.0536 3.26129C11.8028 3.41062 11.5997 3.62565 11.4444 3.89444C11.2891 4.16323 11.2114 4.46188 11.2114 4.7904L11.0681 3.95417C11.0979 3.67941 11.1935 3.41062 11.3667 3.15975C11.5399 2.90888 11.755 2.7058 12.0238 2.55647C12.2925 2.40714 12.5852 2.33547 12.8958 2.33547C13.1407 2.33547 13.3557 2.37131 13.5409 2.44896C13.7261 2.52661 13.8754 2.63412 13.9949 2.7715L13.5827 3.35686V3.35089Z"/>
    <path d="M17.525 7.95613V0.0836316H18.2896V3.42855C18.4329 3.10003 18.6718 2.83722 18.9944 2.64011C19.3169 2.44299 19.7171 2.34145 20.189 2.34145C20.625 2.34145 21.0193 2.44896 21.3776 2.66399C21.7301 2.87902 22.0168 3.1956 22.2318 3.61969C22.4468 4.04378 22.5543 4.56343 22.5543 5.18463C22.5543 5.80583 22.4408 6.33743 22.2198 6.76152C21.9988 7.19158 21.7062 7.50815 21.3478 7.72318C20.9894 7.93821 20.6011 8.04572 20.189 8.04572C19.7171 8.04572 19.3169 7.95015 18.9944 7.75304C18.6718 7.55593 18.4329 7.29312 18.2896 6.97057V7.9621H17.525V7.95613ZM18.2896 5.17865C18.2896 5.87153 18.4508 6.40314 18.7674 6.77944C19.09 7.15574 19.5021 7.34688 20.0218 7.34688C20.5414 7.34688 20.9655 7.15574 21.294 6.77944C21.6225 6.40314 21.7838 5.87153 21.7838 5.17865C21.7838 4.48578 21.6225 3.97209 21.294 3.60176C20.9655 3.23143 20.5414 3.04627 20.0218 3.04627C19.5021 3.04627 19.09 3.23143 18.7674 3.60176C18.4508 3.97209 18.2896 4.49772 18.2896 5.17865Z"/>
    <path d="M24.5791 5.99696C24.5791 6.44494 24.6985 6.78541 24.9315 7.01238C25.1644 7.23936 25.493 7.34687 25.9051 7.34687C26.2097 7.34687 26.4964 7.26923 26.7712 7.10795C27.046 6.94668 27.261 6.73165 27.4223 6.46286C27.5835 6.1881 27.6672 5.90139 27.6672 5.58482L27.8105 6.51065C27.7149 6.95863 27.476 7.32895 27.0878 7.61566C26.6995 7.90236 26.2277 8.04572 25.6781 8.04572C25.3377 8.04572 25.0271 7.98002 24.7404 7.84264C24.4536 7.70526 24.2326 7.50814 24.0714 7.2513C23.9101 6.98849 23.8265 6.68386 23.8265 6.32547V2.4191H24.5791V6.00293V5.99696ZM28.4317 7.95613H27.6672V2.41312H28.4317V7.95613Z"/>
    <path d="M33.4969 3.9482C33.4073 3.67942 33.2461 3.45244 33.0012 3.27325C32.7563 3.09406 32.4457 2.99849 32.0574 2.99849C31.6692 2.99849 31.3347 3.07017 31.0778 3.21352C30.827 3.35687 30.6956 3.5719 30.6956 3.85861C30.6956 4.05572 30.7434 4.21102 30.8509 4.33048C30.9524 4.44994 31.1197 4.55148 31.3526 4.62913C31.5856 4.70678 31.92 4.79638 32.368 4.89195C33.0071 5.00544 33.473 5.18463 33.7717 5.42355C34.0703 5.66247 34.2197 6.00891 34.2197 6.45689C34.2197 6.95265 34.0226 7.33493 33.6283 7.61566C33.2341 7.8964 32.7085 8.03378 32.0574 8.03378C31.4422 8.03378 30.9405 7.91431 30.5642 7.66942C30.1879 7.42452 29.9011 7.0542 29.716 6.55246L30.4447 6.33146C30.606 6.69582 30.8091 6.95863 31.0539 7.12588C31.2988 7.29312 31.6333 7.37674 32.0574 7.37674C32.4815 7.37674 32.8399 7.29909 33.0908 7.14976C33.3416 7.00044 33.473 6.78541 33.473 6.51662C33.473 6.30756 33.4253 6.14032 33.3237 6.00891C33.2222 5.8775 33.0669 5.77596 32.8518 5.69832C32.6368 5.62067 32.3202 5.53703 31.9021 5.44744C31.2272 5.31603 30.7314 5.13087 30.4208 4.88597C30.1102 4.64108 29.9549 4.31853 29.9549 3.92431C29.9549 3.4166 30.146 3.02238 30.5343 2.74165C30.9166 2.46091 31.4362 2.32353 32.0813 2.32353C32.4576 2.32353 32.7981 2.38923 33.0967 2.51467C33.3954 2.6401 33.6463 2.81332 33.8434 3.02835C34.0405 3.24338 34.1719 3.47633 34.2376 3.73317L33.5089 3.94223L33.4969 3.9482Z"/>
    <path d="M35.9459 1.26032C35.7727 1.26032 35.6353 1.21253 35.5397 1.12294C35.4441 1.03334 35.3904 0.901932 35.3904 0.72274C35.3904 0.543548 35.4382 0.43006 35.5397 0.340464C35.6413 0.250868 35.7727 0.209061 35.9459 0.209061C36.1191 0.209061 36.2684 0.250868 36.358 0.340464C36.4536 0.43006 36.5014 0.555494 36.5014 0.72274C36.5014 0.889986 36.4536 1.02737 36.358 1.12294C36.2625 1.21253 36.1251 1.26032 35.9459 1.26032ZM35.5636 2.41312H36.3282V7.95612H35.5636V2.41312Z"/>
    <path d="M38.0783 2.41312H38.8428V7.95612H38.0783V2.41312ZM41.9309 4.38423C41.9309 3.93625 41.8114 3.59578 41.5785 3.37478C41.3455 3.15378 41.017 3.04029 40.6049 3.04029C40.2943 3.04029 40.0016 3.11794 39.7268 3.27921C39.4521 3.44049 39.237 3.65551 39.0817 3.9243C38.9205 4.19309 38.8428 4.48577 38.8428 4.79637L38.6995 3.87055C38.795 3.42257 39.034 3.05224 39.4222 2.76553C39.8105 2.47882 40.2764 2.33547 40.8199 2.33547C41.1663 2.33547 41.4829 2.40715 41.7696 2.54453C42.0504 2.68191 42.2773 2.87902 42.4386 3.13586C42.5999 3.3927 42.6835 3.7033 42.6835 4.06766V7.95612H41.9309V4.38423Z"/>
    <path d="M46.5601 8.03974C46.0524 8.03974 45.6044 7.93222 45.2102 7.71122C44.8159 7.49619 44.5113 7.16767 44.2903 6.74359C44.0693 6.31353 43.9558 5.79387 43.9558 5.18462C43.9558 4.57537 44.0693 4.05571 44.2903 3.63162C44.5113 3.20753 44.8159 2.88498 45.2042 2.66398C45.5924 2.44298 46.0344 2.32949 46.5242 2.32949C47.014 2.32949 47.4441 2.44298 47.8025 2.66398C48.1608 2.88498 48.4356 3.20753 48.6267 3.63162C48.8179 4.05571 48.9134 4.55745 48.9134 5.13683V5.41757H44.4814L44.5591 4.74261H48.3938L48.119 4.85012C48.125 4.51563 48.0712 4.211 47.9637 3.93027C47.8502 3.64954 47.6711 3.42854 47.4321 3.25532C47.1872 3.0821 46.8886 2.99847 46.5242 2.99847C45.9807 2.99847 45.5446 3.18364 45.2161 3.548C44.8876 3.91235 44.7263 4.4559 44.7263 5.17267C44.7263 5.88944 44.8936 6.41506 45.2221 6.79136C45.5506 7.16767 45.9986 7.35283 46.5541 7.35283C46.9304 7.35283 47.2649 7.25726 47.5516 7.0721C47.8383 6.88096 48.0593 6.6062 48.2086 6.23587L48.8716 6.59426C48.6566 7.06613 48.346 7.42451 47.9458 7.6694C47.5456 7.9143 47.0797 8.03376 46.5541 8.03376L46.5601 8.03974Z"/>
    <path d="M53.6142 3.9482C53.5246 3.67942 53.3633 3.45244 53.1184 3.27325C52.8735 3.09406 52.5629 2.99849 52.1747 2.99849C51.7864 2.99849 51.4519 3.07017 51.1951 3.21352C50.9442 3.35687 50.8128 3.5719 50.8128 3.85861C50.8128 4.05572 50.8606 4.21102 50.9681 4.33048C51.0696 4.44994 51.2369 4.55148 51.4698 4.62913C51.7028 4.70678 52.0373 4.79638 52.4853 4.89195C53.1244 5.00544 53.5903 5.18463 53.8889 5.42355C54.1876 5.66247 54.3369 6.00891 54.3369 6.45689C54.3369 6.95265 54.1398 7.33493 53.7456 7.61566C53.3513 7.8964 52.8257 8.03378 52.1747 8.03378C51.5594 8.03378 51.0577 7.91431 50.6814 7.66942C50.3051 7.42452 50.0184 7.0542 49.8332 6.55246L50.5619 6.33146C50.7232 6.69582 50.9263 6.95863 51.1712 7.12588C51.4161 7.29312 51.7506 7.37674 52.1747 7.37674C52.5987 7.37674 52.9571 7.29909 53.208 7.14976C53.4589 7.00044 53.5903 6.78541 53.5903 6.51662C53.5903 6.30756 53.5425 6.14032 53.4409 6.00891C53.3394 5.8775 53.1841 5.77596 52.9691 5.69832C52.754 5.62067 52.4375 5.53703 52.0194 5.44744C51.3444 5.31603 50.8486 5.13087 50.538 4.88597C50.2274 4.64108 50.0721 4.31853 50.0721 3.92431C50.0721 3.4166 50.2633 3.02238 50.6515 2.74165C51.0338 2.46091 51.5535 2.32353 52.1985 2.32353C52.5748 2.32353 52.9153 2.38923 53.214 2.51467C53.5126 2.6401 53.7635 2.81332 53.9606 3.02835C54.1577 3.24338 54.2891 3.47633 54.3548 3.73317L53.6261 3.94223L53.6142 3.9482Z"/>
    <path d="M58.9899 3.9482C58.9003 3.67942 58.739 3.45244 58.4942 3.27325C58.2493 3.09406 57.9387 2.99849 57.5504 2.99849C57.1622 2.99849 56.8277 3.07017 56.5708 3.21352C56.32 3.35687 56.1886 3.5719 56.1886 3.85861C56.1886 4.05572 56.2363 4.21102 56.3438 4.33048C56.4454 4.44994 56.6126 4.55148 56.8456 4.62913C57.0785 4.70678 57.413 4.79638 57.861 4.89195C58.5001 5.00544 58.966 5.18463 59.2647 5.42355C59.5633 5.66247 59.7127 6.00891 59.7127 6.45689C59.7127 6.95265 59.5155 7.33493 59.1213 7.61566C58.7271 7.8964 58.2015 8.03378 57.5504 8.03378C56.9352 8.03378 56.4334 7.91431 56.0571 7.66942C55.6808 7.42452 55.3941 7.0542 55.209 6.55246L55.9377 6.33146C56.099 6.69582 56.302 6.95863 56.5469 7.12588C56.7918 7.29312 57.1263 7.37674 57.5504 7.37674C57.9745 7.37674 58.3329 7.29909 58.5837 7.14976C58.8346 7.00044 58.966 6.78541 58.966 6.51662C58.966 6.30756 58.9182 6.14032 58.8167 6.00891C58.7152 5.8775 58.5599 5.77596 58.3448 5.69832C58.1298 5.62067 57.8132 5.53703 57.3951 5.44744C56.7202 5.31603 56.2244 5.13087 55.9138 4.88597C55.6032 4.64108 55.4479 4.31853 55.4479 3.92431C55.4479 3.4166 55.639 3.02238 56.0273 2.74165C56.4096 2.46091 56.9292 2.32353 57.5743 2.32353C57.9506 2.32353 58.2911 2.38923 58.5897 2.51467C58.8884 2.6401 59.1392 2.81332 59.3364 3.02835C59.5335 3.24338 59.6649 3.47633 59.7306 3.73317L59.0019 3.94223L58.9899 3.9482Z"/>
  </g>
</svg>
