<svg width="24" height="24" viewBox="0 0 24 24" fill="none" xmlns="http://www.w3.org/2000/svg">
<g clip-path="url(#clip0_30_316)">
<mask id="mask0_30_316" style="mask-type:luminance" maskUnits="userSpaceOnUse" x="0" y="0" width="24" height="24">
<rect width="24" height="24" fill="white"/>
</mask>
<g mask="url(#mask0_30_316)">
<path d="M20.2757 17.5H21C22.1046 17.5 23 18.3954 23 19.5C23 20.6046 22.1046 21.5 21 21.5H3C1.89543 21.5 1 20.6046 1 19.5C1 18.3954 1.89543 17.5 3 17.5H4.4748V17.5" stroke="currentColor" stroke-width="2" stroke-linecap="round" stroke-linejoin="round"/>
<mask id="mask1_30_316" style="mask-type:luminance" maskUnits="userSpaceOnUse" x="1" y="5" width="22" height="17">
<rect width="22" height="17" transform="matrix(1 0 0 -1 1 22)" fill="white"/>
</mask>
<g mask="url(#mask1_30_316)">
<path fill-rule="evenodd" clip-rule="evenodd" d="M21.5 14.8C21.5 9.64413 17.3918 5.44717 12.2705 5.30396L12 5.30005C6.75311 5.30005 2.5 9.5534 2.5 14.8C2.5 20.0467 6.75311 24.3 12 24.3C17.2464 24.3 21.5 20.0464 21.5 14.8ZM15.4148 12.676C15.5145 12.5598 15.5933 12.409 15.6532 12.2223C15.7133 12.0363 15.7432 11.815 15.7432 11.5555C15.7432 11.3163 15.7095 11.0845 15.6435 10.8588C15.5775 10.633 15.4575 10.4298 15.285 10.2505C15.1125 10.0713 14.88 9.92955 14.5883 9.82305C14.295 9.71655 13.9283 9.6633 13.482 9.6633C12.7927 9.6633 12.177 9.7878 11.6362 10.0368C11.0948 10.2858 10.6222 10.6128 10.2165 11.0178C9.8115 11.4228 9.468 11.8833 9.186 12.4015C8.904 12.919 8.6745 13.447 8.499 13.9848C8.32425 14.5225 8.196 15.0483 8.11575 15.5628C8.03625 16.0773 7.99725 16.531 7.99725 16.9218C7.99725 17.4993 8.073 17.9928 8.22525 18.4008C8.37825 18.8088 8.592 19.1433 8.868 19.4013C9.1425 19.66 9.47475 19.8513 9.86325 19.9735C10.251 20.0965 10.6815 20.158 11.1532 20.158C11.5635 20.158 11.961 20.1115 12.342 20.0193C12.7245 19.9263 13.0717 19.7635 13.383 19.531C13.695 19.2985 13.9642 18.9903 14.19 18.6048C14.4158 18.2193 14.5808 17.7318 14.6873 17.1415C14.5282 17.2735 14.349 17.407 14.1495 17.5398C13.95 17.6725 13.7415 17.7925 13.5233 17.9035C13.3035 18.013 13.0845 18.1 12.8655 18.166C12.6473 18.2335 12.4365 18.2658 12.2378 18.2658C12.0585 18.2658 11.895 18.238 11.745 18.1818C11.5965 18.1248 11.466 18.0325 11.3573 17.9035C11.2478 17.773 11.163 17.5983 11.103 17.38C11.0437 17.161 11.013 16.8925 11.013 16.5738C11.013 16.2348 11.0483 15.8568 11.118 15.439C11.1877 15.0198 11.2837 14.5953 11.4075 14.164C11.529 13.7335 11.6745 13.3113 11.8403 12.8995C12.0052 12.4878 12.1868 12.1233 12.3833 11.8045C12.5775 11.4858 12.783 11.2285 12.9953 11.032C13.2075 10.837 13.4235 10.738 13.6418 10.738C13.8345 10.738 13.9755 10.8175 14.0648 10.9728C14.1547 11.1288 14.1997 11.3298 14.1997 11.575C14.1997 11.7685 14.178 11.9635 14.1353 12.1623C14.091 12.3618 14.0303 12.5673 13.95 12.7803C14.1765 12.9393 14.4157 13.0188 14.6677 13.0188C14.8073 13.0188 14.9415 12.991 15.0712 12.934C15.2002 12.8778 15.315 12.7923 15.4148 12.676Z" fill="currentColor"/>
</g>
<path fill-rule="evenodd" clip-rule="evenodd" d="M8.95996 1V4V1Z" fill="currentColor"/>
<path d="M8.95996 1V4" stroke="currentColor" stroke-width="2" stroke-linecap="round" stroke-linejoin="round"/>
<path fill-rule="evenodd" clip-rule="evenodd" d="M16.96 5V7.5V5Z" fill="currentColor"/>
<path d="M16.96 5V7.5" stroke="currentColor" stroke-width="2" stroke-linecap="round" stroke-linejoin="round"/>
</g>
</g>
<defs>
<clipPath id="clip0_30_316">
<rect width="24" height="24" fill="white"/>
</clipPath>
</defs>
</svg>
