<svg width="24" height="24" viewBox="0 0 24 24" fill="none" xmlns="http://www.w3.org/2000/svg">
<g clip-path="url(#clip0_48_532)">
<path d="M11.9996 2.40002C17.3016 2.40002 21.6 6.69766 21.6002 11.9996C21.6002 17.3018 17.3018 21.6002 11.9996 21.6002C6.69763 21.6 2.39999 17.3017 2.39999 11.9996C2.40021 6.69779 6.69776 2.40024 11.9996 2.40002ZM17.4312 9.15979C17.0296 8.75811 16.3778 8.75811 15.9762 9.15979L11.2174 13.9176L8.69199 11.3912C8.2903 10.9896 7.63859 10.9896 7.23691 11.3912C6.83523 11.7929 6.83523 12.4446 7.23691 12.8463L10.4908 16.1002C10.8925 16.5018 11.5443 16.5018 11.9459 16.1002L17.4312 10.6139C17.8328 10.2122 17.8327 9.56145 17.4312 9.15979Z" fill="currentColor"/>
</g>
<defs>
<clipPath id="clip0_48_532">
<rect width="24" height="24" fill="white"/>
</clipPath>
</defs>
</svg>
