<svg width="24" height="24" viewBox="0 0 24 24" fill="none" xmlns="http://www.w3.org/2000/svg">
<g clip-path="url(#clip0_30_280)">
<g clip-path="url(#clip1_30_280)">
<path fill-rule="evenodd" clip-rule="evenodd" d="M7.917 12.222L9.06878 13.4008C9.14701 13.4813 9.24115 13.5456 9.34525 13.5896C9.44916 13.6334 9.56088 13.656 9.67502 13.656C9.845 13.655 10.0108 13.6032 10.1511 13.5073C10.2914 13.4115 10.3999 13.2758 10.4627 13.1178C10.5262 12.9613 10.5429 12.788 10.5103 12.6206C10.4777 12.4533 10.3971 12.2991 10.2783 12.1767L9.321 11.197L23.75 11.198V19.5212C23.75 20.0618 23.3247 20.5 22.8 20.5H7.91702L7.917 12.222ZM14.414 12.988H13.039V18.144H14.414V12.988ZM17.181 12.988H15.575V18.144H17.181V12.988ZM18.775 12.988H17.971V18.144H18.775V12.988ZM19.628 12.988H19.176V18.144H19.628V12.988ZM20.9015 12.988H20.0985V18.144H20.9015V12.988ZM12.458 12.988H12V18.144H12.458V12.988ZM8.95175 7.975C9.1596 7.97764 9.35792 8.06261 9.50321 8.21127C9.6485 8.35993 9.72889 8.56015 9.72676 8.768C9.72916 8.97603 9.64888 9.1765 9.50357 9.32538C9.35825 9.47426 9.15978 9.55937 8.95175 9.562H8.17575V8.768C8.17389 8.56005 8.2545 8.35984 8.39995 8.21121C8.54539 8.06257 8.74381 7.97764 8.95175 7.975ZM5.28475 7.975C5.71275 7.975 6.05975 8.33 6.06075 8.768V9.562H5.28475C5.18167 9.56083 5.07982 9.53936 4.98503 9.49882C4.89023 9.45828 4.80436 9.39946 4.7323 9.32573C4.66024 9.252 4.60341 9.1648 4.56505 9.0691C4.5267 8.9734 4.50757 8.87109 4.50875 8.768C4.50875 8.33 4.85675 7.975 5.28475 7.975ZM0.25 11.198L4.914 11.197L3.95775 12.1762C3.83851 12.2994 3.75816 12.4537 3.72575 12.6211C3.69334 12.7883 3.71029 12.9615 3.77451 13.1194C3.83663 13.2758 3.94514 13.4115 4.08546 13.5073C4.22578 13.6032 4.39155 13.655 4.56276 13.656C4.67567 13.656 4.78739 13.6334 4.89131 13.5896C4.9954 13.5456 5.08954 13.4813 5.1682 13.4004L6.317 12.223L6.31702 20.5H1.2C0.675327 20.5 0.25 20.0618 0.25 19.5212V11.198ZM11.0325 9.59796C11.0633 9.51663 11.0895 9.43325 11.1108 9.34819C11.2367 8.87146 11.2036 8.3615 11.0151 7.90039C10.8268 7.43937 10.4934 7.0521 10.0654 6.79729C9.63494 6.5453 9.13504 6.44655 8.64405 6.51553C8.38774 6.55153 8.14182 6.63212 7.91678 6.75198L7.91702 3.5H22.8C23.3247 3.5 23.75 3.93821 23.75 4.47879V9.598L11.0325 9.59796ZM0.25 4.47879C0.25 3.93822 0.67533 3.5 1.2 3.5H6.31702L6.318 6.75066C6.09311 6.63131 5.84764 6.55103 5.59197 6.51513C5.1007 6.44616 4.60055 6.54509 4.17253 6.79588C3.74212 7.05207 3.40869 7.43933 3.22031 7.90046C3.03192 8.36157 2.99882 8.87151 3.12601 9.35313C3.14687 9.43645 3.17255 9.51827 3.20281 9.59822L0.25 9.598V4.47879Z" fill="currentColor"/>
</g>
</g>
<defs>
<clipPath id="clip0_30_280">
<rect width="24" height="24" fill="white"/>
</clipPath>
<clipPath id="clip1_30_280">
<rect width="24" height="18" fill="white" transform="translate(0 3)"/>
</clipPath>
</defs>
</svg>
