<svg width="24" height="24" viewBox="0 0 24 24" fill="none" xmlns="http://www.w3.org/2000/svg">
<mask id="mask0_30_896" style="mask-type:luminance" maskUnits="userSpaceOnUse" x="1" y="1" width="22" height="22">
<path d="M1.76367 1.21655H22.2364V23.0001H1.76367V1.21655Z" fill="white"/>
</mask>
<g mask="url(#mask0_30_896)">
<path fill-rule="evenodd" clip-rule="evenodd" d="M18.1319 2.24629C17.4511 1.19874 16.0503 0.900484 15.0027 1.58133C13.9576 2.26096 13.6594 3.66177 14.339 4.70933C15.0186 5.7581 16.4207 6.05514 17.467 5.37429C18.5145 4.69344 18.814 3.29262 18.1319 2.24629ZM1.77446 16.252C1.68523 16.8852 2.1595 17.4768 2.83423 17.5721L7.98277 18.3019C8.51083 18.3764 9.02666 18.1234 9.25891 17.6748L11.1328 14.0407L13.9295 17.5244L13.3526 21.6682V21.6694C13.2645 22.3026 13.7413 22.8918 14.4172 22.9871C15.0944 23.0813 15.7117 22.6424 15.7997 22.008L16.4439 17.3888C16.4854 17.0881 16.3974 16.7764 16.1994 16.5307L13.7865 13.5274L15.6384 9.51072C15.7276 9.65251 15.8131 9.79553 15.8889 9.94099C16.307 10.7526 16.461 11.5692 16.5001 11.8527C16.5111 11.9334 16.5123 11.9518 16.5123 11.9518C16.5588 12.4969 17.0049 12.9467 17.5807 13.0274L20.8395 13.487C21.5154 13.5811 22.1364 13.1448 22.2256 12.5116C22.3148 11.8784 21.8406 11.2868 21.1634 11.1915L18.8067 10.859C18.7101 10.4654 18.5634 9.97766 18.3361 9.44716C17.7982 8.19669 16.7507 6.63697 14.779 5.79966C14.1031 5.51241 13.432 5.33395 12.7903 5.24716C10.3761 4.93791 8.50227 5.73366 7.5305 6.52329C7.4046 6.62964 7.30681 6.7531 7.23592 6.901L5.97323 9.5205C5.69331 10.0999 5.97201 10.7905 6.59418 11.0643C7.21514 11.3369 7.9461 11.0876 8.22602 10.5069L9.36892 8.13557C9.76129 7.88499 10.5705 7.55496 11.5276 7.49995L7.42171 15.8804L3.1606 15.2778C2.48464 15.1812 1.86491 15.6176 1.77446 16.252Z" fill="currentColor"/>
</g>
</svg>
