<svg width="24" height="24" viewBox="0 0 24 24" fill="none" xmlns="http://www.w3.org/2000/svg">
<g id="Group">
<g id="Rectangle">
</g>
<rect id="bg" x="2.75" y="2.75" width="18.5" height="18.5" rx="3.25" stroke="currentColor" stroke-width="1.5"/>
<path id="Shape" fill-rule="evenodd" clip-rule="evenodd" d="M12.7475 7C11.1415 7 9.00022 7.77179 8.5796 10.1974L8.15899 12.5128C7.73837 14.9384 9.65026 15.7469 11.2563 15.7469C11.6287 15.7449 12.0001 15.7079 12.3652 15.6367L12.977 16.5922C13.2829 17.07 14.0476 17.1067 14.5447 16.8127C15.0418 16.5187 15.3859 15.8939 15.0036 15.3794L14.43 14.5709C14.9885 14.0194 15.3501 13.3115 15.4624 12.5495L15.8448 10.2342C16.2654 7.80854 14.3535 7 12.7475 7ZM13.4296 9.19323C13.6634 9.46148 13.7509 9.82051 13.6652 10.1607L13.2446 12.5863C13.0859 13.3484 12.4081 13.9089 11.6004 13.9461C11.2438 13.9472 10.9051 13.7959 10.6761 13.5332C10.4471 13.2705 10.3514 12.9235 10.415 12.5863L10.8356 10.1607C10.9411 9.36985 11.6506 8.78309 12.4799 8.80084C12.8433 8.77935 13.1958 8.92498 13.4296 9.19323Z" fill="currentColor"/>
</g>
</svg>
