<svg width="24" height="24" viewBox="0 0 24 24" fill="none" xmlns="http://www.w3.org/2000/svg">
<path d="M11.9996 2.40002C12.6774 2.40002 13.3398 2.47142 13.9781 2.6051C14.2475 2.66174 14.3338 2.9906 14.1461 3.17834L12.3649 4.95862C12.2978 5.02548 12.2067 5.06051 12.1139 5.0592C12.0763 5.05861 12.0373 5.05823 11.9996 5.05823C8.16653 5.05865 5.05863 8.16654 5.05821 11.9996C5.05821 15.8331 8.16627 18.9416 11.9996 18.942C15.8333 18.942 18.942 15.8333 18.942 11.9996C18.942 11.9622 18.9416 11.9246 18.941 11.8873C18.9396 11.7944 18.9757 11.7034 19.0426 11.6364L20.8229 9.8551C21.0106 9.66745 21.3394 9.75288 21.3961 10.0221C21.5298 10.6602 21.6002 11.322 21.6002 11.9996C21.6002 17.3016 17.3016 21.6002 11.9996 21.6002C6.69804 21.5998 2.40001 17.3013 2.40001 11.9996C2.40043 6.69831 6.6983 2.40044 11.9996 2.40002ZM10.5299 7.35217C10.7533 7.28159 10.9663 7.4549 10.9664 7.67737V9.83948C10.9664 9.96361 10.9 10.0732 10.8024 10.1364C10.1904 10.5308 9.78504 11.2182 9.78477 11.9996C9.78477 13.2231 10.7772 14.2154 12.0006 14.2155C12.7821 14.2153 13.4694 13.8107 13.8639 13.1989C13.927 13.1011 14.0366 13.0349 14.1608 13.0348H16.3229C16.5453 13.0348 16.7184 13.247 16.6481 13.4703C16.0244 15.4431 14.1799 16.8735 12.0006 16.8737C9.30893 16.8736 7.12657 14.6913 7.12657 11.9996C7.1269 9.82049 8.55722 7.9757 10.5299 7.35217ZM17.6109 2.63635C17.7773 2.47076 18.0575 2.51632 18.1627 2.7262L19.192 4.78674C19.1968 4.79624 19.205 4.80445 19.2145 4.8092L21.274 5.8385C21.4843 5.94368 21.53 6.22392 21.3639 6.39026L18.0699 9.6842C18.0054 9.74856 17.9179 9.78471 17.8268 9.78479H16.1158C16.1029 9.7849 16.0898 9.79031 16.0807 9.79944L13.6705 12.2106C13.5359 12.3449 13.3167 12.3451 13.1822 12.2106L11.7906 10.818C11.6562 10.6835 11.6563 10.4653 11.7906 10.3307L14.2018 7.91956C14.2107 7.91037 14.2154 7.89725 14.2154 7.8844V6.17444C14.2155 6.08342 14.2518 5.99579 14.316 5.93127L17.6109 2.63635Z" fill="currentColor"/>
</svg>
