<svg width="28" height="28" viewBox="0 0 28 28" fill="none" xmlns="http://www.w3.org/2000/svg">
<path d="M10.5562 3.73804C10.5231 2.97758 11.3614 2.33659 12.1235 2.80151L13.0815 3.38452L13.0825 3.3855C14.5378 4.27384 15.6935 5.54365 16.5161 7.14624H16.5151C17.027 8.1394 17.4004 9.11095 17.6235 10.0505L17.769 9.61987L17.771 9.61206H17.772C17.8828 9.29378 18.1451 9.03808 18.4878 8.948L18.6177 8.92261C18.8779 8.88894 19.1389 8.95622 19.3491 9.1062L19.4497 9.18823L19.4585 9.19604L20.1343 9.83667H20.1333C21.0361 10.6917 21.7571 11.7287 22.2524 12.8816C22.76 14.061 23.0149 15.3128 23.0151 16.5974L23.0044 17.0583C22.9537 18.1337 22.7186 19.1938 22.3081 20.1873C21.8569 21.2812 21.2077 22.2691 20.3804 23.115C19.6617 23.8545 18.8263 24.4628 17.9097 24.9128L17.5122 25.0964C17.0918 25.2778 16.6614 25.4252 16.2231 25.5388C16.8644 24.4607 17.2671 22.9225 17.2671 21.2146C17.267 17.9535 15.8036 15.3103 13.9995 15.3103C12.1957 15.3108 10.733 17.9538 10.7329 21.2146C10.7329 22.9217 11.1342 24.4598 11.7749 25.5378C11.3367 25.4238 10.9063 25.2759 10.4858 25.0935V25.0925C9.41031 24.6276 8.44758 23.9589 7.62158 23.115H7.62061C6.79964 22.275 6.14493 21.2798 5.69189 20.1853V20.1843C5.22211 19.0459 4.98487 17.8387 4.98486 16.5964C4.98565 15.1858 5.30178 13.7922 5.90869 12.5261L5.90967 12.5232C6.51708 11.2702 7.39177 10.1722 8.47021 9.31421C8.82629 9.02933 9.15119 8.70334 9.43799 8.34253C9.84914 7.8244 10.1712 7.2476 10.395 6.62671C10.557 6.17792 10.6381 5.59766 10.6069 4.89136L10.5562 3.73901V3.73804ZM11.2466 4.25366L11.2417 4.25073L11.2388 4.24976C11.2412 4.25127 11.2441 4.25218 11.2466 4.25366Z" fill="currentColor"/>
<path d="M10.5562 3.73804H11.3495C11.3495 3.72656 11.3492 3.71508 11.3487 3.7036L10.5562 3.73804ZM12.1235 2.80151L11.7104 3.47877L11.7111 3.47922L12.1235 2.80151ZM13.0815 3.38452L13.6425 2.82355C13.5978 2.77886 13.548 2.73967 13.494 2.70682L13.0815 3.38452ZM13.0825 3.3855L12.5215 3.94647C12.566 3.9909 12.6155 4.0299 12.6692 4.06264L13.0825 3.3855ZM16.5161 7.14624V7.93957C16.7926 7.93957 17.0491 7.79566 17.1932 7.55974C17.3373 7.32381 17.3481 7.02989 17.2219 6.78395L16.5161 7.14624ZM16.5151 7.14624V6.35291C16.2385 6.35291 15.9818 6.49705 15.8378 6.73329C15.6937 6.96952 15.6832 7.26372 15.8099 7.50966L16.5151 7.14624ZM17.6235 10.0505L16.8517 10.2339C16.9334 10.5781 17.2333 10.8266 17.5868 10.843C17.9403 10.8594 18.2619 10.6397 18.3751 10.3045L17.6235 10.0505ZM17.769 9.61987L18.5206 9.87381C18.5275 9.85355 18.5335 9.83303 18.5387 9.81228L17.769 9.61987ZM17.771 9.61206V8.81873C17.407 8.81873 17.0896 9.06648 17.0014 9.41965L17.771 9.61206ZM17.772 9.61206V10.4054C18.1095 10.4054 18.4101 10.1918 18.5212 9.87299L17.772 9.61206ZM18.4878 8.948L18.3356 8.1694C18.319 8.17265 18.3025 8.17643 18.2861 8.18073L18.4878 8.948ZM18.6177 8.92261L18.5159 8.13583C18.499 8.13802 18.4822 8.14075 18.4655 8.14401L18.6177 8.92261ZM19.3491 9.1062L19.8505 8.4914C19.8373 8.48064 19.8238 8.4703 19.8099 8.46041L19.3491 9.1062ZM19.4497 9.18823L19.9768 8.59529C19.9684 8.58782 19.9598 8.58053 19.9511 8.57343L19.4497 9.18823ZM19.4585 9.19604L20.0043 8.6203C19.9981 8.61447 19.9919 8.60873 19.9856 8.6031L19.4585 9.19604ZM20.1343 9.83667V10.63C20.459 10.63 20.751 10.4321 20.8712 10.1305C20.9915 9.82881 20.9157 9.48433 20.6801 9.26092L20.1343 9.83667ZM20.1333 9.83667V9.04334C19.8085 9.04334 19.5165 9.24131 19.3963 9.54304C19.2761 9.84477 19.3519 10.1893 19.5877 10.4126L20.1333 9.83667ZM22.2524 12.8816L21.5235 13.1948L21.5237 13.1952L22.2524 12.8816ZM23.0151 16.5974L23.8083 16.6159C23.8084 16.6097 23.8085 16.6035 23.8085 16.5973L23.0151 16.5974ZM23.0044 17.0583L23.7968 17.0957C23.7971 17.0894 23.7974 17.0831 23.7975 17.0768L23.0044 17.0583ZM22.3081 20.1873L21.5749 19.8843L21.5747 19.8848L22.3081 20.1873ZM20.3804 23.115L19.8132 22.5603L19.8114 22.5621L20.3804 23.115ZM17.9097 24.9128L18.2423 25.6331C18.248 25.6304 18.2537 25.6277 18.2593 25.625L17.9097 24.9128ZM17.5122 25.0964L17.8264 25.8249C17.8326 25.8222 17.8388 25.8195 17.8449 25.8166L17.5122 25.0964ZM16.2231 25.5388L15.5413 25.1333C15.3769 25.4097 15.3956 25.758 15.5887 26.0151C15.7818 26.2723 16.111 26.3875 16.4223 26.3068L16.2231 25.5388ZM17.2671 21.2146H18.0604V21.2146L17.2671 21.2146ZM13.9995 15.3103V14.517L13.9993 14.517L13.9995 15.3103ZM10.7329 21.2146L9.93958 21.2146V21.2146H10.7329ZM11.7749 25.5378L11.5751 26.3056C11.8864 26.3866 12.2158 26.2716 12.4091 26.0145C12.6023 25.7574 12.6212 25.4091 12.4569 25.1325L11.7749 25.5378ZM10.4858 25.0935H9.69251C9.69251 25.4096 9.88015 25.6955 10.1701 25.8213L10.4858 25.0935ZM10.4858 25.0925H11.2792C11.2792 24.7761 11.0911 24.4899 10.8006 24.3643L10.4858 25.0925ZM7.62158 23.115L8.18853 22.5601C8.0393 22.4076 7.83494 22.3217 7.62158 22.3217V23.115ZM7.62061 23.115L7.05324 23.6695C7.20251 23.8222 7.40705 23.9083 7.62061 23.9083V23.115ZM5.69189 20.1853H4.89856C4.89856 20.2894 4.91906 20.3925 4.95888 20.4887L5.69189 20.1853ZM5.69189 20.1843H6.48523C6.48523 20.0805 6.46484 19.9777 6.42524 19.8817L5.69189 20.1843ZM4.98486 16.5964L4.19153 16.596V16.5964L4.98486 16.5964ZM5.90869 12.5261L6.62408 12.8691C6.6384 12.8392 6.65084 12.8084 6.66131 12.777L5.90869 12.5261ZM5.90967 12.5232L5.1958 12.1771C5.18084 12.208 5.16789 12.2398 5.15705 12.2723L5.90967 12.5232ZM8.47021 9.31421L8.96414 9.93503L8.96583 9.93368L8.47021 9.31421ZM9.43799 8.34253L10.059 8.83617L10.0594 8.83566L9.43799 8.34253ZM10.395 6.62671L9.64878 6.35745L9.64869 6.35768L10.395 6.62671ZM10.6069 4.89136L9.81437 4.92628L9.81437 4.92633L10.6069 4.89136ZM10.5562 3.73901H9.76282C9.76282 3.75066 9.76308 3.76231 9.76359 3.77394L10.5562 3.73901ZM11.2466 4.25366L10.8394 4.93451C11.2152 5.1593 11.7021 5.03703 11.9271 4.66135C12.1522 4.28567 12.0303 3.7987 11.6547 3.57339L11.2466 4.25366ZM11.2417 4.25073L11.6499 3.57046C11.6002 3.54067 11.5475 3.51642 11.4926 3.49811L11.2417 4.25073ZM11.2388 4.24976L11.4896 3.49713C11.1071 3.36963 10.6898 3.54932 10.5196 3.91483C10.3494 4.28034 10.4804 4.7154 10.8242 4.92612L11.2388 4.24976ZM10.5562 3.73804L11.3487 3.7036C11.3454 3.62618 11.3895 3.53083 11.4767 3.47368C11.5152 3.44846 11.5511 3.43865 11.5807 3.4376C11.6064 3.43668 11.6488 3.4412 11.7104 3.47877L12.1235 2.80151L12.5367 2.12426C11.8737 1.7198 11.1432 1.79501 10.6066 2.14684C10.0924 2.48407 9.73389 3.08944 9.76357 3.77247L10.5562 3.73804ZM12.1235 2.80151L11.7111 3.47922L12.6691 4.06222L13.0815 3.38452L13.494 2.70682L12.536 2.12381L12.1235 2.80151ZM13.0815 3.38452L12.5206 3.94549L12.5215 3.94647L13.0825 3.3855L13.6435 2.82453L13.6425 2.82355L13.0815 3.38452ZM13.0825 3.3855L12.6692 4.06264C13.9916 4.8699 15.0498 6.02693 15.8103 7.50853L16.5161 7.14624L17.2219 6.78395C16.3371 5.06038 15.0839 3.67779 13.4959 2.70836L13.0825 3.3855ZM16.5161 7.14624V6.35291H16.5151V7.14624V7.93957H16.5161V7.14624ZM16.5151 7.14624L15.8099 7.50966C16.2978 8.45624 16.6459 9.36734 16.8517 10.2339L17.6235 10.0505L18.3954 9.86721C18.1549 8.85455 17.7562 7.82257 17.2203 6.78282L16.5151 7.14624ZM17.6235 10.0505L18.3751 10.3045L18.5206 9.87381L17.769 9.61987L17.0175 9.36593L16.8719 9.7966L17.6235 10.0505ZM17.769 9.61987L18.5387 9.81228L18.5406 9.80447L17.771 9.61206L17.0014 9.41965L16.9994 9.42746L17.769 9.61987ZM17.771 9.61206V10.4054H17.772V9.61206V8.81873H17.771V9.61206ZM17.772 9.61206L18.5212 9.87299C18.5485 9.79457 18.6117 9.7357 18.6895 9.71527L18.4878 8.948L18.2861 8.18073C17.6784 8.34047 17.2172 8.79299 17.0228 9.35113L17.772 9.61206ZM18.4878 8.948L18.64 9.72659L18.7699 9.7012L18.6177 8.92261L18.4655 8.14401L18.3356 8.1694L18.4878 8.948ZM18.6177 8.92261L18.7195 9.70938C18.7788 9.70171 18.8392 9.71697 18.8883 9.75199L19.3491 9.1062L19.8099 8.46041C19.4386 8.19547 18.977 8.07617 18.5159 8.13583L18.6177 8.92261ZM19.3491 9.1062L18.8477 9.721L18.9483 9.80303L19.4497 9.18823L19.9511 8.57343L19.8505 8.4914L19.3491 9.1062ZM19.4497 9.18823L18.9226 9.78118L18.9314 9.78899L19.4585 9.19604L19.9856 8.6031L19.9768 8.59529L19.4497 9.18823ZM19.4585 9.19604L18.9127 9.77179L19.5885 10.4124L20.1343 9.83667L20.6801 9.26092L20.0043 8.6203L19.4585 9.19604ZM20.1343 9.83667V9.04334H20.1333V9.83667V10.63H20.1343V9.83667ZM20.1333 9.83667L19.5877 10.4126C20.4112 11.1926 21.0703 12.1398 21.5235 13.1948L22.2524 12.8816L22.9813 12.5684C22.4439 11.3176 21.661 10.1909 20.6789 9.26069L20.1333 9.83667ZM22.2524 12.8816L21.5237 13.1952C21.9882 14.2744 22.2216 15.4194 22.2218 16.5975L23.0151 16.5974L23.8085 16.5973C23.8082 15.2062 23.5319 13.8477 22.9812 12.568L22.2524 12.8816ZM23.0151 16.5974L22.222 16.5789L22.2113 17.0399L23.0044 17.0583L23.7975 17.0768L23.8083 16.6159L23.0151 16.5974ZM23.0044 17.0583L22.2119 17.021C22.1655 18.0058 21.9502 18.9759 21.5749 19.8843L22.3081 20.1873L23.0413 20.4902C23.487 19.4116 23.7419 18.2616 23.7968 17.0957L23.0044 17.0583ZM22.3081 20.1873L21.5747 19.8848C21.162 20.8855 20.5689 21.7876 19.8132 22.5603L20.3804 23.115L20.9475 23.6697C21.8464 22.7507 22.5518 21.677 23.0415 20.4897L22.3081 20.1873ZM20.3804 23.115L19.8114 22.5621C19.1554 23.2372 18.394 23.7913 17.56 24.2007L17.9097 24.9128L18.2593 25.625C19.2587 25.1343 20.1681 24.4719 20.9493 23.6679L20.3804 23.115ZM17.9097 24.9128L17.577 24.1926L17.1795 24.3762L17.5122 25.0964L17.8449 25.8166L18.2423 25.6331L17.9097 24.9128ZM17.5122 25.0964L17.198 24.368C16.8149 24.5332 16.423 24.6674 16.024 24.7709L16.2231 25.5388L16.4223 26.3068C16.8998 26.1829 17.3686 26.0224 17.8264 25.8249L17.5122 25.0964ZM16.2231 25.5388L16.905 25.9443C17.6333 24.7199 18.0604 23.035 18.0604 21.2146H17.2671H16.4738C16.4738 22.81 16.0955 24.2015 15.5413 25.1333L16.2231 25.5388ZM17.2671 21.2146L18.0604 21.2146C18.0604 19.4756 17.6719 17.8622 17.0039 16.6554C16.3512 15.4761 15.3221 14.517 13.9995 14.517V15.3103V16.1036C14.481 16.1036 15.0857 16.4661 15.6157 17.4237C16.1305 18.3538 16.4737 19.6925 16.4738 21.2146L17.2671 21.2146ZM13.9995 15.3103L13.9993 14.517C12.6769 14.5173 11.6481 15.4765 10.9956 16.6558C10.3279 17.8625 9.93963 19.4758 9.93958 21.2146L10.7329 21.2146L11.5262 21.2146C11.5263 19.6926 11.8694 18.354 12.384 17.4239C12.9138 16.4663 13.5183 16.1038 13.9997 16.1036L13.9995 15.3103ZM10.7329 21.2146H9.93958C9.93958 23.0336 10.3651 24.7185 11.0929 25.9431L11.7749 25.5378L12.4569 25.1325C11.9033 24.201 11.5262 22.8097 11.5262 21.2146H10.7329ZM11.7749 25.5378L11.9747 24.7701C11.5758 24.6663 11.1842 24.5317 10.8016 24.3657L10.4858 25.0935L10.1701 25.8213C10.6283 26.0201 11.0975 26.1813 11.5751 26.3056L11.7749 25.5378ZM10.4858 25.0935H11.2792V25.0925H10.4858H9.69251V25.0935H10.4858ZM10.4858 25.0925L10.8006 24.3643C9.82245 23.9415 8.94472 23.3326 8.18853 22.5601L7.62158 23.115L7.05463 23.6699C7.95044 24.5851 8.99816 25.3137 10.171 25.8207L10.4858 25.0925ZM7.62158 23.115V22.3217H7.62061V23.115V23.9083H7.62158V23.115ZM7.62061 23.115L8.18797 22.5605C7.43853 21.7937 6.83969 20.8839 6.42491 19.8819L5.69189 20.1853L4.95888 20.4887C5.45017 21.6756 6.16074 22.7563 7.05324 23.6695L7.62061 23.115ZM5.69189 20.1853H6.48523V20.1843H5.69189H4.89856V20.1853H5.69189ZM5.69189 20.1843L6.42524 19.8817C5.99557 18.8405 5.7782 17.7362 5.7782 16.5964L4.98486 16.5964L4.19153 16.5964C4.19154 17.9411 4.44864 19.2513 4.95855 20.487L5.69189 20.1843ZM4.98486 16.5964L5.7782 16.5969C5.77891 15.3041 6.0687 14.0276 6.62408 12.8691L5.90869 12.5261L5.19331 12.1832C4.53486 13.5568 4.19238 15.0675 4.19153 16.596L4.98486 16.5964ZM5.90869 12.5261L6.66131 12.777L6.66229 12.7741L5.90967 12.5232L5.15705 12.2723L5.15607 12.2752L5.90869 12.5261ZM5.90967 12.5232L6.62354 12.8693C7.17999 11.7214 7.98017 10.7179 8.96414 9.93503L8.47021 9.31421L7.97629 8.69339C6.80337 9.62658 5.85418 10.819 5.1958 12.1771L5.90967 12.5232ZM8.47021 9.31421L8.96583 9.93368C9.36857 9.61146 9.73549 9.24321 10.059 8.83617L9.43799 8.34253L8.81695 7.84889C8.56689 8.16347 8.284 8.4472 7.9746 8.69474L8.47021 9.31421ZM9.43799 8.34253L10.0594 8.83566C10.5237 8.25055 10.8881 7.59815 11.1413 6.89573L10.395 6.62671L9.64869 6.35768C9.45427 6.89706 9.17453 7.39825 8.81654 7.8494L9.43799 8.34253ZM10.395 6.62671L11.1413 6.89597C11.347 6.32584 11.434 5.63728 11.3995 4.85638L10.6069 4.89136L9.81437 4.92633C9.84225 5.55804 9.76693 6.03001 9.64878 6.35745L10.395 6.62671ZM10.6069 4.89136L11.3995 4.85643L11.3487 3.70409L10.5562 3.73901L9.76359 3.77394L9.81437 4.92628L10.6069 4.89136ZM10.5562 3.73901H11.3495V3.73804H10.5562H9.76282V3.73901H10.5562ZM11.2466 4.25366L11.6547 3.57339L11.6499 3.57046L11.2417 4.25073L10.8335 4.93101L10.8384 4.93394L11.2466 4.25366ZM11.2417 4.25073L11.4926 3.49811L11.4896 3.49713L11.2388 4.24976L10.9879 5.00238L10.9908 5.00335L11.2417 4.25073ZM11.2388 4.24976L10.8242 4.92612C10.8523 4.94335 10.8761 4.95559 10.891 4.9629C10.8986 4.96664 10.9049 4.9696 10.909 4.97149C10.9129 4.97327 10.9161 4.97472 10.9164 4.97486C10.9176 4.97541 10.9154 4.97441 10.9131 4.97334C10.9103 4.97209 10.9053 4.96976 10.899 4.96671C10.8868 4.9608 10.8653 4.95 10.8394 4.93451L11.2466 4.25366L11.6538 3.57281C11.6267 3.55659 11.6038 3.54512 11.5903 3.53857C11.5834 3.5352 11.5777 3.53257 11.5743 3.53101C11.5713 3.52963 11.5684 3.52833 11.5689 3.52859C11.5689 3.52859 11.569 3.52859 11.569 3.5286C11.569 3.52861 11.569 3.52862 11.569 3.52863C11.5691 3.52865 11.5692 3.52869 11.5693 3.52874C11.5695 3.52884 11.5699 3.529 11.5703 3.5292C11.5712 3.5296 11.5726 3.53024 11.5743 3.53105C11.5778 3.53263 11.5834 3.53527 11.5904 3.53869C11.6039 3.54536 11.6265 3.55692 11.6534 3.57339L11.2388 4.24976Z" fill="currentColor"/>
</svg>
