<svg width="24" height="24" viewBox="0 0 24 24" fill="none" xmlns="http://www.w3.org/2000/svg">
<g transform="scale(2.181362 1.868766)">
<g id="Group 3">
<path id="Fill 1" fill-rule="evenodd" clip-rule="evenodd" d="M8.44313 7.8161L6.30413 5.6571C5.74713 4.9141 6.62413 4.0261 7.35313 4.6081C8.35613 5.7571 9.59913 6.7841 10.6011 7.9211C10.9381 8.3021 11.1711 8.6111 10.8471 9.1151L7.28513 12.6761C6.49013 13.2531 5.63913 12.2001 6.33713 11.5171L8.44313 9.3951L3.416 9.3961C1.27959 9.3951 0.0368089 7.78117 0.0368089 5.9411L0 0.592502C0.144 -0.195498 1.334 -0.198498 1.47 0.589502C1.51181 1.76613 1.49812 2.43397 1.49087 3.09005C1.48346 3.75939 1.51404 4.41648 1.58575 5.5891C1.58676 5.6056 1.58457 5.62209 1.58575 5.63856C1.64891 6.52032 1.80024 7.39188 2.53817 7.70375C2.84458 7.83325 3.29575 7.8161 3.71883 7.8161H8.44313Z" fill="currentColor"/>
</g>
</g>
</svg>
