<svg width="24" height="24" viewBox="0 0 24 24" fill="none" xmlns="http://www.w3.org/2000/svg">
<g transform="scale(1.25 1.25)">
<g id="Group 31">
<path id="Fill 9" fill-rule="evenodd" clip-rule="evenodd" d="M9.60002 19.2C4.29785 19.2 0 14.9022 0 9.60002C0 4.29785 4.29785 0 9.60002 0C14.9022 0 19.2 4.29785 19.2 9.60002C19.2 14.9022 14.9022 19.2 9.60002 19.2Z" fill="currentColor"/>
<path id="Path 2" d="M13.5767 6.75945C13.9783 6.35777 14.6296 6.35777 15.0313 6.75945C15.433 7.16114 15.433 7.81239 15.0313 8.21407L9.54556 13.6998C9.14388 14.1015 8.49262 14.1015 8.09094 13.6998L4.83715 10.446C4.43547 10.0443 4.43547 9.39307 4.83715 8.99139C5.23883 8.5897 5.89009 8.5897 6.29177 8.99139L8.8175 11.5174L13.5767 6.75945Z" fill="currentColor"/>
</g>
</g>
</svg>
