<svg width="24" height="24" viewBox="0 0 24 24" fill="none" xmlns="http://www.w3.org/2000/svg">
<path fill-rule="evenodd" clip-rule="evenodd" d="M15.8968 9.25042C15.8328 9.44962 15.7488 9.61042 15.6424 9.73442C15.536 9.85842 15.4136 9.94962 15.276 10.0096C15.1376 10.0704 14.9944 10.1 14.8456 10.1C14.5768 10.1 14.3216 10.0152 14.08 9.84562C14.1656 9.61842 14.2304 9.39922 14.2776 9.18642C14.3232 8.97442 14.3464 8.76642 14.3464 8.56002C14.3464 8.29842 14.2984 8.08402 14.2024 7.91762C14.1072 7.75202 13.9568 7.66722 13.7512 7.66722C13.5184 7.66722 13.288 7.77282 13.0616 7.98082C12.8352 8.19042 12.616 8.46482 12.4088 8.80482C12.1992 9.14482 12.0056 9.53362 11.8296 9.97282C11.6528 10.412 11.4976 10.8624 11.368 11.3216C11.236 11.7816 11.1336 12.2344 11.0592 12.6816C10.9848 13.1272 10.9472 13.5304 10.9472 13.892C10.9472 14.232 10.98 14.5184 11.0432 14.752C11.1072 14.9848 11.1976 15.1712 11.3144 15.3104C11.4304 15.448 11.5696 15.5464 11.728 15.6072C11.888 15.6672 12.0624 15.6968 12.2536 15.6968C12.4656 15.6968 12.6904 15.6624 12.9232 15.5904C13.1568 15.52 13.3904 15.4272 13.6248 15.3104C13.8576 15.192 14.08 15.064 14.2928 14.9224C14.5056 14.7808 14.6968 14.6384 14.8664 14.4976C14.7528 15.1272 14.5768 15.6472 14.336 16.0584C14.0952 16.4696 13.808 16.7984 13.4752 17.0464C13.1432 17.2944 12.7728 17.468 12.3648 17.5672C11.9584 17.6656 11.5344 17.7152 11.0968 17.7152C10.5936 17.7152 10.1344 17.6496 9.72082 17.5184C9.30642 17.388 8.95202 17.184 8.65922 16.908C8.36482 16.6328 8.13682 16.276 7.97362 15.8408C7.81122 15.4056 7.73042 14.8792 7.73042 14.2632C7.73042 13.8464 7.77202 13.3624 7.85682 12.8136C7.94242 12.2648 8.07922 11.704 8.26562 11.1304C8.45282 10.5568 8.69762 9.99362 8.99842 9.44162C9.29922 8.88882 9.66562 8.39762 10.0976 7.96562C10.5304 7.53362 11.0344 7.18482 11.612 6.91922C12.1888 6.65362 12.8456 6.52082 13.5808 6.52082C14.0568 6.52082 14.448 6.57762 14.7608 6.69122C15.072 6.80482 15.32 6.95602 15.504 7.14722C15.688 7.33842 15.816 7.55522 15.8864 7.79602C15.9568 8.03682 15.9928 8.28402 15.9928 8.53922C15.9928 8.81602 15.9608 9.05202 15.8968 9.25042ZM12 2.40002C6.69762 2.40002 2.40002 6.69842 2.40002 12C2.40002 17.3016 6.69762 21.6 12 21.6C17.3016 21.6 21.6 17.3016 21.6 12C21.6 6.69842 17.3016 2.40002 12 2.40002Z" fill="currentColor"/>
</svg>
