<svg width="24" height="24" viewBox="0 0 24 24" fill="none" xmlns="http://www.w3.org/2000/svg">
<path d="M10.2496 7.41893C10.2496 6.47098 10.2485 5.84071 10.191 5.41795C10.1845 5.37003 10.1763 5.32879 10.1696 5.29295C10.1415 5.31618 10.1095 5.34336 10.0739 5.37596C9.75907 5.66401 9.35366 6.14663 8.7467 6.87498L6.67834 9.35838C6.5028 9.56901 6.25964 9.71283 5.99084 9.76658L4.29846 10.1055C4.09099 10.1469 3.91026 10.2736 3.80139 10.4551C3.2309 11.4058 3.2309 12.5941 3.80139 13.5449C3.91025 13.7263 4.09104 13.853 4.29846 13.8945L5.99084 14.2334H5.99182C6.22686 14.2805 6.44146 14.397 6.60901 14.5664L6.67834 14.6416L8.7467 17.125C9.35366 17.8533 9.75907 18.336 10.0739 18.624C10.1093 18.6564 10.1416 18.6829 10.1696 18.706C10.1762 18.6704 10.1846 18.6295 10.191 18.582C10.2485 18.1593 10.2496 17.5289 10.2496 16.581V7.41893ZM11.7496 16.581C11.7496 17.4797 11.7518 18.2347 11.6774 18.7832C11.61 19.2792 11.4352 19.9918 10.7281 20.248H10.7272C10.0201 20.5037 9.43038 20.0683 9.06115 19.7304C8.65276 19.3567 8.16993 18.7757 7.59436 18.0849L5.5924 15.6826L4.00451 15.3652C3.46029 15.2564 2.97767 14.9517 2.64709 14.5127L2.51526 14.3164C1.65978 12.8906 1.6598 11.1094 2.51526 9.68358C2.84155 9.13971 3.38261 8.75913 4.00451 8.63475L5.5924 8.31639L7.59436 5.91502C8.16991 5.22436 8.65277 4.64324 9.06115 4.26951C9.43045 3.93158 10.0208 3.49582 10.7281 3.75193L10.7272 3.75291C11.4345 4.00899 11.61 4.72069 11.6774 5.21678C11.7518 5.76524 11.7496 6.52022 11.7496 7.41893V16.581Z" fill="white"/>
<path d="M10.2496 7.41893C10.2496 6.47098 10.2485 5.84071 10.191 5.41795C10.1845 5.37003 10.1763 5.32879 10.1696 5.29295C10.1415 5.31618 10.1095 5.34336 10.0739 5.37596C9.75907 5.66401 9.35366 6.14663 8.7467 6.87498L6.67834 9.35838C6.5028 9.56901 6.25964 9.71283 5.99084 9.76658L4.29846 10.1055C4.09099 10.1469 3.91026 10.2736 3.80139 10.4551C3.2309 11.4058 3.2309 12.5941 3.80139 13.5449C3.91025 13.7263 4.09104 13.853 4.29846 13.8945L5.99084 14.2334H5.99182C6.22686 14.2805 6.44146 14.397 6.60901 14.5664L6.67834 14.6416L8.7467 17.125C9.35366 17.8533 9.75907 18.336 10.0739 18.624C10.1093 18.6564 10.1416 18.6829 10.1696 18.706C10.1762 18.6704 10.1846 18.6295 10.191 18.582C10.2485 18.1593 10.2496 17.5289 10.2496 16.581V7.41893ZM11.7496 16.581C11.7496 17.4797 11.7518 18.2347 11.6774 18.7832C11.61 19.2792 11.4352 19.9918 10.7281 20.248H10.7272C10.0201 20.5037 9.43038 20.0683 9.06115 19.7304C8.65276 19.3567 8.16993 18.7757 7.59436 18.0849L5.5924 15.6826L4.00451 15.3652C3.46029 15.2564 2.97767 14.9517 2.64709 14.5127L2.51526 14.3164C1.65978 12.8906 1.6598 11.1094 2.51526 9.68358C2.84155 9.13971 3.38261 8.75913 4.00451 8.63475L5.5924 8.31639L7.59436 5.91502C8.16991 5.22436 8.65277 4.64324 9.06115 4.26951C9.43045 3.93158 10.0208 3.49582 10.7281 3.75193L10.7272 3.75291C11.4345 4.00899 11.61 4.72069 11.6774 5.21678C11.7518 5.76524 11.7496 6.52022 11.7496 7.41893V16.581Z" fill="white"/>
<path d="M20.4697 8.46973C20.7626 8.17683 21.2374 8.17683 21.5303 8.46973C21.8231 8.76263 21.8231 9.23742 21.5303 9.53027L19.0605 12L21.5303 14.4697C21.8231 14.7626 21.8231 15.2374 21.5303 15.5303C21.2374 15.8231 20.7626 15.8231 20.4697 15.5303L18 13.0605L15.5303 15.5303C15.2374 15.8231 14.7626 15.8231 14.4697 15.5303C14.1768 15.2374 14.1768 14.7626 14.4697 14.4697L16.9395 12L14.4697 9.53027C14.1768 9.23738 14.1768 8.76262 14.4697 8.46973C14.7626 8.17683 15.2374 8.17683 15.5303 8.46973L18 10.9395L20.4697 8.46973Z" fill="white"/>
</svg>
