<svg width="24" height="24" viewBox="0 0 24 24" fill="none" xmlns="http://www.w3.org/2000/svg">
<g transform="scale(1.249987 1.249987)">
<g id="Group 31">
<path id="Exclude" d="M9.59961 0C14.9016 0 19.2 4.29763 19.2002 9.59961C19.2002 14.9018 14.9018 19.2002 9.59961 19.2002C4.29763 19.2 0 14.9016 0 9.59961C0.000219738 4.29777 4.29777 0.000219742 9.59961 0ZM15.0312 6.75977C14.6296 6.35808 13.9779 6.35808 13.5762 6.75977L8.81738 11.5176L6.29199 8.99121C5.89031 8.58953 5.2386 8.58953 4.83691 8.99121C4.43524 9.39289 4.43523 10.0446 4.83691 10.4463L8.09082 13.7002C8.49251 14.1017 9.14426 14.1018 9.5459 13.7002L15.0312 8.21387C15.4328 7.81222 15.4328 7.16142 15.0312 6.75977Z" fill="currentColor"/>
</g>
</g>
</svg>
