<svg width="24" height="24" viewBox="0 0 24 24" fill="none" xmlns="http://www.w3.org/2000/svg">
<path fill-rule="evenodd" clip-rule="evenodd" d="M11.9952 15.0596C13.6016 15.0596 14.9038 13.7575 14.9038 12.1511C14.9038 10.5447 13.6016 9.24255 11.9952 9.24255C10.3888 9.24255 9.08667 10.5447 9.08667 12.1511C9.08667 13.7575 10.3888 15.0596 11.9952 15.0596Z" stroke="currentColor" stroke-width="1.5" stroke-linecap="round" stroke-linejoin="round"/>
<path fill-rule="evenodd" clip-rule="evenodd" d="M2.30005 13.0043V11.298C2.30005 10.2897 3.12414 9.45591 4.14213 9.45591C5.89695 9.45591 6.61439 8.21493 5.73213 6.69279C5.22798 5.82022 5.52853 4.68589 6.41079 4.18174L8.08805 3.22192C8.85397 2.76625 9.84288 3.03772 10.2985 3.80363L10.4052 3.98784C11.2778 5.50998 12.7126 5.50998 13.5949 3.98784L13.7015 3.80363C14.1572 3.03772 15.1461 2.76625 15.912 3.22192L17.5893 4.18174C18.4716 4.68589 18.7721 5.82022 18.268 6.69279C17.3857 8.21493 18.1031 9.45591 19.858 9.45591C20.8663 9.45591 21.7 10.28 21.7 11.298V13.0043C21.7 14.0126 20.876 14.8464 19.858 14.8464C18.1031 14.8464 17.3857 16.0874 18.268 17.6095C18.7721 18.4918 18.4716 19.6164 17.5893 20.1206L15.912 21.0804C15.1461 21.5361 14.1572 21.2646 13.7015 20.4987L13.5949 20.3145C12.7223 18.7923 11.2875 18.7923 10.4052 20.3145L10.2985 20.4987C9.84288 21.2646 8.85397 21.5361 8.08805 21.0804L6.41079 20.1206C5.52853 19.6164 5.22798 18.4821 5.73213 17.6095C6.61439 16.0874 5.89695 14.8464 4.14213 14.8464C3.12414 14.8464 2.30005 14.0126 2.30005 13.0043Z" stroke="currentColor" stroke-width="1.5" stroke-linecap="round" stroke-linejoin="round"/>
</svg>
