<svg width="24" height="24" viewBox="767.33 604.76 21.59 21.59" fill="none" xmlns="http://www.w3.org/2000/svg">
<g id="ic_pen_stroke">
<path id="Rectangle 6014 (Stroke)" d="M784.896 611.173C785.546 610.523 785.546 609.468 784.896 608.818C784.246 608.168 783.192 608.168 782.541 608.818L771.249 620.111C771.173 620.187 771.123 620.286 771.108 620.393L770.73 622.984L773.321 622.607C773.428 622.591 773.528 622.541 773.604 622.465L784.896 611.173ZM774.664 623.526L774.546 623.635C774.26 623.878 773.911 624.036 773.538 624.091L770.284 624.564L770.16 624.575C769.553 624.589 769.06 624.051 769.15 623.431L769.623 620.176C769.685 619.75 769.884 619.355 770.188 619.05L781.481 607.758C782.717 606.522 784.721 606.522 785.957 607.758L786.069 607.876C787.192 609.118 787.154 611.036 785.957 612.234L774.664 623.526Z" fill="currentColor"/>
</g>
</svg>
