<svg width="24" height="24" viewBox="0.10 0.10 23.81 23.81" fill="none" xmlns="http://www.w3.org/2000/svg">
<g id="icon/bottomnavi/review/on" clip-path="url(#clip0_0_35)">
<g id="Rectangle">
</g>
<path id="Combined-Shape" fill-rule="evenodd" clip-rule="evenodd" d="M18 2C19.6569 2 21 3.34315 21 5V19C21 20.6569 19.6569 22 18 22H6C4.34315 22 3 20.6569 3 19V5C3 3.34315 4.34315 2 6 2H18ZM16.6179 16.5863H6.15641C5.70229 16.5863 5.33415 16.9544 5.33415 17.4086C5.33415 17.8627 5.70229 18.2308 6.15641 18.2308H16.6179C17.072 18.2308 17.4401 17.8627 17.4401 17.4086C17.4401 16.9544 17.072 16.5863 16.6179 16.5863ZM14.6444 13.383H6.15641C5.70229 13.383 5.33415 13.7511 5.33415 14.2052C5.33415 14.6594 5.70229 15.0275 6.15641 15.0275H14.6444C15.0985 15.0275 15.4667 14.6594 15.4667 14.2052C15.4667 13.7511 15.0985 13.383 14.6444 13.383ZM10.2659 5.42548C9.59821 5.42548 9.01824 5.78509 8.69591 6.31792C8.37358 5.78509 7.7947 5.42548 7.12702 5.42548C6.1107 5.42548 5.33009 6.21377 5.34653 7.47787C5.36956 9.29453 8.10607 11.2767 8.62574 11.2767C9.10923 11.2767 11.9521 9.29453 11.9992 7.47787C12.0288 6.34642 11.2822 5.42548 10.2659 5.42548Z" fill="currentColor"/>
</g>
<defs>
<clipPath id="clip0_0_35">
<rect width="24" height="24" fill="white"/>
</clipPath>
</defs>
</svg>
