<svg width="24" height="24" viewBox="0 0 24 24" fill="none" xmlns="http://www.w3.org/2000/svg">
<path d="M21.0601 21.5104C20.0901 22.3703 18.9795 22.6402 18.0396 22.6402C17.4297 22.6402 16.9 22.5295 16.52 22.3795L16.4097 22.3199L3.02004 13.8404C2.11004 13.2504 1.47 12.3497 1.23 11.2897C1.04009 10.4598 1.13 9.62987 1.43996 8.85997L21.0601 21.5104ZM7.71047 1.18028C8.60027 1.14045 9.38978 1.5703 9.90969 2.31016C9.95969 2.38016 10.1404 2.74044 10.1704 2.84044C10.3203 3.37012 10.4304 3.73977 11.1001 4.20958C11.9078 4.77796 12.7452 4.50134 12.7896 4.48985C12.8496 4.45985 13.86 4.01978 15.02 4.40977C15.87 4.69977 16.49 5.2302 16.98 6.1002L18.0298 7.94981L13.5796 10.5104C13.2699 10.6905 13.1604 11.0902 13.3404 11.4C13.4604 11.6099 13.67 11.7301 13.8999 11.7301C14.0099 11.7301 14.1202 11.7002 14.2202 11.6402L18.6704 9.07969L19.4097 10.3902H19.3804L15.7798 12.4801C15.4601 12.6601 15.3599 13.0598 15.5396 13.3697C15.6596 13.5697 15.8801 13.69 16.1001 13.69C16.2101 13.69 16.3302 13.6602 16.4302 13.6002L20.0298 11.5104L21.98 14.9596C23.5198 17.2793 22.6802 19.5396 22.0103 20.4098C21.9803 20.4498 21.9302 20.5104 21.9302 20.5104L2.07961 7.72032L5.43996 2.48985C5.93997 1.6899 6.7905 1.20028 7.71047 1.18028Z" fill="currentColor"/>
</svg>
