<svg width="24" height="24" viewBox="0 0 24 24" fill="none" xmlns="http://www.w3.org/2000/svg">
<path d="M13.5 2.25C15.0188 2.25 16.25 3.48122 16.25 5V5.5C16.25 5.91421 15.9142 6.25 15.5 6.25C15.0858 6.25 14.75 5.91421 14.75 5.5V5C14.75 4.30964 14.1904 3.75 13.5 3.75H6.5C5.80964 3.75 5.25 4.30964 5.25 5V19C5.25 19.6904 5.80964 20.25 6.5 20.25H13.5C14.1904 20.25 14.75 19.6904 14.75 19V18.5C14.75 18.0858 15.0858 17.75 15.5 17.75C15.9142 17.75 16.25 18.0858 16.25 18.5V19C16.25 20.5188 15.0188 21.75 13.5 21.75H6.5C4.98122 21.75 3.75 20.5188 3.75 19V5C3.75 3.48122 4.98122 2.25 6.5 2.25H13.5ZM11.9688 8.4707C12.2609 8.17744 12.7358 8.17674 13.0293 8.46875C13.3226 8.76092 13.3233 9.23578 13.0312 9.5293L11.3193 11.25H19.5C19.9142 11.25 20.25 11.5858 20.25 12C20.25 12.4142 19.9142 12.75 19.5 12.75H11.3027L13.0293 14.4688C13.3226 14.7609 13.3233 15.2358 13.0312 15.5293C12.7391 15.8225 12.2642 15.8233 11.9707 15.5312L8.9707 12.5469C8.85257 12.4292 8.78015 12.2759 8.75879 12.1123C8.75498 12.087 8.75218 12.0613 8.75098 12.0352C8.75082 12.0293 8.75002 12.0235 8.75 12.0176V12C8.75 11.7525 8.87075 11.5341 9.05566 11.3975L11.9688 8.4707Z" fill="currentColor"/>
</svg>
