<svg width="24" height="24" viewBox="396.65 1630.62 24.70 24.70" fill="none" xmlns="http://www.w3.org/2000/svg">
<path id="Union_93" d="M414.027 1632.6C414.457 1632.6 414.806 1632.94 414.806 1633.35V1634.35H416C417.657 1634.35 419 1635.69 419 1637.35V1650.35C419 1652.01 417.657 1653.35 416 1653.35H402C400.343 1653.35 399 1652.01 399 1650.35V1637.35C399 1635.69 400.343 1634.35 402 1634.35H403.25V1633.35C403.25 1632.94 403.598 1632.6 404.027 1632.6C404.457 1632.6 404.806 1632.94 404.806 1633.35V1634.35H413.25V1633.35C413.25 1632.94 413.598 1632.6 414.027 1632.6ZM400.5 1650.35C400.5 1651.18 401.172 1651.85 402 1651.85H416C416.828 1651.85 417.5 1651.18 417.5 1650.35V1641.16H400.5V1650.35ZM402 1635.85C401.172 1635.85 400.5 1636.52 400.5 1637.35V1639.6H417.5V1637.35C417.5 1636.52 416.828 1635.85 416 1635.85H414.806V1637.2C414.806 1637.61 414.457 1637.95 414.027 1637.95C413.598 1637.95 413.25 1637.61 413.25 1637.2V1635.85H404.806V1637.2C404.806 1637.61 404.457 1637.95 404.027 1637.95C403.598 1637.95 403.25 1637.61 403.25 1637.2V1635.85H402Z" fill="currentColor"/>
</svg>
