<svg width="24" height="24" viewBox="1478.70 603.77 24.70 24.70" fill="none" xmlns="http://www.w3.org/2000/svg">
<g id="icon/shopping/black_2">
<path id="Union_46" d="M1491.08 605.75C1493.16 605.75 1494.83 607.429 1494.83 609.5H1495.37L1495.65 609.513C1497.04 609.643 1498.18 610.727 1498.35 612.14L1499.68 623.14C1499.89 624.87 1498.58 626.401 1496.87 626.495L1496.7 626.5H1485.37C1483.61 626.5 1482.22 624.985 1482.38 623.229L1483.38 612.229C1483.51 610.78 1484.66 609.649 1486.08 609.514L1486.37 609.5H1487.33C1487.33 607.429 1489.01 605.75 1491.08 605.75ZM1486.37 611C1485.59 611 1484.94 611.592 1484.87 612.364L1483.88 623.364C1483.8 624.242 1484.49 625 1485.37 625H1496.7C1497.6 625 1498.3 624.212 1498.19 623.319L1496.86 612.319C1496.77 611.567 1496.13 611 1495.37 611H1494.83V612.5C1494.83 612.914 1494.5 613.25 1494.08 613.25C1493.67 613.25 1493.33 612.914 1493.33 612.5V611H1488.83V612.5C1488.83 612.914 1488.5 613.25 1488.08 613.25C1487.67 613.25 1487.33 612.914 1487.33 612.5V611H1486.37ZM1491.08 607.25C1489.84 607.25 1488.83 608.257 1488.83 609.5H1493.33C1493.33 608.257 1492.33 607.25 1491.08 607.25Z" fill="currentColor"/>
</g>
</svg>
