<svg width="24" height="24" viewBox="349.51 1927.03 23.01 23.01" fill="none" xmlns="http://www.w3.org/2000/svg">
<path id="Fill-1_6" fillRule="evenodd" clipRule="evenodd" d="M363.258 1945.96H358.78C358.319 1945.96 357.946 1945.58 357.946 1945.12C357.946 1944.66 358.319 1944.29 358.78 1944.29H363.258C363.719 1944.29 364.092 1944.66 364.092 1945.12C364.092 1945.58 363.719 1945.96 363.258 1945.96ZM369.343 1935.11L362.169 1929.4C361.496 1928.87 360.543 1928.87 359.87 1929.4L352.695 1935.11C352.003 1935.66 351.6 1936.49 351.6 1937.38V1945.52C351.6 1947 352.801 1948.2 354.282 1948.2H367.756C369.237 1948.2 370.438 1947 370.438 1945.52V1937.38C370.438 1936.49 370.035 1935.66 369.343 1935.11Z" fill="currentColor"/>
</svg>
