<svg xmlns="http://www.w3.org/2000/svg" width="24" height="24" fill="none" viewBox="0 0 24 24">
  <path fill="currentColor" fill-rule="evenodd" d="M11.91 4.104a2.266 2.266 0 0 1 1.678.617 2.24 2.24 0 0 1 .704 1.64v.092h-4.51c.04-1.243.975-2.289 2.128-2.349Zm8.334 14.106-1.36-10.458a1.492 1.492 0 0 0-1.479-1.299h-1.514V6.36a3.874 3.874 0 0 0-1.202-2.799 3.825 3.825 0 0 0-2.863-1.055c-2.022.106-3.604 1.833-3.644 3.947H6.66A1.49 1.49 0 0 0 5.182 7.75l-1.36 10.467a2.405 2.405 0 0 0 2.384 2.715h11.647a2.411 2.411 0 0 0 2.391-2.722Z" clip-rule="evenodd"/>
</svg>
