<svg width="24" height="24" viewBox="464.75 936.06 24.69 24.69" fill="none" xmlns="http://www.w3.org/2000/svg">
<g id="ic_heart">
<path id="Stroke 1 Copy (Stroke)" d="M481.64 939.25C485.09 939.25 487.464 942.358 487.372 945.919C487.333 947.41 486.725 948.879 485.878 950.21C485.027 951.547 483.903 952.798 482.755 953.865C481.605 954.934 480.414 955.836 479.412 956.477C478.912 956.796 478.447 957.057 478.052 957.241C477.694 957.408 477.28 957.565 476.926 957.565C476.562 957.565 476.147 957.411 475.78 957.241C475.381 957.056 474.919 956.794 474.425 956.474C473.435 955.832 472.273 954.927 471.159 953.856C470.046 952.788 468.964 951.536 468.151 950.197C467.341 948.864 466.77 947.396 466.751 945.909C466.725 943.934 467.323 942.267 468.389 941.084C469.459 939.899 470.955 939.25 472.618 939.25C474.425 939.25 476.029 940.051 477.129 941.303C478.229 940.051 479.834 939.25 481.64 939.25ZM481.64 940.75C479.999 940.75 478.569 941.632 477.77 942.951C477.634 943.176 477.391 943.312 477.129 943.312C476.867 943.312 476.623 943.175 476.487 942.951C475.688 941.632 474.259 940.75 472.618 940.75C471.359 940.75 470.274 941.234 469.503 942.089C468.729 942.947 468.229 944.229 468.251 945.89C468.265 947.013 468.703 948.215 469.433 949.418C470.161 950.615 471.15 951.767 472.198 952.774C473.245 953.781 474.334 954.626 475.241 955.215C475.695 955.51 476.094 955.733 476.411 955.88C476.569 955.953 476.698 956.004 476.796 956.034C476.875 956.058 476.916 956.064 476.926 956.065C476.932 956.063 477.081 956.039 477.42 955.881C477.737 955.733 478.141 955.508 478.604 955.212C479.529 954.621 480.649 953.774 481.733 952.767C482.819 951.757 483.849 950.604 484.612 949.405C485.379 948.201 485.843 946.999 485.872 945.88C485.948 942.933 484.033 940.75 481.64 940.75Z" fill="currentColor"/>
</g>
</svg>
