<svg width="24" height="24" viewBox="348.50 605.50 20.58 20.58" fill="none" xmlns="http://www.w3.org/2000/svg">
<g id="ic_search">
<path id="Oval (Stroke)" d="M362.595 614.223C362.595 611.256 360.189 608.85 357.223 608.85C354.256 608.85 351.85 611.256 351.85 614.223C351.85 617.189 354.256 619.595 357.223 619.595C360.189 619.594 362.594 617.189 362.595 614.223ZM364.295 614.223C364.295 618.128 361.128 621.295 357.223 621.295C353.317 621.295 350.151 618.128 350.15 614.223C350.15 610.317 353.317 607.15 357.223 607.15C361.128 607.151 364.295 610.317 364.295 614.223Z" fill="currentColor"/>
<path id="Path-8 (Stroke)" d="M361.06 618.06C361.391 617.729 361.929 617.729 362.261 618.06L367.101 622.899C367.432 623.231 367.432 623.77 367.101 624.101C366.769 624.433 366.23 624.433 365.898 624.101L361.06 619.262C360.728 618.93 360.728 618.392 361.06 618.06Z" fill="currentColor"/>
</g>
</svg>
