<svg width="24" height="24" viewBox="0 0 24 24" fill="none" xmlns="http://www.w3.org/2000/svg">
<path d="M16.6404 3.25C20.0899 3.25014 22.4644 6.35828 22.3719 9.91895C22.3331 11.4101 21.7248 12.8786 20.8778 14.21C20.0269 15.5473 18.9026 16.798 17.7547 17.8652C16.6055 18.9337 15.4139 19.8365 14.4119 20.4766C13.9116 20.7962 13.4471 21.0572 13.0516 21.2412C12.6938 21.4076 12.2805 21.5654 11.9256 21.5654C11.5622 21.5654 11.1469 21.4112 10.7801 21.2412C10.3807 21.0561 9.91856 20.7942 9.42463 20.4736C8.43539 19.8315 7.27288 18.9265 6.159 17.8564C5.04638 16.7875 3.96431 15.536 3.15119 14.1973C2.34114 12.8635 1.77001 11.396 1.7508 9.90918C1.72502 7.93414 2.32309 6.26656 3.38947 5.08398C4.45859 3.89853 5.95547 3.25 7.61799 3.25C9.42464 3.25 11.0289 4.05138 12.1287 5.30273C13.2286 4.05117 14.8336 3.25 16.6404 3.25ZM16.6404 4.75C14.9992 4.75 13.5695 5.6316 12.7703 6.95117C12.6344 7.17558 12.3911 7.3125 12.1287 7.3125C11.8665 7.31237 11.623 7.17548 11.4871 6.95117C10.6879 5.63178 9.25907 4.75 7.61799 4.75C6.35939 4.75 5.27389 5.2337 4.50275 6.08887C3.72904 6.94704 3.22911 8.22908 3.2508 9.88965C3.26532 11.0133 3.7031 12.2155 4.43342 13.418C5.16059 14.6152 6.14958 15.7671 7.19807 16.7744C8.24538 17.7806 9.33381 18.6259 10.241 19.2148C10.6954 19.5097 11.0943 19.7331 11.411 19.8799C11.5693 19.9532 11.6976 20.004 11.7957 20.0342C11.8747 20.0585 11.9155 20.0641 11.9256 20.0654C11.932 20.0634 12.0808 20.0385 12.4197 19.8809C12.7375 19.733 13.1413 19.5077 13.6043 19.2119C14.5292 18.6211 15.6494 17.7743 16.7332 16.7666C17.8186 15.7574 18.8494 14.6041 19.6121 13.4053C20.3786 12.2005 20.8428 10.9991 20.8719 9.87988C20.9484 6.93312 19.0332 4.75014 16.6404 4.75Z" fill="currentColor"/>
</svg>
