<svg width="24" height="24" viewBox="348.70 935.35 24.59 24.59" fill="none" xmlns="http://www.w3.org/2000/svg">
<path id="ic_star" d="M360.081 938.633C360.428 937.827 361.571 937.827 361.918 938.633L364.009 943.489C364.154 943.825 364.471 944.055 364.836 944.089L370.1 944.577C370.974 944.658 371.327 945.745 370.668 946.324L366.696 949.814C366.421 950.056 366.3 950.428 366.38 950.785L367.543 955.943C367.736 956.799 366.811 957.471 366.057 957.023L361.51 954.323C361.196 954.136 360.804 954.136 360.489 954.323L355.943 957.023C355.188 957.471 354.264 956.799 354.457 955.943L355.619 950.785C355.7 950.428 355.579 950.056 355.304 949.814L351.332 946.324C350.672 945.745 351.025 944.658 351.899 944.577L357.164 944.089C357.528 944.055 357.845 943.825 357.99 943.489L360.081 938.633Z" fill="currentColor"/>
</svg>
