<svg xmlns="http://www.w3.org/2000/svg" width="24" height="24" fill="none" viewBox="0 0 24 24">
  <g clip-path="url(#a)">
    <path fill="currentColor" fill-rule="evenodd" d="M18 2a3 3 0 0 1 3 3v14a3 3 0 0 1-3 3H6a3 3 0 0 1-3-3V5a3 3 0 0 1 3-3h12Zm-1.382 14.586H6.156a.822.822 0 1 0 0 1.645h10.462a.822.822 0 1 0 0-1.645Zm-1.974-3.203H6.156a.822.822 0 1 0 0 1.645h8.488a.822.822 0 1 0 0-1.645Zm-4.378-7.958c-.668 0-1.248.36-1.57.893a1.832 1.832 0 0 0-1.569-.893c-1.016 0-1.797.789-1.78 2.053.023 1.817 2.76 3.799 3.279 3.799.483 0 3.326-1.982 3.373-3.8.03-1.13-.717-2.052-1.733-2.052Z" clip-rule="evenodd"/>
  </g>
  <defs>
    <clipPath id="a">
      <path fill="#fff" d="M0 0h24v24H0z"/>
    </clipPath>
  </defs>
</svg>
