<svg width="24" height="24" viewBox="492.75 936.06 24.69 24.69" fill="none" xmlns="http://www.w3.org/2000/svg">
<path id="ic_heart_solid" d="M509.64 939.25C513.09 939.25 515.464 942.358 515.372 945.919C515.333 947.41 514.725 948.879 513.878 950.21C513.027 951.547 511.903 952.798 510.755 953.865C509.606 954.934 508.414 955.836 507.412 956.477C506.912 956.796 506.447 957.057 506.052 957.241C505.694 957.408 505.28 957.565 504.926 957.565C504.562 957.565 504.147 957.411 503.78 957.241C503.381 957.056 502.919 956.794 502.425 956.474C501.435 955.832 500.273 954.927 499.159 953.856C498.046 952.788 496.964 951.536 496.151 950.197C495.341 948.864 494.77 947.396 494.751 945.909C494.725 943.934 495.323 942.267 496.389 941.084C497.459 939.899 498.956 939.25 500.618 939.25C502.425 939.25 504.029 940.051 505.129 941.303C506.229 940.051 507.834 939.25 509.64 939.25Z" fill="currentColor"/>
</svg>
