<svg width="24" height="24" viewBox="0 0 24 24" fill="none" xmlns="http://www.w3.org/2000/svg">
<g id="icon/bottomnavi/benefit/on">
<path id="Subtract" d="M12 2C17.5228 2 22 6.47715 22 12C22 17.5228 17.5228 22 12 22C6.47715 22 2 17.5228 2 12C2 6.47715 6.47715 2 12 2ZM16.001 7.92969C13.9212 6.00985 10.8516 6.04927 9.10156 7.20898C7.60156 8.18898 6.73117 9.86934 6.70117 11.8193C6.68119 12.8293 6.91124 15.3489 9.34082 16.8389C10.4008 17.4889 11.2815 17.5296 12.0215 17.5596H12.2314L12.251 17.5889C13.7509 17.5889 15.5612 16.8894 16.2812 15.4795C16.5712 14.9196 16.7013 14.3096 16.6914 13.7197V12.4492C16.6914 11.7992 16.1607 11.2695 15.5107 11.2695H12.541C11.8911 11.2696 11.3613 11.7993 11.3613 12.4492C11.3613 13.0992 11.8911 13.6289 12.541 13.6289H14.3311V13.749C14.3411 13.979 14.2907 14.1894 14.1807 14.3994C13.9404 14.8593 12.9608 15.2697 12.041 15.2197C11.5211 15.1997 11.111 15.1795 10.5811 14.8496C9.23113 14.0097 9.05154 12.6194 9.06152 11.8594C9.08152 10.6894 9.55138 9.73969 10.4014 9.17969C11.3914 8.52969 13.2311 8.56919 14.4111 9.65918C14.8811 10.0992 15.6313 10.0689 16.0713 9.58887C16.511 9.10891 16.4807 8.36961 16.001 7.92969Z" fill="currentColor"/>
</g>
</svg>
