<svg width="24" height="24" viewBox="0 0 24 24" fill="none" xmlns="http://www.w3.org/2000/svg">
<g transform="scale(1.2 1.2)">
<path fill-rule="evenodd" clip-rule="evenodd" d="M10.25 2C6.57433 2 3.49851 4.5599 2.70235 7.99354C2.7008 8.00036 2.69925 8.00734 2.6977 8.01423C2.67383 8.11808 2.65198 8.22255 2.63245 8.32788C2.63105 8.33617 2.62958 8.34431 2.62819 8.3526C2.54549 8.80605 2.5 9.2726 2.5 9.75C2.5 9.75512 2.50047 9.76 2.50047 9.76511C2.50031 9.77015 2.5 9.77511 2.5 9.78023C2.5 9.80735 2.50186 9.83424 2.50217 9.86129C2.5024 9.88191 2.50155 9.90198 2.50202 9.92259C2.50271 9.95367 2.50488 9.98436 2.50597 10.0154C2.50628 10.0257 2.50713 10.0359 2.5076 10.0463C2.51 10.1122 2.51325 10.178 2.51728 10.2437C2.52209 10.3237 2.52837 10.4034 2.53557 10.4829C2.53798 10.5096 2.53999 10.5364 2.5427 10.5631C2.68755 12.0028 3.22571 13.3262 4.05171 14.422L2.81357 15.6602C2.39553 16.0782 2.39553 16.7557 2.81357 17.1737C3.23145 17.5916 3.90911 17.5916 4.32699 17.1737L5.56373 15.9371C6.85821 16.9175 8.47068 17.5 10.2199 17.5C10.2243 17.5 10.2288 17.4995 10.2333 17.4995C10.239 17.4995 10.2444 17.5 10.25 17.5C14.5302 17.5 18 14.0302 18 9.75C18 5.46975 14.5302 2 10.25 2Z" fill="currentColor"/>
<path fill-rule="evenodd" clip-rule="evenodd" d="M10.3471 8.51219H6.97228C6.59849 8.51219 6.29541 8.2091 6.29541 7.83515C6.29541 7.46127 6.59849 7.15836 6.97228 7.15836H10.3471C10.721 7.15836 11.0242 7.46127 11.0242 7.83515C11.0242 8.2091 10.721 8.51219 10.3471 8.51219Z" fill="white"/>
<path fill-rule="evenodd" clip-rule="evenodd" d="M14.1618 11.0433H7.0274C6.62301 11.0433 6.29517 10.7402 6.29517 10.3662C6.29517 9.99254 6.62301 9.68945 7.0274 9.68945H14.1618C14.5661 9.68945 14.894 9.99254 14.894 10.3662C14.894 10.7402 14.5661 11.0433 14.1618 11.0433Z" fill="white"/>
<path fill-rule="evenodd" clip-rule="evenodd" d="M11.8811 13.5744H6.9722C6.59833 13.5744 6.29541 13.2713 6.29541 12.8974C6.29541 12.5235 6.59833 12.2206 6.9722 12.2206H11.8811C12.2549 12.2206 12.5581 12.5235 12.5581 12.8974C12.5581 13.2713 12.2549 13.5744 11.8811 13.5744Z" fill="white"/>
<path fill-rule="evenodd" clip-rule="evenodd" d="M16.1115 5.71378L15.1623 5.57595C15.0803 5.56386 15.0094 5.51241 14.9727 5.43804L14.5483 4.57798C14.4558 4.39071 14.1888 4.39071 14.0964 4.57798L13.6719 5.43804C13.6352 5.51241 13.5643 5.56386 13.4823 5.57595L12.5331 5.71378C12.3265 5.74379 12.244 5.99777 12.3935 6.14343L13.0803 6.81305C13.1397 6.87083 13.1668 6.95421 13.1527 7.03592L12.9906 7.98128C12.9553 8.18706 13.1713 8.34398 13.3561 8.24684L14.205 7.80051C14.2785 7.76191 14.3661 7.76191 14.4395 7.80051L15.2884 8.24684C15.4733 8.34398 15.6893 8.18706 15.654 7.98128L15.4919 7.03592C15.4778 6.95421 15.505 6.87083 15.5643 6.81305L16.2511 6.14343C16.4006 5.99777 16.3181 5.74379 16.1115 5.71378Z" fill="currentColor"/>
</g>
</svg>
