<svg width="24" height="24" viewBox="1342.59 936.01 24.82 24.82" fill="none" xmlns="http://www.w3.org/2000/svg">
<g id="ic/alram">
<path id="Union_81" d="M1352.85 955C1352.85 956.187 1353.81 957.15 1355 957.15C1356.19 957.15 1357.15 956.187 1357.15 955H1352.85ZM1355 939.7C1351.45 939.7 1348.58 942.577 1348.58 946.125V949.1C1348.58 949.904 1348.43 950.703 1348.15 951.456L1347.45 953.3H1362.55L1361.85 951.456C1361.57 950.703 1361.43 949.904 1361.43 949.1V946.125C1361.43 942.577 1358.55 939.7 1355 939.7ZM1358.85 955C1358.85 957.126 1357.13 958.849 1355 958.85C1352.87 958.85 1351.15 957.126 1351.15 955H1346.44C1345.75 954.999 1345.26 954.302 1345.51 953.648L1346.56 950.858C1346.77 950.296 1346.88 949.7 1346.88 949.1V946.125C1346.88 941.638 1350.51 938 1355 938C1359.49 938 1363.13 941.638 1363.13 946.125V949.1C1363.13 949.7 1363.23 950.296 1363.44 950.858L1364.49 953.648C1364.74 954.302 1364.26 955 1363.56 955H1358.85Z" fill="currentColor"/>
</g>
</svg>
