<svg width="24" height="24" viewBox="0 0 24 24" fill="none" xmlns="http://www.w3.org/2000/svg">
<g transform="scale(1.2 1.2)">
<path d="M8.62969 4.27705C8.48462 4.13271 8.30558 4.02717 8.10903 3.97017C7.91248 3.91316 7.70476 3.90651 7.50497 3.95083C7.30518 3.99515 7.11975 4.08902 6.96574 4.22379C6.81174 4.35856 6.69411 4.5299 6.62369 4.72205L2.57269 15.862C2.50589 16.0459 2.48422 16.2431 2.50953 16.437C2.53483 16.631 2.60636 16.816 2.71809 16.9766C2.82982 17.1371 2.97849 17.2684 3.15158 17.3595C3.32466 17.4507 3.5171 17.4988 3.71269 17.5C3.85569 17.499 3.99869 17.473 4.13269 17.423L15.2757 13.372C15.4681 13.3018 15.6397 13.1842 15.7748 13.0302C15.9098 12.8762 16.0038 12.6906 16.0483 12.4907C16.0927 12.2907 16.0861 12.0828 16.029 11.8861C15.9719 11.6894 15.8662 11.5102 15.7217 11.365L8.63069 4.27705H8.62969Z" fill="currentColor"/>
<mask id="mask0_749_1683" maskUnits="userSpaceOnUse" x="2" y="3" width="15" height="15">
<path d="M8.62969 4.27687C8.48462 4.13252 8.30558 4.02699 8.10903 3.96998C7.91248 3.91298 7.70476 3.90633 7.50497 3.95065C7.30518 3.99497 7.11975 4.08883 6.96574 4.2236C6.81174 4.35837 6.69411 4.52972 6.62369 4.72187L2.57269 15.8619C2.50589 16.0457 2.48422 16.2429 2.50953 16.4368C2.53483 16.6308 2.60636 16.8158 2.71809 16.9764C2.82982 17.1369 2.97849 17.2683 3.15158 17.3594C3.32466 17.4505 3.5171 17.4987 3.71269 17.4999C3.85569 17.4989 3.99869 17.4729 4.13269 17.4229L15.2757 13.3719C15.4681 13.3016 15.6397 13.1841 15.7748 13.03C15.9098 12.876 16.0038 12.6905 16.0483 12.4905C16.0927 12.2905 16.0861 12.0826 16.029 11.8859C15.9719 11.6892 15.8662 11.51 15.7217 11.3649L8.63069 4.27687H8.62969Z" fill="white"/>
</mask>
<g mask="url(#mask0_749_1683)">
<path d="M-1.84839 13.6701L-0.0803883 11.9021L9.34761 21.3301L7.57961 23.0981L-1.84839 13.6701ZM1.48561 11.1701L3.25261 9.40208L12.6806 18.8301L10.9126 20.5981L1.48561 11.1701ZM3.98461 7.83608L5.75261 6.06808L15.1806 15.4961L13.4126 17.2641L3.98461 7.83608Z" fill="currentColor"/>
</g>
<path d="M12.375 5.771C12.386 5.354 12.487 4.944 12.671 4.569C13.081 3.752 13.851 3.302 14.844 3.302C15.362 3.302 15.694 3.125 15.898 2.746C16.006 2.533 16.068 2.301 16.079 2.063C16.0797 1.89923 16.1454 1.74243 16.2616 1.6271C16.3779 1.51176 16.5352 1.44734 16.699 1.448C16.8628 1.44867 17.0196 1.51436 17.1349 1.63063C17.2502 1.74691 17.3147 1.90423 17.314 2.068C17.314 3.06 16.657 4.537 14.844 4.537C14.327 4.537 13.995 4.713 13.791 5.093C13.683 5.305 13.621 5.538 13.61 5.776C13.6093 5.93977 13.5436 6.09657 13.4274 6.21191C13.3111 6.32724 13.1538 6.39167 12.99 6.391C12.8262 6.39034 12.6694 6.32465 12.5541 6.20837C12.4388 6.0921 12.3743 5.93477 12.375 5.771Z" fill="currentColor"/>
<path d="M10.5217 3.30304V1.44904C10.5217 1.28527 10.5868 1.12821 10.7026 1.0124C10.8184 0.896601 10.9755 0.831543 11.1392 0.831543C11.303 0.831543 11.4601 0.896601 11.5759 1.0124C11.6917 1.12821 11.7567 1.28527 11.7567 1.44904V3.30304C11.7567 3.46681 11.6917 3.62388 11.5759 3.73968C11.4601 3.85548 11.303 3.92054 11.1392 3.92054C10.9755 3.92054 10.8184 3.85548 10.7026 3.73968C10.5868 3.62388 10.5217 3.46681 10.5217 3.30304Z" fill="currentColor"/>
<path d="M18.3681 9.65615C18.4266 9.7132 18.4731 9.7813 18.505 9.85648C18.537 9.93166 18.5536 10.0124 18.5541 10.0941C18.5546 10.1758 18.5388 10.2568 18.5078 10.3323C18.4767 10.4078 18.4309 10.4765 18.3732 10.5342C18.3154 10.5919 18.2467 10.6376 18.1711 10.6686C18.0955 10.6995 18.0145 10.7152 17.9329 10.7146C17.8512 10.7141 17.7704 10.6973 17.6953 10.6653C17.6201 10.6333 17.5521 10.5867 17.4951 10.5281L16.2601 9.29415C16.2027 9.23676 16.1572 9.16863 16.1261 9.09365C16.0951 9.01867 16.0791 8.93831 16.0791 8.85715C16.0791 8.77599 16.0951 8.69563 16.1261 8.62064C16.1572 8.54566 16.2027 8.47753 16.2601 8.42015C16.3175 8.36276 16.3856 8.31724 16.4606 8.28618C16.5356 8.25512 16.616 8.23914 16.6971 8.23914C16.7783 8.23914 16.8586 8.25512 16.9336 8.28618C17.0086 8.31724 17.0767 8.36276 17.1341 8.42015L18.3681 9.65615Z" fill="currentColor"/>
<path d="M18.744 6.35708L16.892 6.97408C16.7395 7.01598 16.5767 6.99779 16.4372 6.92325C16.2976 6.84872 16.192 6.72352 16.142 6.57343C16.092 6.42334 16.1015 6.2598 16.1685 6.11649C16.2355 5.97318 16.3548 5.86101 16.502 5.80308L18.354 5.18608C18.5058 5.14645 18.6669 5.16598 18.8048 5.24072C18.9426 5.31546 19.0469 5.43981 19.0965 5.58859C19.1461 5.73736 19.1373 5.89942 19.0718 6.04194C19.0064 6.18445 18.8892 6.29675 18.744 6.35608" fill="currentColor"/>
</g>
</svg>
