<svg width="24" height="24" viewBox="0 0 24 24" fill="none" xmlns="http://www.w3.org/2000/svg">
<g transform="scale(0.857143 0.857143)">
<path fill-rule="evenodd" clip-rule="evenodd" d="M14.0004 14.8951C18.1069 14.8952 21.6301 17.392 23.1361 20.9498C23.9896 22.9671 22.1402 24.8121 19.9496 24.8121H8.05016L7.84508 24.8062C5.81354 24.6993 4.1476 23.017 4.79235 21.1373L4.86364 20.9498C6.36966 17.3919 9.8937 14.8951 14.0004 14.8951ZM14.0004 16.6451C10.6213 16.6451 7.71679 18.6981 6.47497 21.6314C6.34027 21.9501 6.39111 22.2112 6.62731 22.4791C6.90444 22.793 7.42593 23.062 8.05016 23.0621H19.9496C20.5739 23.0621 21.0952 22.7931 21.3724 22.4791C21.6087 22.2112 21.6595 21.9502 21.5248 21.6314C20.283 18.6983 17.3792 16.6452 14.0004 16.6451ZM14.0004 3.42929C16.7386 3.42947 18.9584 5.649 18.9584 8.3873C18.9583 11.1256 16.7386 13.3451 14.0004 13.3453C11.262 13.3453 9.04141 11.1257 9.04137 8.3873C9.04137 5.64889 11.2619 3.42929 14.0004 3.42929ZM14.0004 5.17929C12.2284 5.17929 10.7914 6.61539 10.7914 8.3873C10.7914 10.1592 12.2285 11.5953 14.0004 11.5953C15.7721 11.5951 17.2083 10.1591 17.2084 8.3873C17.2084 6.6155 15.7721 5.17947 14.0004 5.17929Z" fill="currentColor"/>
</g>
</svg>
