<svg width="24" height="24" viewBox="884.58 597.58 20.83 20.83" fill="none" xmlns="http://www.w3.org/2000/svg">
<g id="ic_plus">
<path id="Union_21" d="M895 599.25C895.414 599.25 895.75 599.586 895.75 600V607.25H903C903.414 607.25 903.75 607.586 903.75 608C903.75 608.414 903.414 608.75 903 608.75H895.75V616C895.75 616.414 895.414 616.75 895 616.75C894.586 616.75 894.25 616.414 894.25 616V608.75H887C886.586 608.75 886.25 608.414 886.25 608C886.25 607.586 886.586 607.25 887 607.25H894.25V600C894.25 599.586 894.586 599.25 895 599.25Z" fill="currentColor"/>
</g>
</svg>
