<svg width="24" height="24" viewBox="0 0 24 24" fill="none" xmlns="http://www.w3.org/2000/svg">
  <g id="Group 4740">
<g id="Rectangle 2537">
</g>
<path id="Exclude" d="M14.9756 3.16812C16.2564 2.85644 17.6021 2.94149 18.833 3.41323C20.0638 3.88501 21.1218 4.72093 21.8662 5.80874C22.6097 6.89555 23.0053 8.18342 23 9.50015L22.9961 9.74722C22.9076 12.2999 21.4664 14.6479 19.9072 16.2072C19.1172 16.9972 17.7059 18.1887 16.501 19.1789C15.8919 19.6793 15.3238 20.1375 14.8965 20.4806C14.683 20.6521 14.5039 20.7959 14.373 20.9005C14.3075 20.953 14.2543 20.9958 14.2148 21.0275C14.1955 21.0431 14.1796 21.0552 14.168 21.0646C14.1575 21.0731 14.1523 21.0774 14.1514 21.0783C14.056 21.1585 13.6709 21.5329 13.251 21.7257C12.8642 21.9032 12.4441 21.9965 12.0186 21.9992C11.593 22.0019 11.1712 21.914 10.7822 21.7414C10.5429 21.6351 10.3582 21.5011 10.2188 21.3898C10.1517 21.3362 10.0858 21.2803 10.0352 21.2375C9.98067 21.1914 9.93552 21.1535 9.88965 21.1173C9.66295 20.9388 5.64435 17.7587 4.09277 16.2072C2.53412 14.6485 1.09245 12.3099 1.00391 9.7482L1 9.50015C1.0001 8.18517 1.39944 6.90007 2.14453 5.81656C2.88968 4.73322 3.94606 3.90141 5.17383 3.43081C6.40178 2.9602 7.74397 2.87287 9.02246 3.18081C10.1435 3.45092 11.1697 4.01376 11.998 4.80777C12.8248 4.00834 13.8525 3.44148 14.9756 3.16812ZM10.3242 8.22378C9.8056 8.2347 9.45141 8.53494 9.25293 8.74429C9.0517 8.95664 8.84759 9.25289 8.66016 9.52066L8.65918 9.52163L8.37598 9.92691C8.1465 10.2539 8.01174 10.445 7.89746 10.5802C7.79624 10.7 7.75648 10.7184 7.74805 10.7228C7.7377 10.7282 7.6972 10.7483 7.54883 10.7619C7.37274 10.778 7.1385 10.7794 6.73828 10.7794H6C5.44776 10.7794 5.00008 11.2272 5 11.7794C5.00006 12.3317 5.44775 12.7794 6 12.7794H6.73828C7.10264 12.7794 7.44249 12.7804 7.73047 12.7541C8.0388 12.7258 8.35676 12.6621 8.6748 12.4962L8.67578 12.4953C8.9923 12.3296 9.2256 12.1069 9.4248 11.8712C9.61095 11.651 9.80515 11.3719 10.0146 11.0734L10.0156 11.0724L10.2979 10.6691L11.9844 13.7365C12.1547 14.0461 12.3362 14.3798 12.5215 14.6232C12.7115 14.8728 13.0825 15.2658 13.6924 15.2765C14.3005 15.287 14.6854 14.9097 14.8848 14.6671C15.0787 14.4312 15.2715 14.1045 15.4531 13.8019L15.458 13.7941L15.4619 13.7873L15.4834 13.7501C15.7069 13.3779 15.839 13.1602 15.9531 13.006C16.0543 12.8694 16.0948 12.8487 16.1016 12.8449L16.1035 12.8439C16.1124 12.8388 16.1534 12.8151 16.3193 12.799C16.5103 12.7804 16.7652 12.7794 17.1992 12.7794H18C18.5522 12.7794 18.9999 12.3317 19 11.7794C18.9999 11.2272 18.5522 10.7794 18 10.7794H17.1992C16.8034 10.7794 16.435 10.7786 16.125 10.8087C15.7942 10.841 15.4545 10.9141 15.1191 11.1037C14.7822 11.2937 14.5436 11.5483 14.3457 11.8156C14.1607 12.0655 13.9719 12.3822 13.7686 12.7209L13.7646 12.7277L13.7598 12.7355L13.7373 12.7726L12.0498 9.70523C11.8929 9.41935 11.7225 9.10302 11.5459 8.87027C11.3709 8.63976 11.0505 8.30228 10.5352 8.2355L10.4297 8.22573L10.3242 8.22378Z" fill="currentColor"/>
</g>
</svg>
