<svg width="24" height="24" viewBox="0 0 24 24" fill="none" xmlns="http://www.w3.org/2000/svg">
  <g transform="translate(3.25 1.95)">
    <g id="repeat">
<path id="Path" d="M12.6641 0.21967C12.9304 -0.0465967 13.3471 -0.0708027 13.6407 0.147052L13.7248 0.21967L17.2804 3.77523C17.5466 4.04149 17.5708 4.45816 17.353 4.75177L17.2804 4.83589L13.7248 8.39144C13.4319 8.68433 12.957 8.68433 12.6641 8.39144C12.3979 8.12517 12.3737 7.70851 12.5915 7.4149L12.6641 7.33078L15.689 4.305L12.6641 1.28033C12.3979 1.01406 12.3737 0.5974 12.5915 0.303788L12.6641 0.21967Z" fill="currentColor"/>
<path id="Path_2" d="M16.75 3.55559C17.1642 3.55559 17.5 3.89138 17.5 4.30559C17.5 4.68529 17.2178 4.99909 16.8518 5.04875L16.75 5.05559H4.30556C2.81348 5.05559 1.59345 6.22036 1.50512 7.69024L1.5 7.86115V9.63893C1.5 10.0531 1.16421 10.3889 0.75 10.3889C0.370304 10.3889 0.056509 10.1068 0.00684662 9.7407L2.53203e-09 9.63893V7.86115C2.53203e-09 5.5532 1.81594 3.66938 4.09695 3.56056L4.30556 3.55559H16.75Z" fill="currentColor"/>
<path id="Path_3" d="M3.77523 11.6641C4.06812 11.3712 4.54299 11.3712 4.83589 11.6641C5.10215 11.9303 5.12636 12.347 4.9085 12.6406L4.83589 12.7247L1.81 15.749L4.83589 18.7752C5.10215 19.0415 5.12636 19.4581 4.9085 19.7517L4.83589 19.8358C4.56962 20.1021 4.15296 20.1263 3.85934 19.9085L3.77523 19.8358L0.21967 16.2803C-0.0465967 16.014 -0.0708027 15.5974 0.147052 15.3037L0.21967 15.2196L3.77523 11.6641Z" fill="currentColor"/>
<path id="Path_4" d="M16.75 9.66671C17.1297 9.66671 17.4435 9.94887 17.4932 10.3149L17.5 10.4167V12.1945C17.5 14.5024 15.6841 16.3863 13.4031 16.4951L13.1944 16.5H0.75C0.335786 16.5 2.53203e-09 16.1643 2.53203e-09 15.75C2.53203e-09 15.3704 0.282154 15.0566 0.648229 15.0069L0.75 15H13.1944C14.6865 15 15.9066 13.8353 15.9949 12.3654L16 12.1945V10.4167C16 10.0025 16.3358 9.66671 16.75 9.66671Z" fill="currentColor"/>
</g>
  </g>
</svg>
