<svg width="24" height="24" viewBox="0 0 24 24" fill="none" xmlns="http://www.w3.org/2000/svg">
  <g transform="translate(3.1512 5.1504)">
    <g id="ic_hamburger">
    <path id="Union" d="M16.8496 12C17.3191 12 17.6992 12.3802 17.6992 12.8496C17.6992 13.3191 17.3191 13.6992 16.8496 13.6992H0.849609C0.380167 13.6992 0 13.3191 0 12.8496C0 12.3802 0.380167 12 0.849609 12H16.8496ZM16.8496 6C17.3191 6 17.6992 6.38017 17.6992 6.84961C17.6992 7.31905 17.3191 7.69922 16.8496 7.69922H0.849609C0.380167 7.69922 0 7.31905 0 6.84961C0 6.38017 0.380167 6 0.849609 6H16.8496ZM16.8496 0C17.3191 0 17.6992 0.380167 17.6992 0.849609C17.6992 1.31905 17.3191 1.69922 16.8496 1.69922H0.849609C0.380167 1.69922 0 1.31905 0 0.849609C0 0.380167 0.380167 0 0.849609 0H16.8496Z" fill="currentColor"/>
    </g>
  </g>
</svg>
