<svg width="24" height="24" viewBox="0 0 24 24" fill="none" xmlns="http://www.w3.org/2000/svg">
  <g transform="translate(2 2)">
    <g id="ic_information_stroke">
    <path id="Union" d="M10 0C15.5228 0 20 4.47715 20 10C20 15.5228 15.5228 20 10 20C4.47715 20 0 15.5228 0 10C0 4.47715 4.47715 0 10 0ZM10 1.7002C5.41604 1.7002 1.7002 5.41604 1.7002 10C1.7002 14.584 5.41604 18.2998 10 18.2998C14.584 18.2998 18.2998 14.584 18.2998 10C18.2998 5.41604 14.584 1.7002 10 1.7002ZM10 7.65039C10.4694 7.65039 10.8496 8.03056 10.8496 8.5V13.6504H11C11.4694 13.6504 11.8496 14.0306 11.8496 14.5C11.8496 14.9694 11.4694 15.3496 11 15.3496H10C9.53056 15.3496 9.15039 14.9694 9.15039 14.5V9.34961H9C8.53056 9.34961 8.15039 8.96944 8.15039 8.5C8.15039 8.03056 8.53056 7.65039 9 7.65039H10ZM10 4.5C10.5523 4.5 11 4.94772 11 5.5C11 6.05228 10.5523 6.5 10 6.5C9.44772 6.5 9 6.05228 9 5.5C9 4.94772 9.44772 4.5 10 4.5Z" fill="currentColor"/>
    </g>
  </g>
</svg>
