<svg width="24" height="24" viewBox="0 0 24 24" fill="none" xmlns="http://www.w3.org/2000/svg">
  <g transform="translate(6.166 6.166)">
    <g id="ic_circlewarinig_fill">
    <path id="Subtract" d="M5.83301 0C9.05467 0 11.666 2.61135 11.666 5.83301C11.666 9.05467 9.05467 11.666 5.83301 11.666C2.61135 11.666 0 9.05467 0 5.83301C9.66437e-08 2.61135 2.61135 9.66468e-08 5.83301 0ZM5.83301 7.62793C5.44663 7.62819 5.13379 7.94168 5.13379 8.32812C5.13383 8.71453 5.44665 9.02806 5.83301 9.02832C6.21938 9.02808 6.53316 8.71454 6.5332 8.32812C6.5332 7.94167 6.2194 7.62817 5.83301 7.62793ZM5.83105 2.59277C5.39927 2.59277 5.05501 2.95448 5.07617 3.38574L5.23145 6.55371C5.24686 6.86757 5.5061 7.11508 5.82031 7.11523C6.13298 7.115 6.39183 6.86986 6.40918 6.55762L6.58496 3.39062C6.609 2.95779 6.26448 2.59312 5.83105 2.59277Z" fill="currentColor"/>
    </g>
  </g>
</svg>
