<svg width="24" height="24" viewBox="0 0 24 24" fill="none" xmlns="http://www.w3.org/2000/svg">
  <g transform="translate(3 3)">
    <g id="Vector">
    <path d="M6.52367 0.839378C6.52367 0.375802 6.89947 0 7.36305 0H10.6249C11.0885 0 11.4643 0.375802 11.4643 0.839378C11.4643 1.30295 11.0885 1.67876 10.6249 1.67876H7.36305C6.89947 1.67876 6.52367 1.30295 6.52367 0.839378Z" fill="#221E1F"/>
    <path d="M4.94021 0.826035C4.95425 1.2894 4.59 1.67641 4.12664 1.69045C3.32755 1.71467 2.99467 1.77798 2.75754 1.89993L2.74906 1.90429C2.38918 2.08423 2.08978 2.38459 1.88666 2.77194C1.76549 3.00892 1.70251 3.34224 1.67838 4.13871C1.66434 4.60208 1.27732 4.96632 0.813961 4.95228C0.350598 4.93824 -0.0136486 4.55123 0.000392692 4.08787C0.0245013 3.29228 0.081999 2.61037 0.394958 2.00184L0.397512 1.99687C0.749391 1.32371 1.2937 0.756173 1.99411 0.404802C2.60154 0.0937988 3.2821 0.0365172 4.07579 0.012466C4.53915 -0.0015753 4.92617 0.362672 4.94021 0.826035Z" fill="#221E1F"/>
    <path d="M13.0477 0.826035C13.0618 0.362672 13.4488 -0.0015753 13.9121 0.012466C14.7058 0.0365171 15.3864 0.0937985 15.9938 0.404799C16.6942 0.75617 17.2385 1.32372 17.5904 1.99688L17.593 2.00183C17.9059 2.61036 17.9634 3.29228 17.9875 4.08787C18.0016 4.55123 17.6373 4.93824 17.174 4.95228C16.7106 4.96632 16.3236 4.60208 16.3095 4.13871C16.2854 3.34224 16.2224 3.00893 16.1013 2.77195C15.8981 2.38459 15.5988 2.08419 15.2389 1.90424L15.2304 1.89998C14.9932 1.77803 14.6604 1.71467 13.8613 1.69045C13.3979 1.67641 13.0337 1.2894 13.0477 0.826035Z" fill="#221E1F"/>
    <path d="M0.839385 6.52366C1.30296 6.52366 1.67876 6.89947 1.67876 7.36304V10.6249C1.67876 11.0884 1.30296 11.4642 0.839385 11.4642C0.37581 11.4642 7.56643e-06 11.0884 7.56643e-06 10.6249V7.36304C7.56643e-06 6.89947 0.37581 6.52366 0.839385 6.52366Z" fill="#221E1F"/>
    <path d="M17.1485 6.52366C17.6121 6.52366 17.9879 6.89947 17.9879 7.36304V10.6249C17.9879 11.0884 17.6121 11.4642 17.1485 11.4642C16.685 11.4642 16.3092 11.0884 16.3092 10.6249V7.36304C16.3092 6.89947 16.685 6.52366 17.1485 6.52366Z" fill="#221E1F"/>
    <path d="M17.186 13.0477C17.6494 13.0618 18.0136 13.4488 17.9996 13.9121C17.9755 14.7077 17.918 15.3896 17.605 15.9982L17.6025 16.0031C17.2506 16.6763 16.7062 17.2439 16.0057 17.5953C15.3983 17.9062 14.7178 17.9635 13.9242 17.9875C13.4608 18.0016 13.0738 17.6373 13.0598 17.174C13.0458 16.7106 13.41 16.3236 13.8734 16.3095C14.6725 16.2853 15.0053 16.222 15.2425 16.1001L15.2509 16.0957C15.6108 15.9158 15.9102 15.6154 16.1133 15.228C16.2345 14.9911 16.2975 14.6577 16.3216 13.8613C16.3357 13.3979 16.7227 13.0337 17.186 13.0477Z" fill="#221E1F"/>
    <path d="M0.813961 13.0598C1.27732 13.0458 1.66434 13.41 1.67838 13.8734C1.70259 14.6724 1.7659 15.0053 1.88785 15.2425L1.89222 15.2509C2.07216 15.6108 2.37252 15.9102 2.75988 16.1133C2.99686 16.2345 3.33016 16.2975 4.12664 16.3216C4.59 16.3357 4.95425 16.7227 4.94021 17.186C4.92617 17.6494 4.53915 18.0136 4.07579 17.9996C3.28021 17.9755 2.5983 17.918 1.98977 17.605L1.98481 17.6025C1.31165 17.2506 0.744097 16.7063 0.392725 16.0059C0.0817252 15.3985 0.0244438 14.7179 0.000392692 13.9242C-0.0136486 13.4608 0.350598 13.0738 0.813961 13.0598Z" fill="#221E1F"/>
    <path d="M6.52367 17.1485C6.52367 16.685 6.89947 16.3092 7.36305 16.3092H10.6249C11.0885 16.3092 11.4643 16.685 11.4643 17.1485C11.4643 17.6121 11.0885 17.9879 10.6249 17.9879H7.36305C6.89947 17.9879 6.52367 17.6121 6.52367 17.1485Z" fill="#221E1F"/>
    </g>
  </g>
</svg>
