<svg width="24" height="24" viewBox="0 0 24 24" fill="none" xmlns="http://www.w3.org/2000/svg">
  <g transform="translate(4.6392 2.1288)">
    <g id="ic_challenge_stroke">
    <path id="Union" d="M11.1738 0.0316169C12.5062 -0.10437 13.8591 0.178614 15.1826 1.26599C15.3328 1.38944 15.4199 1.57353 15.4199 1.76794V10.9779C15.4198 11.3368 15.1294 11.6282 14.7705 11.6283C14.5848 11.6283 14.4182 11.549 14.2998 11.4242C13.2889 10.6161 12.3072 10.4228 11.3057 10.5258C10.2403 10.6353 9.15405 11.0768 7.95801 11.5687C6.80191 12.0442 5.53549 12.5711 4.24805 12.7035C3.27016 12.804 2.28138 12.6769 1.30078 12.1732V19.3578C1.30055 19.7166 1.00923 20.0072 0.650391 20.0072C0.291549 20.0072 0.000231685 19.7166 0 19.3578V0.917359C0.000228136 0.558568 0.291546 0.266968 0.650391 0.266968C1.00924 0.266968 1.30055 0.558568 1.30078 0.917359V1.44666C2.24838 2.13709 3.17189 2.30262 4.11426 2.20544C5.18011 2.09546 6.2675 1.65484 7.46387 1.16345C8.62012 0.688541 9.88634 0.163106 11.1738 0.0316169ZM11.3057 1.32459C10.2401 1.43341 9.15321 1.87429 7.95703 2.3656C6.80103 2.84041 5.53515 3.36559 4.24805 3.49841C3.27011 3.59932 2.28156 3.47353 1.30078 2.97107V10.6488C2.24861 11.3412 3.17316 11.5064 4.11523 11.4095C5.18063 11.3 6.26679 10.8585 7.46289 10.3666C8.61903 9.8911 9.88536 9.36516 11.1729 9.23279C12.1508 9.13227 13.1397 9.25851 14.1201 9.76209V2.0863C13.1723 1.39386 12.2477 1.22842 11.3057 1.32459Z" fill="currentColor"/>
    </g>
  </g>
</svg>
