<svg width="24" height="24" viewBox="0 0 24 24" fill="none" xmlns="http://www.w3.org/2000/svg">
  <g transform="translate(2.2008 2.4)">
    <g id="ic_chatting_fill">
<g id="Group">
<path id="Vector" d="M19.65 12C19.65 9.61 18.21 7.55 16.11 6.54C16.14 6.83 16.16 7.13 16.16 7.44C16.16 11.84 12.51 15.44 7.97 15.6C9.14 17.13 11.04 18.14 13.19 18.14C13.77 18.14 14.26 18.17 14.79 18.04C14.82 18.04 14.84 18.04 14.87 18.05L16.92 19.23C17.21 19.37 17.53 19.15 17.54 18.82L17.35 16.77C17.35 16.77 17.36 16.69 17.39 16.67C18.77 15.55 19.64 13.88 19.64 12.02L19.65 12Z" fill="currentColor"/>
</g>
<path id="Exclude" d="M7.61035 0C11.8102 0.000180978 15.2197 3.24058 15.2197 7.23047C15.2195 11.2201 11.81 14.4598 7.61035 14.46C6.92035 14.46 6.34973 14.4898 5.71973 14.3398C5.68987 14.3301 5.63082 14.3493 5.62988 14.3496L3.20996 15.7402C2.86999 15.9001 2.48047 15.64 2.48047 15.25L2.7002 12.8301C2.71018 12.7902 2.69024 12.74 2.65039 12.71C1.03051 11.3901 0.000146808 9.42028 0 7.23047C0 3.24047 3.41035 0 7.61035 0ZM4.98047 6.55957C4.54974 6.55957 4.20028 6.90913 4.2002 7.33984C4.2002 7.77063 4.54969 8.12012 4.98047 8.12012C5.41104 8.11987 5.75977 7.77047 5.75977 7.33984C5.75968 6.90928 5.41099 6.55982 4.98047 6.55957ZM7.63965 6.55957C7.20907 6.55975 6.86043 6.90924 6.86035 7.33984C6.86035 7.77051 7.20902 8.11993 7.63965 8.12012C8.07043 8.12012 8.41992 7.77063 8.41992 7.33984C8.41984 6.90913 8.07038 6.55957 7.63965 6.55957ZM10.2998 6.55957C9.86917 6.55969 9.52059 6.9092 9.52051 7.33984C9.52051 7.77055 9.86912 8.12 10.2998 8.12012C10.7306 8.12012 11.0801 7.77063 11.0801 7.33984C11.08 6.90913 10.7305 6.55957 10.2998 6.55957Z" fill="currentColor"/>
</g>
  </g>
</svg>
