<svg width="24" height="24" viewBox="0 0 24 24" fill="none" xmlns="http://www.w3.org/2000/svg">
  <g transform="translate(2 1.5)">
    <g id="ic_setting_stroke">
    <path id="Vector" d="M11.0986 1.74757C11.3848 1.74757 11.6403 1.90087 11.7833 2.14614L12.3454 3.12724C12.6418 3.63822 13.0608 4.05723 13.5616 4.34338C14.0726 4.63975 14.6449 4.79305 15.2274 4.79305H16.3618C16.6479 4.79305 16.9034 4.94635 17.0465 5.19162L18.1502 7.09249C18.2933 7.33776 18.2933 7.63413 18.1502 7.87941L17.5881 8.85028C17.2918 9.36127 17.1385 9.93357 17.1385 10.5263C17.1385 11.1191 17.2918 11.6914 17.5881 12.2024L18.1502 13.1732C18.2933 13.4185 18.2933 13.7149 18.1502 13.9601L17.0465 15.861C16.9034 16.1063 16.6479 16.2596 16.3618 16.2596H15.2376C14.6449 16.2596 14.0726 16.4129 13.5616 16.7092C13.0506 17.0056 12.6316 17.4246 12.3352 17.9356L11.7731 18.9065C11.63 19.1518 11.3746 19.3051 11.0884 19.3051H8.89116C8.60501 19.3051 8.34951 19.1518 8.20644 18.9065L7.64435 17.9356C7.34798 17.4246 6.92897 17.0056 6.41799 16.7092C5.907 16.4129 5.3347 16.2596 4.74195 16.2596H3.61778C3.33163 16.2596 3.07614 16.1063 2.93306 15.861L1.82933 13.9601C1.68625 13.7149 1.68625 13.4185 1.82933 13.1732L2.39142 12.2024C2.68779 11.6914 2.84108 11.1191 2.84108 10.5263C2.84108 9.93357 2.68779 9.36127 2.39142 8.85028L1.82933 7.87941C1.68625 7.63413 1.68625 7.33776 1.82933 7.09249L2.93306 5.19162C3.07614 4.94635 3.33163 4.79305 3.61778 4.79305H4.75217C5.3347 4.79305 5.907 4.63975 6.41799 4.34338C6.92897 4.04701 7.34798 3.628 7.63413 3.11702L8.19622 2.13592C8.33929 1.89065 8.59479 1.73735 8.88094 1.73735H11.0782M11.0986 0.0102197H8.90138C8.00204 0.0102197 7.16403 0.490547 6.71436 1.27747L6.15227 2.25856C6.0092 2.50383 5.81502 2.69801 5.56975 2.84108C5.31426 2.98416 5.03832 3.0557 4.76239 3.0557H3.628C2.72867 3.0557 1.89065 3.53602 1.44098 4.32294L0.337251 6.22381C-0.112417 7.00051 -0.112417 7.97139 0.337251 8.74808L0.899336 9.71896C1.04241 9.96423 1.11395 10.2402 1.11395 10.5263C1.11395 10.8125 1.04241 11.0884 0.899336 11.3337L0.337251 12.3045C-0.112417 13.0812 -0.112417 14.0521 0.337251 14.8288L1.44098 16.7297C1.89065 17.5064 2.72867 17.9969 3.628 17.9969H4.75217C5.03832 17.9969 5.31426 18.0685 5.55953 18.2115C5.8048 18.3546 6.0092 18.559 6.15227 18.8043L6.71436 19.7752C7.16403 20.5519 8.00204 21.0424 8.90138 21.0424H11.0986C11.998 21.0424 12.836 20.5621 13.2856 19.7752L13.8477 18.8043C13.9908 18.559 14.1952 18.3546 14.4405 18.2115C14.6857 18.0685 14.9617 17.9969 15.2478 17.9969H16.372C17.2713 17.9969 18.1094 17.5166 18.559 16.7297L19.6627 14.8288C20.1124 14.0521 20.1124 13.0812 19.6627 12.3045L19.1007 11.3337C18.9576 11.0884 18.8861 10.8125 18.8861 10.5263C18.8861 10.2402 18.9576 9.96423 19.1007 9.71896L19.6627 8.74808C20.1124 7.97139 20.1124 7.00051 19.6627 6.22381L18.559 4.32294C18.1094 3.54624 17.2713 3.0557 16.372 3.0557H15.2376C14.9617 3.0557 14.6857 2.98416 14.4405 2.84108C14.185 2.69801 13.9908 2.49361 13.8477 2.24834L13.2856 1.26725C12.836 0.490547 11.998 0 11.0986 0V0.0102197Z" fill="currentColor"/>
    <path id="Vector_2" d="M9.99488 8.25754C11.2519 8.25754 12.2637 9.27951 12.2637 10.5263C12.2637 11.7731 11.2417 12.7951 9.99488 12.7951C8.74807 12.7951 7.7261 11.7731 7.7261 10.5263C7.7261 9.27951 8.74807 8.25754 9.99488 8.25754ZM9.99488 6.52019C7.78741 6.52019 5.98874 8.31886 5.98874 10.5263C5.98874 12.7338 7.78741 14.5325 9.99488 14.5325C12.2023 14.5325 14.001 12.7338 14.001 10.5263C14.001 8.31886 12.2023 6.52019 9.99488 6.52019Z" fill="currentColor"/>
    </g>
  </g>
</svg>
