<svg width="24" height="24" viewBox="0 0 24 24" fill="none" xmlns="http://www.w3.org/2000/svg">
  <g transform="translate(3.1512 2.1504)">
    <g id="ic_share">
    <path id="Union" d="M14.3496 0C16.1998 0 17.6992 1.49946 17.6992 3.34961C17.6992 5.19976 16.1998 6.69922 14.3496 6.69922C13.4444 6.69922 12.6243 6.33917 12.0215 5.75586L6.6582 9.33105C6.68448 9.50011 6.69922 9.67318 6.69922 9.84961C6.69922 10.0257 6.68438 10.1984 6.6582 10.3672L12.0215 13.9424C12.6242 13.3593 13.4447 13 14.3496 13C16.1998 13 17.6992 14.4995 17.6992 16.3496C17.6992 18.1998 16.1998 19.6992 14.3496 19.6992C12.4995 19.6992 11 18.1998 11 16.3496C11 16.0185 11.0482 15.6986 11.1377 15.3965L5.96094 11.9453C5.34705 12.7093 4.40611 13.1992 3.34961 13.1992C1.49946 13.1992 0 11.6998 0 9.84961C0 7.99946 1.49946 6.5 3.34961 6.5C4.40584 6.5 5.34704 6.98928 5.96094 7.75293L11.1377 4.30176C11.0484 3.99992 11 3.68044 11 3.34961C11 1.49946 12.4995 0 14.3496 0ZM14.3496 14.6992C13.4383 14.6992 12.6992 15.4383 12.6992 16.3496C12.6992 17.2609 13.4383 18 14.3496 18C15.2609 18 16 17.2609 16 16.3496C16 15.4383 15.2609 14.6992 14.3496 14.6992ZM3.34961 8.19922C2.43834 8.19922 1.69922 8.93834 1.69922 9.84961C1.69922 10.7609 2.43834 11.5 3.34961 11.5C4.26088 11.5 5 10.7609 5 9.84961C5 8.93834 4.26088 8.19922 3.34961 8.19922ZM14.3496 1.69922C13.4383 1.69922 12.6992 2.43834 12.6992 3.34961C12.6992 4.26088 13.4383 5 14.3496 5C15.2609 5 16 4.26088 16 3.34961C16 2.43834 15.2609 1.69922 14.3496 1.69922Z" fill="currentColor"/>
    </g>
  </g>
</svg>
