<svg width="24" height="24" viewBox="0 0 24 24" fill="none" xmlns="http://www.w3.org/2000/svg">
  <g transform="translate(2.15 1.5)">
    <g id="ic_trash_fill">
    <path id="Union" d="M12.127 0.00878906C13.266 0.0958612 14.2652 0.826006 14.6885 1.90137L15.1807 3.15039H18.8496C19.3191 3.15039 19.6992 3.53056 19.6992 4C19.6992 4.46944 19.3191 4.84961 18.8496 4.84961H17.4707L17.3828 16.5342L17.376 16.7646C17.3366 17.443 17.1457 18.08 16.8389 18.6445C16.8295 18.6618 16.8201 18.6792 16.8105 18.6963C16.7884 18.7359 16.7665 18.7756 16.7432 18.8145C16.7213 18.8508 16.6977 18.8862 16.6748 18.9219C16.6589 18.9467 16.6433 18.9716 16.627 18.9961C16.6077 19.0249 16.5883 19.0537 16.5684 19.082C16.5469 19.1126 16.5251 19.1429 16.5029 19.1729C16.4864 19.1952 16.4691 19.2172 16.4521 19.2393C16.4242 19.2756 16.3962 19.3122 16.3672 19.3477C16.3448 19.375 16.3208 19.401 16.2979 19.4277C16.2791 19.4496 16.2604 19.4717 16.2412 19.4932C16.2121 19.5258 16.1824 19.558 16.1523 19.5898C16.1348 19.6084 16.1175 19.6273 16.0996 19.6455C16.0684 19.6774 16.037 19.7093 16.0049 19.7402C15.985 19.7594 15.9646 19.7781 15.9443 19.7969C15.9129 19.826 15.8809 19.8545 15.8486 19.8828C15.8251 19.9035 15.8014 19.9241 15.7773 19.9443C15.7549 19.9632 15.7318 19.9815 15.709 20C15.6701 20.0315 15.6308 20.0626 15.5908 20.0928C15.5753 20.1045 15.5597 20.1164 15.5439 20.1279C15.5018 20.1589 15.4592 20.1893 15.416 20.2188C15.4002 20.2296 15.3842 20.2404 15.3682 20.251C15.3313 20.2755 15.2935 20.2988 15.2559 20.3223C15.2287 20.3391 15.2013 20.3558 15.1738 20.3721C15.1431 20.3903 15.1122 20.4083 15.0811 20.4258C15.0481 20.4443 15.0149 20.4628 14.9814 20.4805C14.9633 20.49 14.945 20.4995 14.9268 20.5088C14.8782 20.5336 14.8288 20.557 14.7793 20.5801C14.7655 20.5865 14.7512 20.5923 14.7373 20.5986C14.6885 20.6207 14.6395 20.6427 14.5898 20.6631C14.5704 20.6711 14.5508 20.6788 14.5312 20.6865C14.4838 20.7052 14.4359 20.7231 14.3877 20.7402C14.3711 20.7461 14.3545 20.7521 14.3379 20.7578C14.2875 20.775 14.2368 20.7921 14.1855 20.8076C14.1475 20.8191 14.1088 20.8293 14.0703 20.8398C14.045 20.8468 14.0196 20.8539 13.9941 20.8604C13.9421 20.8736 13.8897 20.8861 13.8369 20.8975C13.8168 20.9018 13.7966 20.9061 13.7764 20.9102C13.7353 20.9184 13.6938 20.9255 13.6523 20.9326C13.6179 20.9385 13.5835 20.9451 13.5488 20.9502C13.4315 20.9676 13.3125 20.9791 13.1924 20.9873C13.0904 20.9942 12.9875 21 12.8838 21H6.88379L6.65039 20.9941C6.52088 20.9875 6.39298 20.9734 6.2666 20.9561C6.2497 20.9537 6.23266 20.9517 6.21582 20.9492C6.18382 20.9445 6.15189 20.939 6.12012 20.9336C6.07472 20.9258 6.0293 20.9183 5.98438 20.9092C5.96186 20.9046 5.93939 20.8994 5.91699 20.8945C5.86986 20.8842 5.82293 20.8731 5.77637 20.8613C5.74335 20.853 5.71045 20.844 5.67773 20.835C5.64644 20.8263 5.615 20.8179 5.58398 20.8086C5.53868 20.7949 5.4939 20.7797 5.44922 20.7646C5.42679 20.7571 5.4041 20.7501 5.38184 20.7422C5.34356 20.7286 5.30537 20.7147 5.26758 20.7002C5.22529 20.6839 5.18326 20.6669 5.1416 20.6494C5.12697 20.6433 5.11221 20.6372 5.09766 20.6309C5.05057 20.6105 5.00425 20.5883 4.95801 20.5664C4.93157 20.5539 4.90505 20.5414 4.87891 20.5283C4.85207 20.5149 4.82535 20.5012 4.79883 20.4873C4.75752 20.4657 4.71632 20.4438 4.67578 20.4209C4.65903 20.4114 4.64259 20.4013 4.62598 20.3916C4.58204 20.3661 4.53809 20.3405 4.49512 20.3135C4.47877 20.3032 4.46249 20.2927 4.44629 20.2822C4.40685 20.2568 4.36768 20.2308 4.3291 20.2041C4.30586 20.188 4.28269 20.1718 4.25977 20.1553C4.17188 20.0921 4.08591 20.0263 4.00293 19.957C3.97407 19.933 3.94621 19.9076 3.91797 19.8828C3.77091 19.7538 3.63207 19.6157 3.50293 19.4688C3.45719 19.4167 3.41247 19.3637 3.36914 19.3096C3.36306 19.302 3.3576 19.2938 3.35156 19.2861C3.32772 19.256 3.30335 19.2261 3.28027 19.1953C3.2603 19.1687 3.24107 19.1414 3.22168 19.1143C3.19884 19.0823 3.17631 19.0501 3.1543 19.0176C3.13641 18.9911 3.1189 18.9643 3.10156 18.9375C3.08237 18.9078 3.06343 18.8778 3.04492 18.8477C3.02557 18.8161 3.00687 18.784 2.98828 18.752C2.96973 18.7199 2.95137 18.6878 2.93359 18.6553C2.91852 18.6277 2.90319 18.6002 2.88867 18.5723C2.87036 18.537 2.85236 18.5016 2.83496 18.4658C2.82345 18.4422 2.81189 18.4184 2.80078 18.3945C2.78102 18.352 2.7626 18.3088 2.74414 18.2656C2.73252 18.2384 2.72106 18.2111 2.70996 18.1836C2.69639 18.15 2.68367 18.116 2.6709 18.082C2.65892 18.0502 2.64604 18.0185 2.63477 17.9863C2.61875 17.9406 2.60441 17.8941 2.58984 17.8477C2.58434 17.8301 2.57854 17.8126 2.57324 17.7949C2.55436 17.732 2.53667 17.6685 2.52051 17.6045C2.51813 17.5951 2.51599 17.5856 2.51367 17.5762C2.50319 17.5335 2.49363 17.4904 2.48438 17.4473C2.47735 17.4145 2.47017 17.3817 2.46387 17.3486C2.457 17.3126 2.45034 17.2765 2.44434 17.2402C2.40269 16.9886 2.38181 16.7296 2.38379 16.4658L2.4707 4.84961H0.849609C0.380167 4.84961 0 4.46944 0 4C0 3.53056 0.380167 3.15039 0.849609 3.15039H4.58203L5.15918 1.8125C5.63335 0.712623 6.71633 1.04943e-05 7.91406 0H11.8975L12.127 0.00878906ZM7.84961 7.65039C7.38023 7.65046 7 8.0306 7 8.5V15.5C7 15.9694 7.38023 16.3495 7.84961 16.3496C8.319 16.3495 8.69922 15.9694 8.69922 15.5V8.5C8.69922 8.0306 8.319 7.65046 7.84961 7.65039ZM11.8496 7.65039C11.3802 7.65046 11 8.0306 11 8.5V15.5C11 15.9694 11.3802 16.3495 11.8496 16.3496C12.319 16.3495 12.6992 15.9694 12.6992 15.5V8.5C12.6992 8.0306 12.319 7.65046 11.8496 7.65039ZM7.91406 1.7002C7.3951 1.70021 6.92621 2.00882 6.7207 2.48535L6.43359 3.15039H13.3545L13.1074 2.52344C12.9117 2.02653 12.4315 1.70024 11.8975 1.7002H7.91406Z" fill="currentColor"/>
    </g>
  </g>
</svg>
