<svg width="24" height="24" viewBox="0 0 24 24" fill="none" xmlns="http://www.w3.org/2000/svg">
  <g transform="translate(2.65 2.65)">
    <g id="ic_search">
    <path id="Union" d="M7.47363 0C11.601 0.000198695 14.9473 3.34617 14.9473 7.47363C14.9472 9.23115 14.3377 10.8449 13.3223 12.1211L17.9512 16.749C18.2826 17.081 18.2829 17.6194 17.9512 17.9512C17.6194 18.283 17.081 18.2827 16.749 17.9512L12.1211 13.3223C10.8449 14.3377 9.23115 14.9472 7.47363 14.9473C3.34617 14.9473 0.000198691 11.601 0 7.47363C0 3.34605 3.34605 0 7.47363 0ZM7.47363 1.69922C4.28493 1.69922 1.69922 4.28493 1.69922 7.47363C1.69942 10.6622 4.28505 13.2471 7.47363 13.2471C10.662 13.2469 13.2469 10.662 13.2471 7.47363C13.2471 4.28505 10.6622 1.69942 7.47363 1.69922Z" fill="currentColor"/>
    </g>
  </g>
</svg>
