<svg width="24" height="24" viewBox="0 0 24 24" fill="none" xmlns="http://www.w3.org/2000/svg">
  <g transform="translate(2.2392 2.8608)">
    <path id="Vector" d="M3.41 10.59L4.88 8.45C5.38 7.72 6.56 7.72 7.06 8.45L8.53 10.59L8.91 11.18L10.15 9.42C10.56 8.84 11.51 8.84 11.92 9.42L13.21 11.25C14.01 10.66 14.99 10.28 16.07 10.28C16.29 10.28 16.51 10.32 16.73 10.35V3.81C16.73 1.7 15.02 0 12.92 0H3.81C1.7 0 0 1.71 0 3.81V12.93C0 15.04 1.71 16.74 3.81 16.74H11.65C11.45 16.21 11.33 15.65 11.33 15.05C11.33 14.84 11.37 14.64 11.39 14.43H11.04L9.64 14.42H7.33L5.97 14.44L3.7 14.41C2.47 14.39 1.7 13.24 2.3 12.31L3.41 10.59ZM11.96 2.88C12.9 2.88 13.65 3.64 13.65 4.57C13.65 5.5 12.89 6.26 11.96 6.26C11.03 6.26 10.27 5.5 10.27 4.57C10.27 3.64 11.03 2.88 11.96 2.88Z" fill="currentColor"/>
  </g>
  <g transform="translate(14.4504 14.0304)">
    <path id="Vector" d="M3.88 0C1.74 0 0 1.73 0 3.88C0 6.03 1.74 7.76 3.88 7.76C6.02 7.76 7.76 6.02 7.76 3.88C7.76 1.74 6.03 0 3.88 0ZM3.88 5.99C3.64 5.99 3.45 5.8 3.45 5.56C3.45 5.32 3.64 5.13 3.88 5.13C4.12 5.13 4.31 5.32 4.31 5.56C4.31 5.8 4.12 5.99 3.88 5.99ZM4.26 4.27C4.26 4.45 4.08 4.59 3.88 4.59C3.68 4.59 3.51 4.45 3.5 4.27L3.4 2.1C3.4 1.91 3.56 1.75 3.78 1.75H3.98C4.2 1.75 4.37 1.91 4.36 2.1L4.26 4.27Z" fill="currentColor"/>
  </g>
</svg>
