<svg width="24" height="24" viewBox="0 0 24 24" fill="none" xmlns="http://www.w3.org/2000/svg">
  <g transform="translate(4.6392 2.1288)">
    <path id="ic_challenge_fill" d="M15.18 1.26004C12.52 -0.919959 9.84 0.190041 7.46 1.16004C5.22 2.08004 3.27 2.88004 1.3 1.44004V0.920041C1.3 0.560041 1.01 0.270041 0.65 0.270041C0.29 0.270041 0 0.560041 0 0.920041V19.36C0 19.72 0.29 20.01 0.65 20.01C1.01 20.01 1.3 19.72 1.3 19.36V12.16C2.08 12.56 2.85 12.73 3.62 12.73C5.12 12.73 6.59 12.13 7.95 11.57C10.28 10.61 12.3 9.79004 14.35 11.47C14.54 11.63 14.81 11.66 15.04 11.56C15.27 11.45 15.41 11.22 15.41 10.97V1.77004C15.41 1.58004 15.32 1.39004 15.17 1.27004L15.18 1.26004Z" fill="currentColor"/>
  </g>
</svg>
