<svg width="24" height="24" viewBox="0 0 24 24" fill="none" xmlns="http://www.w3.org/2000/svg">
  <g transform="translate(1.488 1.5096)">
    <g id="ic/chatting/fill">
    <path id="Vector" d="M18.4209 17.8508C18.3909 17.6008 18.4709 17.3508 18.6409 17.1408C20.4209 14.9608 21.2409 12.2008 20.9509 9.37081C20.4409 4.49081 16.3709 0.480811 11.4809 0.0408109C8.51095 -0.219189 5.55095 0.770811 3.37095 2.79081C1.19095 4.81081 -0.0390539 7.67081 0.000946135 10.6408C0.0709461 16.1508 4.61095 20.7908 10.1109 20.9908C10.2409 20.9908 10.3709 20.9908 10.5009 20.9908C11.8309 20.9908 13.1109 20.7508 14.3409 20.2708C14.6009 20.1708 14.9909 20.0808 15.4109 20.2108L17.4609 20.8808C17.7709 20.9808 18.1009 20.9208 18.3509 20.7108C18.6009 20.5008 18.7209 20.1908 18.6809 19.8708L18.4209 17.8508ZM7.02095 11.5008C6.44095 11.5008 5.97095 11.0308 5.97095 10.4508C5.97095 9.87081 6.44095 9.40081 7.02095 9.40081C7.60095 9.40081 8.07095 9.87081 8.07095 10.4508C8.07095 11.0308 7.60095 11.5008 7.02095 11.5008ZM10.6109 11.5008C10.0309 11.5008 9.56095 11.0308 9.56095 10.4508C9.56095 9.87081 10.0309 9.40081 10.6109 9.40081C11.1909 9.40081 11.6609 9.87081 11.6609 10.4508C11.6609 11.0308 11.1909 11.5008 10.6109 11.5008ZM14.2009 11.5008C13.6209 11.5008 13.1509 11.0308 13.1509 10.4508C13.1509 9.87081 13.6209 9.40081 14.2009 9.40081C14.7809 9.40081 15.2509 9.87081 15.2509 10.4508C15.2509 11.0308 14.7809 11.5008 14.2009 11.5008Z" fill="currentColor"/>
    </g>
  </g>
</svg>
