<svg width="24" height="24" viewBox="0 0 24 24" fill="none" xmlns="http://www.w3.org/2000/svg">
  <g transform="translate(3.6504 2.1504)">
    <g id="ic_login">
    <path id="Union" d="M9.84961 0C11.4236 0 12.6992 1.2756 12.6992 2.84961V3.34961C12.6992 3.81905 12.3191 4.19922 11.8496 4.19922C11.3802 4.19922 11 3.81905 11 3.34961V2.84961C11 2.21448 10.4847 1.69922 9.84961 1.69922H2.84961C2.21448 1.69922 1.69922 2.21448 1.69922 2.84961V16.8496C1.69922 17.4847 2.21448 18 2.84961 18H9.84961C10.4847 18 11 17.4847 11 16.8496V16.3496C11 15.8802 11.3802 15.5 11.8496 15.5C12.3191 15.5 12.6992 15.8802 12.6992 16.3496V16.8496C12.6992 18.4236 11.4236 19.6992 9.84961 19.6992H2.84961C1.2756 19.6992 0 18.4236 0 16.8496V2.84961C0 1.2756 1.2756 0 2.84961 0H9.84961ZM8.24707 6.25C8.57817 5.9173 9.11645 5.91601 9.44922 6.24707C9.78193 6.57816 9.78319 7.11645 9.45215 7.44922L7.90918 9H15.8496C16.3191 9 16.6992 9.38017 16.6992 9.84961C16.6992 10.3191 16.3191 10.6992 15.8496 10.6992H7.89453L9.44922 12.2471C9.78193 12.5782 9.78319 13.1164 9.45215 13.4492C9.12105 13.7819 8.58277 13.7832 8.25 13.4521L5.25 10.4678C5.09019 10.3088 5.00058 10.0926 5 9.86719V9.84961C5 9.57026 5.13483 9.3228 5.34277 9.16797L8.24707 6.25Z" fill="currentColor"/>
    </g>
  </g>
</svg>
