<svg width="24" height="24" viewBox="0 0 24 24" fill="none" xmlns="http://www.w3.org/2000/svg">
  <g transform="translate(2 2)">
    <g id="ic/circlewarning/stroke">
    <path id="Ellipse 2 (Stroke)" d="M18.2998 10C18.2998 5.41604 14.584 1.7002 10 1.7002C5.41604 1.7002 1.7002 5.41604 1.7002 10C1.7002 14.584 5.41604 18.2998 10 18.2998V20C4.47715 20 0 15.5228 0 10C0 4.47715 4.47715 0 10 0C15.5228 0 20 4.47715 20 10C20 15.5228 15.5228 20 10 20V18.2998C14.584 18.2998 18.2998 14.584 18.2998 10Z" fill="currentColor"/>
    <path id="Rectangle 5" d="M8.70204 5.80446C8.66577 5.06515 9.2554 4.44586 9.9956 4.44586C10.7391 4.44586 11.33 5.07047 11.2887 5.81283L10.987 11.2428C10.9572 11.7783 10.5143 12.1973 9.97797 12.1973C9.43909 12.1973 8.99501 11.7745 8.96859 11.2362L8.70204 5.80446Z" fill="currentColor"/>
    <path id="Rectangle 6" d="M8.80005 14.2772C8.80005 13.6145 9.33731 13.0772 10 13.0772V13.0772C10.6628 13.0772 11.2 13.6145 11.2 14.2772V14.2772C11.2 14.94 10.6628 15.4772 10 15.4772V15.4772C9.33731 15.4772 8.80005 14.94 8.80005 14.2772V14.2772Z" fill="currentColor"/>
    </g>
  </g>
</svg>
