<svg width="24" height="24" viewBox="0 0 24 24" fill="none" xmlns="http://www.w3.org/2000/svg">
  <g transform="translate(1.7496 2.8008)">
    <g id="ic_community_stroke">
    <path id="Union" d="M14.9902 0C18.0392 0 20.5107 2.47152 20.5107 5.52051V11.1104C20.5107 14.1593 18.0392 16.6309 14.9902 16.6309H12.3184L12.2959 16.6709L12.293 16.6758L11.3428 18.3164L11.3379 18.3252C10.8821 19.0845 9.76403 19.1098 9.30762 18.3154L8.3584 16.6758L8.35547 16.6709L8.33301 16.6309H5.52051C2.47152 16.6309 0 14.1593 0 11.1104V5.52051C0 2.47152 2.47152 0 5.52051 0H14.9902ZM5.52051 1.30078C3.18949 1.30078 1.30078 3.18949 1.30078 5.52051V11.1104C1.30078 13.4414 3.18949 15.3301 5.52051 15.3301H9.08887L9.48242 16.0244L10.3252 17.4795L11.168 16.0244L11.5615 15.3301H14.9902C17.3212 15.3301 19.21 13.4414 19.21 11.1104V5.52051C19.21 3.18949 17.3212 1.30078 14.9902 1.30078H5.52051ZM12.8604 9.20996C13.2192 9.21009 13.5107 9.50147 13.5107 9.86035C13.5107 10.2193 13.2192 10.5106 12.8604 10.5107H7.64062C7.28164 10.5107 6.99023 10.2193 6.99023 9.86035C6.99026 9.50138 7.28165 9.20996 7.64062 9.20996H12.8604ZM13.9512 6.03027C14.3098 6.03072 14.6006 6.32195 14.6006 6.68066C14.6004 7.03925 14.3097 7.33061 13.9512 7.33105H6.55078C6.19189 7.33105 5.90054 7.03952 5.90039 6.68066C5.90039 6.32168 6.1918 6.03027 6.55078 6.03027H13.9512Z" fill="currentColor"/>
    </g>
  </g>
</svg>
