<svg width="24" height="24" viewBox="0 0 24 24" fill="none" xmlns="http://www.w3.org/2000/svg">
  <g transform="translate(2.15 5)">
    <g id="ic_filter">
    <path id="Union" d="M14.8496 8C16.2112 8 17.359 8.90759 17.7256 10.1504H18.8496C19.3191 10.1504 19.6992 10.5306 19.6992 11C19.6992 11.4694 19.3191 11.8496 18.8496 11.8496H17.7256C17.359 13.0924 16.2112 14 14.8496 14C13.488 14 12.3402 13.0924 11.9736 11.8496H0.849609C0.380167 11.8496 -4.61699e-08 11.4694 0 11C4.61699e-08 10.5306 0.380167 10.1504 0.849609 10.1504H11.9736C12.3402 8.90759 13.488 8 14.8496 8ZM14.8496 9.7002C14.1316 9.7002 13.5498 10.282 13.5498 11C13.5498 11.718 14.1316 12.2998 14.8496 12.2998C15.5676 12.2998 16.1494 11.718 16.1494 11C16.1494 10.282 15.5676 9.7002 14.8496 9.7002Z" fill="currentColor"/>
    <path id="Union_2" d="M4.84961 0C6.21432 0 7.36376 0.911955 7.72754 2.15918C7.7674 2.15345 7.80815 2.15039 7.84961 2.15039H18.8496C19.3191 2.15039 19.6992 2.53056 19.6992 3C19.6992 3.46944 19.3191 3.84961 18.8496 3.84961H7.84961C7.8081 3.84961 7.76745 3.84559 7.72754 3.83984C7.36405 5.08753 6.21465 6 4.84961 6C3.48805 6 2.3402 5.09241 1.97363 3.84961H0.849609C0.380167 3.84961 -4.61699e-08 3.46944 0 3C4.61699e-08 2.53056 0.380167 2.15039 0.849609 2.15039H1.97363C2.3402 0.907593 3.48805 0 4.84961 0ZM4.84961 1.7002C4.13164 1.7002 3.5498 2.28203 3.5498 3C3.5498 3.71797 4.13164 4.2998 4.84961 4.2998C5.56758 4.2998 6.14941 3.71797 6.14941 3C6.14941 2.28203 5.56758 1.7002 4.84961 1.7002Z" fill="currentColor"/>
    </g>
  </g>
</svg>
