<svg width="24" height="24" viewBox="0 0 24 24" fill="none" xmlns="http://www.w3.org/2000/svg">
  <g transform="translate(2 4.4112)">
    <g id="ic_people_stroke">
    <path id="Vector" d="M5.68913 4.23355C6.4031 4.23355 6.98634 4.81679 6.98634 5.53076C6.98634 6.24473 6.4031 6.82798 5.68913 6.82798C4.97516 6.82798 4.39191 6.24473 4.39191 5.53076C4.39191 4.81679 4.97516 4.23355 5.68913 4.23355ZM5.68913 2.52404C4.0299 2.52404 2.6824 3.87153 2.6824 5.53076C2.6824 7.18999 4.0299 8.53749 5.68913 8.53749C7.34836 8.53749 8.69585 7.18999 8.69585 5.53076C8.69585 3.87153 7.34836 2.52404 5.68913 2.52404Z" fill="currentColor"/>
    <path id="Vector_2" d="M7.02657 14.0079C6.87573 13.7062 6.80534 13.3744 6.84556 13.0124C6.80534 13.3643 6.87573 13.7062 7.02657 14.0079Z" fill="currentColor"/>
    <path id="Vector_3" d="M7.30823 14.4303C7.75069 14.9532 8.46467 15.285 9.22892 15.285C8.45461 15.285 7.75069 14.9532 7.30823 14.4303Z" fill="currentColor"/>
    <path id="Vector_4" d="M19.8581 12.4794C18.8022 9.89504 16.3184 8.07492 13.4223 8.07492C11.6525 8.07492 10.0435 8.75872 8.81669 9.87493C7.91166 9.32186 6.86584 8.99001 5.73957 8.99001C4.16079 8.99001 2.72279 9.61348 1.64681 10.6291C0.99317 11.2425 0.480317 11.9867 0.128359 12.8414C0.0579674 13.0023 0.0277997 13.1632 0.00768778 13.3141C-0.02248 13.6258 0.0378557 13.9174 0.158527 14.1789C0.218863 14.3096 0.309366 14.4303 0.39987 14.5509C0.781995 15.0035 1.40546 15.2951 2.07921 15.2951H17.6056C18.3799 15.2951 19.0838 14.9632 19.5263 14.4403C19.6369 14.3096 19.7274 14.1688 19.8078 14.018C19.9587 13.7163 20.0291 13.3845 19.9888 13.0224C19.9687 12.8414 19.9285 12.6604 19.8481 12.4794H19.8581ZM2.13955 13.5755H2.08927C1.93843 13.5755 1.8077 13.5152 1.72725 13.4448C1.97865 12.8515 2.35072 12.3085 2.82335 11.866C3.62783 11.1118 4.66359 10.6895 5.74963 10.6895C6.44349 10.6895 7.09713 10.8604 7.69043 11.1721C7.41892 11.5744 7.18763 12.0068 6.99657 12.4694C6.92617 12.6504 6.87589 12.8314 6.85578 13.0124C6.83567 13.2034 6.85578 13.3945 6.88595 13.5755H2.13955ZM18.2894 13.2537C18.2894 13.2537 18.2592 13.294 18.2391 13.3241C18.1385 13.4448 17.9173 13.5755 17.6156 13.5755H9.23904C8.93736 13.5755 8.71613 13.4347 8.61557 13.3241C8.59546 13.304 8.5854 13.2738 8.57535 13.2537C8.56529 13.2236 8.56529 13.2135 8.56529 13.2034C8.56529 13.1934 8.56529 13.1632 8.58541 13.123C8.70608 12.8213 8.86697 12.5297 9.03792 12.2582C9.28932 11.866 9.57089 11.504 9.91279 11.1923C9.99324 11.1118 10.0938 11.0515 10.1843 10.9811C11.1094 10.2168 12.2458 9.78443 13.4424 9.78443C15.5542 9.78443 17.4648 11.1018 18.2894 13.123C18.3095 13.1632 18.3095 13.1833 18.3095 13.2034C18.3095 13.2135 18.3095 13.2236 18.2994 13.2537H18.2894Z" fill="currentColor"/>
    <path id="Vector_5" d="M13.4224 1.70951C14.4078 1.70951 15.2023 2.50393 15.2023 3.48941C15.2023 4.47489 14.4078 5.26931 13.4224 5.26931C12.4369 5.26931 11.6425 4.47489 11.6425 3.48941C11.6425 2.50393 12.4369 1.70951 13.4224 1.70951ZM13.4224 0C11.4916 0 9.93294 1.55867 9.93294 3.48941C9.93294 5.42015 11.4916 6.97882 13.4224 6.97882C15.3531 6.97882 16.9118 5.42015 16.9118 3.48941C16.9118 1.55867 15.3531 0 13.4224 0Z" fill="currentColor"/>
    </g>
  </g>
</svg>
