<svg width="24" height="24" viewBox="0 0 24 24" fill="none" xmlns="http://www.w3.org/2000/svg">
  <g transform="translate(1.7496 2.8008)">
    <path id="ic_community_fill" d="M14.9902 0C18.0391 0.000197899 20.5107 2.47164 20.5107 5.52051V11.1104C20.5106 14.1591 18.039 16.6307 14.9902 16.6309H12.3184L12.2959 16.6709L12.293 16.6758L11.3428 18.3164L11.3379 18.3252C10.8822 19.0844 9.76414 19.1095 9.30762 18.3154L8.3584 16.6758L8.35547 16.6709L8.33301 16.6309H5.52051C2.47159 16.6309 0.000105528 14.1592 0 11.1104V5.52051C0 2.47152 2.47152 0 5.52051 0H14.9902ZM7.63965 9.20996C7.28083 9.21016 6.98926 9.50149 6.98926 9.86035C6.98934 10.2191 7.28088 10.5105 7.63965 10.5107H12.8594C13.2183 10.5107 13.5097 10.2193 13.5098 9.86035C13.5098 9.50137 13.2184 9.20996 12.8594 9.20996H7.63965ZM6.5498 6.03027C6.1909 6.03037 5.89941 6.32174 5.89941 6.68066C5.89967 7.03937 6.19106 7.33096 6.5498 7.33105H13.9502C14.3088 7.33084 14.5994 7.0393 14.5996 6.68066C14.5996 6.32181 14.309 6.03048 13.9502 6.03027H6.5498Z" fill="currentColor"/>
  </g>
</svg>
