<svg width="24" height="24" viewBox="0 0 24 24" fill="none" xmlns="http://www.w3.org/2000/svg">
  <g transform="translate(1.7208 1.7496)">
    <g id="ic_chatting_stroke">
<path id="Union" d="M8.26074 0C12.2306 0.000159042 15.5887 2.69244 16.3555 6.30859C16.4545 6.34149 16.5453 6.37477 16.625 6.40723C16.759 6.46186 16.8711 6.51457 16.9502 6.55469C16.9895 6.57462 17.0218 6.59184 17.0449 6.60449C17.0562 6.61067 17.0662 6.61614 17.0732 6.62012C19.3596 7.73357 20.95 10.0098 20.9502 12.6504C20.9501 14.6158 20.0743 16.3827 18.6826 17.6133L18.8477 19.3896L18.8496 19.4199V19.4502C18.8495 20.2181 18.0558 20.811 17.2979 20.4453L17.2764 20.4355L17.2559 20.4238L15.3867 19.3467C14.8388 19.4464 14.3172 19.4199 13.8496 19.4199C11.4981 19.4197 9.40876 18.3262 8.11621 16.6279L8.11426 16.626C8.11329 16.6246 8.11199 16.6222 8.11035 16.6201C8.1065 16.6151 8.10051 16.6075 8.09375 16.5986C8.07968 16.5802 8.05909 16.5528 8.03418 16.5195C7.9841 16.4527 7.91323 16.3578 7.83203 16.2441C7.73432 16.1073 7.61968 15.9395 7.50195 15.7588C7.1548 15.7534 6.79817 15.735 6.42773 15.665L4.18457 16.9541L4.16113 16.9668L4.13672 16.9785C3.33002 17.3578 2.48047 16.7267 2.48047 15.9004V15.8711L2.4834 15.8418L2.67871 13.6826C1.04119 12.2519 0.000140889 10.1823 0 7.88086C0 3.50092 3.73352 0 8.26074 0ZM16.5205 7.88086C16.5203 11.9993 13.2195 15.3387 9.06152 15.7227C9.066 15.7287 9.07005 15.7347 9.07422 15.7402C9.09661 15.7701 9.11505 15.794 9.12695 15.8096C9.13264 15.817 9.13682 15.8234 9.13965 15.8271C9.14081 15.8287 9.14197 15.8302 9.14258 15.8311L9.14355 15.832L9.14746 15.8369C10.1949 17.2156 11.9039 18.1199 13.8496 18.1201C14.4013 18.1201 14.7635 18.1385 15.1348 18.0723L15.2949 18.0391C15.4712 17.9949 15.6195 18.0316 15.6475 18.0381C15.6804 18.0457 15.7084 18.0542 15.7275 18.0605C15.7371 18.0637 15.7459 18.0667 15.7529 18.0693C15.7564 18.0706 15.7607 18.0721 15.7637 18.0732L15.7695 18.0762H15.7715L15.8145 18.0938L15.8545 18.1172L17.5117 19.0703L17.3633 17.46V17.459C17.332 17.1822 17.4613 16.9392 17.6406 16.7959V16.7949C18.8789 15.7898 19.6503 14.301 19.6504 12.6504C19.6502 10.5581 18.3923 8.71462 16.5176 7.7959C16.5179 7.82419 16.5205 7.85249 16.5205 7.88086ZM8.26074 1.30078C4.38797 1.30078 1.30078 4.2808 1.30078 7.88086C1.30093 9.86083 2.23104 11.6506 3.71094 12.8564L3.70996 12.8574C3.88694 13.0002 4.02947 13.2492 3.99707 13.5381L3.99805 13.5391L3.80273 15.6738L5.95703 14.4365L6.0127 14.4043L6.0752 14.3838L6.07617 14.3828H6.07812C6.07923 14.3825 6.08078 14.3822 6.08203 14.3818C6.08454 14.381 6.0877 14.3799 6.09082 14.3789C6.09719 14.3769 6.10535 14.3746 6.11426 14.3721C6.13164 14.3672 6.15669 14.3605 6.18652 14.3545C6.21474 14.3488 6.25938 14.3414 6.3125 14.3389C6.34935 14.3371 6.42647 14.3359 6.51953 14.3584H6.52051C7.05639 14.486 7.5275 14.46 8.26074 14.46C12.1332 14.4598 15.2204 11.4806 15.2207 7.88086C15.2207 4.28091 12.1334 1.30096 8.26074 1.30078ZM2.91016 13.8809L2.90039 13.8721L2.89746 13.8701L2.91016 13.8809ZM5.63086 7.20996C6.0606 7.21021 6.41007 7.56046 6.41016 7.99023C6.41016 8.42008 6.06065 8.77026 5.63086 8.77051C5.20086 8.77051 4.85059 8.42023 4.85059 7.99023C4.85067 7.5603 5.20091 7.20996 5.63086 7.20996ZM8.29004 7.20996C8.71999 7.20996 9.07023 7.5603 9.07031 7.99023C9.07031 8.42023 8.72004 8.77051 8.29004 8.77051C7.86019 8.77032 7.51074 8.42012 7.51074 7.99023C7.51083 7.56042 7.86024 7.21014 8.29004 7.20996ZM10.9502 7.20996C11.3801 7.20996 11.7304 7.5603 11.7305 7.99023C11.7305 8.42023 11.3802 8.77051 10.9502 8.77051C10.5203 8.77041 10.1699 8.42017 10.1699 7.99023C10.17 7.56037 10.5203 7.21006 10.9502 7.20996Z" fill="currentColor"/>
</g>
  </g>
</svg>
