<svg width="24" height="24" viewBox="0 0 24 24" fill="none" xmlns="http://www.w3.org/2000/svg">
  <g transform="translate(2 4.4112)">
    <g id="ic_people_fill">
    <path id="Vector" d="M5.67405 8.54658C7.33639 8.54658 8.68398 7.19899 8.68398 5.53665C8.68398 3.87431 7.33639 2.52672 5.67405 2.52672C4.01171 2.52672 2.66412 3.87431 2.66412 5.53665C2.66412 7.19899 4.01171 8.54658 5.67405 8.54658Z" fill="currentColor"/>
    <path id="Vector_2" d="M7.01292 14.0228C6.86192 13.7208 6.79145 13.3886 6.83172 13.0262C6.79145 13.3786 6.86192 13.7208 7.01292 14.0228Z" fill="currentColor"/>
    <path id="Vector_3" d="M7.29488 14.4456C7.73781 14.9691 8.45254 15.3013 9.21761 15.3013C8.44248 15.3013 7.73781 14.9691 7.29488 14.4456Z" fill="currentColor"/>
    <path id="Vector_4" d="M5.90567 12.0498C6.31841 11.0431 6.91234 10.1774 7.62707 9.43245C7.013 9.21098 6.35867 9.08011 5.67414 9.08011C3.17761 9.08011 1.04348 10.6505 0.127417 12.8752C-0.385982 14.1436 0.731416 15.3013 2.06021 15.3013H6.53987C6.41907 15.1704 6.28821 15.0496 6.18754 14.8986C5.61374 14.043 5.51307 13.0061 5.90567 12.0498Z" fill="currentColor"/>
    <path id="Vector_5" d="M19.858 12.4927C18.801 9.90558 16.3145 8.08352 13.4153 8.08352C11.6033 8.08352 9.96245 8.79825 8.71418 9.95592C7.96925 10.6505 7.37532 11.5162 6.97265 12.4927C6.90219 12.6739 6.85185 12.8551 6.83172 13.0363C6.79145 13.3886 6.86192 13.7309 7.01292 14.0329C7.08338 14.1839 7.18405 14.3248 7.29478 14.4557C7.73772 14.9792 8.45245 15.3114 9.21751 15.3114H17.603C18.3782 15.3114 19.0828 14.9792 19.5258 14.4557C19.6365 14.3248 19.7271 14.1839 19.8076 14.0329C19.9586 13.7309 20.0291 13.3987 19.9888 13.0363C19.9687 12.8551 19.9284 12.6739 19.8479 12.4927H19.858Z" fill="currentColor"/>
    <path id="Vector_6" d="M13.4155 6.98626C15.3447 6.98626 16.9086 5.42233 16.9086 3.49313C16.9086 1.56393 15.3447 0 13.4155 0C11.4863 0 9.92238 1.56393 9.92238 3.49313C9.92238 5.42233 11.4863 6.98626 13.4155 6.98626Z" fill="currentColor"/>
    </g>
  </g>
</svg>
