<svg width="24" height="24" viewBox="0 0 24 24" fill="none" xmlns="http://www.w3.org/2000/svg">
  <g transform="translate(2.15 1.5)">
    <g id="ic_trash_storke">
    <path id="Union" d="M12.127 0.00878906C13.266 0.0958612 14.2652 0.826006 14.6885 1.90137L15.1807 3.15039H18.8496C19.3191 3.15039 19.6992 3.53056 19.6992 4C19.6992 4.46944 19.3191 4.84961 18.8496 4.84961H17.4707L17.3828 16.5342L17.376 16.7646C17.2386 19.1288 15.2775 21 12.8828 21H6.88379L6.65039 20.9941C4.33774 20.8762 2.48823 19.0127 2.3877 16.6992L2.38379 16.4668L2.4707 4.84961H0.849609C0.380167 4.84961 0 4.46944 0 4C0 3.53056 0.380167 3.15039 0.849609 3.15039H4.58203L5.15918 1.8125C5.63335 0.712623 6.71633 1.04943e-05 7.91406 0H11.8975L12.127 0.00878906ZM4.08398 16.4795C4.07259 18.0338 5.32935 19.3008 6.88379 19.3008H12.8828C14.4209 19.3008 15.6718 18.0594 15.6836 16.5215L15.7705 4.85156H4.1709L4.08398 16.4795ZM7.84961 7.65039C8.31905 7.65039 8.69922 8.03056 8.69922 8.5V15.5C8.69922 15.9694 8.31905 16.3496 7.84961 16.3496C7.38017 16.3496 7 15.9694 7 15.5V8.5C7 8.03056 7.38017 7.65039 7.84961 7.65039ZM11.8496 7.65039C12.3191 7.65039 12.6992 8.03056 12.6992 8.5V15.5C12.6992 15.9694 12.3191 16.3496 11.8496 16.3496C11.3802 16.3496 11 15.9694 11 15.5V8.5C11 8.03056 11.3802 7.65039 11.8496 7.65039ZM7.91406 1.7002C7.3951 1.70021 6.92621 2.00882 6.7207 2.48535L6.43359 3.15039H13.3545L13.1074 2.52344C12.9117 2.02653 12.4315 1.70024 11.8975 1.7002H7.91406Z" fill="currentColor"/>
    </g>
  </g>
</svg>
