<svg width="24" height="24" viewBox="0 0 24 24" fill="none" xmlns="http://www.w3.org/2000/svg">
  <g transform="translate(3.6504 2.1504)">
    <g id="ic_out">
    <path id="Union" d="M9.84961 0C11.4236 0 12.6992 1.2756 12.6992 2.84961V3.34961C12.6992 3.81905 12.3191 4.19922 11.8496 4.19922C11.3802 4.19922 11 3.81905 11 3.34961V2.84961C11 2.21448 10.4847 1.69922 9.84961 1.69922H2.84961C2.21448 1.69922 1.69922 2.21448 1.69922 2.84961V16.8496C1.69922 17.4847 2.21448 18 2.84961 18H9.84961C10.4847 18 11 17.4847 11 16.8496V16.3496C11 15.8802 11.3802 15.5 11.8496 15.5C12.3191 15.5 12.6992 15.8802 12.6992 16.3496V16.8496C12.6992 18.4236 11.4236 19.6992 9.84961 19.6992H2.84961C1.2756 19.6992 0 18.4236 0 16.8496V2.84961C0 1.2756 1.2756 0 2.84961 0H9.84961ZM13.25 6.24707C13.5828 5.91601 14.121 5.9173 14.4521 6.25L17.3555 9.16797C17.5638 9.32277 17.6992 9.56998 17.6992 9.84961C17.6992 9.85255 17.6983 9.85547 17.6982 9.8584C17.6983 9.86133 17.6992 9.86425 17.6992 9.86719C17.6986 10.0926 17.609 10.3088 17.4492 10.4678L14.4492 13.4521C14.1164 13.7832 13.5782 13.7819 13.2471 13.4492C12.916 13.1164 12.9173 12.5782 13.25 12.2471L14.8047 10.6992H6.84961C6.38017 10.6992 6 10.3191 6 9.84961C6 9.38017 6.38017 9 6.84961 9H14.79L13.2471 7.44922C12.916 7.11645 12.9173 6.57816 13.25 6.24707Z" fill="currentColor"/>
    </g>
  </g>
</svg>
