<svg width="24" height="24" viewBox="0 0 24 24" fill="none" xmlns="http://www.w3.org/2000/svg">
  <g transform="translate(0.6504 0.8496)">
    <g id="ic_export">
    <path id="Union" d="M11.3701 4.85938C15.3889 4.86185 18.6396 8.12514 18.6396 12.1338V16.7939H18.7568C19.7379 16.794 20.5379 17.5942 20.5381 18.5752V20.0156C20.5379 20.9966 19.7379 21.7968 18.7568 21.7969H4.00684C3.02573 21.7969 2.22576 20.9967 2.22559 20.0156V18.5752C2.22574 17.5941 3.02572 16.7939 4.00684 16.7939H4.10254V12.1338C4.10254 8.11498 7.36272 4.86266 11.3701 4.85938ZM4.03809 20.0264L18.7568 19.9941L18.7246 18.6182H18.6396V18.6816H4.10254V18.6182H4.00684L4.03809 20.0264ZM11.3867 6.67285C8.37915 6.67293 5.92578 9.12621 5.92578 12.1338V16.7939H16.8369V12.1338C16.8369 9.22006 14.5346 6.82629 11.6562 6.67969L11.3867 6.67285ZM10.0723 8.40527C10.5351 8.32727 10.9736 8.63884 11.0518 9.10156C11.1298 9.56426 10.818 10.0017 10.3555 10.0801L10.3564 10.0811H10.3574H10.3584H10.3574C10.3536 10.0821 10.3488 10.0835 10.3428 10.085C10.3165 10.0916 10.2709 10.104 10.2129 10.125C10.0954 10.1676 9.93491 10.2417 9.77051 10.3613C9.46353 10.5848 9.09293 11.0016 9.01172 11.8418C8.96657 12.309 8.55123 12.6516 8.08398 12.6064C7.61693 12.5612 7.27531 12.1458 7.32031 11.6787C7.45244 10.3113 8.10598 9.46941 8.76953 8.98633C9.09021 8.75289 9.40168 8.61078 9.63477 8.52637C9.7518 8.484 9.85196 8.45541 9.92676 8.43652C9.96414 8.42709 9.99601 8.42013 10.0205 8.41504C10.0326 8.41253 10.0431 8.4108 10.0518 8.40918C10.0561 8.40836 10.06 8.40686 10.0635 8.40625L10.0684 8.40527H10.0723ZM2.375 10.5059C2.84433 10.506 3.22461 10.8861 3.22461 11.3555C3.22438 11.8246 2.84419 12.2049 2.375 12.2051H0.849609C0.38031 12.2051 0.00023058 11.8247 0 11.3555C0 10.886 0.380167 10.5059 0.849609 10.5059H2.375ZM21.8496 10.4844C22.3189 10.4845 22.6992 10.8646 22.6992 11.334C22.6991 11.8032 22.3188 12.1835 21.8496 12.1836H20.3242C19.855 12.1835 19.4748 11.8032 19.4746 11.334C19.4746 10.8646 19.8549 10.4845 20.3242 10.4844H21.8496ZM3.30957 3.33105C3.6414 2.99922 4.17877 2.99944 4.51074 3.33105L5.58887 4.4082C5.92038 4.74018 5.92067 5.27855 5.58887 5.61035C5.25706 5.94206 4.71867 5.94183 4.38672 5.61035L3.30957 4.53223C2.97799 4.20029 2.97783 3.6629 3.30957 3.33105ZM18.167 3.30957C18.4989 2.97797 19.0373 2.97784 19.3691 3.30957C19.7004 3.6413 19.7002 4.17889 19.3691 4.51074L18.291 5.58887C17.9592 5.9202 17.4217 5.9202 17.0898 5.58887C16.758 5.25691 16.7579 4.71862 17.0898 4.38672L18.167 3.30957ZM11.334 0C11.8033 0.000197651 12.1836 0.380289 12.1836 0.849609V2.36426C12.1835 2.8335 11.8032 3.21367 11.334 3.21387C10.8646 3.21387 10.4845 2.83362 10.4844 2.36426V0.849609C10.4844 0.380167 10.8645 0 11.334 0Z" fill="currentColor"/>
    </g>
  </g>
</svg>
