<svg width="24" height="24" viewBox="0 0 24 24" fill="none" xmlns="http://www.w3.org/2000/svg">
  <g transform="translate(2.1648 4.0008)">
    <g id="ic_eye">
    <path id="Union" d="M10.0841 0C14.869 0 18.8884 5.53731 20.0177 7.25098C20.2184 7.55575 20.2184 7.94425 20.0177 8.24902L19.7726 8.61328C18.3829 10.6336 14.5699 15.5 10.0841 15.5C5.29917 15.4999 1.27973 9.9626 0.150488 8.24902C-0.0501628 7.94428 -0.0501628 7.55572 0.150488 7.25098C1.27973 5.5374 5.29917 0.000108157 10.0841 0ZM10.0841 1.7002C8.3318 1.70025 6.53222 2.73636 4.89561 4.23633C3.54755 5.47187 2.48346 6.86334 1.86631 7.75C2.48346 8.63666 3.54755 10.0281 4.89561 11.2637C6.53222 12.7636 8.3318 13.7997 10.0841 13.7998C11.8364 13.7998 13.6359 12.7636 15.2726 11.2637C16.6204 10.0284 17.6837 8.6367 18.3009 7.75C17.6837 6.8633 16.6204 5.47164 15.2726 4.23633C13.6359 2.73635 11.8364 1.7002 10.0841 1.7002ZM10.0841 2.5C12.9836 2.5 15.3341 4.85051 15.3341 7.75C15.3341 10.6495 12.9836 13 10.0841 13C7.18464 12.9999 4.83408 10.6495 4.83408 7.75C4.83408 4.85055 7.18464 2.50007 10.0841 2.5ZM10.0841 4.2002C8.12353 4.20026 6.53428 5.78943 6.53428 7.75C6.53428 9.71057 8.12353 11.2997 10.0841 11.2998C12.0447 11.2998 13.6339 9.71061 13.6339 7.75C13.6339 5.78939 12.0447 4.2002 10.0841 4.2002Z" fill="currentColor"/>
    </g>
  </g>
</svg>
