<svg width="24" height="24" viewBox="0 0 24 24" fill="none" xmlns="http://www.w3.org/2000/svg">
  <g transform="translate(1.4 1)">
    <path id="Vector" d="M10.3834 7.66727V6.66727V7.66727ZM17.8834 11.01L18.8834 11.0111V11.01H17.8834ZM17.8834 10.9909H18.8834V10.9899L17.8834 10.9909ZM18.5952 9.22636L17.8768 8.53083L17.8759 8.53172L18.5952 9.22636ZM19.4489 8.34455L20.1674 9.04008L20.1685 9.03895L19.4489 8.34455ZM19.6152 6.99091L20.4818 6.49186L20.4812 6.49075L19.6152 6.99091ZM18.4716 5.01091L17.605 5.50994L17.6057 5.51107L18.4716 5.01091ZM17.2171 4.47818L17.4591 5.44845L17.4598 5.44827L17.2171 4.47818ZM16.0216 4.77636L15.7796 3.80609L15.7787 3.80631L16.0216 4.77636ZM14.1289 4.50636L14.6333 3.64291C14.6271 3.63927 14.6208 3.63569 14.6145 3.63219L14.1289 4.50636ZM14.1125 4.49727L13.61 5.36186C13.6156 5.36511 13.6213 5.36831 13.6269 5.37145L14.1125 4.49727ZM12.9571 3.01182L13.9187 2.73754L13.9182 2.73574L12.9571 3.01182ZM12.6152 1.82182L11.6535 2.09571L11.6541 2.0979L12.6152 1.82182ZM11.5271 1L11.5274 0H11.5271V1ZM8.15161 1.82182L9.1127 2.09807L9.11354 2.09511L8.15161 1.82182ZM7.78343 3.10273L6.82233 2.82647L6.82106 2.83097L7.78343 3.10273ZM6.72525 4.45636L7.21332 5.32921L7.22127 5.32467L6.72525 4.45636ZM6.56706 4.54909L7.07877 5.40836L7.09024 5.40132L6.56706 4.54909ZM4.84434 4.80182L5.08766 3.83187L5.08671 3.83164L4.84434 4.80182ZM3.54888 4.47818L3.30633 5.44832L3.30651 5.44836L3.54888 4.47818ZM2.29434 5.01L1.42846 4.50974L1.42813 4.51031L2.29434 5.01ZM1.15161 6.99091L0.285405 6.49122L0.285346 6.49132L1.15161 6.99091ZM1.31797 8.34455L0.598461 9.03903L0.59948 9.04008L1.31797 8.34455ZM2.17161 9.22636L2.89104 8.53179L2.8901 8.53083L2.17161 9.22636ZM2.17161 12.7745L2.89037 13.4698L2.89104 13.4691L2.17161 12.7745ZM1.71434 13.2473L0.995579 12.552L0.995521 12.5521L1.71434 13.2473ZM1.43616 15.5036L0.570011 16.0034L0.570367 16.004L1.43616 15.5036ZM2.29525 16.99L3.16149 16.4904L3.16104 16.4896L2.29525 16.99ZM3.54979 17.5227L3.30742 16.5525L3.30726 16.5526L3.54979 17.5227ZM4.84525 17.1991L5.08762 18.1693L5.08857 18.169L4.84525 17.1991ZM6.56797 17.4518L7.09129 16.5996L7.07963 16.5926L6.56797 17.4518ZM6.72616 17.5445L7.21867 16.6742L7.21431 16.6718L6.72616 17.5445ZM7.78434 18.8982L6.82281 19.1729L6.82307 19.1738L7.78434 18.8982ZM8.15161 20.1791L9.11354 19.9058L9.11288 19.9035L8.15161 20.1791ZM12.6152 20.1791L11.654 19.9035L11.6533 19.9058L12.6152 20.1791ZM12.9825 18.8982L13.9438 19.1738L13.944 19.1729L12.9825 18.8982ZM14.0407 17.5445L13.5525 16.6718L13.5482 16.6742L14.0407 17.5445ZM14.1989 17.4518L13.6872 16.5926L13.6756 16.5996L14.1989 17.4518ZM15.9216 17.1991L15.6783 18.169L15.6792 18.1693L15.9216 17.1991ZM17.2171 17.5227L17.4596 16.5526L17.4594 16.5525L17.2171 17.5227ZM18.4716 16.9909L19.3375 17.4912L19.3376 17.4909L18.4716 16.9909ZM19.6152 15.01L20.4813 15.51L20.4815 15.5096L19.6152 15.01ZM19.4489 13.6564L20.1684 12.9619L20.167 12.9604L19.4489 13.6564ZM18.5943 12.7745V11.7745C18.1927 11.7745 17.8301 12.0148 17.6735 12.3846C17.5169 12.7544 17.5967 13.1821 17.8762 13.4705L18.5943 12.7745ZM18.5952 12.7745V13.7745C18.9965 13.7745 19.3589 13.5347 19.5157 13.1653C19.6725 12.7959 19.5934 12.3686 19.3146 12.0799L18.5952 12.7745ZM9.10788 14.0799L9.49056 13.156C9.20748 13.0388 8.95027 12.8669 8.73362 12.6503L8.02651 13.3574L7.31941 14.0645C7.72178 14.4669 8.19947 14.786 8.72519 15.0038L9.10788 14.0799ZM8.02651 13.3574L8.73362 12.6503C8.51696 12.4336 8.3451 12.1764 8.22785 11.8933L7.30397 12.276L6.38009 12.6587C6.59785 13.1844 6.91703 13.6621 7.31941 14.0645L8.02651 13.3574ZM7.30397 12.276L8.22785 11.8933C8.1106 11.6103 8.05025 11.3069 8.05025 11.0005H7.05025H6.05025C6.05025 11.5695 6.16233 12.133 6.38009 12.6587L7.30397 12.276ZM7.05025 11.0005H8.05025C8.05025 10.6941 8.1106 10.3907 8.22785 10.1076L7.30397 9.7249L6.38009 9.34222C6.16233 9.86794 6.05025 10.4314 6.05025 11.0005H7.05025ZM7.30397 9.7249L8.22785 10.1076C8.3451 9.82451 8.51696 9.5673 8.73362 9.35065L8.02651 8.64354L7.31941 7.93643C6.91703 8.33881 6.59785 8.81649 6.38009 9.34222L7.30397 9.7249ZM8.02651 8.64354L8.73362 9.35065C8.95028 9.13399 9.20748 8.96213 9.49056 8.84488L9.10788 7.921L8.72519 6.99712C8.19947 7.21488 7.72178 7.53406 7.31941 7.93643L8.02651 8.64354ZM9.10788 7.921L9.49056 8.84488C9.77363 8.72762 10.077 8.66727 10.3834 8.66727V7.66727V6.66727C9.81439 6.66727 9.25092 6.77935 8.72519 6.99712L9.10788 7.921ZM10.3834 7.66727V8.66727C11.0022 8.66727 11.5957 8.91309 12.0332 9.35065L12.7403 8.64354L13.4475 7.93643C12.6348 7.1238 11.5327 6.66727 10.3834 6.66727V7.66727ZM12.7403 8.64354L12.0332 9.35065C12.4708 9.7882 12.7166 10.3817 12.7166 11.0005H13.7166H14.7166C14.7166 9.85122 14.2601 8.74906 13.4475 7.93643L12.7403 8.64354ZM13.7166 11.0005H12.7166C12.7166 11.6193 12.4708 12.2127 12.0332 12.6503L12.7403 13.3574L13.4475 14.0645C14.2601 13.2518 14.7166 12.1497 14.7166 11.0005H13.7166ZM12.7403 13.3574L12.0332 12.6503C11.5957 13.0878 11.0022 13.3336 10.3834 13.3336V14.3336V15.3336C11.5327 15.3336 12.6348 14.8771 13.4475 14.0645L12.7403 13.3574ZM10.3834 14.3336V13.3336C10.077 13.3336 9.77363 13.2733 9.49056 13.156L9.10788 14.0799L8.72519 15.0038C9.25092 15.2216 9.81439 15.3336 10.3834 15.3336V14.3336ZM17.8834 11.01H18.8834V10.9909H17.8834H16.8834V11.01H17.8834ZM17.8834 10.9909L18.8834 10.9899C18.883 10.5911 19.0376 10.2078 19.3146 9.92101L18.5952 9.22636L17.8759 8.53172C17.2383 9.19194 16.8825 10.0742 16.8834 10.992L17.8834 10.9909ZM18.5952 9.22636L19.3137 9.9219L20.1674 9.04008L19.4489 8.34455L18.7304 7.64901L17.8768 8.53083L18.5952 9.22636ZM19.4489 8.34455L20.1685 9.03895C20.8295 8.35396 20.9555 7.31441 20.4818 6.49186L19.6152 6.99091L18.7487 7.48996C18.7786 7.54196 18.7701 7.60786 18.7293 7.65014L19.4489 8.34455ZM19.6152 6.99091L20.4812 6.49075L19.3375 4.51075L18.4716 5.01091L17.6057 5.51107L18.7493 7.49107L19.6152 6.99091ZM18.4716 5.01091L19.3382 4.51188C19.1069 4.11027 18.751 3.79501 18.3245 3.61387L17.9336 4.53432L17.5427 5.45477C17.569 5.4659 17.5908 5.48527 17.605 5.50994L18.4716 5.01091ZM17.9336 4.53432L18.3245 3.61387C17.8979 3.43273 17.4239 3.3956 16.9743 3.50809L17.2171 4.47818L17.4598 5.44827C17.4874 5.44136 17.5165 5.44364 17.5427 5.45477L17.9336 4.53432ZM17.2171 4.47818L16.9751 3.50791L15.7796 3.80609L16.0216 4.77636L16.2636 5.74664L17.4591 5.44845L17.2171 4.47818ZM16.0216 4.77636L15.7787 3.80631C15.3902 3.90357 14.9791 3.84493 14.6333 3.64291L14.1289 4.50636L13.6245 5.36982C14.4215 5.83543 15.3691 5.97061 16.2645 5.74642L16.0216 4.77636ZM14.1289 4.50636L14.6145 3.63219L14.5981 3.6231L14.1125 4.49727L13.6269 5.37145L13.6433 5.38054L14.1289 4.50636ZM14.1125 4.49727L14.615 3.63268C14.2759 3.43559 14.0263 3.11475 13.9187 2.73754L12.9571 3.01182L11.9954 3.28609C12.2449 4.1608 12.8236 4.90481 13.61 5.36186L14.1125 4.49727ZM12.9571 3.01182L13.9182 2.73574L13.5764 1.54574L12.6152 1.82182L11.6541 2.0979L11.9959 3.2879L12.9571 3.01182ZM12.6152 1.82182L13.577 1.54792C13.4501 1.10218 13.1813 0.70995 12.8115 0.430637L12.2088 1.22863L11.6062 2.02663C11.629 2.0439 11.6456 2.06815 11.6535 2.09571L12.6152 1.82182ZM12.2088 1.22863L12.8115 0.430637C12.4416 0.151324 11.9908 0.000145435 11.5274 5.96046e-08L11.5271 1L11.5268 2C11.5554 2.00001 11.5833 2.00936 11.6062 2.02663L12.2088 1.22863ZM11.5271 1V0H9.23979V1V2H11.5271V1ZM9.23979 1V0C8.28914 0 7.45029 0.631257 7.18968 1.54852L8.15161 1.82182L9.11354 2.09511C9.1293 2.03965 9.18135 2 9.23979 2V1ZM8.15161 1.82182L7.19052 1.54557L6.82234 2.82647L7.78343 3.10273L8.74451 3.37898L9.1127 2.09807L8.15161 1.82182ZM7.78343 3.10273L6.82106 2.83097C6.73065 3.15115 6.51812 3.42303 6.22923 3.58805L6.72525 4.45636L7.22127 5.32467C7.96543 4.89958 8.51289 4.19925 8.74579 3.37448L7.78343 3.10273ZM6.72525 4.45636L6.23719 3.58355C6.172 3.62001 6.10755 3.65778 6.04389 3.69686L6.56706 4.54909L7.09024 5.40132C7.13076 5.37644 7.17179 5.35239 7.2133 5.32918L6.72525 4.45636ZM6.56706 4.54909L6.05541 3.6899C5.76427 3.86328 5.41633 3.91432 5.08766 3.83187L4.84434 4.80182L4.60102 5.77176C5.4425 5.98286 6.33333 5.85217 7.07872 5.40828L6.56706 4.54909ZM4.84434 4.80182L5.08671 3.83164L3.79126 3.508L3.54888 4.47818L3.30651 5.44836L4.60196 5.772L4.84434 4.80182ZM3.54888 4.47818L3.79144 3.50804C3.34222 3.39573 2.86864 3.43273 2.44232 3.61346L2.83261 4.53415L3.2229 5.45484C3.24927 5.44366 3.27855 5.44137 3.30633 5.44832L3.54888 4.47818ZM2.83261 4.53415L2.44232 3.61346C2.016 3.79418 1.66011 4.1088 1.42846 4.50974L2.29434 5.01L3.16021 5.51026C3.17454 5.48547 3.19654 5.46601 3.2229 5.45484L2.83261 4.53415ZM2.29434 5.01L1.42813 4.51031L0.285405 6.49122L1.15161 6.99091L2.01782 7.4906L3.16054 5.50969L2.29434 5.01ZM1.15161 6.99091L0.285346 6.49132C0.0540138 6.89245 -0.0405477 7.35794 0.0159365 7.81753L1.00847 7.69554L2.001 7.57356C1.99746 7.54477 2.00339 7.51562 2.01787 7.4905L1.15161 6.99091ZM1.00847 7.69554L0.0159365 7.81753C0.0724207 8.27712 0.276884 8.70586 0.598462 9.03903L1.31797 8.34455L2.03749 7.65007C2.01734 7.6292 2.00454 7.60234 2.001 7.57356L1.00847 7.69554ZM1.31797 8.34455L0.59948 9.04008L1.45312 9.9219L2.17161 9.22636L2.8901 8.53083L2.03647 7.64901L1.31797 8.34455ZM2.17161 9.22636L1.45219 9.92093C1.72953 10.2082 1.88434 10.5919 1.88434 10.99H2.88434H3.88434C3.88434 10.0735 3.52824 9.1918 2.89104 8.53179L2.17161 9.22636ZM2.88434 10.99H1.88434V11.01H2.88434H3.88434V10.99H2.88434ZM2.88434 11.01H1.88434C1.88434 11.4092 1.7294 11.7928 1.45219 12.08L2.17161 12.7745L2.89104 13.4691C3.52837 12.809 3.88434 11.9272 3.88434 11.01H2.88434ZM2.17161 12.7745L1.45285 12.0793L0.995579 12.552L1.71434 13.2473L2.4331 13.9425L2.89037 13.4698L2.17161 12.7745ZM1.71434 13.2473L0.995521 12.5521C0.559342 13.0031 0.281887 13.5838 0.205116 14.2065L1.1976 14.3289L2.19009 14.4513C2.2137 14.2598 2.29902 14.0812 2.43315 13.9425L1.71434 13.2473ZM1.1976 14.3289L0.205116 14.2065C0.128344 14.8292 0.256434 15.46 0.570011 16.0034L1.43616 15.5036L2.3023 15.0038C2.20587 14.8367 2.16648 14.6428 2.19009 14.4513L1.1976 14.3289ZM1.43616 15.5036L0.570367 16.004L1.42946 17.4904L2.29525 16.99L3.16104 16.4896L2.30194 15.0032L1.43616 15.5036ZM2.29525 16.99L1.429 17.4896C1.9045 18.314 2.8676 18.7241 3.79233 18.4929L3.54979 17.5227L3.30726 16.5526C3.25017 16.5669 3.19145 16.5423 3.16149 16.4904L2.29525 16.99ZM3.54979 17.5227L3.79217 18.4929L5.08762 18.1693L4.84525 17.1991L4.60287 16.2289L3.30742 16.5525L3.54979 17.5227ZM4.84525 17.1991L5.08857 18.169C5.41723 18.0866 5.76518 18.1376 6.05632 18.311L6.56797 17.4518L7.07963 16.5926C6.33424 16.1487 5.44341 16.0181 4.60193 16.2291L4.84525 17.1991ZM6.56797 17.4518L6.04471 18.304C6.10823 18.343 6.17266 18.3808 6.238 18.4173L6.72616 17.5445L7.21431 16.6718C7.17238 16.6483 7.13136 16.6243 7.09124 16.5996L6.56797 17.4518ZM6.72616 17.5445L6.23364 18.4149C6.5162 18.5748 6.72929 18.8456 6.82281 19.1729L7.78434 18.8982L8.74586 18.6235C8.51212 17.8054 7.97065 17.0998 7.21867 16.6742L6.72616 17.5445ZM7.78434 18.8982L6.82307 19.1738L7.19034 20.4547L8.15161 20.1791L9.11288 19.9035L8.7456 18.6226L7.78434 18.8982ZM8.15161 20.1791L7.18968 20.4524C7.45063 21.3709 8.29041 22 9.23979 22V21V20C9.18009 20 9.12895 19.96 9.11354 19.9058L8.15161 20.1791ZM9.23979 21V22H11.5271V21V20H9.23979V21ZM11.5271 21V22C12.4764 22 13.3162 21.3709 13.5772 20.4524L12.6152 20.1791L11.6533 19.9058C11.6379 19.96 11.5868 20 11.5271 20V21ZM12.6152 20.1791L13.5765 20.4547L13.9438 19.1738L12.9825 18.8982L12.0213 18.6226L11.654 19.9035L12.6152 20.1791ZM12.9825 18.8982L13.944 19.1729C14.0376 18.8456 14.2507 18.5748 14.5332 18.4149L14.0407 17.5445L13.5482 16.6742C12.7962 17.0998 12.2547 17.8054 12.021 18.6235L12.9825 18.8982ZM14.0407 17.5445L14.5289 18.4173C14.5942 18.3808 14.6586 18.343 14.7221 18.304L14.1989 17.4518L13.6756 16.5996C13.6355 16.6243 13.5945 16.6483 13.5525 16.6718L14.0407 17.5445ZM14.1989 17.4518L14.7105 18.311C15.0017 18.1376 15.3496 18.0866 15.6783 18.169L15.9216 17.1991L16.1649 16.2291C15.3234 16.0181 14.4326 16.1487 13.6872 16.5926L14.1989 17.4518ZM15.9216 17.1991L15.6792 18.1693L16.9747 18.4929L17.2171 17.5227L17.4594 16.5525L16.164 16.2289L15.9216 17.1991ZM17.2171 17.5227L16.9745 18.4929C17.4237 18.6052 17.8973 18.5682 18.3236 18.3875L17.9333 17.4668L17.543 16.5461C17.5167 16.5572 17.4874 16.5595 17.4596 16.5526L17.2171 17.5227ZM17.9333 17.4668L18.3236 18.3875C18.7499 18.2067 19.1058 17.8921 19.3375 17.4912L18.4716 16.9909L17.6057 16.4907C17.5914 16.5154 17.5694 16.5349 17.543 16.5461L17.9333 17.4668ZM18.4716 16.9909L19.3376 17.4909L20.4813 15.51L19.6152 15.01L18.7492 14.51L17.6056 16.4909L18.4716 16.9909ZM19.6152 15.01L20.4815 15.5096C20.7128 15.1085 20.8074 14.643 20.7509 14.1834L19.7584 14.3054L18.7659 14.4274C18.7694 14.4561 18.7635 14.4853 18.749 14.5104L19.6152 15.01ZM19.7584 14.3054L20.7509 14.1834C20.6944 13.7238 20.49 13.2951 20.1684 12.9619L19.4489 13.6564L18.7294 14.3508C18.7495 14.3717 18.7623 14.3986 18.7659 14.4274L19.7584 14.3054ZM19.4489 13.6564L20.167 12.9604L19.3125 12.0786L18.5943 12.7745L17.8762 13.4705L18.7308 14.3523L19.4489 13.6564ZM18.5943 12.7745V13.7745H18.5952V12.7745V11.7745H18.5943V12.7745ZM18.5952 12.7745L19.3146 12.0799C19.0376 11.7931 18.883 11.4098 18.8834 11.0111L17.8834 11.01L16.8834 11.0089C16.8825 11.9267 17.2383 12.809 17.8759 13.4692L18.5952 12.7745Z" fill="currentColor"/>
  </g>
</svg>
