<svg width="24" height="24" viewBox="0 0 24 24" fill="none" xmlns="http://www.w3.org/2000/svg">
  <path d="M12.5555 2.24997L12.8701 2.27003C17.6789 2.66996 21.4815 6.55809 21.75 11.4445V11.9703C21.7539 13.4817 21.4008 14.9725 20.7208 16.3186C19.0749 19.612 15.7098 21.693 12.0297 21.6944C10.5184 21.6984 9.02751 21.3453 7.67851 20.6639L7.96414 20.8009L4.13454 22.0791C3.31415 22.3525 2.4344 21.9846 2.03936 21.2474L1.97479 21.1135L1.92094 20.9723C1.8012 20.613 1.8012 20.2247 1.92094 19.8655L3.198 16.035L3.17261 15.9814C2.65055 14.8382 2.35813 13.6036 2.31199 12.3489L2.30555 11.972C2.30698 8.29022 4.38801 4.92514 7.67851 3.28061C9.02747 2.59924 10.5183 2.24613 12.0277 2.24997H12.5555ZM8 11C7.44772 11 7 11.4477 7 12C7 12.5523 7.44772 13 8 13C8.55229 13 9 12.5523 9 12C9 11.4477 8.55229 11 8 11ZM12 11C11.4477 11 11 11.4477 11 12C11 12.5523 11.4477 13 12 13C12.5523 13 13 12.5523 13 12C13 11.4477 12.5523 11 12 11ZM16 11C15.4477 11 15 11.4477 15 12C15 12.5523 15.4477 13 16 13C16.5523 13 17 12.5523 17 12C17 11.4477 16.5523 11 16 11Z" fill="currentColor"/>
</svg>
