<svg width="24" height="24" viewBox="0 0 24 24" fill="none" xmlns="http://www.w3.org/2000/svg">
<path d="M13.5439 2.73828L13.5441 1.96645H13.5439V2.73828ZM15.0869 5.26465H14.3151C14.3151 5.56627 14.4908 5.84026 14.7649 5.9661L15.0869 5.26465ZM16.2871 5.95898L15.8399 6.58804C16.0857 6.76279 16.4107 6.77837 16.6721 6.62794L16.2871 5.95898ZM17.1406 5.46777L17.5256 6.13673L17.5265 6.1362L17.1406 5.46777ZM19.249 6.03223L19.9174 5.64627L19.9174 5.6462L19.249 6.03223ZM20.793 8.70605L21.4614 8.32014L21.4614 8.3201L20.793 8.70605ZM20.2275 10.8145L20.6129 11.4832L20.6135 11.4829L20.2275 10.8145ZM19.375 11.3057L18.9897 10.6369C18.7282 10.7875 18.5785 11.0767 18.6065 11.3771L19.375 11.3057ZM19.4092 12H20.181V12L19.4092 12ZM19.375 12.6934L18.6065 12.622C18.5786 12.9222 18.728 13.2111 18.9891 13.3618L19.375 12.6934ZM20.2275 13.1855L20.6135 12.5171L20.6134 12.5171L20.2275 13.1855ZM20.793 15.2939L21.4614 15.6799L21.4615 15.6797L20.793 15.2939ZM19.249 17.9678L18.5806 17.5818L18.5806 17.5819L19.249 17.9678ZM17.1406 18.5332L17.5265 17.8647L17.5262 17.8646L17.1406 18.5332ZM16.2871 18.041L16.6727 17.3724C16.4112 17.2216 16.0859 17.2371 15.8399 17.412L16.2871 18.041ZM15.0869 18.7344L14.7648 18.033C14.4908 18.1588 14.3151 18.4328 14.3151 18.7344H15.0869ZM15.0869 19.7188L15.8587 19.7189V19.7188H15.0869ZM13.5439 21.2617V22.0336H13.5441L13.5439 21.2617ZM10.4561 21.2617L10.4559 22.0336H10.4561V21.2617ZM8.91309 19.7188H8.14125V19.7189L8.91309 19.7188ZM8.91309 18.7354H9.68492C9.68492 18.4337 9.50922 18.1597 9.2351 18.0339L8.91309 18.7354ZM7.71191 18.041L8.15921 17.412C7.91311 17.237 7.58755 17.2216 7.32601 17.3726L7.71191 18.041ZM6.85938 18.5332L6.47347 17.8648L6.47346 17.8648L6.85938 18.5332ZM4.75098 17.9678L5.4194 17.5819L5.41938 17.5818L4.75098 17.9678ZM3.20703 15.2939L2.53852 15.6797L2.53863 15.6799L3.20703 15.2939ZM3.77246 13.1855L4.15838 13.854L4.15903 13.8536L3.77246 13.1855ZM4.62305 12.6934L5.00961 13.3614C5.27027 13.2106 5.4194 12.9219 5.39158 12.6221L4.62305 12.6934ZM4.59082 12L3.81899 12V12H4.59082ZM4.62305 11.3057L5.39156 11.3771C5.41947 11.077 5.27008 10.788 5.00904 10.6373L4.62305 11.3057ZM3.77246 10.8145L4.15845 10.1461L4.15838 10.146L3.77246 10.8145ZM3.20703 8.70605L2.53863 8.3201L2.53861 8.32014L3.20703 8.70605ZM4.75098 6.03223L4.08264 5.64616L4.08257 5.64627L4.75098 6.03223ZM6.85938 5.46777L6.47346 6.1362L6.47372 6.13635L6.85938 5.46777ZM7.71094 5.95898L7.32528 6.62756C7.5868 6.77841 7.91226 6.76294 8.15828 6.58796L7.71094 5.95898ZM8.91309 5.26367L9.23504 5.96515C9.50919 5.83932 9.68492 5.56532 9.68492 5.26367H8.91309ZM10.4561 2.73828V1.96645H10.4559L10.4561 2.73828ZM13.5439 2.73828L13.5438 3.51011C13.9696 3.51019 14.3151 3.85556 14.3151 4.28223H15.0869H15.8587C15.8587 3.004 14.8231 1.96669 13.5441 1.96645L13.5439 2.73828ZM15.0869 4.28223H14.3151V5.26465H15.0869H15.8587V4.28223H15.0869ZM15.0869 5.26465L14.7649 5.9661C15.1436 6.13993 15.503 6.34852 15.8399 6.58804L16.2871 5.95898L16.7343 5.32992C16.3198 5.03519 15.8766 4.7779 15.4089 4.5632L15.0869 5.26465ZM16.2871 5.95898L16.6721 6.62794L17.5256 6.13673L17.1406 5.46777L16.7556 4.79882L15.9021 5.29003L16.2871 5.95898ZM17.1406 5.46777L17.5265 6.1362C17.8959 5.92295 18.3676 6.04941 18.5807 6.41825L19.249 6.03223L19.9174 5.6462C19.2778 4.53874 17.8618 4.16014 16.7547 4.79935L17.1406 5.46777ZM19.249 6.03223L18.5806 6.41818L20.1246 9.09201L20.793 8.70605L21.4614 8.3201L19.9174 5.64627L19.249 6.03223ZM20.793 8.70605L20.1245 9.09197C20.3375 9.46076 20.2112 9.93268 19.8416 10.146L20.2275 10.8145L20.6135 11.4829C21.7206 10.8437 22.101 9.428 21.4614 8.32014L20.793 8.70605ZM20.2275 10.8145L19.8422 10.1457L18.9897 10.6369L19.375 11.3057L19.7603 11.9744L20.6129 11.4832L20.2275 10.8145ZM19.375 11.3057L18.6065 11.3771C18.626 11.5868 18.6373 11.794 18.6373 12L19.4092 12L20.181 12C20.181 11.7376 20.1665 11.4818 20.1435 11.2342L19.375 11.3057ZM19.4092 12H18.6373C18.6373 12.2054 18.6259 12.4124 18.6065 12.622L19.375 12.6934L20.1435 12.7647C20.1664 12.5178 20.181 12.2622 20.181 12H19.4092ZM19.375 12.6934L18.9891 13.3618L19.8416 13.854L20.2275 13.1855L20.6134 12.5171L19.7609 12.0249L19.375 12.6934ZM20.2275 13.1855L19.8416 13.854C20.2109 14.0672 20.3374 14.5392 20.1244 14.9082L20.793 15.2939L21.4615 15.6797C22.1006 14.5721 21.7206 13.1563 20.6135 12.5171L20.2275 13.1855ZM20.793 15.2939L20.1246 14.908L18.5806 17.5818L19.249 17.9678L19.9174 18.3537L21.4614 15.6799L20.793 15.2939ZM19.249 17.9678L18.5806 17.5819C18.3673 17.9513 17.8953 18.0777 17.5265 17.8647L17.1406 18.5332L16.7548 19.2017C17.8625 19.8411 19.2782 19.4608 19.9174 18.3537L19.249 17.9678ZM17.1406 18.5332L17.5262 17.8646L16.6727 17.3724L16.2871 18.041L15.9015 18.7096L16.7551 19.2018L17.1406 18.5332ZM16.2871 18.041L15.8399 17.412C15.5039 17.6509 15.1443 17.8587 14.7648 18.033L15.0869 18.7344L15.409 19.4358C15.8756 19.2215 16.319 18.9653 16.7344 18.6701L16.2871 18.041ZM15.0869 18.7344H14.3151V19.7188H15.0869H15.8587V18.7344H15.0869ZM15.0869 19.7188L14.3151 19.7186C14.315 20.1448 13.97 20.4898 13.5438 20.4899L13.5439 21.2617L13.5441 22.0336C14.8225 22.0333 15.8586 20.9974 15.8587 19.7189L15.0869 19.7188ZM13.5439 21.2617V20.4899H10.4561V21.2617V22.0336H13.5439V21.2617ZM10.4561 21.2617L10.4562 20.4899C10.03 20.4898 9.68497 20.1448 9.68492 19.7186L8.91309 19.7188L8.14125 19.7189C8.14142 20.9974 9.17745 22.0333 10.4559 22.0336L10.4561 21.2617ZM8.91309 19.7188H9.68492V18.7354H8.91309H8.14125V19.7188H8.91309ZM8.91309 18.7354L9.2351 18.0339C8.85561 17.8597 8.49578 17.6514 8.15921 17.412L7.71191 18.041L7.26461 18.67C7.67994 18.9654 8.12366 19.2222 8.59107 19.4368L8.91309 18.7354ZM7.71191 18.041L7.32601 17.3726L6.47347 17.8648L6.85938 18.5332L7.24528 19.2016L8.09781 18.7095L7.71191 18.041ZM6.85938 18.5332L6.47346 17.8648C6.10467 18.0777 5.63275 17.9514 5.4194 17.5819L4.75098 17.9678L4.08255 18.3537C4.72174 19.4608 6.13743 19.8412 7.24529 19.2016L6.85938 18.5332ZM4.75098 17.9678L5.41938 17.5818L3.87543 14.908L3.20703 15.2939L2.53863 15.6799L4.08257 18.3537L4.75098 17.9678ZM3.20703 15.2939L3.87554 14.9082C3.66264 14.5392 3.78909 14.0672 4.15838 13.854L3.77246 13.1855L3.38654 12.5171C2.27939 13.1563 1.89938 14.5721 2.53852 15.6797L3.20703 15.2939ZM3.77246 13.1855L4.15903 13.8536L5.00961 13.3614L4.62305 12.6934L4.23648 12.0253L3.3859 12.5175L3.77246 13.1855ZM4.62305 12.6934L5.39158 12.6221C5.37256 12.417 5.36265 12.2094 5.36265 12H4.59082H3.81899C3.81899 12.2581 3.83119 12.5133 3.85452 12.7647L4.62305 12.6934ZM4.59082 12L5.36265 12C5.36266 11.79 5.37249 11.5822 5.39156 11.3771L4.62305 11.3057L3.85453 11.2342C3.83109 11.4863 3.819 11.7417 3.81899 12L4.59082 12ZM4.62305 11.3057L5.00904 10.6373L4.15845 10.1461L3.77246 10.8145L3.38647 11.4828L4.23706 11.974L4.62305 11.3057ZM3.77246 10.8145L4.15838 10.146C3.78884 9.93268 3.66254 9.46076 3.87546 9.09197L3.20703 8.70605L2.53861 8.32014C1.89898 9.428 2.27943 10.8437 3.38654 11.4829L3.77246 10.8145ZM3.20703 8.70605L3.87543 9.09201L5.41938 6.41818L4.75098 6.03223L4.08257 5.64627L2.53863 8.3201L3.20703 8.70605ZM4.75098 6.03223L5.41932 6.41829C5.63239 6.04943 6.10417 5.92299 6.47346 6.1362L6.85938 5.46777L7.24529 4.79935C6.13814 4.16013 4.72227 4.53884 4.08264 5.64616L4.75098 6.03223ZM6.85938 5.46777L6.47372 6.13635L7.32528 6.62756L7.71094 5.95898L8.09659 5.29041L7.24503 4.7992L6.85938 5.46777ZM7.71094 5.95898L8.15828 6.58796C8.49544 6.34816 8.8556 6.1393 9.23504 5.96515L8.91309 5.26367L8.59113 4.5622C8.12295 4.77708 7.6789 5.03463 7.26359 5.33001L7.71094 5.95898ZM8.91309 5.26367H9.68492V4.28223H8.91309H8.14125V5.26367H8.91309ZM8.91309 4.28223H9.68492C9.68492 3.85555 10.0304 3.51019 10.4562 3.51011L10.4561 2.73828L10.4559 1.96645C9.17684 1.96668 8.14125 3.00401 8.14125 4.28223H8.91309ZM10.4561 2.73828V3.51011H13.5439V2.73828V1.96645H10.4561V2.73828Z" fill="currentColor"/>
<rect x="8.71973" y="8.68848" width="6.62304" height="6.62304" rx="3.31152" stroke="currentColor" stroke-width="1.37695"/>
</svg>
