<svg width="24" height="24" viewBox="0 0 24 24" fill="none" xmlns="http://www.w3.org/2000/svg">
<g clip-path="url(#clip0_5022_1653)">
<path d="M11.9992 15.5743C12.2414 15.5743 12.4736 15.6705 12.6449 15.8417C12.8161 16.013 12.9123 16.2452 12.9123 16.4873C12.9123 16.7295 12.8161 16.9617 12.6449 17.133C12.4736 17.3042 12.2414 17.4004 11.9992 17.4004C11.7571 17.4004 11.5248 17.3042 11.3536 17.133C11.1824 16.9617 11.0862 16.7295 11.0862 16.4873C11.0862 16.2452 11.1824 16.013 11.3536 15.8417C11.5248 15.6705 11.7571 15.5743 11.9992 15.5743ZM11.9992 6.90039C12.7683 6.90041 13.5133 7.16824 14.1063 7.65785C14.6994 8.14747 15.1034 8.82831 15.249 9.58344C15.3947 10.3386 15.2728 11.1208 14.9043 11.7959C14.5359 12.4709 13.9439 12.9966 13.23 13.2826C13.1243 13.3214 13.029 13.3843 12.9515 13.4661C12.9114 13.5117 12.905 13.5702 12.9059 13.6304L12.9123 13.7482C12.912 13.9809 12.8229 14.2048 12.6632 14.374C12.5034 14.5432 12.2851 14.645 12.0527 14.6587C11.8204 14.6723 11.5917 14.5967 11.4132 14.4474C11.2348 14.298 11.1201 14.0861 11.0926 13.855L11.0862 13.7482V13.52C11.0862 12.4672 11.9353 11.8354 12.5507 11.588C12.8012 11.4879 13.0197 11.3216 13.1827 11.1068C13.3458 10.8919 13.4472 10.6368 13.4762 10.3686C13.5051 10.1005 13.4605 9.82955 13.3471 9.58487C13.2337 9.34018 13.0557 9.13102 12.8324 8.97983C12.6091 8.82864 12.3488 8.74114 12.0795 8.72672C11.8102 8.71231 11.542 8.77152 11.3039 8.89801C11.0657 9.0245 10.8664 9.21348 10.7275 9.44466C10.5887 9.67584 10.5154 9.94048 10.5155 10.2102C10.5155 10.4523 10.4193 10.6846 10.2481 10.8558C10.0769 11.027 9.84465 11.1232 9.6025 11.1232C9.36034 11.1232 9.12811 11.027 8.95688 10.8558C8.78565 10.6846 8.68945 10.4523 8.68945 10.2102C8.68945 9.33236 9.03816 8.49051 9.65887 7.8698C10.2796 7.2491 11.1214 6.90039 11.9992 6.90039Z" fill="currentColor"/>
<circle cx="12" cy="12" r="9.25" stroke="currentColor" stroke-width="1.5"/>
</g>
<defs>
<clipPath id="clip0_5022_1653">
<rect width="24" height="24" fill="white"/>
</clipPath>
</defs>
</svg>
