<svg width="20" height="20" viewBox="0 0 20 20" fill="none" xmlns="http://www.w3.org/2000/svg">
<g clip-path="url(#clip0_5022_1369)">
<path d="M7.11863 14.6895C6.98402 14.6895 6.88787 14.8198 6.9302 14.9476C7.5027 16.6757 8.4307 18.266 9.65554 19.6156C9.67402 19.6382 9.69731 19.6565 9.72372 19.669C9.75013 19.6816 9.77901 19.6881 9.80825 19.6881C9.83749 19.6881 9.86636 19.6816 9.89277 19.669C9.91919 19.6565 9.94248 19.6382 9.96096 19.6156C11.1858 18.266 12.1138 16.6757 12.6863 14.9476C12.7286 14.8198 12.6325 14.6895 12.4979 14.6895H7.11863Z" fill="currentColor"/>
<path d="M14.6006 12.9858C14.5863 13.1058 14.6795 13.2122 14.8004 13.2122H19.2594C19.3436 13.2122 19.419 13.1594 19.4466 13.0798C20.1667 10.9954 20.1667 8.72946 19.4466 6.64508C19.419 6.56546 19.3436 6.5127 19.2594 6.5127H14.399C14.2676 6.5127 14.1719 6.6373 14.2039 6.76477C14.7134 8.79694 14.8479 10.9052 14.6006 12.9858Z" fill="currentColor"/>
<path d="M13.6688 4.89672C13.696 4.97884 13.7727 5.03452 13.8592 5.03452H18.4415C18.5933 5.03452 18.6893 4.87238 18.6122 4.74163C17.9211 3.56833 16.9967 2.54764 15.8949 1.74335C14.7024 0.872826 13.3318 0.277444 11.8816 3.64322e-05C11.8451 -0.00359404 11.8082 0.00257324 11.7748 0.0179047C11.7415 0.0332361 11.7128 0.0571789 11.6917 0.0872727C11.6706 0.117367 11.658 0.152526 11.655 0.18914C11.652 0.225753 11.6588 0.262499 11.6747 0.295603C12.4735 1.76774 13.1408 3.30743 13.6688 4.89672Z" fill="currentColor"/>
<path d="M12.7306 6.65784C12.7068 6.57181 12.6283 6.5127 12.539 6.5127H7.07699C6.98774 6.5127 6.90916 6.57181 6.88541 6.65784C6.31191 8.73543 6.17305 10.9089 6.47742 13.0425C6.49136 13.1402 6.57545 13.2122 6.67417 13.2122H12.9418C13.0406 13.2122 13.1246 13.1402 13.1386 13.0425C13.443 10.9089 13.3041 8.73543 12.7306 6.65784Z" fill="currentColor"/>
<path d="M14.4302 14.6895C14.3392 14.6895 14.2598 14.7509 14.2359 14.8387C13.8076 16.4088 13.1077 17.8922 12.1673 19.2215C12.1454 19.2535 12.1334 19.2913 12.1328 19.3301C12.1323 19.369 12.1432 19.4071 12.1643 19.4397C12.1853 19.4724 12.2156 19.498 12.2512 19.5135C12.2868 19.5291 12.3262 19.5337 12.3644 19.5269C13.7014 19.2028 14.9569 18.6057 16.0522 17.7733C17.057 17.0096 17.9069 16.0628 18.558 14.984C18.6368 14.8533 18.541 14.6895 18.3883 14.6895H14.4302Z" fill="currentColor"/>
<path d="M5.76633 5.03402C5.8533 5.03438 5.93046 4.97848 5.95778 4.89591C6.47583 3.32999 7.14011 1.81619 7.94187 0.374533C7.961 0.340435 7.96956 0.301416 7.96645 0.262439C7.96335 0.223462 7.94871 0.186292 7.92442 0.155657C7.90012 0.125022 7.86726 0.102308 7.83001 0.0904058C7.79277 0.0785036 7.75283 0.077951 7.71527 0.0888186C6.34738 0.406897 5.06202 1.01008 3.94322 1.85895C2.91372 2.64006 2.04658 3.613 1.38901 4.72302C1.31174 4.85345 1.40704 5.0157 1.55864 5.01634L5.76633 5.03402Z" fill="currentColor"/>
<path d="M5.41472 6.76347C5.44575 6.63633 5.35016 6.5127 5.21929 6.5127H0.692147C0.60791 6.5127 0.532497 6.56546 0.504987 6.64508C-0.215204 8.72946 -0.215204 10.9954 0.504987 13.0798C0.532497 13.1594 0.60791 13.2122 0.692147 13.2122H4.84524C4.96629 13.2122 5.05951 13.1055 5.04494 12.9853C4.7929 10.906 4.9182 8.7982 5.41472 6.76347Z" fill="currentColor"/>
<path d="M5.38092 14.8376C5.35657 14.7504 5.27745 14.6895 5.18688 14.6895H1.61337C1.46042 14.6895 1.36466 14.8539 1.44411 14.9846C2.73916 17.115 4.78367 18.6913 7.18281 19.3988C7.22179 19.4082 7.2627 19.4054 7.30008 19.391C7.33746 19.3765 7.36953 19.3509 7.39201 19.3177C7.41449 19.2846 7.42632 19.2453 7.42591 19.2052C7.4255 19.1651 7.41287 19.1261 7.38971 19.0934C6.48456 17.798 5.80548 16.359 5.38092 14.8376Z" fill="currentColor"/>
<path d="M11.9432 5.03431C12.0812 5.03431 12.1777 4.89774 12.1303 4.76809C11.5615 3.21404 10.8482 1.71656 9.99951 0.295393C9.98184 0.266879 9.95718 0.243348 9.92787 0.227031C9.89856 0.210713 9.86557 0.202148 9.83202 0.202148C9.79847 0.202148 9.76548 0.210713 9.73617 0.227031C9.70686 0.243348 9.6822 0.266879 9.66453 0.295393C8.79595 1.71245 8.06659 3.21001 7.48654 4.7671C7.43818 4.89691 7.53472 5.03431 7.67324 5.03431H11.9432Z" fill="currentColor"/>
</g>
<defs>
<clipPath id="clip0_5022_1369">
<rect width="20" height="19.6946" fill="white"/>
</clipPath>
</defs>
</svg>
