<svg width="24" height="24" viewBox="0 0 24 24" fill="none" xmlns="http://www.w3.org/2000/svg">
  <g transform="translate(2.23 1.96)">
    <path id="Combined Shape" d="M11.3159 0.771832L11.316 0H11.3159V0.771832ZM12.8588 3.2982H12.087C12.087 3.59982 12.2627 3.87381 12.5368 3.99965L12.8588 3.2982ZM14.059 3.99254L13.6118 4.6216C13.8576 4.79634 14.1826 4.81192 14.444 4.66149L14.059 3.99254ZM14.9125 3.50132L15.2975 4.17028L15.2985 4.16975L14.9125 3.50132ZM17.0209 4.06578L17.6893 3.67982L17.6893 3.67975L17.0209 4.06578ZM18.5649 6.73961L19.2333 6.35369L19.2333 6.35365L18.5649 6.73961ZM17.9994 8.848L18.3848 9.51677L18.3854 9.51643L17.9994 8.848ZM17.1469 9.33921L16.7616 8.67045C16.5001 8.82108 16.3505 9.11025 16.3784 9.41068L17.1469 9.33921ZM17.1811 10.0336H17.9529V10.0335L17.1811 10.0336ZM17.1469 10.7269L16.3784 10.6556C16.3505 10.9557 16.5 11.2446 16.761 11.3953L17.1469 10.7269ZM17.9994 11.2191L18.3854 10.5507L18.3853 10.5507L17.9994 11.2191ZM18.5649 13.3275L19.2333 13.7135L19.2334 13.7132L18.5649 13.3275ZM17.0209 16.0013L16.3525 15.6154L16.3525 15.6154L17.0209 16.0013ZM14.9125 16.5668L15.2984 15.8983L15.2981 15.8981L14.9125 16.5668ZM14.059 16.0746L14.4446 15.4059C14.1831 15.2552 13.8578 15.2706 13.6118 15.4455L14.059 16.0746ZM12.8588 16.7679L12.5368 16.0665C12.2627 16.1924 12.087 16.4663 12.087 16.7679H12.8588ZM12.8588 17.7523L13.6307 17.7524V17.7523H12.8588ZM11.3159 19.2953V20.0671H11.316L11.3159 19.2953ZM8.22796 19.2953L8.22782 20.0671H8.22796V19.2953ZM6.685 17.7523H5.91316V17.7524L6.685 17.7523ZM6.685 16.7689H7.45683C7.45683 16.4673 7.28113 16.1933 7.00701 16.0675L6.685 16.7689ZM5.48382 16.0746L5.93112 15.4456C5.68502 15.2706 5.35945 15.2551 5.09792 15.4061L5.48382 16.0746ZM4.63128 16.5668L4.24538 15.8983L4.24537 15.8983L4.63128 16.5668ZM2.52289 16.0013L3.19131 15.6154L3.19129 15.6154L2.52289 16.0013ZM0.978941 13.3275L0.310427 13.7133L0.310537 13.7135L0.978941 13.3275ZM1.54437 11.2191L1.93029 11.8875L1.93094 11.8871L1.54437 11.2191ZM2.39496 10.7269L2.78152 11.395C3.04218 11.2441 3.19131 10.9555 3.16349 10.6556L2.39496 10.7269ZM2.36273 10.0336L1.5909 10.0335V10.0336H2.36273ZM2.39496 9.33921L3.16347 9.41067C3.19138 9.11052 3.04199 8.82158 2.78095 8.67083L2.39496 9.33921ZM1.54437 8.848L1.93036 8.17962L1.93029 8.17958L1.54437 8.848ZM0.978941 6.73961L0.310537 6.35365L0.310515 6.35369L0.978941 6.73961ZM2.52289 4.06578L1.85455 3.67971L1.85448 3.67982L2.52289 4.06578ZM4.63128 3.50132L4.24537 4.16975L4.24563 4.1699L4.63128 3.50132ZM5.48285 3.99254L5.09719 4.66111C5.35871 4.81196 5.68417 4.79649 5.93019 4.62151L5.48285 3.99254ZM6.685 3.29722L7.00695 3.9987C7.2811 3.87287 7.45683 3.59887 7.45683 3.29722H6.685ZM8.22796 0.771832V0H8.22783L8.22796 0.771832ZM11.3159 0.771832L11.3157 1.54366C11.7415 1.54374 12.087 1.88911 12.087 2.31578H12.8588H13.6307C13.6307 1.03756 12.5951 0.000238597 11.316 0L11.3159 0.771832ZM12.8588 2.31578H12.087V3.2982H12.8588H13.6307V2.31578H12.8588ZM12.8588 3.2982L12.5368 3.99965C12.9155 4.17348 13.2749 4.38207 13.6118 4.6216L14.059 3.99254L14.5062 3.36347C14.0917 3.06874 13.6485 2.81145 13.1808 2.59675L12.8588 3.2982ZM14.059 3.99254L14.444 4.66149L15.2975 4.17028L14.9125 3.50132L14.5275 2.83237L13.674 3.32358L14.059 3.99254ZM14.9125 3.50132L15.2985 4.16975C15.6678 3.9565 16.1395 4.08296 16.3526 4.4518L17.0209 4.06578L17.6893 3.67975C17.0497 2.57229 15.6338 2.19369 14.5266 2.8329L14.9125 3.50132ZM17.0209 4.06578L16.3525 4.45173L17.8965 7.12556L18.5649 6.73961L19.2333 6.35365L17.6893 3.67982L17.0209 4.06578ZM18.5649 6.73961L17.8965 7.12552C18.1094 7.49431 17.9831 7.96623 17.6135 8.17958L17.9994 8.848L18.3854 9.51643C19.4925 8.87724 19.8729 7.46155 19.2333 6.35369L18.5649 6.73961ZM17.9994 8.848L17.6141 8.17924L16.7616 8.67045L17.1469 9.33921L17.5322 10.008L18.3848 9.51677L17.9994 8.848ZM17.1469 9.33921L16.3784 9.41068C16.3979 9.62036 16.4093 9.82757 16.4093 10.0336L17.1811 10.0336L17.9529 10.0335C17.9529 9.77111 17.9385 9.51539 17.9154 9.26775L17.1469 9.33921ZM17.1811 10.0336H16.4093C16.4093 10.2389 16.3978 10.446 16.3784 10.6556L17.1469 10.7269L17.9154 10.7982C17.9384 10.5513 17.9529 10.2958 17.9529 10.0336H17.1811ZM17.1469 10.7269L16.761 11.3953L17.6135 11.8875L17.9994 11.2191L18.3853 10.5507L17.5328 10.0585L17.1469 10.7269ZM17.9994 11.2191L17.6135 11.8875C17.9828 12.1007 18.1093 12.5728 17.8964 12.9417L18.5649 13.3275L19.2334 13.7132C19.8725 12.6057 19.4925 11.1899 18.3854 10.5507L17.9994 11.2191ZM18.5649 13.3275L17.8965 12.9415L16.3525 15.6154L17.0209 16.0013L17.6893 16.3873L19.2333 13.7135L18.5649 13.3275ZM17.0209 16.0013L16.3525 15.6154C16.1392 15.9849 15.6672 16.1112 15.2984 15.8983L14.9125 16.5668L14.5267 17.2352C15.6344 17.8747 17.0502 17.4944 17.6894 16.3872L17.0209 16.0013ZM14.9125 16.5668L15.2981 15.8981L14.4446 15.4059L14.059 16.0746L13.6734 16.7432L14.527 17.2354L14.9125 16.5668ZM14.059 16.0746L13.6118 15.4455C13.2758 15.6844 12.9163 15.8922 12.5368 16.0665L12.8588 16.7679L13.1809 17.4693C13.6475 17.2551 14.091 16.9989 14.5063 16.7036L14.059 16.0746ZM12.8588 16.7679H12.087V17.7523H12.8588H13.6307V16.7679H12.8588ZM12.8588 17.7523L12.087 17.7522C12.0869 18.1783 11.7419 18.5234 11.3157 18.5234L11.3159 19.2953L11.316 20.0671C12.5945 20.0669 13.6305 19.031 13.6307 17.7524L12.8588 17.7523ZM11.3159 19.2953V18.5234H8.22796V19.2953V20.0671H11.3159V19.2953ZM8.22796 19.2953L8.2281 18.5234C7.80189 18.5234 7.45688 18.1783 7.45683 17.7522L6.685 17.7523L5.91316 17.7524C5.91333 19.031 6.94936 20.0669 8.22782 20.0671L8.22796 19.2953ZM6.685 17.7523H7.45683V16.7689H6.685H5.91316V17.7523H6.685ZM6.685 16.7689L7.00701 16.0675C6.62752 15.8932 6.26769 15.6849 5.93112 15.4456L5.48382 16.0746L5.03652 16.7036C5.45185 16.9989 5.89557 17.2558 6.36298 17.4704L6.685 16.7689ZM5.48382 16.0746L5.09792 15.4061L4.24538 15.8983L4.63128 16.5668L5.01719 17.2352L5.86972 16.743L5.48382 16.0746ZM4.63128 16.5668L4.24537 15.8983C3.87658 16.1112 3.40466 15.9849 3.19131 15.6154L2.52289 16.0013L1.85446 16.3872C2.49365 17.4944 3.90934 17.8748 5.0172 17.2352L4.63128 16.5668ZM2.52289 16.0013L3.19129 15.6154L1.64734 12.9415L0.978941 13.3275L0.310537 13.7135L1.85448 16.3873L2.52289 16.0013ZM0.978941 13.3275L1.64745 12.9417C1.43455 12.5728 1.561 12.1007 1.93029 11.8875L1.54437 11.2191L1.15845 10.5507C0.0512968 11.1899 -0.328707 12.6057 0.310427 13.7133L0.978941 13.3275ZM1.54437 11.2191L1.93094 11.8871L2.78152 11.395L2.39496 10.7269L2.00839 10.0589L1.15781 10.551L1.54437 11.2191ZM2.39496 10.7269L3.16349 10.6556C3.14446 10.4506 3.13456 10.243 3.13456 10.0336H2.36273H1.5909C1.5909 10.2916 1.6031 10.5468 1.62643 10.7982L2.39496 10.7269ZM2.36273 10.0336L3.13456 10.0336C3.13457 9.82351 3.1444 9.61578 3.16347 9.41067L2.39496 9.33921L1.62644 9.26776C1.603 9.51987 1.59091 9.77527 1.5909 10.0335L2.36273 10.0336ZM2.39496 9.33921L2.78095 8.67083L1.93036 8.17962L1.54437 8.848L1.15838 9.51639L2.00897 10.0076L2.39496 9.33921ZM1.54437 8.848L1.93029 8.17958C1.56075 7.96623 1.43445 7.49431 1.64737 7.12552L0.978941 6.73961L0.310515 6.35369C-0.329108 7.46155 0.0513445 8.87724 1.15845 9.51643L1.54437 8.848ZM0.978941 6.73961L1.64734 7.12556L3.19129 4.45173L2.52289 4.06578L1.85448 3.67982L0.310537 6.35365L0.978941 6.73961ZM2.52289 4.06578L3.19123 4.45184C3.4043 4.08298 3.87608 3.95654 4.24537 4.16975L4.63128 3.50132L5.0172 2.8329C3.91005 2.19368 2.49418 2.57239 1.85455 3.67971L2.52289 4.06578ZM4.63128 3.50132L4.24563 4.1699L5.09719 4.66111L5.48285 3.99254L5.8685 3.32396L5.01694 2.83275L4.63128 3.50132ZM5.48285 3.99254L5.93019 4.62151C6.26735 4.38171 6.62751 4.17285 7.00695 3.9987L6.685 3.29722L6.36304 2.59575C5.89486 2.81063 5.45081 3.06818 5.0355 3.36356L5.48285 3.99254ZM6.685 3.29722H7.45683V2.31578H6.685H5.91316V3.29722H6.685ZM6.685 2.31578H7.45683C7.45683 1.8891 7.80235 1.54374 8.2281 1.54366L8.22796 0.771832L8.22783 0C6.94875 0.000229478 5.91316 1.03756 5.91316 2.31578H6.685ZM8.22796 0.771832V1.54366H11.3159V0.771832V0H8.22796V0.771832Z" fill="currentColor"/>
<rect id="Rectangle Copy 8" x="6.49167" y="6.72227" width="6.62304" height="6.62304" rx="3.31152" stroke="currentColor" stroke-width="1.37695"/>
  </g>
</svg>
