<svg width="24" height="24" viewBox="0 0 24 24" fill="none" xmlns="http://www.w3.org/2000/svg">
<g clip-path="url(#clip0_5022_1665)">
<path d="M18 4.21387L17.8422 4.22099C17.5284 4.24939 17.2271 4.36212 16.9707 4.54858L9.7829 9.77607C8.5546 10.6694 8.28304 12.3893 9.17634 13.6176C9.34556 13.8502 9.55023 14.0549 9.7829 14.2241L16.9707 19.4516C17.7523 20.0201 18.8468 19.8473 19.4153 19.0656C19.6328 18.7665 19.75 18.4062 19.75 18.0363V5.96387C19.75 4.99737 18.9665 4.21387 18 4.21387Z" fill="currentColor"/>
<path d="M5 4.25C4.6203 4.25 4.30651 4.53215 4.25685 4.89823L4.25 5V19C4.25 19.4142 4.58579 19.75 5 19.75C5.3797 19.75 5.69349 19.4678 5.74315 19.1018L5.75 19V5C5.75 4.58579 5.41421 4.25 5 4.25Z" fill="currentColor"/>
</g>
<defs>
<clipPath id="clip0_5022_1665">
<rect width="24" height="24" fill="white"/>
</clipPath>
</defs>
</svg>
