<svg width="24" height="24" viewBox="0 0 24 24" fill="none" xmlns="http://www.w3.org/2000/svg">
<path d="M12 3.08984C16.4586 3.08984 20.0967 6.36146 20.0967 10.4268V15.6543C20.6492 16.0302 21 16.6491 21 17.334L20.9893 17.5439C20.8873 18.5108 20.0893 19.2796 19.0859 19.3779L18.8672 19.3887H15.6436C15.2445 21.0309 13.7649 22.25 12 22.25C10.2351 22.25 8.75545 21.0309 8.35645 19.3887H5.13281L4.91406 19.3779C3.91067 19.2796 3.11275 18.5108 3.01074 17.5439L3 17.334C3 16.6491 3.35076 16.0302 3.90332 15.6543V10.4268C3.90332 6.36146 7.54135 3.08984 12 3.08984ZM9.93262 19.3887C10.2772 20.1894 11.0729 20.75 12 20.75C12.9271 20.75 13.7228 20.1894 14.0674 19.3887H9.93262ZM12 4.58984C8.22381 4.58984 5.40332 7.32868 5.40332 10.4268V16.4482L4.74707 16.8945C4.58085 17.0076 4.5 17.1742 4.5 17.334C4.50022 17.5882 4.73063 17.8887 5.13281 17.8887H18.8672C19.2694 17.8887 19.4998 17.5882 19.5 17.334C19.5 17.1742 19.4191 17.0076 19.2529 16.8945L18.5967 16.4482V10.4268C18.5967 7.32868 15.7762 4.58984 12 4.58984Z" fill="currentColor"/>
<path d="M12 2.5L12 3.5" stroke="currentColor" stroke-width="1.5" stroke-linecap="round"/>
</svg>
