<svg width="24" height="24" viewBox="0 0 24 24" fill="none" xmlns="http://www.w3.org/2000/svg">
<path d="M5.03931 4.17579C5.51964 4.17352 5.91092 4.54846 5.91327 5.01323L5.9549 13.2735C5.9549 13.6587 6.27741 13.9709 6.67565 13.9709H16.8693C17.3497 13.9709 17.739 14.3477 17.739 14.8125C17.739 15.2773 17.3497 15.654 16.8693 15.654H6.67565C5.31653 15.654 4.21545 14.588 4.21546 13.2776L4.17384 5.02144C4.1715 4.55667 4.55898 4.17806 5.03931 4.17579Z" fill="currentColor"/>
<path d="M14.8517 10.6905C15.1835 10.3568 15.7318 10.3469 16.0763 10.6683L19.5615 13.92C19.9045 14.24 19.9164 14.7681 19.5882 15.1023L16.231 18.5207C15.9014 18.8564 15.3532 18.8697 15.0066 18.5504C14.6601 18.231 14.6464 17.7001 14.976 17.3644L17.7387 14.5496L14.8746 11.8766C14.5614 11.5844 14.5245 11.119 14.7697 10.7861L14.8517 10.6905Z" fill="currentColor"/>
</svg>
