<svg width="24" height="24" viewBox="0 0 24 24" fill="none" xmlns="http://www.w3.org/2000/svg">
<path d="M12 2.25C17.3848 2.25 21.75 6.61522 21.75 12C21.75 17.3848 17.3848 21.75 12 21.75C6.61522 21.75 2.25 17.3848 2.25 12C2.25 6.61522 6.61522 2.25 12 2.25ZM12 7.75C11.5858 7.75 11.25 8.08579 11.25 8.5V11.75C11.25 12.0152 11.3554 12.2695 11.543 12.457C11.7305 12.6446 11.9848 12.75 12.25 12.75H16.5C16.9142 12.75 17.25 12.4142 17.25 12C17.25 11.5858 16.9142 11.25 16.5 11.25H12.75V8.5C12.75 8.08579 12.4142 7.75 12 7.75Z" fill="currentColor"/>
</svg>
