<svg width="24" height="24" viewBox="0 0 24 24" fill="none" xmlns="http://www.w3.org/2000/svg">
<path fill-rule="evenodd" clip-rule="evenodd" d="M5.92582 13.6777H8.33311V3.99983H5.92582C4.86181 3.99983 4 4.866 4 5.93541L4 11.7422C4 12.8116 4.86181 13.6777 5.92582 13.6777Z" fill="currentColor" stroke="currentColor" stroke-width="1.5"/>
<path fill-rule="evenodd" clip-rule="evenodd" d="M17.5751 13.6779H13.5982L14.1018 14.8015C14.9675 16.7564 14.0932 19.0462 12.1481 19.9163C11.6637 20.1331 11.0966 19.9143 10.8809 19.4275L8.33398 13.6779L8.33398 4H16.5081C17.4374 4 18.2337 4.66584 18.4022 5.58427L19.4691 11.391C19.4903 11.5071 19.5009 11.6243 19.5009 11.7423C19.5009 12.8117 18.6391 13.6779 17.5751 13.6779Z" fill="currentColor" stroke="currentColor" stroke-width="1.5" stroke-linejoin="round"/>
</svg>
