<svg width="24" height="24" viewBox="0 0 24 24" fill="none" xmlns="http://www.w3.org/2000/svg">
  <g transform="translate(2 3)">
    <path fill-rule="evenodd" clip-rule="evenodd" d="M6.962 16.3696C4.019 13.9716 0 10.0086 0 6.25961C0 0.349609 5.5 -2.33739 10 2.49961C14.5 -2.33739 20 0.348609 20 6.25961C20 10.0076 15.98 13.9706 13.038 16.3696C11.706 17.4576 11.04 17.9996 10 17.9996C8.96 17.9996 8.294 17.4566 6.962 16.3696ZM8.093 7.74561C8.18167 7.61894 8.25833 7.51061 8.323 7.42061C8.379 7.51861 8.442 7.63161 8.517 7.76861L10.227 10.8786C10.393 11.1806 10.557 11.4766 10.72 11.6916C10.895 11.9216 11.202 12.2366 11.695 12.2466C12.188 12.2556 12.508 11.9516 12.691 11.7286C12.863 11.5196 13.036 11.2306 13.214 10.9346L13.269 10.8416C13.49 10.4746 13.629 10.2436 13.752 10.0776C13.865 9.92461 13.931 9.87461 13.98 9.84761C14.029 9.81961 14.105 9.78861 14.295 9.77061C14.501 9.75061 14.769 9.75061 15.199 9.75061H16C16.1989 9.75061 16.3897 9.67159 16.5303 9.53094C16.671 9.39029 16.75 9.19952 16.75 9.00061C16.75 8.8017 16.671 8.61093 16.5303 8.47028C16.3897 8.32963 16.1989 8.25061 16 8.25061H15.166C14.779 8.25061 14.436 8.25061 14.15 8.27761C13.8311 8.29847 13.5206 8.38856 13.24 8.54161C12.9647 8.70336 12.7279 8.92312 12.546 9.18561C12.375 9.41661 12.199 9.71061 12 10.0426L11.952 10.1226C11.865 10.2666 11.793 10.3866 11.728 10.4906L11.518 10.1136L9.809 7.00561C9.655 6.72561 9.502 6.44561 9.346 6.24061C9.176 6.01761 8.884 5.72061 8.416 5.69661C7.949 5.67061 7.627 5.93361 7.434 6.13761C7.257 6.32461 7.074 6.58561 6.891 6.84761L6.581 7.28961C6.354 7.61461 6.211 7.81661 6.088 7.96261C5.975 8.09661 5.912 8.14061 5.865 8.16461C5.819 8.18961 5.747 8.21561 5.572 8.23161C5.382 8.24861 5.134 8.24961 4.738 8.24961H4C3.80109 8.24961 3.61032 8.32863 3.46967 8.46928C3.32902 8.60993 3.25 8.8007 3.25 8.99961C3.25 9.19852 3.32902 9.38929 3.46967 9.52994C3.61032 9.67059 3.80109 9.74961 4 9.74961H4.768C5.125 9.74961 5.442 9.74961 5.708 9.72561C5.998 9.69861 6.279 9.64061 6.558 9.49561C6.838 9.34961 7.047 9.15261 7.234 8.93061C7.407 8.72661 7.588 8.46761 7.793 8.17461L8.093 7.74561Z" fill="currentColor"/>
  </g>
</svg>
