<svg width="24" height="24" viewBox="0 0 24 24" fill="none" xmlns="http://www.w3.org/2000/svg">
<g clip-path="url(#clip0_5022_1282)">
<path d="M17.5858 17.4142C17.2107 17.0391 17 16.5304 17 16C17 15.4696 17.2107 14.9609 17.5858 14.5858C17.9609 14.2107 18.4696 14 19 14C19.5304 14 20.0391 14.2107 20.4142 14.5858C20.7893 14.9609 21 15.4696 21 16C21 16.5304 20.7893 17.0391 20.4142 17.4142C20.0391 17.7893 19.5304 18 19 18C18.4696 18 17.9609 17.7893 17.5858 17.4142Z" stroke="currentColor" stroke-width="1.5" stroke-linecap="round" stroke-linejoin="round"/>
<path d="M16 21C16 19.9 16.9 19 18 19H20C21.1 19 22 19.9 22 21" stroke="currentColor" stroke-width="1.5" stroke-miterlimit="10" stroke-linecap="round"/>
<path d="M21.9209 10.8729C21.8709 6.09289 17.5109 2.21289 12.1709 2.21289C6.83092 2.21289 2.41092 6.14289 2.41092 10.9629C2.41092 12.3634 2.77694 13.724 3.48059 14.9527C3.64165 15.2339 3.68082 15.5722 3.56283 15.8741L2.46092 18.6929C2.36092 18.9529 2.41092 19.2429 2.59092 19.4529C2.77092 19.6629 3.05092 19.7529 3.32092 19.6929L7.31637 18.7978C7.53321 18.7493 7.75944 18.7758 7.96338 18.864C9.25299 19.422 10.6198 19.7129 11.9609 19.7129C12.0309 19.7129 12.1009 19.7129 12.1709 19.7129C12.3009 19.7129 12.4309 19.7029 12.5609 19.6929" stroke="currentColor" stroke-width="1.5" stroke-linecap="round"/>
</g>
<defs>
<clipPath id="clip0_5022_1282">
<rect width="24" height="24" fill="white"/>
</clipPath>
</defs>
</svg>
