<svg width="24" height="24" viewBox="0 0 24 24" fill="none" xmlns="http://www.w3.org/2000/svg">
<path d="M12.1504 13.5C12.5644 13.5002 12.9004 13.8359 12.9004 14.25C12.9004 14.6641 12.5644 14.9998 12.1504 15H8.75C5.29823 15 2.50001 16.7982 2.5 20.25V20.5H12.1504C12.5644 20.5002 12.9004 20.8359 12.9004 21.25C12.9001 21.6639 12.5643 21.9998 12.1504 22H2C1.44773 22 1.00002 21.5523 1 21V20.25C1.00001 15.9698 4.4698 13.5 8.75 13.5H12.1504Z" fill="currentColor"/>
<circle cx="10.5508" cy="7" r="3.75" stroke="currentColor" stroke-width="1.5"/>
<circle cx="17.75" cy="17.25" r="3.25" stroke="currentColor" stroke-width="1.5"/>
<path d="M20.5 20L22.5 22" stroke="currentColor" stroke-width="1.5" stroke-linecap="round"/>
</svg>
