<svg width="24" height="24" viewBox="0 0 24 24" fill="none" xmlns="http://www.w3.org/2000/svg">
<g clip-path="url(#clip0_5022_1659)">
<path d="M6 4.21387L6.15777 4.22099C6.47155 4.24939 6.77292 4.36212 7.0293 4.54858L14.2171 9.77607C15.4454 10.6694 15.717 12.3893 14.8237 13.6176C14.6544 13.8502 14.4498 14.0549 14.2171 14.2241L7.0293 19.4516C6.24766 20.0201 5.15318 19.8473 4.58471 19.0656C4.36718 18.7665 4.25 18.4062 4.25 18.0363V5.96387C4.25 4.99737 5.0335 4.21387 6 4.21387Z" fill="currentColor"/>
<path d="M19 4.25C19.3797 4.25 19.6935 4.53215 19.7432 4.89823L19.75 5V19C19.75 19.4142 19.4142 19.75 19 19.75C18.6203 19.75 18.3065 19.4678 18.2568 19.1018L18.25 19V5C18.25 4.58579 18.5858 4.25 19 4.25Z" fill="currentColor"/>
</g>
<defs>
<clipPath id="clip0_5022_1659">
<rect width="24" height="24" fill="white"/>
</clipPath>
</defs>
</svg>
