<svg width="24" height="24" viewBox="0 0 24 24" fill="none" xmlns="http://www.w3.org/2000/svg">
<g transform="scale(0.4 0.4)">
<g clip-path="url(#clip0_3710_8788)">
<path d="M30 60C46.5685 60 60 46.5685 60 30C60 13.4315 46.5685 0 30 0C13.4315 0 0 13.4315 0 30C0 46.5685 13.4315 60 30 60Z" fill="currentColor"/>
<path d="M31.012 19.6636C33.5995 17.1645 37.7125 17.2003 40.2562 19.744C42.725 22.2128 42.8313 26.1601 40.54 28.7666L40.3251 28.9998L36.931 32.3938C35.5783 33.747 33.7046 34.446 31.7962 34.3093C29.8877 34.1726 28.1327 33.2138 26.9866 31.6816C26.6765 31.267 26.7612 30.6795 27.1758 30.3694C27.5904 30.0592 28.1779 30.1439 28.4881 30.5585C29.3083 31.655 30.5643 32.3412 31.9301 32.4391C33.2049 32.5304 34.458 32.1007 35.4066 31.2555L35.6051 31.0681L38.9878 27.6856C40.7764 25.8338 40.7508 22.8902 38.9303 21.0698C37.1727 19.3121 34.368 19.2277 32.5186 20.8252L32.3242 21.0028L30.3783 22.9375C30.0111 23.3025 29.4175 23.3008 29.0524 22.9336C28.7206 22.5998 28.6918 22.0789 28.9652 21.7127L29.0563 21.6078L31.012 19.6636Z" fill="currentColor"/>
<path d="M27.8681 25.6526L28.2045 25.6681C30.1129 25.8048 31.8679 26.7636 33.014 28.2958C33.3241 28.7104 33.2394 29.2979 32.8248 29.608C32.4102 29.9182 31.8227 29.8335 31.5125 29.4189C30.6923 28.3224 29.4363 27.6361 28.0705 27.5383C26.7957 27.447 25.5426 27.8767 24.594 28.7219L24.3955 28.9093L21.0128 32.2918C19.2242 34.1436 19.2498 37.0872 21.0703 38.9076C22.8279 40.6653 25.6326 40.7497 27.4802 39.1539L27.6744 38.9765L29.6091 37.0418C29.9752 36.6757 30.5688 36.6757 30.9349 37.0418C31.2678 37.3747 31.298 37.8955 31.0257 38.2625L30.9349 38.3677L28.9886 40.3138C26.4011 42.8129 22.2881 42.7771 19.7444 40.2334C17.2756 37.7645 17.1693 33.8173 19.4606 31.2108L19.6755 30.9776L23.0696 27.5836C24.3427 26.31 26.0774 25.6159 27.8681 25.6526Z" fill="currentColor"/>
</g>
<defs>
<clipPath id="clip0_3710_8788">
<rect width="60" height="60" fill="white"/>
</clipPath>
</defs>
</g>
</svg>
