<svg width="24" height="24" viewBox="0 0 24 24" fill="none" xmlns="http://www.w3.org/2000/svg">
<path d="M12.001 0.799805C15.4666 0.799838 18.0514 1.46065 19.4756 1.94238C20.2583 2.20715 20.7274 2.95794 20.7275 3.78418V18.249C20.7275 19.1556 20.0739 19.8906 19.2676 19.8906H4.7334C3.9271 19.8906 3.27344 19.1556 3.27344 18.249V3.78418C3.2736 2.95794 3.7427 2.20716 4.52539 1.94238C5.94954 1.46062 8.53488 0.799805 12.001 0.799805ZM6.80762 13.8291C5.94087 13.8292 5.23837 14.5317 5.23828 15.3984C5.23828 16.2653 5.94082 16.9676 6.80762 16.9678C7.67452 16.9678 8.37793 16.2653 8.37793 15.3984C8.37784 14.5316 7.67446 13.8291 6.80762 13.8291ZM17.1924 13.8291C16.3258 13.8294 15.6231 14.5318 15.623 15.3984C15.623 16.2652 16.3257 16.9675 17.1924 16.9678C18.0593 16.9678 18.7627 16.2653 18.7627 15.3984C18.7626 14.5316 18.0592 13.8291 17.1924 13.8291ZM6.5459 4.61816C5.94341 4.61816 5.45508 5.10649 5.45508 5.70898V10.0723C5.45508 10.6748 5.94341 11.1631 6.5459 11.1631H17.4551C18.0575 11.163 18.5459 10.6747 18.5459 10.0723V5.70898C18.5459 5.10652 18.0575 4.61822 17.4551 4.61816H6.5459Z" fill="currentColor"/>
<path d="M3.65815 22.5374C3.45131 22.8924 3.64383 23.3466 4.08816 23.5519C4.5325 23.7572 5.06038 23.6358 5.26723 23.2809L4.46269 22.9091L3.65815 22.5374ZM7.00543 18.5454L6.20089 18.1737L3.65815 22.5374L4.46269 22.9091L5.26723 23.2809L7.80997 18.9171L7.00543 18.5454Z" fill="currentColor"/>
<path d="M19.5523 22.9097L17.0096 18.5459" stroke="currentColor" stroke-width="1.63636" stroke-linecap="round"/>
<path d="M18.554 22.0906C19.0059 22.0906 19.3722 21.7243 19.3722 21.2725C19.3722 20.8206 19.0059 20.4543 18.554 20.4543V21.2725V22.0906ZM5.42578 21.2725V22.0906H18.554V21.2725V20.4543H5.42578V21.2725Z" fill="currentColor"/>
</svg>
