<svg width="24" height="24" viewBox="0 0 24 24" fill="none" xmlns="http://www.w3.org/2000/svg">
  <g transform="translate(1.31 3.26)">
    <g id="ic_eap_camera_off_black">
<path id="Vector 3638" d="M2.01563 2.38483L17.164 15.153" stroke="currentColor" stroke-width="2" stroke-linecap="round"/>
<path id="Vector" d="M15.895 6.15181C15.4186 6.43118 15.2589 7.04387 15.5383 7.52028C15.8176 7.9967 16.4303 8.15644 16.9067 7.87707L16.4009 7.01444L15.895 6.15181ZM16.5135 6.94843L16.0076 6.0858L16.0076 6.0858L16.5135 6.94843ZM19.8712 12.5299C19.8712 13.0822 20.3189 13.5299 20.8712 13.5299C21.4235 13.5299 21.8712 13.0822 21.8712 12.5299H20.8712H19.8712ZM16.4009 7.01444L16.9067 7.87707L17.0193 7.81105L16.5135 6.94843L16.0076 6.0858L15.895 6.15181L16.4009 7.01444ZM20.8712 8.48364H19.8712V9.47731H20.8712H21.8712V8.48364H20.8712ZM16.5135 6.94843L17.0193 7.81105C17.9891 7.24239 18.6345 6.86608 19.1311 6.65289C19.627 6.43996 19.7592 6.48863 19.7788 6.49553L20.1111 5.55235L20.4433 4.60917C19.7028 4.34828 18.982 4.54036 18.342 4.81511C17.7027 5.0896 16.9295 5.54522 16.0076 6.0858L16.5135 6.94843ZM20.8712 8.48364H21.8712C21.8712 7.64163 21.876 6.8553 21.757 6.25734C21.6939 5.94034 21.583 5.59653 21.3624 5.28978C21.128 4.96394 20.8127 4.73931 20.4433 4.60917L20.1111 5.55235L19.7788 6.49553C19.7894 6.49929 19.7592 6.48607 19.7387 6.4575C19.7319 6.44803 19.7635 6.48736 19.7954 6.64776C19.8664 7.00458 19.8712 7.54999 19.8712 8.48364H20.8712ZM20.8712 9.47731H19.8712C19.8712 9.48049 19.8712 9.48366 19.8712 9.48682C19.8712 9.48999 19.8712 9.49316 19.8712 9.49632C19.8712 9.49948 19.8712 9.50264 19.8712 9.5058C19.8712 9.50895 19.8712 9.51211 19.8712 9.51526C19.8712 9.51841 19.8712 9.52156 19.8712 9.5247C19.8712 9.52785 19.8712 9.53099 19.8712 9.53413C19.8712 9.53727 19.8712 9.5404 19.8712 9.54354C19.8712 9.54667 19.8712 9.5498 19.8712 9.55293C19.8712 9.55606 19.8712 9.55919 19.8712 9.56231C19.8712 9.56543 19.8712 9.56855 19.8712 9.57167C19.8712 9.57479 19.8712 9.5779 19.8712 9.58101C19.8712 9.58412 19.8712 9.58723 19.8712 9.59034C19.8712 9.59344 19.8712 9.59655 19.8712 9.59965C19.8712 9.60275 19.8712 9.60585 19.8712 9.60894C19.8712 9.61204 19.8712 9.61513 19.8712 9.61822C19.8712 9.62131 19.8712 9.62439 19.8712 9.62748C19.8712 9.63056 19.8712 9.63364 19.8712 9.63672C19.8712 9.6398 19.8712 9.64288 19.8712 9.64595C19.8712 9.64902 19.8712 9.65209 19.8712 9.65516C19.8712 9.65823 19.8712 9.66129 19.8712 9.66435C19.8712 9.66741 19.8712 9.67047 19.8712 9.67353C19.8712 9.67659 19.8712 9.67964 19.8712 9.68269C19.8712 9.68574 19.8712 9.68879 19.8712 9.69183C19.8712 9.69488 19.8712 9.69792 19.8712 9.70096C19.8712 9.704 19.8712 9.70704 19.8712 9.71007C19.8712 9.71311 19.8712 9.71614 19.8712 9.71917C19.8712 9.7222 19.8712 9.72522 19.8712 9.72824C19.8712 9.73127 19.8712 9.73429 19.8712 9.73731C19.8712 9.74032 19.8712 9.74334 19.8712 9.74635C19.8712 9.74936 19.8712 9.75237 19.8712 9.75538C19.8712 9.75839 19.8712 9.76139 19.8712 9.76439C19.8712 9.76739 19.8712 9.77039 19.8712 9.77339C19.8712 9.77638 19.8712 9.77938 19.8712 9.78237C19.8712 9.78536 19.8712 9.78835 19.8712 9.79133C19.8712 9.79432 19.8712 9.7973 19.8712 9.80028C19.8712 9.80326 19.8712 9.80623 19.8712 9.80921C19.8712 9.81218 19.8712 9.81515 19.8712 9.81812C19.8712 9.82109 19.8712 9.82406 19.8712 9.82702C19.8712 9.82999 19.8712 9.83295 19.8712 9.8359C19.8712 9.83886 19.8712 9.84182 19.8712 9.84477C19.8712 9.84772 19.8712 9.85067 19.8712 9.85362C19.8712 9.85657 19.8712 9.85951 19.8712 9.86245C19.8712 9.86539 19.8712 9.86833 19.8712 9.87127C19.8712 9.87421 19.8712 9.87714 19.8712 9.88007C19.8712 9.883 19.8712 9.88593 19.8712 9.88886C19.8712 9.89178 19.8712 9.8947 19.8712 9.89762C19.8712 9.90054 19.8712 9.90346 19.8712 9.90638C19.8712 9.90929 19.8712 9.9122 19.8712 9.91511C19.8712 9.91802 19.8712 9.92093 19.8712 9.92383C19.8712 9.92674 19.8712 9.92964 19.8712 9.93254C19.8712 9.93544 19.8712 9.93833 19.8712 9.94123C19.8712 9.94412 19.8712 9.94701 19.8712 9.9499C19.8712 9.95279 19.8712 9.95567 19.8712 9.95856C19.8712 9.96144 19.8712 9.96432 19.8712 9.9672C19.8712 9.97007 19.8712 9.97295 19.8712 9.97582C19.8712 9.97869 19.8712 9.98156 19.8712 9.98443C19.8712 9.9873 19.8712 9.99016 19.8712 9.99302C19.8712 9.99588 19.8712 9.99874 19.8712 10.0016C19.8712 10.0045 19.8712 10.0073 19.8712 10.0102C19.8712 10.013 19.8712 10.0159 19.8712 10.0187C19.8712 10.0216 19.8712 10.0244 19.8712 10.0272C19.8712 10.0301 19.8712 10.0329 19.8712 10.0357C19.8712 10.0386 19.8712 10.0414 19.8712 10.0442C19.8712 10.0471 19.8712 10.0499 19.8712 10.0527C19.8712 10.0556 19.8712 10.0584 19.8712 10.0612C19.8712 10.064 19.8712 10.0668 19.8712 10.0696C19.8712 10.0725 19.8712 10.0753 19.8712 10.0781C19.8712 10.0809 19.8712 10.0837 19.8712 10.0865C19.8712 10.0893 19.8712 10.0921 19.8712 10.0949C19.8712 10.0977 19.8712 10.1005 19.8712 10.1033C19.8712 10.1061 19.8712 10.1089 19.8712 10.1117C19.8712 10.1144 19.8712 10.1172 19.8712 10.12C19.8712 10.1228 19.8712 10.1256 19.8712 10.1284C19.8712 10.1311 19.8712 10.1339 19.8712 10.1367C19.8712 10.1395 19.8712 10.1422 19.8712 10.145C19.8712 10.1478 19.8712 10.1505 19.8712 10.1533C19.8712 10.156 19.8712 10.1588 19.8712 10.1616C19.8712 10.1643 19.8712 10.1671 19.8712 10.1698C19.8712 10.1726 19.8712 10.1753 19.8712 10.1781C19.8712 10.1808 19.8712 10.1836 19.8712 10.1863C19.8712 10.189 19.8712 10.1918 19.8712 10.1945C19.8712 10.1973 19.8712 10.2 19.8712 10.2027C19.8712 10.2054 19.8712 10.2082 19.8712 10.2109C19.8712 10.2136 19.8712 10.2164 19.8712 10.2191C19.8712 10.2218 19.8712 10.2245 19.8712 10.2272C19.8712 10.2299 19.8712 10.2327 19.8712 10.2354C19.8712 10.2381 19.8712 10.2408 19.8712 10.2435C19.8712 10.2462 19.8712 10.2489 19.8712 10.2516C19.8712 10.2543 19.8712 10.257 19.8712 10.2597C19.8712 10.2624 19.8712 10.2651 19.8712 10.2678C19.8712 10.2705 19.8712 10.2731 19.8712 10.2758C19.8712 10.2785 19.8712 10.2812 19.8712 10.2839C19.8712 10.2866 19.8712 10.2892 19.8712 10.2919C19.8712 10.2946 19.8712 10.2973 19.8712 10.2999C19.8712 10.3026 19.8712 10.3053 19.8712 10.3079C19.8712 10.3106 19.8712 10.3133 19.8712 10.3159C19.8712 10.3186 19.8712 10.3212 19.8712 10.3239C19.8712 10.3265 19.8712 10.3292 19.8712 10.3318C19.8712 10.3345 19.8712 10.3371 19.8712 10.3398C19.8712 10.3424 19.8712 10.3451 19.8712 10.3477C19.8712 10.3503 19.8712 10.353 19.8712 10.3556C19.8712 10.3582 19.8712 10.3609 19.8712 10.3635C19.8712 10.3661 19.8712 10.3688 19.8712 10.3714C19.8712 10.374 19.8712 10.3766 19.8712 10.3792C19.8712 10.3819 19.8712 10.3845 19.8712 10.3871C19.8712 10.3897 19.8712 10.3923 19.8712 10.3949C19.8712 10.3975 19.8712 10.4001 19.8712 10.4028C19.8712 10.4054 19.8712 10.408 19.8712 10.4106C19.8712 10.4132 19.8712 10.4158 19.8712 10.4183C19.8712 10.4209 19.8712 10.4235 19.8712 10.4261C19.8712 10.4287 19.8712 10.4313 19.8712 10.4339C19.8712 10.4365 19.8712 10.439 19.8712 10.4416C19.8712 10.4442 19.8712 10.4468 19.8712 10.4494C19.8712 10.4519 19.8712 10.4545 19.8712 10.4571C19.8712 10.4596 19.8712 10.4622 19.8712 10.4648C19.8712 10.4673 19.8712 10.4699 19.8712 10.4725C19.8712 10.475 19.8712 10.4776 19.8712 10.4801C19.8712 10.4827 19.8712 10.4852 19.8712 10.4878C19.8712 10.4903 19.8712 10.4929 19.8712 10.4954C19.8712 10.498 19.8712 10.5005 19.8712 10.503C19.8712 10.5056 19.8712 10.5081 19.8712 10.5107C19.8712 10.5132 19.8712 10.5157 19.8712 10.5182C19.8712 10.5208 19.8712 10.5233 19.8712 10.5258C19.8712 10.5284 19.8712 10.5309 19.8712 10.5334C19.8712 10.5359 19.8712 10.5384 19.8712 10.5409C19.8712 10.5435 19.8712 10.546 19.8712 10.5485C19.8712 10.551 19.8712 10.5535 19.8712 10.556C19.8712 10.5585 19.8712 10.561 19.8712 10.5635C19.8712 10.566 19.8712 10.5685 19.8712 10.571C19.8712 10.5735 19.8712 10.576 19.8712 10.5785C19.8712 10.581 19.8712 10.5835 19.8712 10.5859C19.8712 10.5884 19.8712 10.5909 19.8712 10.5934C19.8712 10.5959 19.8712 10.5984 19.8712 10.6008C19.8712 10.6033 19.8712 10.6058 19.8712 10.6082C19.8712 10.6107 19.8712 10.6132 19.8712 10.6157C19.8712 10.6181 19.8712 10.6206 19.8712 10.623C19.8712 10.6255 19.8712 10.628 19.8712 10.6304C19.8712 10.6329 19.8712 10.6353 19.8712 10.6378C19.8712 10.6402 19.8712 10.6427 19.8712 10.6451C19.8712 10.6476 19.8712 10.65 19.8712 10.6525C19.8712 10.6549 19.8712 10.6573 19.8712 10.6598C19.8712 10.6622 19.8712 10.6647 19.8712 10.6671C19.8712 10.6695 19.8712 10.6719 19.8712 10.6744C19.8712 10.6768 19.8712 10.6792 19.8712 10.6817C19.8712 10.6841 19.8712 10.6865 19.8712 10.6889C19.8712 10.6913 19.8712 10.6937 19.8712 10.6962C19.8712 10.6986 19.8712 10.701 19.8712 10.7034C19.8712 10.7058 19.8712 10.7082 19.8712 10.7106C19.8712 10.713 19.8712 10.7154 19.8712 10.7178C19.8712 10.7202 19.8712 10.7226 19.8712 10.725C19.8712 10.7274 19.8712 10.7298 19.8712 10.7322C19.8712 10.7346 19.8712 10.737 19.8712 10.7393C19.8712 10.7417 19.8712 10.7441 19.8712 10.7465C19.8712 10.7489 19.8712 10.7512 19.8712 10.7536C19.8712 10.756 19.8712 10.7584 19.8712 10.7607C19.8712 10.7631 19.8712 10.7655 19.8712 10.7678C19.8712 10.7702 19.8712 10.7726 19.8712 10.7749C19.8712 10.7773 19.8712 10.7796 19.8712 10.782C19.8712 10.7844 19.8712 10.7867 19.8712 10.7891C19.8712 10.7914 19.8712 10.7938 19.8712 10.7961C19.8712 10.7985 19.8712 10.8008 19.8712 10.8031C19.8712 10.8055 19.8712 10.8078 19.8712 10.8102C19.8712 10.8125 19.8712 10.8148 19.8712 10.8172C19.8712 10.8195 19.8712 10.8218 19.8712 10.8242C19.8712 10.8265 19.8712 10.8288 19.8712 10.8311C19.8712 10.8335 19.8712 10.8358 19.8712 10.8381C19.8712 10.8404 19.8712 10.8427 19.8712 10.8451C19.8712 10.8474 19.8712 10.8497 19.8712 10.852C19.8712 10.8543 19.8712 10.8566 19.8712 10.8589C19.8712 10.8612 19.8712 10.8635 19.8712 10.8658C19.8712 10.8681 19.8712 10.8704 19.8712 10.8727C19.8712 10.875 19.8712 10.8773 19.8712 10.8796C19.8712 10.8819 19.8712 10.8842 19.8712 10.8865C19.8712 10.8887 19.8712 10.891 19.8712 10.8933C19.8712 10.8956 19.8712 10.8979 19.8712 10.9001C19.8712 10.9024 19.8712 10.9047 19.8712 10.907C19.8712 10.9092 19.8712 10.9115 19.8712 10.9138C19.8712 10.916 19.8712 10.9183 19.8712 10.9206C19.8712 10.9228 19.8712 10.9251 19.8712 10.9274C19.8712 10.9296 19.8712 10.9319 19.8712 10.9341C19.8712 10.9364 19.8712 10.9386 19.8712 10.9409C19.8712 10.9431 19.8712 10.9454 19.8712 10.9476C19.8712 10.9499 19.8712 10.9521 19.8712 10.9544C19.8712 10.9566 19.8712 10.9588 19.8712 10.9611C19.8712 10.9633 19.8712 10.9655 19.8712 10.9678C19.8712 10.97 19.8712 10.9722 19.8712 10.9745C19.8712 10.9767 19.8712 10.9789 19.8712 10.9811C19.8712 10.9833 19.8712 10.9856 19.8712 10.9878C19.8712 10.99 19.8712 10.9922 19.8712 10.9944C19.8712 10.9966 19.8712 10.9989 19.8712 11.0011C19.8712 11.0033 19.8712 11.0055 19.8712 11.0077C19.8712 11.0099 19.8712 11.0121 19.8712 11.0143C19.8712 11.0165 19.8712 11.0187 19.8712 11.0209C19.8712 11.0231 19.8712 11.0253 19.8712 11.0275C19.8712 11.0296 19.8712 11.0318 19.8712 11.034C19.8712 11.0362 19.8712 11.0384 19.8712 11.0406C19.8712 11.0428 19.8712 11.0449 19.8712 11.0471C19.8712 11.0493 19.8712 11.0515 19.8712 11.0536C19.8712 11.0558 19.8712 11.058 19.8712 11.0601C19.8712 11.0623 19.8712 11.0645 19.8712 11.0666C19.8712 11.0688 19.8712 11.071 19.8712 11.0731C19.8712 11.0753 19.8712 11.0774 19.8712 11.0796C19.8712 11.0818 19.8712 11.0839 19.8712 11.0861C19.8712 11.0882 19.8712 11.0904 19.8712 11.0925C19.8712 11.0947 19.8712 11.0968 19.8712 11.0989C19.8712 11.1011 19.8712 11.1032 19.8712 11.1054C19.8712 11.1075 19.8712 11.1096 19.8712 11.1118C19.8712 11.1139 19.8712 11.116 19.8712 11.1181C19.8712 11.1203 19.8712 11.1224 19.8712 11.1245C19.8712 11.1267 19.8712 11.1288 19.8712 11.1309C19.8712 11.133 19.8712 11.1351 19.8712 11.1372C19.8712 11.1394 19.8712 11.1415 19.8712 11.1436C19.8712 11.1457 19.8712 11.1478 19.8712 11.1499C19.8712 11.152 19.8712 11.1541 19.8712 11.1562C19.8712 11.1583 19.8712 11.1604 19.8712 11.1625C19.8712 11.1646 19.8712 11.1667 19.8712 11.1688C19.8712 11.1709 19.8712 11.173 19.8712 11.1751C19.8712 11.1772 19.8712 11.1793 19.8712 11.1813C19.8712 11.1834 19.8712 11.1855 19.8712 11.1876C19.8712 11.1897 19.8712 11.1917 19.8712 11.1938C19.8712 11.1959 19.8712 11.198 19.8712 11.2C19.8712 11.2021 19.8712 11.2042 19.8712 11.2062C19.8712 11.2083 19.8712 11.2104 19.8712 11.2124C19.8712 11.2145 19.8712 11.2166 19.8712 11.2186C19.8712 11.2207 19.8712 11.2227 19.8712 11.2248C19.8712 11.2268 19.8712 11.2289 19.8712 11.2309C19.8712 11.233 19.8712 11.235 19.8712 11.2371C19.8712 11.2391 19.8712 11.2412 19.8712 11.2432C19.8712 11.2453 19.8712 11.2473 19.8712 11.2493C19.8712 11.2514 19.8712 11.2534 19.8712 11.2554C19.8712 11.2575 19.8712 11.2595 19.8712 11.2615C19.8712 11.2636 19.8712 11.2656 19.8712 11.2676C19.8712 11.2696 19.8712 11.2717 19.8712 11.2737C19.8712 11.2757 19.8712 11.2777 19.8712 11.2797C19.8712 11.2817 19.8712 11.2838 19.8712 11.2858C19.8712 11.2878 19.8712 11.2898 19.8712 11.2918C19.8712 11.2938 19.8712 11.2958 19.8712 11.2978C19.8712 11.2998 19.8712 11.3018 19.8712 11.3038C19.8712 11.3058 19.8712 11.3078 19.8712 11.3098C19.8712 11.3118 19.8712 11.3138 19.8712 11.3158C19.8712 11.3178 19.8712 11.3198 19.8712 11.3217C19.8712 11.3237 19.8712 11.3257 19.8712 11.3277C19.8712 11.3297 19.8712 11.3316 19.8712 11.3336C19.8712 11.3356 19.8712 11.3376 19.8712 11.3396C19.8712 11.3415 19.8712 11.3435 19.8712 11.3455C19.8712 11.3474 19.8712 11.3494 19.8712 11.3514C19.8712 11.3533 19.8712 11.3553 19.8712 11.3573C19.8712 11.3592 19.8712 11.3612 19.8712 11.3631C19.8712 11.3651 19.8712 11.367 19.8712 11.369C19.8712 11.3709 19.8712 11.3729 19.8712 11.3748C19.8712 11.3768 19.8712 11.3787 19.8712 11.3807C19.8712 11.3826 19.8712 11.3846 19.8712 11.3865C19.8712 11.3884 19.8712 11.3904 19.8712 11.3923C19.8712 11.3943 19.8712 11.3962 19.8712 11.3981C19.8712 11.4001 19.8712 11.402 19.8712 11.4039C19.8712 11.4058 19.8712 11.4078 19.8712 11.4097C19.8712 11.4116 19.8712 11.4135 19.8712 11.4154C19.8712 11.4174 19.8712 11.4193 19.8712 11.4212C19.8712 11.4231 19.8712 11.425 19.8712 11.4269C19.8712 11.4288 19.8712 11.4308 19.8712 11.4327C19.8712 11.4346 19.8712 11.4365 19.8712 11.4384C19.8712 11.4403 19.8712 11.4422 19.8712 11.4441C19.8712 11.446 19.8712 11.4479 19.8712 11.4498C19.8712 11.4517 19.8712 11.4536 19.8712 11.4554C19.8712 11.4573 19.8712 11.4592 19.8712 11.4611C19.8712 11.463 19.8712 11.4649 19.8712 11.4668C19.8712 11.4686 19.8712 11.4705 19.8712 11.4724C19.8712 11.4743 19.8712 11.4762 19.8712 11.478C19.8712 11.4799 19.8712 11.4818 19.8712 11.4836C19.8712 11.4855 19.8712 11.4874 19.8712 11.4892C19.8712 11.4911 19.8712 11.493 19.8712 11.4948C19.8712 11.4967 19.8712 11.4986 19.8712 11.5004C19.8712 11.5023 19.8712 11.5041 19.8712 11.506C19.8712 11.5078 19.8712 11.5097 19.8712 11.5115C19.8712 11.5134 19.8712 11.5152 19.8712 11.5171C19.8712 11.5189 19.8712 11.5208 19.8712 11.5226C19.8712 11.5245 19.8712 11.5263 19.8712 11.5281C19.8712 11.53 19.8712 11.5318 19.8712 11.5336C19.8712 11.5355 19.8712 11.5373 19.8712 11.5391C19.8712 11.541 19.8712 11.5428 19.8712 11.5446C19.8712 11.5464 19.8712 11.5483 19.8712 11.5501C19.8712 11.5519 19.8712 11.5537 19.8712 11.5556C19.8712 11.5574 19.8712 11.5592 19.8712 11.561C19.8712 11.5628 19.8712 11.5646 19.8712 11.5664C19.8712 11.5682 19.8712 11.5701 19.8712 11.5719C19.8712 11.5737 19.8712 11.5755 19.8712 11.5773C19.8712 11.5791 19.8712 11.5809 19.8712 11.5827C19.8712 11.5845 19.8712 11.5863 19.8712 11.5881C19.8712 11.5899 19.8712 11.5916 19.8712 11.5934C19.8712 11.5952 19.8712 11.597 19.8712 11.5988C19.8712 11.6006 19.8712 11.6024 19.8712 11.6041C19.8712 11.6059 19.8712 11.6077 19.8712 11.6095C19.8712 11.6113 19.8712 11.613 19.8712 11.6148C19.8712 11.6166 19.8712 11.6184 19.8712 11.6201C19.8712 11.6219 19.8712 11.6237 19.8712 11.6254C19.8712 11.6272 19.8712 11.629 19.8712 11.6307C19.8712 11.6325 19.8712 11.6343 19.8712 11.636C19.8712 11.6378 19.8712 11.6395 19.8712 11.6413C19.8712 11.643 19.8712 11.6448 19.8712 11.6465C19.8712 11.6483 19.8712 11.65 19.8712 11.6518C19.8712 11.6535 19.8712 11.6553 19.8712 11.657C19.8712 11.6588 19.8712 11.6605 19.8712 11.6623C19.8712 11.664 19.8712 11.6657 19.8712 11.6675C19.8712 11.6692 19.8712 11.6709 19.8712 11.6727C19.8712 11.6744 19.8712 11.6761 19.8712 11.6779C19.8712 11.6796 19.8712 11.6813 19.8712 11.683C19.8712 11.6848 19.8712 11.6865 19.8712 11.6882C19.8712 11.6899 19.8712 11.6916 19.8712 11.6934C19.8712 11.6951 19.8712 11.6968 19.8712 11.6985C19.8712 11.7002 19.8712 11.7019 19.8712 11.7036C19.8712 11.7053 19.8712 11.707 19.8712 11.7087C19.8712 11.7105 19.8712 11.7122 19.8712 11.7139C19.8712 11.7156 19.8712 11.7173 19.8712 11.719C19.8712 11.7207 19.8712 11.7223 19.8712 11.724C19.8712 11.7257 19.8712 11.7274 19.8712 11.7291C19.8712 11.7308 19.8712 11.7325 19.8712 11.7342C19.8712 11.7359 19.8712 11.7375 19.8712 11.7392C19.8712 11.7409 19.8712 11.7426 19.8712 11.7443C19.8712 11.7459 19.8712 11.7476 19.8712 11.7493C19.8712 11.751 19.8712 11.7526 19.8712 11.7543C19.8712 11.756 19.8712 11.7577 19.8712 11.7593C19.8712 11.761 19.8712 11.7627 19.8712 11.7643C19.8712 11.766 19.8712 11.7676 19.8712 11.7693C19.8712 11.771 19.8712 11.7726 19.8712 11.7743C19.8712 11.7759 19.8712 11.7776 19.8712 11.7792C19.8712 11.7809 19.8712 11.7825 19.8712 11.7842C19.8712 11.7858 19.8712 11.7875 19.8712 11.7891C19.8712 11.7908 19.8712 11.7924 19.8712 11.7941C19.8712 11.7957 19.8712 11.7973 19.8712 11.799C19.8712 11.8006 19.8712 11.8022 19.8712 11.8039C19.8712 11.8055 19.8712 11.8071 19.8712 11.8088C19.8712 11.8104 19.8712 11.812 19.8712 11.8137C19.8712 11.8153 19.8712 11.8169 19.8712 11.8185C19.8712 11.8202 19.8712 11.8218 19.8712 11.8234C19.8712 11.825 19.8712 11.8266 19.8712 11.8282C19.8712 11.8299 19.8712 11.8315 19.8712 11.8331C19.8712 11.8347 19.8712 11.8363 19.8712 11.8379C19.8712 11.8395 19.8712 11.8411 19.8712 11.8427C19.8712 11.8443 19.8712 11.8459 19.8712 11.8475C19.8712 11.8491 19.8712 11.8507 19.8712 11.8523C19.8712 11.8539 19.8712 11.8555 19.8712 11.8571C19.8712 11.8587 19.8712 11.8603 19.8712 11.8619C19.8712 11.8635 19.8712 11.8651 19.8712 11.8667C19.8712 11.8682 19.8712 11.8698 19.8712 11.8714C19.8712 11.873 19.8712 11.8746 19.8712 11.8762C19.8712 11.8777 19.8712 11.8793 19.8712 11.8809C19.8712 11.8825 19.8712 11.884 19.8712 11.8856C19.8712 11.8872 19.8712 11.8887 19.8712 11.8903C19.8712 11.8919 19.8712 11.8934 19.8712 11.895C19.8712 11.8966 19.8712 11.8981 19.8712 11.8997C19.8712 11.9013 19.8712 11.9028 19.8712 11.9044C19.8712 11.9059 19.8712 11.9075 19.8712 11.909C19.8712 11.9106 19.8712 11.9122 19.8712 11.9137C19.8712 11.9153 19.8712 11.9168 19.8712 11.9183C19.8712 11.9199 19.8712 11.9214 19.8712 11.923C19.8712 11.9245 19.8712 11.9261 19.8712 11.9276C19.8712 11.9291 19.8712 11.9307 19.8712 11.9322C19.8712 11.9338 19.8712 11.9353 19.8712 11.9368C19.8712 11.9384 19.8712 11.9399 19.8712 11.9414C19.8712 11.9429 19.8712 11.9445 19.8712 11.946C19.8712 11.9475 19.8712 11.949 19.8712 11.9506C19.8712 11.9521 19.8712 11.9536 19.8712 11.9551C19.8712 11.9566 19.8712 11.9582 19.8712 11.9597C19.8712 11.9612 19.8712 11.9627 19.8712 11.9642C19.8712 11.9657 19.8712 11.9672 19.8712 11.9687C19.8712 11.9702 19.8712 11.9718 19.8712 11.9733C19.8712 11.9748 19.8712 11.9763 19.8712 11.9778C19.8712 11.9793 19.8712 11.9808 19.8712 11.9823C19.8712 11.9838 19.8712 11.9853 19.8712 11.9868C19.8712 11.9882 19.8712 11.9897 19.8712 11.9912C19.8712 11.9927 19.8712 11.9942 19.8712 11.9957C19.8712 11.9972 19.8712 11.9987 19.8712 12.0001C19.8712 12.0016 19.8712 12.0031 19.8712 12.0046C19.8712 12.0061 19.8712 12.0076 19.8712 12.009C19.8712 12.0105 19.8712 12.012 19.8712 12.0135C19.8712 12.0149 19.8712 12.0164 19.8712 12.0179C19.8712 12.0193 19.8712 12.0208 19.8712 12.0223C19.8712 12.0237 19.8712 12.0252 19.8712 12.0267C19.8712 12.0281 19.8712 12.0296 19.8712 12.0311C19.8712 12.0325 19.8712 12.034 19.8712 12.0354C19.8712 12.0369 19.8712 12.0383 19.8712 12.0398C19.8712 12.0412 19.8712 12.0427 19.8712 12.0441C19.8712 12.0456 19.8712 12.047 19.8712 12.0485C19.8712 12.0499 19.8712 12.0514 19.8712 12.0528C19.8712 12.0543 19.8712 12.0557 19.8712 12.0571C19.8712 12.0586 19.8712 12.06 19.8712 12.0615C19.8712 12.0629 19.8712 12.0643 19.8712 12.0658C19.8712 12.0672 19.8712 12.0686 19.8712 12.07C19.8712 12.0715 19.8712 12.0729 19.8712 12.0743C19.8712 12.0758 19.8712 12.0772 19.8712 12.0786C19.8712 12.08 19.8712 12.0814 19.8712 12.0829C19.8712 12.0843 19.8712 12.0857 19.8712 12.0871C19.8712 12.0885 19.8712 12.0899 19.8712 12.0914C19.8712 12.0928 19.8712 12.0942 19.8712 12.0956C19.8712 12.097 19.8712 12.0984 19.8712 12.0998C19.8712 12.1012 19.8712 12.1026 19.8712 12.104C19.8712 12.1054 19.8712 12.1068 19.8712 12.1082C19.8712 12.1096 19.8712 12.111 19.8712 12.1124C19.8712 12.1138 19.8712 12.1152 19.8712 12.1166C19.8712 12.118 19.8712 12.1194 19.8712 12.1208C19.8712 12.1222 19.8712 12.1236 19.8712 12.1249C19.8712 12.1263 19.8712 12.1277 19.8712 12.1291C19.8712 12.1305 19.8712 12.1319 19.8712 12.1332C19.8712 12.1346 19.8712 12.136 19.8712 12.1374C19.8712 12.1387 19.8712 12.1401 19.8712 12.1415C19.8712 12.1429 19.8712 12.1442 19.8712 12.1456C19.8712 12.147 19.8712 12.1483 19.8712 12.1497C19.8712 12.1511 19.8712 12.1524 19.8712 12.1538C19.8712 12.1552 19.8712 12.1565 19.8712 12.1579C19.8712 12.1592 19.8712 12.1606 19.8712 12.162C19.8712 12.1633 19.8712 12.1647 19.8712 12.166C19.8712 12.1674 19.8712 12.1687 19.8712 12.1701C19.8712 12.1714 19.8712 12.1728 19.8712 12.1741C19.8712 12.1755 19.8712 12.1768 19.8712 12.1782C19.8712 12.1795 19.8712 12.1809 19.8712 12.1822C19.8712 12.1835 19.8712 12.1849 19.8712 12.1862C19.8712 12.1875 19.8712 12.1889 19.8712 12.1902C19.8712 12.1916 19.8712 12.1929 19.8712 12.1942C19.8712 12.1955 19.8712 12.1969 19.8712 12.1982C19.8712 12.1995 19.8712 12.2009 19.8712 12.2022C19.8712 12.2035 19.8712 12.2048 19.8712 12.2062C19.8712 12.2075 19.8712 12.2088 19.8712 12.2101C19.8712 12.2114 19.8712 12.2127 19.8712 12.2141C19.8712 12.2154 19.8712 12.2167 19.8712 12.218C19.8712 12.2193 19.8712 12.2206 19.8712 12.2219C19.8712 12.2232 19.8712 12.2246 19.8712 12.2259C19.8712 12.2272 19.8712 12.2285 19.8712 12.2298C19.8712 12.2311 19.8712 12.2324 19.8712 12.2337C19.8712 12.235 19.8712 12.2363 19.8712 12.2376C19.8712 12.2389 19.8712 12.2402 19.8712 12.2415C19.8712 12.2427 19.8712 12.244 19.8712 12.2453C19.8712 12.2466 19.8712 12.2479 19.8712 12.2492C19.8712 12.2505 19.8712 12.2518 19.8712 12.2531C19.8712 12.2543 19.8712 12.2556 19.8712 12.2569C19.8712 12.2582 19.8712 12.2595 19.8712 12.2607C19.8712 12.262 19.8712 12.2633 19.8712 12.2646C19.8712 12.2658 19.8712 12.2671 19.8712 12.2684C19.8712 12.2697 19.8712 12.2709 19.8712 12.2722C19.8712 12.2735 19.8712 12.2747 19.8712 12.276C19.8712 12.2773 19.8712 12.2785 19.8712 12.2798C19.8712 12.2811 19.8712 12.2823 19.8712 12.2836C19.8712 12.2848 19.8712 12.2861 19.8712 12.2874C19.8712 12.2886 19.8712 12.2899 19.8712 12.2911C19.8712 12.2924 19.8712 12.2936 19.8712 12.2949C19.8712 12.2961 19.8712 12.2974 19.8712 12.2986C19.8712 12.2999 19.8712 12.3011 19.8712 12.3024C19.8712 12.3036 19.8712 12.3048 19.8712 12.3061C19.8712 12.3073 19.8712 12.3086 19.8712 12.3098C19.8712 12.311 19.8712 12.3123 19.8712 12.3135C19.8712 12.3148 19.8712 12.316 19.8712 12.3172C19.8712 12.3184 19.8712 12.3197 19.8712 12.3209C19.8712 12.3221 19.8712 12.3234 19.8712 12.3246C19.8712 12.3258 19.8712 12.327 19.8712 12.3283C19.8712 12.3295 19.8712 12.3307 19.8712 12.3319C19.8712 12.3332 19.8712 12.3344 19.8712 12.3356C19.8712 12.3368 19.8712 12.338 19.8712 12.3392C19.8712 12.3405 19.8712 12.3417 19.8712 12.3429C19.8712 12.3441 19.8712 12.3453 19.8712 12.3465C19.8712 12.3477 19.8712 12.3489 19.8712 12.3501C19.8712 12.3513 19.8712 12.3525 19.8712 12.3537C19.8712 12.3549 19.8712 12.3561 19.8712 12.3573C19.8712 12.3585 19.8712 12.3597 19.8712 12.3609C19.8712 12.3621 19.8712 12.3633 19.8712 12.3645C19.8712 12.3657 19.8712 12.3669 19.8712 12.3681C19.8712 12.3693 19.8712 12.3705 19.8712 12.3717C19.8712 12.3729 19.8712 12.3741 19.8712 12.3752C19.8712 12.3764 19.8712 12.3776 19.8712 12.3788C19.8712 12.38 19.8712 12.3812 19.8712 12.3823C19.8712 12.3835 19.8712 12.3847 19.8712 12.3859C19.8712 12.387 19.8712 12.3882 19.8712 12.3894C19.8712 12.3906 19.8712 12.3917 19.8712 12.3929C19.8712 12.3941 19.8712 12.3952 19.8712 12.3964C19.8712 12.3976 19.8712 12.3988 19.8712 12.3999C19.8712 12.4011 19.8712 12.4022 19.8712 12.4034C19.8712 12.4046 19.8712 12.4057 19.8712 12.4069C19.8712 12.408 19.8712 12.4092 19.8712 12.4104C19.8712 12.4115 19.8712 12.4127 19.8712 12.4138C19.8712 12.415 19.8712 12.4161 19.8712 12.4173C19.8712 12.4184 19.8712 12.4196 19.8712 12.4207C19.8712 12.4219 19.8712 12.423 19.8712 12.4242C19.8712 12.4253 19.8712 12.4265 19.8712 12.4276C19.8712 12.4288 19.8712 12.4299 19.8712 12.431C19.8712 12.4322 19.8712 12.4333 19.8712 12.4344C19.8712 12.4356 19.8712 12.4367 19.8712 12.4379C19.8712 12.439 19.8712 12.4401 19.8712 12.4413C19.8712 12.4424 19.8712 12.4435 19.8712 12.4446C19.8712 12.4458 19.8712 12.4469 19.8712 12.448C19.8712 12.4491 19.8712 12.4503 19.8712 12.4514C19.8712 12.4525 19.8712 12.4536 19.8712 12.4548C19.8712 12.4559 19.8712 12.457 19.8712 12.4581C19.8712 12.4592 19.8712 12.4604 19.8712 12.4615C19.8712 12.4626 19.8712 12.4637 19.8712 12.4648C19.8712 12.4659 19.8712 12.467 19.8712 12.4681C19.8712 12.4692 19.8712 12.4704 19.8712 12.4715C19.8712 12.4726 19.8712 12.4737 19.8712 12.4748C19.8712 12.4759 19.8712 12.477 19.8712 12.4781C19.8712 12.4792 19.8712 12.4803 19.8712 12.4814C19.8712 12.4825 19.8712 12.4836 19.8712 12.4847C19.8712 12.4858 19.8712 12.4869 19.8712 12.488C19.8712 12.4891 19.8712 12.4901 19.8712 12.4912C19.8712 12.4923 19.8712 12.4934 19.8712 12.4945C19.8712 12.4956 19.8712 12.4967 19.8712 12.4978C19.8712 12.4988 19.8712 12.4999 19.8712 12.501C19.8712 12.5021 19.8712 12.5032 19.8712 12.5043C19.8712 12.5053 19.8712 12.5064 19.8712 12.5075C19.8712 12.5086 19.8712 12.5096 19.8712 12.5107C19.8712 12.5118 19.8712 12.5129 19.8712 12.5139C19.8712 12.515 19.8712 12.5161 19.8712 12.5171C19.8712 12.5182 19.8712 12.5193 19.8712 12.5203C19.8712 12.5214 19.8712 12.5225 19.8712 12.5235C19.8712 12.5246 19.8712 12.5257 19.8712 12.5267C19.8712 12.5278 19.8712 12.5288 19.8712 12.5299H20.8712H21.8712C21.8712 12.5288 21.8712 12.5278 21.8712 12.5267C21.8712 12.5257 21.8712 12.5246 21.8712 12.5235C21.8712 12.5225 21.8712 12.5214 21.8712 12.5203C21.8712 12.5193 21.8712 12.5182 21.8712 12.5171C21.8712 12.5161 21.8712 12.515 21.8712 12.5139C21.8712 12.5129 21.8712 12.5118 21.8712 12.5107C21.8712 12.5096 21.8712 12.5086 21.8712 12.5075C21.8712 12.5064 21.8712 12.5053 21.8712 12.5043C21.8712 12.5032 21.8712 12.5021 21.8712 12.501C21.8712 12.4999 21.8712 12.4988 21.8712 12.4978C21.8712 12.4967 21.8712 12.4956 21.8712 12.4945C21.8712 12.4934 21.8712 12.4923 21.8712 12.4912C21.8712 12.4901 21.8712 12.4891 21.8712 12.488C21.8712 12.4869 21.8712 12.4858 21.8712 12.4847C21.8712 12.4836 21.8712 12.4825 21.8712 12.4814C21.8712 12.4803 21.8712 12.4792 21.8712 12.4781C21.8712 12.477 21.8712 12.4759 21.8712 12.4748C21.8712 12.4737 21.8712 12.4726 21.8712 12.4715C21.8712 12.4704 21.8712 12.4692 21.8712 12.4681C21.8712 12.467 21.8712 12.4659 21.8712 12.4648C21.8712 12.4637 21.8712 12.4626 21.8712 12.4615C21.8712 12.4604 21.8712 12.4592 21.8712 12.4581C21.8712 12.457 21.8712 12.4559 21.8712 12.4548C21.8712 12.4536 21.8712 12.4525 21.8712 12.4514C21.8712 12.4503 21.8712 12.4491 21.8712 12.448C21.8712 12.4469 21.8712 12.4458 21.8712 12.4446C21.8712 12.4435 21.8712 12.4424 21.8712 12.4413C21.8712 12.4401 21.8712 12.439 21.8712 12.4379C21.8712 12.4367 21.8712 12.4356 21.8712 12.4344C21.8712 12.4333 21.8712 12.4322 21.8712 12.431C21.8712 12.4299 21.8712 12.4288 21.8712 12.4276C21.8712 12.4265 21.8712 12.4253 21.8712 12.4242C21.8712 12.423 21.8712 12.4219 21.8712 12.4207C21.8712 12.4196 21.8712 12.4184 21.8712 12.4173C21.8712 12.4161 21.8712 12.415 21.8712 12.4138C21.8712 12.4127 21.8712 12.4115 21.8712 12.4104C21.8712 12.4092 21.8712 12.408 21.8712 12.4069C21.8712 12.4057 21.8712 12.4046 21.8712 12.4034C21.8712 12.4022 21.8712 12.4011 21.8712 12.3999C21.8712 12.3988 21.8712 12.3976 21.8712 12.3964C21.8712 12.3952 21.8712 12.3941 21.8712 12.3929C21.8712 12.3917 21.8712 12.3906 21.8712 12.3894C21.8712 12.3882 21.8712 12.387 21.8712 12.3859C21.8712 12.3847 21.8712 12.3835 21.8712 12.3823C21.8712 12.3812 21.8712 12.38 21.8712 12.3788C21.8712 12.3776 21.8712 12.3764 21.8712 12.3752C21.8712 12.3741 21.8712 12.3729 21.8712 12.3717C21.8712 12.3705 21.8712 12.3693 21.8712 12.3681C21.8712 12.3669 21.8712 12.3657 21.8712 12.3645C21.8712 12.3633 21.8712 12.3621 21.8712 12.3609C21.8712 12.3597 21.8712 12.3585 21.8712 12.3573C21.8712 12.3561 21.8712 12.3549 21.8712 12.3537C21.8712 12.3525 21.8712 12.3513 21.8712 12.3501C21.8712 12.3489 21.8712 12.3477 21.8712 12.3465C21.8712 12.3453 21.8712 12.3441 21.8712 12.3429C21.8712 12.3417 21.8712 12.3405 21.8712 12.3392C21.8712 12.338 21.8712 12.3368 21.8712 12.3356C21.8712 12.3344 21.8712 12.3332 21.8712 12.3319C21.8712 12.3307 21.8712 12.3295 21.8712 12.3283C21.8712 12.327 21.8712 12.3258 21.8712 12.3246C21.8712 12.3234 21.8712 12.3221 21.8712 12.3209C21.8712 12.3197 21.8712 12.3184 21.8712 12.3172C21.8712 12.316 21.8712 12.3148 21.8712 12.3135C21.8712 12.3123 21.8712 12.311 21.8712 12.3098C21.8712 12.3086 21.8712 12.3073 21.8712 12.3061C21.8712 12.3048 21.8712 12.3036 21.8712 12.3024C21.8712 12.3011 21.8712 12.2999 21.8712 12.2986C21.8712 12.2974 21.8712 12.2961 21.8712 12.2949C21.8712 12.2936 21.8712 12.2924 21.8712 12.2911C21.8712 12.2899 21.8712 12.2886 21.8712 12.2874C21.8712 12.2861 21.8712 12.2848 21.8712 12.2836C21.8712 12.2823 21.8712 12.2811 21.8712 12.2798C21.8712 12.2785 21.8712 12.2773 21.8712 12.276C21.8712 12.2747 21.8712 12.2735 21.8712 12.2722C21.8712 12.2709 21.8712 12.2697 21.8712 12.2684C21.8712 12.2671 21.8712 12.2658 21.8712 12.2646C21.8712 12.2633 21.8712 12.262 21.8712 12.2607C21.8712 12.2595 21.8712 12.2582 21.8712 12.2569C21.8712 12.2556 21.8712 12.2543 21.8712 12.2531C21.8712 12.2518 21.8712 12.2505 21.8712 12.2492C21.8712 12.2479 21.8712 12.2466 21.8712 12.2453C21.8712 12.244 21.8712 12.2427 21.8712 12.2415C21.8712 12.2402 21.8712 12.2389 21.8712 12.2376C21.8712 12.2363 21.8712 12.235 21.8712 12.2337C21.8712 12.2324 21.8712 12.2311 21.8712 12.2298C21.8712 12.2285 21.8712 12.2272 21.8712 12.2259C21.8712 12.2246 21.8712 12.2232 21.8712 12.2219C21.8712 12.2206 21.8712 12.2193 21.8712 12.218C21.8712 12.2167 21.8712 12.2154 21.8712 12.2141C21.8712 12.2127 21.8712 12.2114 21.8712 12.2101C21.8712 12.2088 21.8712 12.2075 21.8712 12.2062C21.8712 12.2048 21.8712 12.2035 21.8712 12.2022C21.8712 12.2009 21.8712 12.1995 21.8712 12.1982C21.8712 12.1969 21.8712 12.1955 21.8712 12.1942C21.8712 12.1929 21.8712 12.1916 21.8712 12.1902C21.8712 12.1889 21.8712 12.1875 21.8712 12.1862C21.8712 12.1849 21.8712 12.1835 21.8712 12.1822C21.8712 12.1809 21.8712 12.1795 21.8712 12.1782C21.8712 12.1768 21.8712 12.1755 21.8712 12.1741C21.8712 12.1728 21.8712 12.1714 21.8712 12.1701C21.8712 12.1687 21.8712 12.1674 21.8712 12.166C21.8712 12.1647 21.8712 12.1633 21.8712 12.162C21.8712 12.1606 21.8712 12.1592 21.8712 12.1579C21.8712 12.1565 21.8712 12.1552 21.8712 12.1538C21.8712 12.1524 21.8712 12.1511 21.8712 12.1497C21.8712 12.1483 21.8712 12.147 21.8712 12.1456C21.8712 12.1442 21.8712 12.1429 21.8712 12.1415C21.8712 12.1401 21.8712 12.1387 21.8712 12.1374C21.8712 12.136 21.8712 12.1346 21.8712 12.1332C21.8712 12.1319 21.8712 12.1305 21.8712 12.1291C21.8712 12.1277 21.8712 12.1263 21.8712 12.1249C21.8712 12.1236 21.8712 12.1222 21.8712 12.1208C21.8712 12.1194 21.8712 12.118 21.8712 12.1166C21.8712 12.1152 21.8712 12.1138 21.8712 12.1124C21.8712 12.111 21.8712 12.1096 21.8712 12.1082C21.8712 12.1068 21.8712 12.1054 21.8712 12.104C21.8712 12.1026 21.8712 12.1012 21.8712 12.0998C21.8712 12.0984 21.8712 12.097 21.8712 12.0956C21.8712 12.0942 21.8712 12.0928 21.8712 12.0914C21.8712 12.0899 21.8712 12.0885 21.8712 12.0871C21.8712 12.0857 21.8712 12.0843 21.8712 12.0829C21.8712 12.0814 21.8712 12.08 21.8712 12.0786C21.8712 12.0772 21.8712 12.0758 21.8712 12.0743C21.8712 12.0729 21.8712 12.0715 21.8712 12.07C21.8712 12.0686 21.8712 12.0672 21.8712 12.0658C21.8712 12.0643 21.8712 12.0629 21.8712 12.0615C21.8712 12.06 21.8712 12.0586 21.8712 12.0571C21.8712 12.0557 21.8712 12.0543 21.8712 12.0528C21.8712 12.0514 21.8712 12.0499 21.8712 12.0485C21.8712 12.047 21.8712 12.0456 21.8712 12.0441C21.8712 12.0427 21.8712 12.0412 21.8712 12.0398C21.8712 12.0383 21.8712 12.0369 21.8712 12.0354C21.8712 12.034 21.8712 12.0325 21.8712 12.0311C21.8712 12.0296 21.8712 12.0281 21.8712 12.0267C21.8712 12.0252 21.8712 12.0237 21.8712 12.0223C21.8712 12.0208 21.8712 12.0193 21.8712 12.0179C21.8712 12.0164 21.8712 12.0149 21.8712 12.0135C21.8712 12.012 21.8712 12.0105 21.8712 12.009C21.8712 12.0076 21.8712 12.0061 21.8712 12.0046C21.8712 12.0031 21.8712 12.0016 21.8712 12.0001C21.8712 11.9987 21.8712 11.9972 21.8712 11.9957C21.8712 11.9942 21.8712 11.9927 21.8712 11.9912C21.8712 11.9897 21.8712 11.9882 21.8712 11.9868C21.8712 11.9853 21.8712 11.9838 21.8712 11.9823C21.8712 11.9808 21.8712 11.9793 21.8712 11.9778C21.8712 11.9763 21.8712 11.9748 21.8712 11.9733C21.8712 11.9718 21.8712 11.9702 21.8712 11.9687C21.8712 11.9672 21.8712 11.9657 21.8712 11.9642C21.8712 11.9627 21.8712 11.9612 21.8712 11.9597C21.8712 11.9582 21.8712 11.9566 21.8712 11.9551C21.8712 11.9536 21.8712 11.9521 21.8712 11.9506C21.8712 11.949 21.8712 11.9475 21.8712 11.946C21.8712 11.9445 21.8712 11.9429 21.8712 11.9414C21.8712 11.9399 21.8712 11.9384 21.8712 11.9368C21.8712 11.9353 21.8712 11.9338 21.8712 11.9322C21.8712 11.9307 21.8712 11.9291 21.8712 11.9276C21.8712 11.9261 21.8712 11.9245 21.8712 11.923C21.8712 11.9214 21.8712 11.9199 21.8712 11.9183C21.8712 11.9168 21.8712 11.9153 21.8712 11.9137C21.8712 11.9122 21.8712 11.9106 21.8712 11.909C21.8712 11.9075 21.8712 11.9059 21.8712 11.9044C21.8712 11.9028 21.8712 11.9013 21.8712 11.8997C21.8712 11.8981 21.8712 11.8966 21.8712 11.895C21.8712 11.8934 21.8712 11.8919 21.8712 11.8903C21.8712 11.8887 21.8712 11.8872 21.8712 11.8856C21.8712 11.884 21.8712 11.8825 21.8712 11.8809C21.8712 11.8793 21.8712 11.8777 21.8712 11.8762C21.8712 11.8746 21.8712 11.873 21.8712 11.8714C21.8712 11.8698 21.8712 11.8682 21.8712 11.8667C21.8712 11.8651 21.8712 11.8635 21.8712 11.8619C21.8712 11.8603 21.8712 11.8587 21.8712 11.8571C21.8712 11.8555 21.8712 11.8539 21.8712 11.8523C21.8712 11.8507 21.8712 11.8491 21.8712 11.8475C21.8712 11.8459 21.8712 11.8443 21.8712 11.8427C21.8712 11.8411 21.8712 11.8395 21.8712 11.8379C21.8712 11.8363 21.8712 11.8347 21.8712 11.8331C21.8712 11.8315 21.8712 11.8299 21.8712 11.8282C21.8712 11.8266 21.8712 11.825 21.8712 11.8234C21.8712 11.8218 21.8712 11.8202 21.8712 11.8185C21.8712 11.8169 21.8712 11.8153 21.8712 11.8137C21.8712 11.812 21.8712 11.8104 21.8712 11.8088C21.8712 11.8071 21.8712 11.8055 21.8712 11.8039C21.8712 11.8022 21.8712 11.8006 21.8712 11.799C21.8712 11.7973 21.8712 11.7957 21.8712 11.7941C21.8712 11.7924 21.8712 11.7908 21.8712 11.7891C21.8712 11.7875 21.8712 11.7858 21.8712 11.7842C21.8712 11.7825 21.8712 11.7809 21.8712 11.7792C21.8712 11.7776 21.8712 11.7759 21.8712 11.7743C21.8712 11.7726 21.8712 11.771 21.8712 11.7693C21.8712 11.7676 21.8712 11.766 21.8712 11.7643C21.8712 11.7627 21.8712 11.761 21.8712 11.7593C21.8712 11.7577 21.8712 11.756 21.8712 11.7543C21.8712 11.7526 21.8712 11.751 21.8712 11.7493C21.8712 11.7476 21.8712 11.7459 21.8712 11.7443C21.8712 11.7426 21.8712 11.7409 21.8712 11.7392C21.8712 11.7375 21.8712 11.7359 21.8712 11.7342C21.8712 11.7325 21.8712 11.7308 21.8712 11.7291C21.8712 11.7274 21.8712 11.7257 21.8712 11.724C21.8712 11.7223 21.8712 11.7207 21.8712 11.719C21.8712 11.7173 21.8712 11.7156 21.8712 11.7139C21.8712 11.7122 21.8712 11.7105 21.8712 11.7087C21.8712 11.707 21.8712 11.7053 21.8712 11.7036C21.8712 11.7019 21.8712 11.7002 21.8712 11.6985C21.8712 11.6968 21.8712 11.6951 21.8712 11.6934C21.8712 11.6916 21.8712 11.6899 21.8712 11.6882C21.8712 11.6865 21.8712 11.6848 21.8712 11.683C21.8712 11.6813 21.8712 11.6796 21.8712 11.6779C21.8712 11.6761 21.8712 11.6744 21.8712 11.6727C21.8712 11.6709 21.8712 11.6692 21.8712 11.6675C21.8712 11.6657 21.8712 11.664 21.8712 11.6623C21.8712 11.6605 21.8712 11.6588 21.8712 11.657C21.8712 11.6553 21.8712 11.6535 21.8712 11.6518C21.8712 11.65 21.8712 11.6483 21.8712 11.6465C21.8712 11.6448 21.8712 11.643 21.8712 11.6413C21.8712 11.6395 21.8712 11.6378 21.8712 11.636C21.8712 11.6343 21.8712 11.6325 21.8712 11.6307C21.8712 11.629 21.8712 11.6272 21.8712 11.6254C21.8712 11.6237 21.8712 11.6219 21.8712 11.6201C21.8712 11.6184 21.8712 11.6166 21.8712 11.6148C21.8712 11.613 21.8712 11.6113 21.8712 11.6095C21.8712 11.6077 21.8712 11.6059 21.8712 11.6041C21.8712 11.6024 21.8712 11.6006 21.8712 11.5988C21.8712 11.597 21.8712 11.5952 21.8712 11.5934C21.8712 11.5916 21.8712 11.5899 21.8712 11.5881C21.8712 11.5863 21.8712 11.5845 21.8712 11.5827C21.8712 11.5809 21.8712 11.5791 21.8712 11.5773C21.8712 11.5755 21.8712 11.5737 21.8712 11.5719C21.8712 11.5701 21.8712 11.5682 21.8712 11.5664C21.8712 11.5646 21.8712 11.5628 21.8712 11.561C21.8712 11.5592 21.8712 11.5574 21.8712 11.5556C21.8712 11.5537 21.8712 11.5519 21.8712 11.5501C21.8712 11.5483 21.8712 11.5464 21.8712 11.5446C21.8712 11.5428 21.8712 11.541 21.8712 11.5391C21.8712 11.5373 21.8712 11.5355 21.8712 11.5336C21.8712 11.5318 21.8712 11.53 21.8712 11.5281C21.8712 11.5263 21.8712 11.5245 21.8712 11.5226C21.8712 11.5208 21.8712 11.5189 21.8712 11.5171C21.8712 11.5152 21.8712 11.5134 21.8712 11.5115C21.8712 11.5097 21.8712 11.5078 21.8712 11.506C21.8712 11.5041 21.8712 11.5023 21.8712 11.5004C21.8712 11.4986 21.8712 11.4967 21.8712 11.4948C21.8712 11.493 21.8712 11.4911 21.8712 11.4892C21.8712 11.4874 21.8712 11.4855 21.8712 11.4836C21.8712 11.4818 21.8712 11.4799 21.8712 11.478C21.8712 11.4762 21.8712 11.4743 21.8712 11.4724C21.8712 11.4705 21.8712 11.4686 21.8712 11.4668C21.8712 11.4649 21.8712 11.463 21.8712 11.4611C21.8712 11.4592 21.8712 11.4573 21.8712 11.4554C21.8712 11.4536 21.8712 11.4517 21.8712 11.4498C21.8712 11.4479 21.8712 11.446 21.8712 11.4441C21.8712 11.4422 21.8712 11.4403 21.8712 11.4384C21.8712 11.4365 21.8712 11.4346 21.8712 11.4327C21.8712 11.4308 21.8712 11.4288 21.8712 11.4269C21.8712 11.425 21.8712 11.4231 21.8712 11.4212C21.8712 11.4193 21.8712 11.4174 21.8712 11.4154C21.8712 11.4135 21.8712 11.4116 21.8712 11.4097C21.8712 11.4078 21.8712 11.4058 21.8712 11.4039C21.8712 11.402 21.8712 11.4001 21.8712 11.3981C21.8712 11.3962 21.8712 11.3943 21.8712 11.3923C21.8712 11.3904 21.8712 11.3884 21.8712 11.3865C21.8712 11.3846 21.8712 11.3826 21.8712 11.3807C21.8712 11.3787 21.8712 11.3768 21.8712 11.3748C21.8712 11.3729 21.8712 11.3709 21.8712 11.369C21.8712 11.367 21.8712 11.3651 21.8712 11.3631C21.8712 11.3612 21.8712 11.3592 21.8712 11.3573C21.8712 11.3553 21.8712 11.3533 21.8712 11.3514C21.8712 11.3494 21.8712 11.3474 21.8712 11.3455C21.8712 11.3435 21.8712 11.3415 21.8712 11.3396C21.8712 11.3376 21.8712 11.3356 21.8712 11.3336C21.8712 11.3316 21.8712 11.3297 21.8712 11.3277C21.8712 11.3257 21.8712 11.3237 21.8712 11.3217C21.8712 11.3198 21.8712 11.3178 21.8712 11.3158C21.8712 11.3138 21.8712 11.3118 21.8712 11.3098C21.8712 11.3078 21.8712 11.3058 21.8712 11.3038C21.8712 11.3018 21.8712 11.2998 21.8712 11.2978C21.8712 11.2958 21.8712 11.2938 21.8712 11.2918C21.8712 11.2898 21.8712 11.2878 21.8712 11.2858C21.8712 11.2838 21.8712 11.2817 21.8712 11.2797C21.8712 11.2777 21.8712 11.2757 21.8712 11.2737C21.8712 11.2717 21.8712 11.2696 21.8712 11.2676C21.8712 11.2656 21.8712 11.2636 21.8712 11.2615C21.8712 11.2595 21.8712 11.2575 21.8712 11.2554C21.8712 11.2534 21.8712 11.2514 21.8712 11.2493C21.8712 11.2473 21.8712 11.2453 21.8712 11.2432C21.8712 11.2412 21.8712 11.2391 21.8712 11.2371C21.8712 11.235 21.8712 11.233 21.8712 11.2309C21.8712 11.2289 21.8712 11.2268 21.8712 11.2248C21.8712 11.2227 21.8712 11.2207 21.8712 11.2186C21.8712 11.2166 21.8712 11.2145 21.8712 11.2124C21.8712 11.2104 21.8712 11.2083 21.8712 11.2062C21.8712 11.2042 21.8712 11.2021 21.8712 11.2C21.8712 11.198 21.8712 11.1959 21.8712 11.1938C21.8712 11.1917 21.8712 11.1897 21.8712 11.1876C21.8712 11.1855 21.8712 11.1834 21.8712 11.1813C21.8712 11.1793 21.8712 11.1772 21.8712 11.1751C21.8712 11.173 21.8712 11.1709 21.8712 11.1688C21.8712 11.1667 21.8712 11.1646 21.8712 11.1625C21.8712 11.1604 21.8712 11.1583 21.8712 11.1562C21.8712 11.1541 21.8712 11.152 21.8712 11.1499C21.8712 11.1478 21.8712 11.1457 21.8712 11.1436C21.8712 11.1415 21.8712 11.1394 21.8712 11.1372C21.8712 11.1351 21.8712 11.133 21.8712 11.1309C21.8712 11.1288 21.8712 11.1267 21.8712 11.1245C21.8712 11.1224 21.8712 11.1203 21.8712 11.1181C21.8712 11.116 21.8712 11.1139 21.8712 11.1118C21.8712 11.1096 21.8712 11.1075 21.8712 11.1054C21.8712 11.1032 21.8712 11.1011 21.8712 11.0989C21.8712 11.0968 21.8712 11.0947 21.8712 11.0925C21.8712 11.0904 21.8712 11.0882 21.8712 11.0861C21.8712 11.0839 21.8712 11.0818 21.8712 11.0796C21.8712 11.0774 21.8712 11.0753 21.8712 11.0731C21.8712 11.071 21.8712 11.0688 21.8712 11.0666C21.8712 11.0645 21.8712 11.0623 21.8712 11.0601C21.8712 11.058 21.8712 11.0558 21.8712 11.0536C21.8712 11.0515 21.8712 11.0493 21.8712 11.0471C21.8712 11.0449 21.8712 11.0428 21.8712 11.0406C21.8712 11.0384 21.8712 11.0362 21.8712 11.034C21.8712 11.0318 21.8712 11.0296 21.8712 11.0275C21.8712 11.0253 21.8712 11.0231 21.8712 11.0209C21.8712 11.0187 21.8712 11.0165 21.8712 11.0143C21.8712 11.0121 21.8712 11.0099 21.8712 11.0077C21.8712 11.0055 21.8712 11.0033 21.8712 11.0011C21.8712 10.9989 21.8712 10.9966 21.8712 10.9944C21.8712 10.9922 21.8712 10.99 21.8712 10.9878C21.8712 10.9856 21.8712 10.9833 21.8712 10.9811C21.8712 10.9789 21.8712 10.9767 21.8712 10.9745C21.8712 10.9722 21.8712 10.97 21.8712 10.9678C21.8712 10.9655 21.8712 10.9633 21.8712 10.9611C21.8712 10.9588 21.8712 10.9566 21.8712 10.9544C21.8712 10.9521 21.8712 10.9499 21.8712 10.9476C21.8712 10.9454 21.8712 10.9431 21.8712 10.9409C21.8712 10.9386 21.8712 10.9364 21.8712 10.9341C21.8712 10.9319 21.8712 10.9296 21.8712 10.9274C21.8712 10.9251 21.8712 10.9228 21.8712 10.9206C21.8712 10.9183 21.8712 10.916 21.8712 10.9138C21.8712 10.9115 21.8712 10.9092 21.8712 10.907C21.8712 10.9047 21.8712 10.9024 21.8712 10.9001C21.8712 10.8979 21.8712 10.8956 21.8712 10.8933C21.8712 10.891 21.8712 10.8887 21.8712 10.8865C21.8712 10.8842 21.8712 10.8819 21.8712 10.8796C21.8712 10.8773 21.8712 10.875 21.8712 10.8727C21.8712 10.8704 21.8712 10.8681 21.8712 10.8658C21.8712 10.8635 21.8712 10.8612 21.8712 10.8589C21.8712 10.8566 21.8712 10.8543 21.8712 10.852C21.8712 10.8497 21.8712 10.8474 21.8712 10.8451C21.8712 10.8427 21.8712 10.8404 21.8712 10.8381C21.8712 10.8358 21.8712 10.8335 21.8712 10.8311C21.8712 10.8288 21.8712 10.8265 21.8712 10.8242C21.8712 10.8218 21.8712 10.8195 21.8712 10.8172C21.8712 10.8148 21.8712 10.8125 21.8712 10.8102C21.8712 10.8078 21.8712 10.8055 21.8712 10.8031C21.8712 10.8008 21.8712 10.7985 21.8712 10.7961C21.8712 10.7938 21.8712 10.7914 21.8712 10.7891C21.8712 10.7867 21.8712 10.7844 21.8712 10.782C21.8712 10.7796 21.8712 10.7773 21.8712 10.7749C21.8712 10.7726 21.8712 10.7702 21.8712 10.7678C21.8712 10.7655 21.8712 10.7631 21.8712 10.7607C21.8712 10.7584 21.8712 10.756 21.8712 10.7536C21.8712 10.7512 21.8712 10.7489 21.8712 10.7465C21.8712 10.7441 21.8712 10.7417 21.8712 10.7393C21.8712 10.737 21.8712 10.7346 21.8712 10.7322C21.8712 10.7298 21.8712 10.7274 21.8712 10.725C21.8712 10.7226 21.8712 10.7202 21.8712 10.7178C21.8712 10.7154 21.8712 10.713 21.8712 10.7106C21.8712 10.7082 21.8712 10.7058 21.8712 10.7034C21.8712 10.701 21.8712 10.6986 21.8712 10.6962C21.8712 10.6937 21.8712 10.6913 21.8712 10.6889C21.8712 10.6865 21.8712 10.6841 21.8712 10.6817C21.8712 10.6792 21.8712 10.6768 21.8712 10.6744C21.8712 10.6719 21.8712 10.6695 21.8712 10.6671C21.8712 10.6647 21.8712 10.6622 21.8712 10.6598C21.8712 10.6573 21.8712 10.6549 21.8712 10.6525C21.8712 10.65 21.8712 10.6476 21.8712 10.6451C21.8712 10.6427 21.8712 10.6402 21.8712 10.6378C21.8712 10.6353 21.8712 10.6329 21.8712 10.6304C21.8712 10.628 21.8712 10.6255 21.8712 10.623C21.8712 10.6206 21.8712 10.6181 21.8712 10.6157C21.8712 10.6132 21.8712 10.6107 21.8712 10.6082C21.8712 10.6058 21.8712 10.6033 21.8712 10.6008C21.8712 10.5984 21.8712 10.5959 21.8712 10.5934C21.8712 10.5909 21.8712 10.5884 21.8712 10.5859C21.8712 10.5835 21.8712 10.581 21.8712 10.5785C21.8712 10.576 21.8712 10.5735 21.8712 10.571C21.8712 10.5685 21.8712 10.566 21.8712 10.5635C21.8712 10.561 21.8712 10.5585 21.8712 10.556C21.8712 10.5535 21.8712 10.551 21.8712 10.5485C21.8712 10.546 21.8712 10.5435 21.8712 10.5409C21.8712 10.5384 21.8712 10.5359 21.8712 10.5334C21.8712 10.5309 21.8712 10.5284 21.8712 10.5258C21.8712 10.5233 21.8712 10.5208 21.8712 10.5182C21.8712 10.5157 21.8712 10.5132 21.8712 10.5107C21.8712 10.5081 21.8712 10.5056 21.8712 10.503C21.8712 10.5005 21.8712 10.498 21.8712 10.4954C21.8712 10.4929 21.8712 10.4903 21.8712 10.4878C21.8712 10.4852 21.8712 10.4827 21.8712 10.4801C21.8712 10.4776 21.8712 10.475 21.8712 10.4725C21.8712 10.4699 21.8712 10.4673 21.8712 10.4648C21.8712 10.4622 21.8712 10.4596 21.8712 10.4571C21.8712 10.4545 21.8712 10.4519 21.8712 10.4494C21.8712 10.4468 21.8712 10.4442 21.8712 10.4416C21.8712 10.439 21.8712 10.4365 21.8712 10.4339C21.8712 10.4313 21.8712 10.4287 21.8712 10.4261C21.8712 10.4235 21.8712 10.4209 21.8712 10.4183C21.8712 10.4158 21.8712 10.4132 21.8712 10.4106C21.8712 10.408 21.8712 10.4054 21.8712 10.4028C21.8712 10.4001 21.8712 10.3975 21.8712 10.3949C21.8712 10.3923 21.8712 10.3897 21.8712 10.3871C21.8712 10.3845 21.8712 10.3819 21.8712 10.3792C21.8712 10.3766 21.8712 10.374 21.8712 10.3714C21.8712 10.3688 21.8712 10.3661 21.8712 10.3635C21.8712 10.3609 21.8712 10.3582 21.8712 10.3556C21.8712 10.353 21.8712 10.3503 21.8712 10.3477C21.8712 10.3451 21.8712 10.3424 21.8712 10.3398C21.8712 10.3371 21.8712 10.3345 21.8712 10.3318C21.8712 10.3292 21.8712 10.3265 21.8712 10.3239C21.8712 10.3212 21.8712 10.3186 21.8712 10.3159C21.8712 10.3133 21.8712 10.3106 21.8712 10.3079C21.8712 10.3053 21.8712 10.3026 21.8712 10.2999C21.8712 10.2973 21.8712 10.2946 21.8712 10.2919C21.8712 10.2892 21.8712 10.2866 21.8712 10.2839C21.8712 10.2812 21.8712 10.2785 21.8712 10.2758C21.8712 10.2731 21.8712 10.2705 21.8712 10.2678C21.8712 10.2651 21.8712 10.2624 21.8712 10.2597C21.8712 10.257 21.8712 10.2543 21.8712 10.2516C21.8712 10.2489 21.8712 10.2462 21.8712 10.2435C21.8712 10.2408 21.8712 10.2381 21.8712 10.2354C21.8712 10.2327 21.8712 10.2299 21.8712 10.2272C21.8712 10.2245 21.8712 10.2218 21.8712 10.2191C21.8712 10.2164 21.8712 10.2136 21.8712 10.2109C21.8712 10.2082 21.8712 10.2054 21.8712 10.2027C21.8712 10.2 21.8712 10.1973 21.8712 10.1945C21.8712 10.1918 21.8712 10.189 21.8712 10.1863C21.8712 10.1836 21.8712 10.1808 21.8712 10.1781C21.8712 10.1753 21.8712 10.1726 21.8712 10.1698C21.8712 10.1671 21.8712 10.1643 21.8712 10.1616C21.8712 10.1588 21.8712 10.156 21.8712 10.1533C21.8712 10.1505 21.8712 10.1478 21.8712 10.145C21.8712 10.1422 21.8712 10.1395 21.8712 10.1367C21.8712 10.1339 21.8712 10.1311 21.8712 10.1284C21.8712 10.1256 21.8712 10.1228 21.8712 10.12C21.8712 10.1172 21.8712 10.1144 21.8712 10.1117C21.8712 10.1089 21.8712 10.1061 21.8712 10.1033C21.8712 10.1005 21.8712 10.0977 21.8712 10.0949C21.8712 10.0921 21.8712 10.0893 21.8712 10.0865C21.8712 10.0837 21.8712 10.0809 21.8712 10.0781C21.8712 10.0753 21.8712 10.0725 21.8712 10.0696C21.8712 10.0668 21.8712 10.064 21.8712 10.0612C21.8712 10.0584 21.8712 10.0556 21.8712 10.0527C21.8712 10.0499 21.8712 10.0471 21.8712 10.0442C21.8712 10.0414 21.8712 10.0386 21.8712 10.0357C21.8712 10.0329 21.8712 10.0301 21.8712 10.0272C21.8712 10.0244 21.8712 10.0216 21.8712 10.0187C21.8712 10.0159 21.8712 10.013 21.8712 10.0102C21.8712 10.0073 21.8712 10.0045 21.8712 10.0016C21.8712 9.99874 21.8712 9.99588 21.8712 9.99302C21.8712 9.99016 21.8712 9.9873 21.8712 9.98443C21.8712 9.98156 21.8712 9.97869 21.8712 9.97582C21.8712 9.97295 21.8712 9.97007 21.8712 9.9672C21.8712 9.96432 21.8712 9.96144 21.8712 9.95856C21.8712 9.95567 21.8712 9.95279 21.8712 9.9499C21.8712 9.94701 21.8712 9.94412 21.8712 9.94123C21.8712 9.93833 21.8712 9.93544 21.8712 9.93254C21.8712 9.92964 21.8712 9.92674 21.8712 9.92383C21.8712 9.92093 21.8712 9.91802 21.8712 9.91511C21.8712 9.9122 21.8712 9.90929 21.8712 9.90638C21.8712 9.90346 21.8712 9.90054 21.8712 9.89762C21.8712 9.8947 21.8712 9.89178 21.8712 9.88886C21.8712 9.88593 21.8712 9.883 21.8712 9.88007C21.8712 9.87714 21.8712 9.87421 21.8712 9.87127C21.8712 9.86833 21.8712 9.86539 21.8712 9.86245C21.8712 9.85951 21.8712 9.85657 21.8712 9.85362C21.8712 9.85067 21.8712 9.84772 21.8712 9.84477C21.8712 9.84182 21.8712 9.83886 21.8712 9.8359C21.8712 9.83295 21.8712 9.82999 21.8712 9.82702C21.8712 9.82406 21.8712 9.82109 21.8712 9.81812C21.8712 9.81515 21.8712 9.81218 21.8712 9.80921C21.8712 9.80623 21.8712 9.80326 21.8712 9.80028C21.8712 9.7973 21.8712 9.79432 21.8712 9.79133C21.8712 9.78835 21.8712 9.78536 21.8712 9.78237C21.8712 9.77938 21.8712 9.77638 21.8712 9.77339C21.8712 9.77039 21.8712 9.76739 21.8712 9.76439C21.8712 9.76139 21.8712 9.75839 21.8712 9.75538C21.8712 9.75237 21.8712 9.74936 21.8712 9.74635C21.8712 9.74334 21.8712 9.74032 21.8712 9.73731C21.8712 9.73429 21.8712 9.73127 21.8712 9.72824C21.8712 9.72522 21.8712 9.7222 21.8712 9.71917C21.8712 9.71614 21.8712 9.71311 21.8712 9.71007C21.8712 9.70704 21.8712 9.704 21.8712 9.70096C21.8712 9.69792 21.8712 9.69488 21.8712 9.69183C21.8712 9.68879 21.8712 9.68574 21.8712 9.68269C21.8712 9.67964 21.8712 9.67659 21.8712 9.67353C21.8712 9.67047 21.8712 9.66741 21.8712 9.66435C21.8712 9.66129 21.8712 9.65823 21.8712 9.65516C21.8712 9.65209 21.8712 9.64902 21.8712 9.64595C21.8712 9.64288 21.8712 9.6398 21.8712 9.63672C21.8712 9.63364 21.8712 9.63056 21.8712 9.62748C21.8712 9.62439 21.8712 9.62131 21.8712 9.61822C21.8712 9.61513 21.8712 9.61204 21.8712 9.60894C21.8712 9.60585 21.8712 9.60275 21.8712 9.59965C21.8712 9.59655 21.8712 9.59344 21.8712 9.59034C21.8712 9.58723 21.8712 9.58412 21.8712 9.58101C21.8712 9.5779 21.8712 9.57479 21.8712 9.57167C21.8712 9.56855 21.8712 9.56543 21.8712 9.56231C21.8712 9.55919 21.8712 9.55606 21.8712 9.55293C21.8712 9.5498 21.8712 9.54667 21.8712 9.54354C21.8712 9.5404 21.8712 9.53727 21.8712 9.53413C21.8712 9.53099 21.8712 9.52785 21.8712 9.5247C21.8712 9.52156 21.8712 9.51841 21.8712 9.51526C21.8712 9.51211 21.8712 9.50895 21.8712 9.5058C21.8712 9.50264 21.8712 9.49948 21.8712 9.49632C21.8712 9.49316 21.8712 9.48999 21.8712 9.48682C21.8712 9.48366 21.8712 9.48049 21.8712 9.47731H20.8712Z" fill="currentColor"/>
<path id="Rectangle 2473" d="M16.0282 10.2142V6.31672C16.0282 4.89523 14.8758 3.74289 13.4544 3.74289H8.68555" stroke="currentColor" stroke-width="2" stroke-linecap="round"/>
<path id="Rectangle 2472" d="M3.70929 4.01039H3.57383C2.15234 4.01039 1 5.16273 1 6.58422V12.5447C1 13.9661 2.15234 15.1185 3.57383 15.1185H13.8887C14.7757 15.1185 15.4947 14.3995 15.4947 13.5125" stroke="currentColor" stroke-width="2"/>
</g>
  </g>
</svg>
