<svg width="90" height="36" viewBox="0 0 90 36" fill="none" xmlns="http://www.w3.org/2000/svg">
    <path fill-rule="evenodd" clip-rule="evenodd" d="M0 5.271V9.3h7.13v20.927h4.742V9.3h7.13V5.271H0zM30.813 11.011v4.528c-.606-.036-.891-.036-1.14-.036-2.96 0-5.241 1.39-5.241 6.56v8.164h-4.564V11.44h4.492v3.066c1.284-2.46 3.137-3.6 5.17-3.6.427 0 .89.035 1.283.106zM45.976 20.744c0-4.029-1.89-6.096-4.777-6.096-2.888 0-4.742 2.067-4.742 6.096 0 4.064 1.747 6.275 4.742 6.275 3.03 0 4.777-2.21 4.777-6.275zm-14.296.071c0-5.775 3.6-9.91 9.519-9.91 5.882 0 9.554 4.313 9.554 9.91 0 5.883-3.565 9.911-9.554 9.911-5.99 0-9.52-4.17-9.52-9.91zM68.376 13.792l-2.46 2.638c-1.497-1.283-3.244-2.032-5.24-2.032-2.21 0-3.316.82-3.316 2.032 0 1.32.891 1.747 4.6 2.389 4.527.784 6.808 2.353 6.808 5.954 0 3.494-2.959 5.953-8.342 5.953-3.957 0-6.845-1.247-8.806-3.244l2.531-2.78c1.676 1.64 3.744 2.46 5.954 2.46 2.71 0 3.958-.856 3.958-2.211 0-1.284-.607-1.925-4.813-2.638-4.457-.749-6.525-2.531-6.525-5.633 0-3.672 3.316-5.776 7.844-5.776 3.493 0 6.06 1.177 7.807 2.888z" fill="#000"/>
    <mask id="3t05s4vrta" style="mask-type:luminance" maskUnits="userSpaceOnUse" x="83" y="24" width="8" height="7">
        <path fill-rule="evenodd" clip-rule="evenodd" d="M83.904 24.629h6.097v6.06h-6.097v-6.06z" fill="#fff"/>
    </mask>
    <g mask="url(#3t05s4vrta)">
        <path fill-rule="evenodd" clip-rule="evenodd" d="M90 27.695c0 1.64-1.39 2.995-3.065 2.995-1.64 0-3.03-1.39-3.03-3.03 0-1.676 1.39-3.031 3.03-3.031 1.675 0 3.066 1.39 3.066 3.066z" fill="#000"/>
    </g>
    <mask id="5q8dugxqrb" style="mask-type:luminance" maskUnits="userSpaceOnUse" x="69" y="6" width="13" height="25">
        <path fill-rule="evenodd" clip-rule="evenodd" d="M69.64 6.697h12.193v24.03H69.641V6.696z" fill="#fff"/>
    </mask>
    <g mask="url(#5q8dugxqrb)">
        <path fill-rule="evenodd" clip-rule="evenodd" d="M76.77 6.697v4.72h4.671v3.551h-4.67v9.698c0 1.568.535 2.317 2.246 2.317 1.034 0 1.996-.214 2.816-.428v3.565c-1.07.357-2.388.606-3.921.606-4.243 0-5.705-2.139-5.705-5.383V14.968h-2.566v-3.551h2.566v-4.72h4.564z" fill="#000"/>
    </g>
</svg>
