<svg preserveAspectRatio="none" width="100%" height="100%" overflow="visible" style="display: block;" viewBox="0 0 100 34.2264" fill="none" xmlns="http://www.w3.org/2000/svg">
<g id="Group">
<path id="Vector" d="M10.5044 2.29514H2.03726C0.894352 2.29514 9.15527e-05 3.1894 9.15527e-05 4.33231V30.0477C9.15527e-05 31.2125 0.894352 32.1242 2.03726 32.1242H10.4651C19.1503 32.1242 25.6981 25.7117 25.6981 17.2097C25.6981 8.70765 19.1678 2.29514 10.5044 2.29514ZM4.07443 6.21244H10.5044C16.9256 6.21244 21.5845 10.8364 21.5845 17.214C21.5845 23.5916 16.9256 28.172 10.5044 28.172H4.07443V6.21244Z" fill="var(--fill-0, black)"/>
<path id="Vector_2" d="M97.9629 2.01569C96.82 2.01569 95.9258 2.9274 95.9258 4.10084L96.0479 24.298L78.359 2.8576C78.3415 2.83143 78.3197 2.80526 78.2979 2.77908C77.8922 2.29051 77.3208 2.02005 76.6926 2.02005C75.5061 2.02005 74.6162 2.93176 74.6162 4.13574V30.331C74.6162 31.4783 75.5323 32.4074 76.6534 32.4074C77.7745 32.4074 78.6905 31.4739 78.6905 30.331V10.1251L96.2006 31.3692C96.5539 31.9887 97.2126 32.4074 97.9629 32.4074C99.0884 32.4074 100 31.4739 100 30.331V4.09648C100 2.93176 99.1058 2.02005 97.9629 2.02005V2.01569Z" fill="var(--fill-0, black)"/>
<path id="Vector_3" d="M33.0222 32.3815C36.1999 32.3815 38.776 29.8054 38.776 26.6277C38.776 23.4499 36.1999 20.8739 33.0222 20.8739C29.8444 20.8739 27.2684 23.4499 27.2684 26.6277C27.2684 29.8054 29.8444 32.3815 33.0222 32.3815Z" fill="var(--fill-0, #ED6356)"/>
<path id="Vector_4" d="M63.4488 13.384C66.6266 13.384 69.2026 10.8079 69.2026 7.63019C69.2026 4.45245 66.6266 1.87639 63.4488 1.87639C60.2711 1.87639 57.695 4.45245 57.695 7.63019C57.695 10.8079 60.2711 13.384 63.4488 13.384Z" fill="var(--fill-0, #73C65C)"/>
<path id="Vector_5" d="M69.2026 22.2216C69.2026 19.0438 66.6266 16.4678 63.4488 16.4678C60.2711 16.4678 57.695 19.0438 57.695 22.2216V26.6274C57.695 29.8052 60.2711 32.3812 63.4488 32.3812C66.6266 32.3812 69.2026 29.8052 69.2026 26.6274V22.2216Z" fill="var(--fill-0, #64A6E8)"/>
<path id="Vector_6" d="M46.1961 5.25308C44.8995 2.35188 41.4966 1.05106 38.5954 2.34761C35.6942 3.64417 34.3933 7.04712 35.6899 9.94832L44.1922 28.9733C45.4888 31.8745 48.8917 33.1754 51.7929 31.8788C54.6941 30.5822 55.995 27.1793 54.6984 24.2781L46.1961 5.25308Z" fill="var(--fill-0, #ED9A4F)"/>
</g>
</svg>
