<svg preserveAspectRatio="none" width="100%" height="100%" overflow="visible" style="display: block;" viewBox="0 0 122.74 24.5471" fill="none" xmlns="http://www.w3.org/2000/svg">
<g id="Group 3684">
<g id="Group">
<path id="Vector" d="M22.4094 4.98272H17.7586V10.4266L22.0344 14.7024C22.2801 13.9093 22.4094 13.0257 22.4094 12.0645V4.98272Z" fill="var(--fill-0, var(--semantic-icon-brand-default))"/>
<path id="Vector_2" d="M0.000117187 8.08181V15.1636H4.65093V9.71973L0.375113 5.4396C0.129426 6.2327 0.000117187 7.11631 0.000117187 8.0775V8.08181Z" fill="var(--fill-0, #ED2E77)"/>
<path id="Vector_3" d="M13.3233 6.05167C12.6423 2.91378 10.2889 1.12931 6.76304 1.12931C3.80618 1.12931 1.65103 2.39654 0.64242 4.70686C0.569145 4.87496 0.50018 5.04737 0.439836 5.2241C0.413974 5.29306 0.396733 5.37065 0.375181 5.44392L4.651 9.71973V8.08182C4.651 6.38357 5.36219 5.52151 6.76735 5.52151C8.17251 5.52151 8.83198 6.32322 8.8794 7.9051V10.5042L13.3276 6.05598L13.3233 6.05167Z" fill="var(--fill-0, #FFC303)"/>
<path id="Vector_4" d="M17.7587 10.4266V12.0645C17.7587 13.7628 17.0475 14.6248 15.6423 14.6248C14.2372 14.6248 13.5777 13.8231 13.5303 12.2412V8.0775C13.5303 7.68095 13.5044 7.29303 13.4613 6.91372C13.4527 6.85338 13.4527 6.79303 13.4441 6.737C13.4139 6.49993 13.3708 6.27149 13.3234 6.05166L8.87516 10.4999V12.0645C8.87516 12.5214 8.90533 12.974 8.96136 13.405C9.43119 16.9696 11.8665 19.0127 15.6423 19.0127C18.6035 19.0127 20.7543 17.7498 21.7673 15.4395C21.8405 15.2714 21.9095 15.099 21.9698 14.9222C21.9957 14.8533 22.0129 14.7757 22.0345 14.7024L17.7587 10.4266Z" fill="var(--fill-0, #13BFA2)"/>
</g>
<path id="Vector_5" d="M24.875 12.0387C24.875 7.59905 28.1853 5.33615 31.3404 5.33615C33.2068 5.33615 34.7585 6.12493 35.6766 7.56888V0H38.8059V12.0645C38.8059 16.2714 35.9654 19.0041 31.8922 19.0041C27.8189 19.0041 24.875 16.1636 24.875 12.0387ZM35.6766 12.168C35.6766 9.88351 34.1508 8.25422 31.8663 8.25422C29.5818 8.25422 28.0301 9.88351 28.0301 12.168C28.0301 14.4524 29.5818 16.0817 31.8663 16.0817C34.1508 16.0817 35.6766 14.4524 35.6766 12.168Z" fill="var(--fill-0, #010000)"/>
<path id="Vector_6" d="M40.6464 20.0774H43.8015C44.3273 21.2843 45.5903 21.836 47.2454 21.836C49.56 21.836 51.004 20.7584 51.004 17.7369V16.6076C50.1118 18.0515 48.5601 18.8403 46.6161 18.8403C43.517 18.8403 40.2024 16.7628 40.2024 12.1637C40.2024 8.21975 43.0946 5.33185 47.1937 5.33185C51.2928 5.33185 54.1333 8.06458 54.1333 12.2714V17.6334C54.1333 22.5989 51.06 24.5471 47.2454 24.5471C44.0127 24.5471 41.4653 23.1549 40.6507 20.0774H40.6464ZM50.9997 12.168C50.9997 9.88352 49.4738 8.25423 47.1894 8.25423C44.9049 8.25423 43.3532 9.88352 43.3532 12.168C43.3532 14.4524 44.9049 15.9266 47.1894 15.9266C49.4738 15.9266 50.9997 14.4567 50.9997 12.168Z" fill="var(--fill-0, #010000)"/>
<path id="Vector_7" d="M55.5212 12.168C55.5212 8.22405 58.4134 5.33615 62.5125 5.33615C66.6115 5.33615 69.452 8.22836 69.452 12.168V13.2714H58.8056C59.228 15.1636 60.672 16.1636 62.5125 16.1636C63.9047 16.1636 64.9305 15.7714 65.5857 14.9266H68.9219C67.9477 17.3964 65.5857 18.9998 62.5081 18.9998C58.4091 18.9998 55.5168 16.1076 55.5168 12.168H55.5212ZM66.1374 10.7757C65.6374 9.04301 64.2193 8.17233 62.5125 8.17233C60.8056 8.17233 59.3832 9.06456 58.8875 10.7757H66.1417H66.1374Z" fill="var(--fill-0, #010000)"/>
<path id="Vector_8" d="M77.6501 1.46985H90.3181V4.59912H81.0165V8.43529H88.7966V11.4309H81.0165V15.5559H90.3181V18.655H77.6501V1.46985Z" fill="var(--fill-0, #010000)"/>
<path id="Vector_9" d="M91.8699 18.53L97.8138 1.55603H101.603L107.546 18.53H104.288L102.896 14.3576H96.4948L95.081 18.53H91.8699ZM102.059 11.8663L99.7836 5.05599H99.6413L97.3396 11.8663H102.064H102.059Z" fill="var(--fill-0, #010000)" stroke="var(--stroke-0, #010000)" stroke-width="0.215515" stroke-miterlimit="10"/>
<path id="Vector_10" d="M109.258 1.46985H116.275C120.745 1.46985 122.74 3.93965 122.74 7.30599C122.74 10.6723 120.745 13.1421 116.275 13.1421H112.62V18.6593H109.258V1.46985ZM116.327 10.0387C118.559 10.0387 119.322 8.88356 119.322 7.30599C119.322 5.72842 118.559 4.59912 116.327 4.59912H112.62V10.0387H116.327Z" fill="var(--fill-0, #010000)"/>
</g>
</svg>
