<svg preserveAspectRatio="none" width="100%" height="100%" overflow="visible" style="display: block;" viewBox="0 0 21.0367 16.7881" fill="none" xmlns="http://www.w3.org/2000/svg">
<g id="Group">
<path id="Vector" d="M21.0366 3.61334H16.6707V8.7238L20.6846 12.7377C20.9152 11.9932 21.0366 11.1637 21.0366 10.2614V3.61334Z" fill="var(--fill-0, #2B96ED)"/>
<path id="Vector_2" d="M0 6.52262V13.1707H4.36594V8.06021L0.352027 4.04629C0.121389 4.79081 0 5.6203 0 6.52262Z" fill="var(--fill-0, #ED2E77)"/>
<path id="Vector_3" d="M12.5071 4.61682C11.8678 1.67112 9.65853 8.81507e-06 6.35271 8.81507e-06C3.57292 8.81507e-06 1.54977 1.18557 0.602944 3.35438C0.534157 3.51218 0.469416 3.67404 0.412768 3.83993C0.388491 3.90467 0.372306 3.97751 0.352074 4.04629L4.36599 8.06021V6.52262C4.36599 4.92838 5.03363 4.11913 6.35271 4.11913C7.6718 4.11913 8.29088 4.87174 8.33539 6.35672V8.79663L12.5112 4.62087L12.5071 4.61682Z" fill="var(--fill-0, #FFC303)"/>
<path id="Vector_4" d="M16.6707 8.72785V10.2654C16.6707 11.8597 16.0031 12.6689 14.684 12.6689C13.3649 12.6689 12.7458 11.9163 12.7013 10.4313V6.52263C12.7013 6.15037 12.677 5.7862 12.6366 5.43013C12.6285 5.37348 12.6285 5.31683 12.6204 5.26423C12.5921 5.04169 12.5516 4.82723 12.5071 4.62087L8.33134 8.79664V10.2654C8.33134 10.6943 8.35966 11.1192 8.41226 11.5238C8.85331 14.8701 11.1395 16.7881 14.684 16.7881C17.4638 16.7881 19.4829 15.6025 20.4338 13.4337C20.5026 13.2759 20.5673 13.114 20.6239 12.9481C20.6482 12.8834 20.6644 12.8106 20.6846 12.7418L16.6707 8.72785Z" fill="var(--fill-0, #13BFA2)"/>
</g>
</svg>
