<svg preserveAspectRatio="none" width="100%" height="100%" overflow="visible" style="display: block;" viewBox="0 0 95.8605 17.2453" fill="none" xmlns="http://www.w3.org/2000/svg">
<g id="Group">
<path id="Vector" d="M2.93356 7.13766C4.83531 7.08101 6.93129 6.8706 9.06368 6.47002L9.36715 8.94635C6.58735 9.49664 3.88443 9.59375 1.48499 9.59375H0V0.874009H2.92951V7.13766H2.93356ZM6.24342 10.8117V10.3909H9.21339V10.8117C9.19316 12.3897 10.3383 14.3158 14.429 14.8094L13.288 17.0956C10.5487 16.7152 8.73997 15.6672 7.71222 14.2389C6.66423 15.6672 4.85554 16.7314 2.13644 17.132L1.07227 14.8094C5.04976 14.2753 6.25151 12.3735 6.25151 10.8117H6.24342ZM6.85441 2.81623H10.7388V1.10411e-05H13.7088V11.3053H10.7388V5.21567H6.85441V2.81623Z" fill="var(--fill-0, #231916)"/>
<path id="Vector_2" d="M26.572 11.2325L25.0101 13.5551C23.0315 12.7539 21.7569 11.2527 21.0124 9.40357C20.2719 11.4388 18.9771 13.114 16.9782 14.0082L15.3031 11.6493C18.3863 10.318 19.4343 7.17811 19.4141 4.3012V3.99773H16.0638V1.59828H25.7708V3.99773H22.4974V4.3012C22.4771 7.00412 23.4685 9.97409 26.572 11.2284V11.2325ZM26.9928 0H30.0396V17.2088H26.9928V0Z" fill="var(--fill-0, #231916)"/>
<path id="Vector_3" d="M37.0033 1.14105C39.6495 1.12082 41.6079 3.52027 41.6079 7.30759C41.6079 11.0949 39.6455 13.5712 37.0033 13.551C34.3368 13.5712 32.3581 11.192 32.3581 7.30759C32.3581 3.42316 34.3368 1.12082 37.0033 1.14105ZM37.0033 10.8481C38.0513 10.8481 38.7553 9.74345 38.7553 7.30759C38.7553 4.87173 38.0513 3.82374 37.0033 3.84397C35.9189 3.82374 35.231 4.94861 35.2512 7.30759C35.231 9.74345 35.9189 10.8481 37.0033 10.8481ZM46.4837 17.2453H43.4369V0H46.4837V17.2453Z" fill="var(--fill-0, #231916)"/>
<path id="Vector_4" d="M52.27 1.10464C54.3255 1.0844 55.7538 2.94974 56.0573 6.13012H56.9515V0.190175H59.7313V16.4441H56.9515V8.48911H56.0775C55.8307 11.8758 54.3821 13.8747 52.27 13.8949C49.9838 13.8747 48.5029 11.4591 48.5029 7.46135C48.5029 3.46362 49.9878 1.0844 52.27 1.10464ZM52.27 11.0018C52.9942 11.0221 53.3948 10.0105 53.3746 7.46135C53.3948 4.92838 52.9942 3.90062 52.27 3.92085C51.5861 3.90062 51.222 4.92838 51.2422 7.46135C51.222 10.0105 51.5861 11.0221 52.27 11.0018ZM63.3851 17.2088H60.5284V0H63.3851V17.2088Z" fill="var(--fill-0, #231916)"/>
<path id="Vector_5" d="M69.8955 1.14105C72.5418 1.12082 74.5002 3.52027 74.5002 7.30759C74.5002 11.0949 72.5377 13.5712 69.8955 13.551C67.229 13.5712 65.2504 11.192 65.2504 7.30759C65.2504 3.42316 67.229 1.12082 69.8955 1.14105ZM69.8955 10.8481C70.9435 10.8481 71.6476 9.74345 71.6476 7.30759C71.6476 4.87173 70.9435 3.82374 69.8955 3.84397C68.8111 3.82374 68.1232 4.94861 68.1435 7.30759C68.1232 9.74345 68.8111 10.8481 69.8955 10.8481ZM79.376 17.2453H76.3291V0H79.376V17.2453Z" fill="var(--fill-0, #231916)"/>
<path id="Vector_6" d="M82.9893 11.0423V3.76709H81.6945V1.40811H91.4015V3.76709H90.1431V10.7348C90.7541 10.6781 91.3408 10.6215 91.9316 10.5446L92.0854 12.7539C88.4882 13.3446 84.624 13.4215 81.5003 13.4377L81.2332 11.0383H82.9853L82.9893 11.0423ZM87.2177 10.9088V3.76709H85.846V10.9614C86.3032 10.9614 86.7604 10.9412 87.2177 10.9047V10.9088ZM95.8605 17.2088H92.8541V0H95.8605V17.2088Z" fill="var(--fill-0, #231916)"/>
</g>
</svg>
