<svg preserveAspectRatio="none" width="100%" height="100%" overflow="visible" style="display: block;" viewBox="0 0 91.4696 20" fill="none" xmlns="http://www.w3.org/2000/svg">
<g id="Group">
<path id="Vector" d="M42.2806 0.94997H56.1014V4.36403H45.9533V8.54931H54.4414V11.8176H45.9533V16.3179H56.1014V19.6991H42.2806V0.94997Z" fill="var(--fill-0, #010000)"/>
<path id="Vector_2" d="M57.7945 19.5627L64.2793 1.044H68.4129L74.8977 19.5627H71.3426L69.8237 15.0106H62.8404L61.2979 19.5627H57.7945ZM68.9067 12.2925L66.4237 4.86248H66.2685L63.7574 12.2925H68.9114H68.9067Z" fill="var(--fill-0, #010000)" stroke="var(--stroke-0, #010000)" stroke-width="0.237548" stroke-miterlimit="10"/>
<path id="Vector_3" d="M76.76 0.94997H84.4157C89.2923 0.94997 91.4696 3.64454 91.4696 7.31724C91.4696 10.9899 89.2923 13.6845 84.4157 13.6845H80.428V19.7038H76.76V0.94997ZM84.4722 10.2987C86.9081 10.2987 87.7404 9.03838 87.7404 7.31724C87.7404 5.5961 86.9081 4.36403 84.4722 4.36403H80.428V10.2987H84.4722Z" fill="var(--fill-0, #010000)"/>
<g id="Group_2">
<path id="Vector_4" d="M3.40936 8.29532C5.61956 8.22948 8.05549 7.98495 10.5337 7.5194L10.8864 10.3974C7.65577 11.0369 4.51446 11.1498 1.72584 11.1498H0V1.01575H3.40466V8.29532H3.40936ZM7.26076 12.5652V12.0809H10.7124V12.5652C10.6889 14.3992 12.0198 16.6377 16.774 17.2114L15.4479 19.8683C12.2643 19.4263 10.1622 18.2083 8.96779 16.5483C7.74982 18.2083 5.64778 19.4451 2.48766 19.9106L1.25088 17.2114C5.8735 16.5906 7.27016 14.3804 7.27016 12.5652H7.26076ZM7.96614 3.27298H12.4806V0H15.9323V13.139H12.4806V6.0616H7.96614V3.27298Z" fill="var(--fill-0, #231916)"/>
<path id="Vector_5" d="M30.8864 13.0543L29.0712 15.7536C26.7717 14.8225 25.2903 13.0778 24.4251 10.9288C23.5645 13.2941 22.0597 15.241 19.7366 16.2803L17.7898 13.5387C21.3731 11.9915 22.5911 8.34235 22.5676 4.99882V4.64613H18.6738V1.85751H29.9553V4.64613H26.1509V4.99882C26.1274 8.14014 27.2795 11.5918 30.8864 13.0496V13.0543ZM31.3708 0H34.9118V20H31.3708V0Z" fill="var(--fill-0, #231916)"/>
</g>
</g>
</svg>
