<svg preserveAspectRatio="none" width="100%" height="100%" overflow="visible" style="display: block;" viewBox="0 0 24.4489 19.5109" fill="none" xmlns="http://www.w3.org/2000/svg">
<g id="Group">
<path id="Vector" d="M24.4489 4.20404H19.3748V10.1434L24.0397 14.8083C24.3078 13.9431 24.4489 12.979 24.4489 11.9304V4.20404Z" fill="var(--fill-0, var(--semantic-icon-brand-default))"/>
<path id="Vector_2" d="M0 7.58048V15.3068H5.07407V9.36746L0.409123 4.70251C0.141077 5.56779 0 6.53181 0 7.58048Z" fill="var(--fill-0, #ED2E77)"/>
<path id="Vector_3" d="M14.5354 5.37033C13.7924 1.94686 11.2248 0 7.38278 0C4.15212 0 1.80084 1.37785 0.700436 3.89842C0.620493 4.08182 0.545252 4.26993 0.479416 4.46273C0.451201 4.53797 0.43239 4.62262 0.408878 4.70256L5.07382 9.3675V7.58053C5.07382 5.72772 5.84974 4.78721 7.38278 4.78721C8.91581 4.78721 9.63531 5.66188 9.68703 7.38773V10.2234L14.5401 5.37033H14.5354Z" fill="var(--fill-0, #FFC303)"/>
<path id="Vector_4" d="M19.3746 10.1434V11.9304C19.3746 13.7832 18.5986 14.7237 17.0656 14.7237C15.5326 14.7237 14.8131 13.849 14.7613 12.1232V7.5805C14.7613 7.14786 14.7331 6.72463 14.6861 6.31081C14.6767 6.24497 14.6767 6.17913 14.6673 6.118C14.6344 5.85936 14.5873 5.61012 14.5356 5.37029L9.68257 10.2233V11.9304C9.68257 12.4288 9.71549 12.9226 9.77662 13.3929C10.2892 17.2819 12.9461 19.5109 17.0656 19.5109C20.2963 19.5109 22.6428 18.1331 23.7479 15.6125C23.8279 15.4291 23.9031 15.241 23.969 15.0482C23.9972 14.9729 24.016 14.8883 24.0395 14.8083L19.3746 10.1434Z" fill="var(--fill-0, #13BFA2)"/>
</g>
</svg>
