<svg preserveAspectRatio="none" width="100%" height="100%" overflow="visible" style="display: block;" viewBox="0 0 60 60" fill="none" xmlns="http://www.w3.org/2000/svg">
<g id="Logo">
<path id="Vector" fill-rule="evenodd" clip-rule="evenodd" d="M58.8 30.6817C58.8 28.5545 58.6091 26.509 58.2545 24.5454H30V36.1499H46.1455C45.45 39.8999 43.3364 43.0772 40.1591 45.2045V52.7317H49.8545C55.5273 47.509 58.8 39.8181 58.8 30.6817Z" fill="var(--fill-0, #4285F4)"/>
<path id="Vector_2" fill-rule="evenodd" clip-rule="evenodd" d="M29.9998 59.9995C38.0998 59.9995 44.8907 57.3132 49.8543 52.7313L40.1589 45.2041C37.4725 47.0041 34.0361 48.0677 29.9998 48.0677C22.1861 48.0677 15.5725 42.7904 13.2134 35.6995H3.19069V43.4722C8.12706 53.2768 18.2725 59.9995 29.9998 59.9995Z" fill="var(--fill-0, #34A853)"/>
<path id="Vector_3" fill-rule="evenodd" clip-rule="evenodd" d="M13.2136 35.7003C12.6136 33.9003 12.2727 31.9776 12.2727 30.0003C12.2727 28.023 12.6136 26.1003 13.2136 24.3003V16.5276H3.19091C1.15909 20.5776 0 25.1594 0 30.0003C0 34.8412 1.15909 39.423 3.19091 43.473L13.2136 35.7003Z" fill="var(--fill-0, #FBBC05)"/>
<path id="Vector_4" fill-rule="evenodd" clip-rule="evenodd" d="M29.9998 11.9318C34.4043 11.9318 38.3589 13.4455 41.468 16.4182L50.0725 7.81364C44.8771 2.97273 38.0861 0 29.9998 0C18.2725 0 8.12706 6.72273 3.19069 16.5273L13.2134 24.3C15.5725 17.2091 22.1861 11.9318 29.9998 11.9318Z" fill="var(--fill-0, #EA4335)"/>
<g id="Vector_5">
</g>
</g>
</svg>
