<svg preserveAspectRatio="none" width="100%" height="100%" overflow="visible" style="display: block;" viewBox="0 0 50 59.3598" fill="none" xmlns="http://www.w3.org/2000/svg">
<path id="Logo" d="M48.9521 46.2593C48.0544 48.3332 46.9918 50.2422 45.7607 51.9973C44.0825 54.3899 42.7085 56.0461 41.6496 56.9658C40.0081 58.4754 38.2493 59.2485 36.366 59.2924C35.0139 59.2924 33.3834 58.9077 31.4854 58.1273C29.5812 57.3505 27.8312 56.9658 26.2311 56.9658C24.553 56.9658 22.7532 57.3505 20.8281 58.1273C18.9 58.9077 17.3468 59.3144 16.1593 59.3547C14.3533 59.4317 12.5531 58.6366 10.7563 56.9658C9.60941 55.9655 8.17492 54.2507 6.45647 51.8214C4.61271 49.2272 3.09688 46.219 1.90935 42.7894C0.637549 39.0851 0 35.4979 0 32.0251C0 28.047 0.859593 24.616 2.58134 21.7408C3.93449 19.4313 5.73465 17.6096 7.98769 16.2722C10.2407 14.9348 12.6751 14.2533 15.2968 14.2097C16.7313 14.2097 18.6124 14.6534 20.9501 15.5254C23.2812 16.4004 24.778 16.8441 25.4342 16.8441C25.9248 16.8441 27.5876 16.3253 30.4063 15.2909C33.072 14.3317 35.3217 13.9345 37.1647 14.0909C42.1589 14.494 45.9109 16.4627 48.4061 20.0095C43.9396 22.7158 41.7302 26.5063 41.7741 31.3689C41.8144 35.1564 43.1885 38.3083 45.8889 40.8108C47.1127 41.9724 48.4794 42.8701 50 43.5076C49.6702 44.4639 49.3221 45.3799 48.9521 46.2593ZM37.4982 1.18753C37.4982 4.1562 36.4136 6.92804 34.2518 9.49362C31.643 12.5436 28.4875 14.306 25.0656 14.0279C25.022 13.6718 24.9967 13.2969 24.9967 12.903C24.9967 10.0531 26.2374 7.00315 28.4406 4.50938C29.5405 3.24674 30.9395 2.19688 32.6359 1.35938C34.3287 0.534375 35.9299 0.0781299 37.4359 0C37.4799 0.396865 37.4982 0.793793 37.4982 1.18753Z" fill="var(--fill-0, black)"/>
</svg>
