<?xml version="1.0" encoding="utf-8" ?>
<svg xmlns="http://www.w3.org/2000/svg" width="1024" height="1024" viewBox="0 0 1024 1024">
  <!-- macOS 표준: 1024 캔버스에 824 스퀘어(여백 100) + 투명 배경. 모서리 밖은 투명. -->
  <rect x="100" y="100" width="824" height="824" rx="185" ry="185" fill="#1e1e1e"/>
  <g transform="translate(190.8,187.3) scale(0.88)" fill="#ffffff">
    <path transform="translate(-147 0)" d="M655.747 118.708C660.818 117.954 679.625 118.316 685.11 118.543C685.272 124.633 684.908 132.099 684.905 138.451L684.674 205.57L684.744 246.255C684.774 250.939 685.297 263.822 684.596 267.675C684.196 267.624 683.795 267.575 683.394 267.531C648.994 263.712 605.781 273.498 576.138 291.051C564.031 298.221 552.709 307.552 541.71 316.292C577.596 315.825 613.624 316.75 649.526 316.393C661.292 316.276 673.327 316.241 685.087 316.537L684.898 403.67C684.919 425.031 685.431 448.281 684.946 469.499C670.351 470.076 651.928 469.571 637.108 469.567L542.477 469.479C541.82 428.264 542.828 386.769 542.435 345.532C542.346 336.106 542.894 326.13 541.921 316.796C507.64 347.185 485.979 389.308 481.206 434.87C479.168 452.528 479.946 472.794 479.941 490.884L479.875 581.372C479.844 586.875 480.646 616.797 478.749 619.884C475.221 620.496 468.845 620.242 464.986 620.253L440.634 620.321C407.441 620.404 372.627 619.71 339.612 620.471C339.406 610.614 339.824 598.991 339.819 588.884L339.841 506.694C339.885 482.287 339.015 448.042 340.904 424.346C346.897 352.457 375.929 284.422 423.683 230.353C465.443 182.392 526.56 143.367 588.46 127.979C610.958 122.386 632.738 120.27 655.747 118.708Z"/>
  </g>
</svg>
